<?xml version="1.0" encoding="utf-8" standalone="no"?>
<!DOCTYPE svg PUBLIC "-//W3C//DTD SVG 1.1//EN"
  "http://www.w3.org/Graphics/SVG/1.1/DTD/svg11.dtd">
<svg xmlns:xlink="http://www.w3.org/1999/xlink" width="360pt" height="288pt" viewBox="0 0 360 288" xmlns="http://www.w3.org/2000/svg" version="1.1">
 <metadata>
  <rdf:RDF xmlns:dc="http://purl.org/dc/elements/1.1/" xmlns:cc="http://creativecommons.org/ns#" xmlns:rdf="http://www.w3.org/1999/02/22-rdf-syntax-ns#">
   <cc:Work>
    <dc:type rdf:resource="http://purl.org/dc/dcmitype/StillImage"/>
    <dc:date>2023-04-12T14:32:09.711389</dc:date>
    <dc:format>image/svg+xml</dc:format>
    <dc:creator>
     <cc:Agent>
      <dc:title>Matplotlib v3.6.2, https://matplotlib.org/</dc:title>
     </cc:Agent>
    </dc:creator>
   </cc:Work>
  </rdf:RDF>
 </metadata>
 <defs>
  <style type="text/css">*{stroke-linejoin: round; stroke-linecap: butt}</style>
 </defs>
 <g id="figure_1">
  <g id="patch_1">
   <path d="M 0 288 
L 360 288 
L 360 0 
L 0 0 
z
" style="fill: #ffffff"/>
  </g>
  <g id="axes_1">
   <g id="patch_2">
    <path d="M 45 256.32 
L 324 256.32 
L 324 34.56 
L 45 34.56 
z
" style="fill: #ffffff"/>
   </g>
   <g id="matplotlib.axis_1">
    <g id="xtick_1">
     <g id="line2d_1">
      <defs>
       <path id="ma88c27d094" d="M 0 0 
L 0 3.5 
" style="stroke: #000000; stroke-width: 0.8"/>
      </defs>
      <g>
       <use xlink:href="#ma88c27d094" x="57.681818" y="256.32" style="stroke: #000000; stroke-width: 0.8"/>
      </g>
     </g>
     <g id="text_1">
      <!-- 0.0 -->
      <g transform="translate(49.730256 270.918437) scale(0.1 -0.1)">
       <defs>
        <path id="DejaVuSans-30" d="M 2034 4250 
Q 1547 4250 1301 3770 
Q 1056 3291 1056 2328 
Q 1056 1369 1301 889 
Q 1547 409 2034 409 
Q 2525 409 2770 889 
Q 3016 1369 3016 2328 
Q 3016 3291 2770 3770 
Q 2525 4250 2034 4250 
z
M 2034 4750 
Q 2819 4750 3233 4129 
Q 3647 3509 3647 2328 
Q 3647 1150 3233 529 
Q 2819 -91 2034 -91 
Q 1250 -91 836 529 
Q 422 1150 422 2328 
Q 422 3509 836 4129 
Q 1250 4750 2034 4750 
z
" transform="scale(0.015625)"/>
        <path id="DejaVuSans-2e" d="M 684 794 
L 1344 794 
L 1344 0 
L 684 0 
L 684 794 
z
" transform="scale(0.015625)"/>
       </defs>
       <use xlink:href="#DejaVuSans-30"/>
       <use xlink:href="#DejaVuSans-2e" x="63.623047"/>
       <use xlink:href="#DejaVuSans-30" x="95.410156"/>
      </g>
     </g>
    </g>
    <g id="xtick_2">
     <g id="line2d_2">
      <g>
       <use xlink:href="#ma88c27d094" x="108.409091" y="256.32" style="stroke: #000000; stroke-width: 0.8"/>
      </g>
     </g>
     <g id="text_2">
      <!-- 0.2 -->
      <g transform="translate(100.457528 270.918437) scale(0.1 -0.1)">
       <defs>
        <path id="DejaVuSans-32" d="M 1228 531 
L 3431 531 
L 3431 0 
L 469 0 
L 469 531 
Q 828 903 1448 1529 
Q 2069 2156 2228 2338 
Q 2531 2678 2651 2914 
Q 2772 3150 2772 3378 
Q 2772 3750 2511 3984 
Q 2250 4219 1831 4219 
Q 1534 4219 1204 4116 
Q 875 4013 500 3803 
L 500 4441 
Q 881 4594 1212 4672 
Q 1544 4750 1819 4750 
Q 2544 4750 2975 4387 
Q 3406 4025 3406 3419 
Q 3406 3131 3298 2873 
Q 3191 2616 2906 2266 
Q 2828 2175 2409 1742 
Q 1991 1309 1228 531 
z
" transform="scale(0.015625)"/>
       </defs>
       <use xlink:href="#DejaVuSans-30"/>
       <use xlink:href="#DejaVuSans-2e" x="63.623047"/>
       <use xlink:href="#DejaVuSans-32" x="95.410156"/>
      </g>
     </g>
    </g>
    <g id="xtick_3">
     <g id="line2d_3">
      <g>
       <use xlink:href="#ma88c27d094" x="159.136364" y="256.32" style="stroke: #000000; stroke-width: 0.8"/>
      </g>
     </g>
     <g id="text_3">
      <!-- 0.4 -->
      <g transform="translate(151.184801 270.918437) scale(0.1 -0.1)">
       <defs>
        <path id="DejaVuSans-34" d="M 2419 4116 
L 825 1625 
L 2419 1625 
L 2419 4116 
z
M 2253 4666 
L 3047 4666 
L 3047 1625 
L 3713 1625 
L 3713 1100 
L 3047 1100 
L 3047 0 
L 2419 0 
L 2419 1100 
L 313 1100 
L 313 1709 
L 2253 4666 
z
" transform="scale(0.015625)"/>
       </defs>
       <use xlink:href="#DejaVuSans-30"/>
       <use xlink:href="#DejaVuSans-2e" x="63.623047"/>
       <use xlink:href="#DejaVuSans-34" x="95.410156"/>
      </g>
     </g>
    </g>
    <g id="xtick_4">
     <g id="line2d_4">
      <g>
       <use xlink:href="#ma88c27d094" x="209.863636" y="256.32" style="stroke: #000000; stroke-width: 0.8"/>
      </g>
     </g>
     <g id="text_4">
      <!-- 0.6 -->
      <g transform="translate(201.912074 270.918437) scale(0.1 -0.1)">
       <defs>
        <path id="DejaVuSans-36" d="M 2113 2584 
Q 1688 2584 1439 2293 
Q 1191 2003 1191 1497 
Q 1191 994 1439 701 
Q 1688 409 2113 409 
Q 2538 409 2786 701 
Q 3034 994 3034 1497 
Q 3034 2003 2786 2293 
Q 2538 2584 2113 2584 
z
M 3366 4563 
L 3366 3988 
Q 3128 4100 2886 4159 
Q 2644 4219 2406 4219 
Q 1781 4219 1451 3797 
Q 1122 3375 1075 2522 
Q 1259 2794 1537 2939 
Q 1816 3084 2150 3084 
Q 2853 3084 3261 2657 
Q 3669 2231 3669 1497 
Q 3669 778 3244 343 
Q 2819 -91 2113 -91 
Q 1303 -91 875 529 
Q 447 1150 447 2328 
Q 447 3434 972 4092 
Q 1497 4750 2381 4750 
Q 2619 4750 2861 4703 
Q 3103 4656 3366 4563 
z
" transform="scale(0.015625)"/>
       </defs>
       <use xlink:href="#DejaVuSans-30"/>
       <use xlink:href="#DejaVuSans-2e" x="63.623047"/>
       <use xlink:href="#DejaVuSans-36" x="95.410156"/>
      </g>
     </g>
    </g>
    <g id="xtick_5">
     <g id="line2d_5">
      <g>
       <use xlink:href="#ma88c27d094" x="260.590909" y="256.32" style="stroke: #000000; stroke-width: 0.8"/>
      </g>
     </g>
     <g id="text_5">
      <!-- 0.8 -->
      <g transform="translate(252.639347 270.918437) scale(0.1 -0.1)">
       <defs>
        <path id="DejaVuSans-38" d="M 2034 2216 
Q 1584 2216 1326 1975 
Q 1069 1734 1069 1313 
Q 1069 891 1326 650 
Q 1584 409 2034 409 
Q 2484 409 2743 651 
Q 3003 894 3003 1313 
Q 3003 1734 2745 1975 
Q 2488 2216 2034 2216 
z
M 1403 2484 
Q 997 2584 770 2862 
Q 544 3141 544 3541 
Q 544 4100 942 4425 
Q 1341 4750 2034 4750 
Q 2731 4750 3128 4425 
Q 3525 4100 3525 3541 
Q 3525 3141 3298 2862 
Q 3072 2584 2669 2484 
Q 3125 2378 3379 2068 
Q 3634 1759 3634 1313 
Q 3634 634 3220 271 
Q 2806 -91 2034 -91 
Q 1263 -91 848 271 
Q 434 634 434 1313 
Q 434 1759 690 2068 
Q 947 2378 1403 2484 
z
M 1172 3481 
Q 1172 3119 1398 2916 
Q 1625 2713 2034 2713 
Q 2441 2713 2670 2916 
Q 2900 3119 2900 3481 
Q 2900 3844 2670 4047 
Q 2441 4250 2034 4250 
Q 1625 4250 1398 4047 
Q 1172 3844 1172 3481 
z
" transform="scale(0.015625)"/>
       </defs>
       <use xlink:href="#DejaVuSans-30"/>
       <use xlink:href="#DejaVuSans-2e" x="63.623047"/>
       <use xlink:href="#DejaVuSans-38" x="95.410156"/>
      </g>
     </g>
    </g>
    <g id="xtick_6">
     <g id="line2d_6">
      <g>
       <use xlink:href="#ma88c27d094" x="311.318182" y="256.32" style="stroke: #000000; stroke-width: 0.8"/>
      </g>
     </g>
     <g id="text_6">
      <!-- 1.0 -->
      <g transform="translate(303.366619 270.918437) scale(0.1 -0.1)">
       <defs>
        <path id="DejaVuSans-31" d="M 794 531 
L 1825 531 
L 1825 4091 
L 703 3866 
L 703 4441 
L 1819 4666 
L 2450 4666 
L 2450 531 
L 3481 531 
L 3481 0 
L 794 0 
L 794 531 
z
" transform="scale(0.015625)"/>
       </defs>
       <use xlink:href="#DejaVuSans-31"/>
       <use xlink:href="#DejaVuSans-2e" x="63.623047"/>
       <use xlink:href="#DejaVuSans-30" x="95.410156"/>
      </g>
     </g>
    </g>
    <g id="text_7">
     <!-- FPR -->
     <g transform="translate(175.135156 284.596563) scale(0.1 -0.1)">
      <defs>
       <path id="DejaVuSans-46" d="M 628 4666 
L 3309 4666 
L 3309 4134 
L 1259 4134 
L 1259 2759 
L 3109 2759 
L 3109 2228 
L 1259 2228 
L 1259 0 
L 628 0 
L 628 4666 
z
" transform="scale(0.015625)"/>
       <path id="DejaVuSans-50" d="M 1259 4147 
L 1259 2394 
L 2053 2394 
Q 2494 2394 2734 2622 
Q 2975 2850 2975 3272 
Q 2975 3691 2734 3919 
Q 2494 4147 2053 4147 
L 1259 4147 
z
M 628 4666 
L 2053 4666 
Q 2838 4666 3239 4311 
Q 3641 3956 3641 3272 
Q 3641 2581 3239 2228 
Q 2838 1875 2053 1875 
L 1259 1875 
L 1259 0 
L 628 0 
L 628 4666 
z
" transform="scale(0.015625)"/>
       <path id="DejaVuSans-52" d="M 2841 2188 
Q 3044 2119 3236 1894 
Q 3428 1669 3622 1275 
L 4263 0 
L 3584 0 
L 2988 1197 
Q 2756 1666 2539 1819 
Q 2322 1972 1947 1972 
L 1259 1972 
L 1259 0 
L 628 0 
L 628 4666 
L 2053 4666 
Q 2853 4666 3247 4331 
Q 3641 3997 3641 3322 
Q 3641 2881 3436 2590 
Q 3231 2300 2841 2188 
z
M 1259 4147 
L 1259 2491 
L 2053 2491 
Q 2509 2491 2742 2702 
Q 2975 2913 2975 3322 
Q 2975 3731 2742 3939 
Q 2509 4147 2053 4147 
L 1259 4147 
z
" transform="scale(0.015625)"/>
      </defs>
      <use xlink:href="#DejaVuSans-46"/>
      <use xlink:href="#DejaVuSans-50" x="57.519531"/>
      <use xlink:href="#DejaVuSans-52" x="117.822266"/>
     </g>
    </g>
   </g>
   <g id="matplotlib.axis_2">
    <g id="ytick_1">
     <g id="line2d_7">
      <defs>
       <path id="m83a2fba40d" d="M 0 0 
L -3.5 0 
" style="stroke: #000000; stroke-width: 0.8"/>
      </defs>
      <g>
       <use xlink:href="#m83a2fba40d" x="45" y="246.24" style="stroke: #000000; stroke-width: 0.8"/>
      </g>
     </g>
     <g id="text_8">
      <!-- 0.0 -->
      <g transform="translate(22.096875 250.039219) scale(0.1 -0.1)">
       <use xlink:href="#DejaVuSans-30"/>
       <use xlink:href="#DejaVuSans-2e" x="63.623047"/>
       <use xlink:href="#DejaVuSans-30" x="95.410156"/>
      </g>
     </g>
    </g>
    <g id="ytick_2">
     <g id="line2d_8">
      <g>
       <use xlink:href="#m83a2fba40d" x="45" y="205.92" style="stroke: #000000; stroke-width: 0.8"/>
      </g>
     </g>
     <g id="text_9">
      <!-- 0.2 -->
      <g transform="translate(22.096875 209.719219) scale(0.1 -0.1)">
       <use xlink:href="#DejaVuSans-30"/>
       <use xlink:href="#DejaVuSans-2e" x="63.623047"/>
       <use xlink:href="#DejaVuSans-32" x="95.410156"/>
      </g>
     </g>
    </g>
    <g id="ytick_3">
     <g id="line2d_9">
      <g>
       <use xlink:href="#m83a2fba40d" x="45" y="165.6" style="stroke: #000000; stroke-width: 0.8"/>
      </g>
     </g>
     <g id="text_10">
      <!-- 0.4 -->
      <g transform="translate(22.096875 169.399219) scale(0.1 -0.1)">
       <use xlink:href="#DejaVuSans-30"/>
       <use xlink:href="#DejaVuSans-2e" x="63.623047"/>
       <use xlink:href="#DejaVuSans-34" x="95.410156"/>
      </g>
     </g>
    </g>
    <g id="ytick_4">
     <g id="line2d_10">
      <g>
       <use xlink:href="#m83a2fba40d" x="45" y="125.28" style="stroke: #000000; stroke-width: 0.8"/>
      </g>
     </g>
     <g id="text_11">
      <!-- 0.6 -->
      <g transform="translate(22.096875 129.079219) scale(0.1 -0.1)">
       <use xlink:href="#DejaVuSans-30"/>
       <use xlink:href="#DejaVuSans-2e" x="63.623047"/>
       <use xlink:href="#DejaVuSans-36" x="95.410156"/>
      </g>
     </g>
    </g>
    <g id="ytick_5">
     <g id="line2d_11">
      <g>
       <use xlink:href="#m83a2fba40d" x="45" y="84.96" style="stroke: #000000; stroke-width: 0.8"/>
      </g>
     </g>
     <g id="text_12">
      <!-- 0.8 -->
      <g transform="translate(22.096875 88.759219) scale(0.1 -0.1)">
       <use xlink:href="#DejaVuSans-30"/>
       <use xlink:href="#DejaVuSans-2e" x="63.623047"/>
       <use xlink:href="#DejaVuSans-38" x="95.410156"/>
      </g>
     </g>
    </g>
    <g id="ytick_6">
     <g id="line2d_12">
      <g>
       <use xlink:href="#m83a2fba40d" x="45" y="44.64" style="stroke: #000000; stroke-width: 0.8"/>
      </g>
     </g>
     <g id="text_13">
      <!-- 1.0 -->
      <g transform="translate(22.096875 48.439219) scale(0.1 -0.1)">
       <use xlink:href="#DejaVuSans-31"/>
       <use xlink:href="#DejaVuSans-2e" x="63.623047"/>
       <use xlink:href="#DejaVuSans-30" x="95.410156"/>
      </g>
     </g>
    </g>
    <g id="text_14">
     <!-- TPR -->
     <g transform="translate(16.017187 154.982969) rotate(-90) scale(0.1 -0.1)">
      <defs>
       <path id="DejaVuSans-54" d="M -19 4666 
L 3928 4666 
L 3928 4134 
L 2272 4134 
L 2272 0 
L 1638 0 
L 1638 4134 
L -19 4134 
L -19 4666 
z
" transform="scale(0.015625)"/>
      </defs>
      <use xlink:href="#DejaVuSans-54"/>
      <use xlink:href="#DejaVuSans-50" x="61.083984"/>
      <use xlink:href="#DejaVuSans-52" x="121.386719"/>
     </g>
    </g>
   </g>
   <g id="line2d_13">
    <path d="M 57.681818 246.24 
L 57.681818 233.173333 
L 57.681818 229.44 
L 57.681818 227.573333 
L 57.681818 224.773333 
L 57.681818 221.973333 
L 57.681818 218.24 
L 57.681818 217.306667 
L 57.681818 211.706667 
L 57.681818 205.173333 
L 57.681818 202.373333 
L 57.681818 192.106667 
L 57.681818 190.24 
L 57.681818 172.506667 
L 57.950501 172.506667 
L 57.950501 169.706667 
L 57.950501 167.84 
L 57.950501 147.306667 
L 58.487866 147.306667 
L 58.487866 139.84 
L 58.756549 139.84 
L 58.756549 134.24 
L 59.025231 134.24 
L 59.025231 129.573333 
L 59.293914 129.573333 
L 59.293914 126.773333 
L 59.831279 126.773333 
L 59.831279 124.906667 
L 60.099961 124.906667 
L 60.099961 115.573333 
L 60.368644 115.573333 
L 60.368644 114.64 
L 61.174692 114.64 
L 61.174692 110.906667 
L 61.443374 110.906667 
L 61.443374 109.973333 
L 61.712057 109.973333 
L 61.712057 106.24 
L 62.518105 106.24 
L 62.518105 105.306667 
L 62.786787 105.306667 
L 62.786787 102.506667 
L 63.05547 102.506667 
L 63.05547 101.573333 
L 63.861518 101.573333 
L 63.861518 96.906667 
L 64.398883 96.906667 
L 64.398883 95.973333 
L 65.204931 95.973333 
L 65.204931 93.173333 
L 65.473613 93.173333 
L 65.473613 88.506667 
L 65.742296 88.506667 
L 65.742296 87.573333 
L 67.891757 87.573333 
L 67.891757 86.64 
L 68.429122 86.64 
L 68.429122 84.773333 
L 68.697804 84.773333 
L 68.697804 82.906667 
L 68.966487 82.906667 
L 68.966487 78.24 
L 69.503852 78.24 
L 69.503852 76.373333 
L 70.3099 76.373333 
L 70.3099 75.44 
L 70.578582 75.44 
L 70.578582 72.64 
L 71.115948 72.64 
L 71.115948 71.706667 
L 71.38463 71.706667 
L 71.38463 68.906667 
L 72.459361 68.906667 
L 72.459361 67.04 
L 73.802773 67.04 
L 73.802773 66.106667 
L 77.026965 66.106667 
L 77.026965 65.173333 
L 77.56433 65.173333 
L 77.56433 64.24 
L 78.101695 64.24 
L 78.101695 63.306667 
L 79.445108 63.306667 
L 79.445108 62.373333 
L 79.71379 62.373333 
L 79.71379 57.706667 
L 80.251156 57.706667 
L 80.251156 55.84 
L 82.131934 55.84 
L 82.131934 54.906667 
L 85.356125 54.906667 
L 85.356125 53.973333 
L 86.699538 53.973333 
L 86.699538 53.04 
L 87.236903 53.04 
L 87.236903 52.106667 
L 89.386364 52.106667 
L 89.386364 51.173333 
L 93.685285 51.173333 
L 93.685285 50.24 
L 100.133667 50.24 
L 100.133667 49.306667 
L 104.163906 49.306667 
L 104.163906 48.373333 
L 111.418336 48.373333 
L 111.418336 47.44 
L 112.761749 47.44 
L 112.761749 46.506667 
L 114.642527 46.506667 
L 114.642527 45.573333 
L 147.959168 45.573333 
L 147.959168 44.64 
L 311.318182 44.64 
" clip-path="url(#p3edcdb1135)" style="fill: none; stroke: #1f77b4; stroke-width: 1.5; stroke-linecap: square"/>
   </g>
   <g id="line2d_14">
    <path d="M 57.681818 246.24 
L 57.681818 203.593846 
L 58.113173 202.888951 
L 58.544527 202.536503 
L 58.544527 184.561678 
L 58.975881 184.209231 
L 58.975881 163.767273 
L 59.407236 163.767273 
L 59.407236 139.800839 
L 59.83859 139.800839 
L 59.83859 133.809231 
L 60.269944 133.809231 
L 60.269944 124.998042 
L 60.701299 124.998042 
L 60.701299 124.293147 
L 61.132653 124.293147 
L 61.132653 123.588252 
L 61.564007 123.588252 
L 61.564007 107.728112 
L 61.995362 107.728112 
L 61.995362 92.925315 
L 62.858071 92.925315 
L 62.858071 92.22042 
L 63.289425 92.22042 
L 63.289425 87.991049 
L 63.720779 87.991049 
L 63.720779 85.876364 
L 64.152134 85.876364 
L 64.152134 83.056783 
L 64.583488 83.056783 
L 64.583488 82.704336 
L 65.014842 82.704336 
L 65.014842 81.294545 
L 65.446197 81.294545 
L 65.446197 80.942098 
L 65.877551 80.942098 
L 65.877551 80.58965 
L 66.308905 80.58965 
L 66.308905 79.884755 
L 66.74026 79.884755 
L 66.74026 76.712727 
L 67.171614 76.712727 
L 67.171614 76.36028 
L 68.034323 76.36028 
L 68.034323 74.598042 
L 68.897032 74.598042 
L 68.897032 71.073566 
L 69.328386 71.073566 
L 69.328386 70.368671 
L 69.75974 70.368671 
L 69.75974 69.311329 
L 71.053803 69.311329 
L 71.053803 67.901538 
L 71.485158 67.901538 
L 71.485158 66.844196 
L 72.347866 66.844196 
L 72.347866 66.139301 
L 72.779221 66.139301 
L 72.779221 64.024615 
L 74.073284 64.024615 
L 74.073284 60.852587 
L 74.504638 60.852587 
L 74.504638 60.147692 
L 75.367347 60.147692 
L 75.367347 58.385455 
L 77.092764 58.385455 
L 77.092764 58.033007 
L 77.955473 58.033007 
L 77.955473 57.680559 
L 78.818182 57.680559 
L 78.818182 57.328112 
L 79.249536 57.328112 
L 79.249536 56.975664 
L 79.680891 56.975664 
L 79.680891 56.623217 
L 80.112245 56.623217 
L 80.112245 55.918322 
L 80.543599 55.918322 
L 80.543599 55.213427 
L 80.974954 55.213427 
L 80.974954 54.860979 
L 82.700371 54.860979 
L 82.700371 53.803636 
L 83.131725 53.803636 
L 83.131725 53.098741 
L 83.56308 53.098741 
L 83.56308 51.336503 
L 86.151206 51.336503 
L 86.151206 50.984056 
L 86.58256 50.984056 
L 86.58256 50.279161 
L 89.602041 50.279161 
L 89.602041 49.926713 
L 92.621521 49.926713 
L 92.621521 49.221818 
L 93.052876 49.221818 
L 93.052876 48.869371 
L 93.915584 48.869371 
L 93.915584 48.516923 
L 96.503711 48.516923 
L 96.503711 48.164476 
L 102.111317 48.164476 
L 102.111317 47.45958 
L 103.40538 47.45958 
L 103.40538 47.107133 
L 109.875696 47.107133 
L 109.875696 46.754685 
L 116.777365 46.754685 
L 116.777365 46.402238 
L 132.737477 46.402238 
L 132.737477 46.04979 
L 137.913729 46.04979 
L 137.913729 45.697343 
L 157.75603 45.697343 
L 157.75603 45.344895 
L 224.184601 45.344895 
L 224.184601 44.992448 
L 256.967532 44.992448 
L 256.967532 44.64 
L 311.318182 44.64 
L 311.318182 44.64 
" clip-path="url(#p3edcdb1135)" style="fill: none; stroke: #ff7f0e; stroke-width: 1.5; stroke-linecap: square"/>
   </g>
   <g id="line2d_15">
    <path d="M 57.681818 246.24 
L 57.681818 243.478356 
L 57.681818 116.44274 
L 57.915154 116.44274 
L 57.915154 108.157808 
L 58.14849 108.157808 
L 58.14849 105.396164 
L 58.381827 105.396164 
L 58.381827 102.634521 
L 59.081835 102.634521 
L 59.081835 99.872877 
L 59.548507 99.872877 
L 59.548507 91.587945 
L 60.015179 91.587945 
L 60.015179 88.826301 
L 60.248516 88.826301 
L 60.248516 83.303014 
L 60.481852 83.303014 
L 60.481852 80.54137 
L 61.648532 80.54137 
L 61.648532 75.018082 
L 62.581877 75.018082 
L 62.581877 72.256438 
L 64.915238 72.256438 
L 64.915238 69.494795 
L 66.081919 69.494795 
L 66.081919 61.209863 
L 67.015263 61.209863 
L 67.015263 58.448219 
L 78.448733 58.448219 
L 78.448733 55.686575 
L 79.148741 55.686575 
L 79.148741 52.924932 
L 80.082086 52.924932 
L 80.082086 50.163288 
L 81.482103 50.163288 
L 81.482103 47.401644 
L 89.648867 47.401644 
L 89.648867 44.64 
L 311.318182 44.64 
" clip-path="url(#p3edcdb1135)" style="fill: none; stroke: #2ca02c; stroke-width: 1.5; stroke-linecap: square"/>
   </g>
   <g id="line2d_16">
    <path d="M 57.681818 246.24 
L 57.681818 196.985455 
L 57.939579 196.985455 
L 57.939579 169.494545 
L 58.197339 169.494545 
L 58.197339 167.203636 
L 58.4551 167.203636 
L 58.4551 166.058182 
L 58.71286 166.058182 
L 58.71286 164.912727 
L 59.228381 164.912727 
L 59.228381 153.458182 
L 59.486142 153.458182 
L 59.486142 151.167273 
L 59.743902 151.167273 
L 59.743902 148.876364 
L 60.001663 148.876364 
L 60.001663 147.730909 
L 60.259424 147.730909 
L 60.259424 145.44 
L 60.517184 145.44 
L 60.517184 142.003636 
L 61.032705 142.003636 
L 61.032705 140.858182 
L 61.290466 140.858182 
L 61.290466 139.712727 
L 61.548226 139.712727 
L 61.548226 135.130909 
L 62.063747 135.130909 
L 62.063747 129.403636 
L 62.579268 129.403636 
L 62.579268 123.676364 
L 63.35255 123.676364 
L 63.35255 122.530909 
L 63.868071 122.530909 
L 63.868071 120.24 
L 64.383592 120.24 
L 64.383592 119.094545 
L 64.641353 119.094545 
L 64.641353 116.803636 
L 65.156874 116.803636 
L 65.156874 115.658182 
L 65.414634 115.658182 
L 65.414634 109.930909 
L 65.930155 109.930909 
L 65.930155 107.64 
L 66.187916 107.64 
L 66.187916 99.621818 
L 66.703437 99.621818 
L 66.703437 97.330909 
L 67.218958 97.330909 
L 67.218958 95.04 
L 67.476718 95.04 
L 67.476718 93.894545 
L 67.992239 93.894545 
L 67.992239 92.749091 
L 69.281042 92.749091 
L 69.281042 91.603636 
L 69.538803 91.603636 
L 69.538803 89.312727 
L 70.054324 89.312727 
L 70.054324 88.167273 
L 70.827605 88.167273 
L 70.827605 87.021818 
L 71.858647 87.021818 
L 71.858647 84.730909 
L 72.116408 84.730909 
L 72.116408 83.585455 
L 72.374169 83.585455 
L 72.374169 82.44 
L 73.405211 82.44 
L 73.405211 81.294545 
L 73.662971 81.294545 
L 73.662971 80.149091 
L 74.178492 80.149091 
L 74.178492 77.858182 
L 75.209534 77.858182 
L 75.209534 75.567273 
L 75.725055 75.567273 
L 75.725055 74.421818 
L 75.982816 74.421818 
L 75.982816 72.130909 
L 77.271619 72.130909 
L 77.271619 70.985455 
L 78.0449 70.985455 
L 78.0449 69.84 
L 78.560421 69.84 
L 78.560421 67.549091 
L 79.333703 67.549091 
L 79.333703 66.403636 
L 80.106984 66.403636 
L 80.106984 65.258182 
L 80.622506 65.258182 
L 80.622506 62.967273 
L 80.880266 62.967273 
L 80.880266 61.821818 
L 81.653548 61.821818 
L 81.653548 60.676364 
L 83.457871 60.676364 
L 83.457871 59.530909 
L 85.519956 59.530909 
L 85.519956 57.24 
L 88.355322 57.24 
L 88.355322 53.803636 
L 89.128603 53.803636 
L 89.128603 52.658182 
L 92.995011 52.658182 
L 92.995011 51.512727 
L 96.345898 51.512727 
L 96.345898 50.367273 
L 100.212306 50.367273 
L 100.212306 49.221818 
L 102.01663 49.221818 
L 102.01663 48.076364 
L 110.780488 48.076364 
L 110.780488 46.930909 
L 125.215078 46.930909 
L 125.215078 45.785455 
L 194.552661 45.785455 
L 194.552661 44.64 
L 311.318182 44.64 
L 311.318182 44.64 
" clip-path="url(#p3edcdb1135)" style="fill: none; stroke: #d62728; stroke-width: 1.5; stroke-linecap: square"/>
   </g>
   <g id="line2d_17">
    <path d="M 57.681818 246.24 
L 57.681818 226.571707 
L 58.170991 226.571707 
L 58.170991 210.181463 
L 58.415578 210.181463 
L 58.415578 208.542439 
L 58.660165 208.542439 
L 58.660165 205.26439 
L 58.904751 205.26439 
L 58.904751 200.347317 
L 59.149338 200.347317 
L 59.149338 193.79122 
L 59.638511 193.79122 
L 59.638511 188.874146 
L 59.883098 188.874146 
L 59.883098 182.318049 
L 60.372271 182.318049 
L 60.372271 175.761951 
L 60.616858 175.761951 
L 60.616858 170.844878 
L 60.861445 170.844878 
L 60.861445 164.28878 
L 61.350618 164.28878 
L 61.350618 162.649756 
L 61.595205 162.649756 
L 61.595205 157.732683 
L 61.839791 157.732683 
L 61.839791 152.81561 
L 63.062725 152.81561 
L 63.062725 151.176585 
L 63.551898 151.176585 
L 63.551898 149.537561 
L 63.796485 149.537561 
L 63.796485 142.981463 
L 64.041071 142.981463 
L 64.041071 141.342439 
L 64.285658 141.342439 
L 64.285658 139.703415 
L 64.530245 139.703415 
L 64.530245 136.425366 
L 65.508591 136.425366 
L 65.508591 134.786341 
L 65.753178 134.786341 
L 65.753178 133.147317 
L 65.997765 133.147317 
L 65.997765 124.952195 
L 66.242351 124.952195 
L 66.242351 123.313171 
L 66.731525 123.313171 
L 66.731525 120.035122 
L 66.976111 120.035122 
L 66.976111 118.396098 
L 67.465284 118.396098 
L 67.465284 116.757073 
L 69.911151 116.757073 
L 69.911151 115.118049 
L 70.155738 115.118049 
L 70.155738 111.84 
L 71.623258 111.84 
L 71.623258 110.200976 
L 72.112431 110.200976 
L 72.112431 108.561951 
L 73.579951 108.561951 
L 73.579951 105.283902 
L 74.558298 105.283902 
L 74.558298 103.644878 
L 75.047471 103.644878 
L 75.047471 102.005854 
L 76.270404 102.005854 
L 76.270404 100.366829 
L 77.493337 100.366829 
L 77.493337 98.727805 
L 79.450031 98.727805 
L 79.450031 97.08878 
L 81.895897 97.08878 
L 81.895897 95.449756 
L 83.852591 95.449756 
L 83.852591 93.810732 
L 84.58635 93.810732 
L 84.58635 92.171707 
L 84.830937 92.171707 
L 84.830937 90.532683 
L 88.010564 90.532683 
L 88.010564 88.893659 
L 90.701017 88.893659 
L 90.701017 85.61561 
L 90.945604 85.61561 
L 90.945604 83.976585 
L 91.19019 83.976585 
L 91.19019 82.337561 
L 93.146883 82.337561 
L 93.146883 80.698537 
L 98.283203 80.698537 
L 98.283203 79.059512 
L 99.750723 79.059512 
L 99.750723 77.420488 
L 103.908696 77.420488 
L 103.908696 75.781463 
L 111.735469 75.781463 
L 111.735469 74.142439 
L 112.469229 74.142439 
L 112.469229 72.503415 
L 113.447576 72.503415 
L 113.447576 70.86439 
L 116.382616 70.86439 
L 116.382616 69.225366 
L 117.116376 69.225366 
L 117.116376 67.586341 
L 120.540589 67.586341 
L 120.540589 65.947317 
L 125.187736 65.947317 
L 125.187736 64.308293 
L 129.834882 64.308293 
L 129.834882 62.669268 
L 132.036162 62.669268 
L 132.036162 61.030244 
L 187.80192 61.030244 
L 187.80192 59.39122 
L 188.291093 59.39122 
L 188.291093 57.752195 
L 195.87328 57.752195 
L 195.87328 56.113171 
L 205.412159 56.113171 
L 205.412159 54.474146 
L 215.440212 54.474146 
L 215.440212 52.835122 
L 219.842772 52.835122 
L 219.842772 51.196098 
L 238.186771 51.196098 
L 238.186771 49.557073 
L 247.970238 49.557073 
L 247.970238 47.918049 
L 263.13461 47.918049 
L 263.13461 46.279024 
L 264.112957 46.279024 
L 264.112957 44.64 
L 311.318182 44.64 
L 311.318182 44.64 
" clip-path="url(#p3edcdb1135)" style="fill: none; stroke: #9467bd; stroke-width: 1.5; stroke-linecap: square"/>
   </g>
   <g id="patch_3">
    <path d="M 45 256.32 
L 45 34.56 
" style="fill: none; stroke: #000000; stroke-width: 0.8; stroke-linejoin: miter; stroke-linecap: square"/>
   </g>
   <g id="patch_4">
    <path d="M 324 256.32 
L 324 34.56 
" style="fill: none; stroke: #000000; stroke-width: 0.8; stroke-linejoin: miter; stroke-linecap: square"/>
   </g>
   <g id="patch_5">
    <path d="M 45 256.32 
L 324 256.32 
" style="fill: none; stroke: #000000; stroke-width: 0.8; stroke-linejoin: miter; stroke-linecap: square"/>
   </g>
   <g id="patch_6">
    <path d="M 45 34.56 
L 324 34.56 
" style="fill: none; stroke: #000000; stroke-width: 0.8; stroke-linejoin: miter; stroke-linecap: square"/>
   </g>
   <g id="text_15">
    <!-- ROC -->
    <g transform="translate(171.418125 28.56) scale(0.12 -0.12)">
     <defs>
      <path id="DejaVuSans-4f" d="M 2522 4238 
Q 1834 4238 1429 3725 
Q 1025 3213 1025 2328 
Q 1025 1447 1429 934 
Q 1834 422 2522 422 
Q 3209 422 3611 934 
Q 4013 1447 4013 2328 
Q 4013 3213 3611 3725 
Q 3209 4238 2522 4238 
z
M 2522 4750 
Q 3503 4750 4090 4092 
Q 4678 3434 4678 2328 
Q 4678 1225 4090 567 
Q 3503 -91 2522 -91 
Q 1538 -91 948 565 
Q 359 1222 359 2328 
Q 359 3434 948 4092 
Q 1538 4750 2522 4750 
z
" transform="scale(0.015625)"/>
      <path id="DejaVuSans-43" d="M 4122 4306 
L 4122 3641 
Q 3803 3938 3442 4084 
Q 3081 4231 2675 4231 
Q 1875 4231 1450 3742 
Q 1025 3253 1025 2328 
Q 1025 1406 1450 917 
Q 1875 428 2675 428 
Q 3081 428 3442 575 
Q 3803 722 4122 1019 
L 4122 359 
Q 3791 134 3420 21 
Q 3050 -91 2638 -91 
Q 1578 -91 968 557 
Q 359 1206 359 2328 
Q 359 3453 968 4101 
Q 1578 4750 2638 4750 
Q 3056 4750 3426 4639 
Q 3797 4528 4122 4306 
z
" transform="scale(0.015625)"/>
     </defs>
     <use xlink:href="#DejaVuSans-52"/>
     <use xlink:href="#DejaVuSans-4f" x="69.482422"/>
     <use xlink:href="#DejaVuSans-43" x="148.193359"/>
    </g>
   </g>
   <g id="legend_1">
    <g id="patch_7">
     <path d="M 243.4625 251.32 
L 317 251.32 
Q 319 251.32 319 249.32 
L 319 176.929375 
Q 319 174.929375 317 174.929375 
L 243.4625 174.929375 
Q 241.4625 174.929375 241.4625 176.929375 
L 241.4625 249.32 
Q 241.4625 251.32 243.4625 251.32 
z
" style="fill: #ffffff; opacity: 0.8; stroke: #cccccc; stroke-linejoin: miter"/>
    </g>
    <g id="line2d_18">
     <path d="M 245.4625 183.027813 
L 255.4625 183.027813 
L 265.4625 183.027813 
" style="fill: none; stroke: #1f77b4; stroke-width: 1.5; stroke-linecap: square"/>
    </g>
    <g id="text_16">
     <!-- 0: 0.977 -->
     <g transform="translate(273.4625 186.527813) scale(0.1 -0.1)">
      <defs>
       <path id="DejaVuSans-3a" d="M 750 794 
L 1409 794 
L 1409 0 
L 750 0 
L 750 794 
z
M 750 3309 
L 1409 3309 
L 1409 2516 
L 750 2516 
L 750 3309 
z
" transform="scale(0.015625)"/>
       <path id="DejaVuSans-20" transform="scale(0.015625)"/>
       <path id="DejaVuSans-39" d="M 703 97 
L 703 672 
Q 941 559 1184 500 
Q 1428 441 1663 441 
Q 2288 441 2617 861 
Q 2947 1281 2994 2138 
Q 2813 1869 2534 1725 
Q 2256 1581 1919 1581 
Q 1219 1581 811 2004 
Q 403 2428 403 3163 
Q 403 3881 828 4315 
Q 1253 4750 1959 4750 
Q 2769 4750 3195 4129 
Q 3622 3509 3622 2328 
Q 3622 1225 3098 567 
Q 2575 -91 1691 -91 
Q 1453 -91 1209 -44 
Q 966 3 703 97 
z
M 1959 2075 
Q 2384 2075 2632 2365 
Q 2881 2656 2881 3163 
Q 2881 3666 2632 3958 
Q 2384 4250 1959 4250 
Q 1534 4250 1286 3958 
Q 1038 3666 1038 3163 
Q 1038 2656 1286 2365 
Q 1534 2075 1959 2075 
z
" transform="scale(0.015625)"/>
       <path id="DejaVuSans-37" d="M 525 4666 
L 3525 4666 
L 3525 4397 
L 1831 0 
L 1172 0 
L 2766 4134 
L 525 4134 
L 525 4666 
z
" transform="scale(0.015625)"/>
      </defs>
      <use xlink:href="#DejaVuSans-30"/>
      <use xlink:href="#DejaVuSans-3a" x="63.623047"/>
      <use xlink:href="#DejaVuSans-20" x="97.314453"/>
      <use xlink:href="#DejaVuSans-30" x="129.101562"/>
      <use xlink:href="#DejaVuSans-2e" x="192.724609"/>
      <use xlink:href="#DejaVuSans-39" x="224.511719"/>
      <use xlink:href="#DejaVuSans-37" x="288.134766"/>
      <use xlink:href="#DejaVuSans-37" x="351.757812"/>
     </g>
    </g>
    <g id="line2d_19">
     <path d="M 245.4625 197.705938 
L 255.4625 197.705938 
L 265.4625 197.705938 
" style="fill: none; stroke: #ff7f0e; stroke-width: 1.5; stroke-linecap: square"/>
    </g>
    <g id="text_17">
     <!-- 1: 0.977 -->
     <g transform="translate(273.4625 201.205938) scale(0.1 -0.1)">
      <use xlink:href="#DejaVuSans-31"/>
      <use xlink:href="#DejaVuSans-3a" x="63.623047"/>
      <use xlink:href="#DejaVuSans-20" x="97.314453"/>
      <use xlink:href="#DejaVuSans-30" x="129.101562"/>
      <use xlink:href="#DejaVuSans-2e" x="192.724609"/>
      <use xlink:href="#DejaVuSans-39" x="224.511719"/>
      <use xlink:href="#DejaVuSans-37" x="288.134766"/>
      <use xlink:href="#DejaVuSans-37" x="351.757812"/>
     </g>
    </g>
    <g id="line2d_20">
     <path d="M 245.4625 212.384063 
L 255.4625 212.384063 
L 265.4625 212.384063 
" style="fill: none; stroke: #2ca02c; stroke-width: 1.5; stroke-linecap: square"/>
    </g>
    <g id="text_18">
     <!-- 2: 0.990 -->
     <g transform="translate(273.4625 215.884063) scale(0.1 -0.1)">
      <use xlink:href="#DejaVuSans-32"/>
      <use xlink:href="#DejaVuSans-3a" x="63.623047"/>
      <use xlink:href="#DejaVuSans-20" x="97.314453"/>
      <use xlink:href="#DejaVuSans-30" x="129.101562"/>
      <use xlink:href="#DejaVuSans-2e" x="192.724609"/>
      <use xlink:href="#DejaVuSans-39" x="224.511719"/>
      <use xlink:href="#DejaVuSans-39" x="288.134766"/>
      <use xlink:href="#DejaVuSans-30" x="351.757812"/>
     </g>
    </g>
    <g id="line2d_21">
     <path d="M 245.4625 227.062188 
L 255.4625 227.062188 
L 265.4625 227.062188 
" style="fill: none; stroke: #d62728; stroke-width: 1.5; stroke-linecap: square"/>
    </g>
    <g id="text_19">
     <!-- 3: 0.968 -->
     <g transform="translate(273.4625 230.562188) scale(0.1 -0.1)">
      <defs>
       <path id="DejaVuSans-33" d="M 2597 2516 
Q 3050 2419 3304 2112 
Q 3559 1806 3559 1356 
Q 3559 666 3084 287 
Q 2609 -91 1734 -91 
Q 1441 -91 1130 -33 
Q 819 25 488 141 
L 488 750 
Q 750 597 1062 519 
Q 1375 441 1716 441 
Q 2309 441 2620 675 
Q 2931 909 2931 1356 
Q 2931 1769 2642 2001 
Q 2353 2234 1838 2234 
L 1294 2234 
L 1294 2753 
L 1863 2753 
Q 2328 2753 2575 2939 
Q 2822 3125 2822 3475 
Q 2822 3834 2567 4026 
Q 2313 4219 1838 4219 
Q 1578 4219 1281 4162 
Q 984 4106 628 3988 
L 628 4550 
Q 988 4650 1302 4700 
Q 1616 4750 1894 4750 
Q 2613 4750 3031 4423 
Q 3450 4097 3450 3541 
Q 3450 3153 3228 2886 
Q 3006 2619 2597 2516 
z
" transform="scale(0.015625)"/>
      </defs>
      <use xlink:href="#DejaVuSans-33"/>
      <use xlink:href="#DejaVuSans-3a" x="63.623047"/>
      <use xlink:href="#DejaVuSans-20" x="97.314453"/>
      <use xlink:href="#DejaVuSans-30" x="129.101562"/>
      <use xlink:href="#DejaVuSans-2e" x="192.724609"/>
      <use xlink:href="#DejaVuSans-39" x="224.511719"/>
      <use xlink:href="#DejaVuSans-36" x="288.134766"/>
      <use xlink:href="#DejaVuSans-38" x="351.757812"/>
     </g>
    </g>
    <g id="line2d_22">
     <path d="M 245.4625 241.740313 
L 255.4625 241.740313 
L 265.4625 241.740313 
" style="fill: none; stroke: #9467bd; stroke-width: 1.5; stroke-linecap: square"/>
    </g>
    <g id="text_20">
     <!-- 4: 0.901 -->
     <g transform="translate(273.4625 245.240313) scale(0.1 -0.1)">
      <use xlink:href="#DejaVuSans-34"/>
      <use xlink:href="#DejaVuSans-3a" x="63.623047"/>
      <use xlink:href="#DejaVuSans-20" x="97.314453"/>
      <use xlink:href="#DejaVuSans-30" x="129.101562"/>
      <use xlink:href="#DejaVuSans-2e" x="192.724609"/>
      <use xlink:href="#DejaVuSans-39" x="224.511719"/>
      <use xlink:href="#DejaVuSans-30" x="288.134766"/>
      <use xlink:href="#DejaVuSans-31" x="351.757812"/>
     </g>
    </g>
   </g>
  </g>
 </g>
 <defs>
  <clipPath id="p3edcdb1135">
   <rect x="45" y="34.56" width="279" height="221.76"/>
  </clipPath>
 </defs>
</svg>
