<?xml version="1.0" encoding="utf-8" standalone="no"?>
<!DOCTYPE svg PUBLIC "-//W3C//DTD SVG 1.1//EN"
  "http://www.w3.org/Graphics/SVG/1.1/DTD/svg11.dtd">
<svg xmlns:xlink="http://www.w3.org/1999/xlink" width="360pt" height="288pt" viewBox="0 0 360 288" xmlns="http://www.w3.org/2000/svg" version="1.1">
 <metadata>
  <rdf:RDF xmlns:dc="http://purl.org/dc/elements/1.1/" xmlns:cc="http://creativecommons.org/ns#" xmlns:rdf="http://www.w3.org/1999/02/22-rdf-syntax-ns#">
   <cc:Work>
    <dc:type rdf:resource="http://purl.org/dc/dcmitype/StillImage"/>
    <dc:date>2023-04-12T14:42:39.781131</dc:date>
    <dc:format>image/svg+xml</dc:format>
    <dc:creator>
     <cc:Agent>
      <dc:title>Matplotlib v3.6.2, https://matplotlib.org/</dc:title>
     </cc:Agent>
    </dc:creator>
   </cc:Work>
  </rdf:RDF>
 </metadata>
 <defs>
  <style type="text/css">*{stroke-linejoin: round; stroke-linecap: butt}</style>
 </defs>
 <g id="figure_1">
  <g id="patch_1">
   <path d="M 0 288 
L 360 288 
L 360 0 
L 0 0 
z
" style="fill: #ffffff"/>
  </g>
  <g id="axes_1">
   <g id="patch_2">
    <path d="M 45 256.32 
L 324 256.32 
L 324 34.56 
L 45 34.56 
z
" style="fill: #ffffff"/>
   </g>
   <g id="matplotlib.axis_1">
    <g id="xtick_1">
     <g id="line2d_1">
      <defs>
       <path id="m014f52ae71" d="M 0 0 
L 0 3.5 
" style="stroke: #000000; stroke-width: 0.8"/>
      </defs>
      <g>
       <use xlink:href="#m014f52ae71" x="57.681818" y="256.32" style="stroke: #000000; stroke-width: 0.8"/>
      </g>
     </g>
     <g id="text_1">
      <!-- 0.0 -->
      <g transform="translate(49.730256 270.918437) scale(0.1 -0.1)">
       <defs>
        <path id="DejaVuSans-30" d="M 2034 4250 
Q 1547 4250 1301 3770 
Q 1056 3291 1056 2328 
Q 1056 1369 1301 889 
Q 1547 409 2034 409 
Q 2525 409 2770 889 
Q 3016 1369 3016 2328 
Q 3016 3291 2770 3770 
Q 2525 4250 2034 4250 
z
M 2034 4750 
Q 2819 4750 3233 4129 
Q 3647 3509 3647 2328 
Q 3647 1150 3233 529 
Q 2819 -91 2034 -91 
Q 1250 -91 836 529 
Q 422 1150 422 2328 
Q 422 3509 836 4129 
Q 1250 4750 2034 4750 
z
" transform="scale(0.015625)"/>
        <path id="DejaVuSans-2e" d="M 684 794 
L 1344 794 
L 1344 0 
L 684 0 
L 684 794 
z
" transform="scale(0.015625)"/>
       </defs>
       <use xlink:href="#DejaVuSans-30"/>
       <use xlink:href="#DejaVuSans-2e" x="63.623047"/>
       <use xlink:href="#DejaVuSans-30" x="95.410156"/>
      </g>
     </g>
    </g>
    <g id="xtick_2">
     <g id="line2d_2">
      <g>
       <use xlink:href="#m014f52ae71" x="108.409091" y="256.32" style="stroke: #000000; stroke-width: 0.8"/>
      </g>
     </g>
     <g id="text_2">
      <!-- 0.2 -->
      <g transform="translate(100.457528 270.918437) scale(0.1 -0.1)">
       <defs>
        <path id="DejaVuSans-32" d="M 1228 531 
L 3431 531 
L 3431 0 
L 469 0 
L 469 531 
Q 828 903 1448 1529 
Q 2069 2156 2228 2338 
Q 2531 2678 2651 2914 
Q 2772 3150 2772 3378 
Q 2772 3750 2511 3984 
Q 2250 4219 1831 4219 
Q 1534 4219 1204 4116 
Q 875 4013 500 3803 
L 500 4441 
Q 881 4594 1212 4672 
Q 1544 4750 1819 4750 
Q 2544 4750 2975 4387 
Q 3406 4025 3406 3419 
Q 3406 3131 3298 2873 
Q 3191 2616 2906 2266 
Q 2828 2175 2409 1742 
Q 1991 1309 1228 531 
z
" transform="scale(0.015625)"/>
       </defs>
       <use xlink:href="#DejaVuSans-30"/>
       <use xlink:href="#DejaVuSans-2e" x="63.623047"/>
       <use xlink:href="#DejaVuSans-32" x="95.410156"/>
      </g>
     </g>
    </g>
    <g id="xtick_3">
     <g id="line2d_3">
      <g>
       <use xlink:href="#m014f52ae71" x="159.136364" y="256.32" style="stroke: #000000; stroke-width: 0.8"/>
      </g>
     </g>
     <g id="text_3">
      <!-- 0.4 -->
      <g transform="translate(151.184801 270.918437) scale(0.1 -0.1)">
       <defs>
        <path id="DejaVuSans-34" d="M 2419 4116 
L 825 1625 
L 2419 1625 
L 2419 4116 
z
M 2253 4666 
L 3047 4666 
L 3047 1625 
L 3713 1625 
L 3713 1100 
L 3047 1100 
L 3047 0 
L 2419 0 
L 2419 1100 
L 313 1100 
L 313 1709 
L 2253 4666 
z
" transform="scale(0.015625)"/>
       </defs>
       <use xlink:href="#DejaVuSans-30"/>
       <use xlink:href="#DejaVuSans-2e" x="63.623047"/>
       <use xlink:href="#DejaVuSans-34" x="95.410156"/>
      </g>
     </g>
    </g>
    <g id="xtick_4">
     <g id="line2d_4">
      <g>
       <use xlink:href="#m014f52ae71" x="209.863636" y="256.32" style="stroke: #000000; stroke-width: 0.8"/>
      </g>
     </g>
     <g id="text_4">
      <!-- 0.6 -->
      <g transform="translate(201.912074 270.918437) scale(0.1 -0.1)">
       <defs>
        <path id="DejaVuSans-36" d="M 2113 2584 
Q 1688 2584 1439 2293 
Q 1191 2003 1191 1497 
Q 1191 994 1439 701 
Q 1688 409 2113 409 
Q 2538 409 2786 701 
Q 3034 994 3034 1497 
Q 3034 2003 2786 2293 
Q 2538 2584 2113 2584 
z
M 3366 4563 
L 3366 3988 
Q 3128 4100 2886 4159 
Q 2644 4219 2406 4219 
Q 1781 4219 1451 3797 
Q 1122 3375 1075 2522 
Q 1259 2794 1537 2939 
Q 1816 3084 2150 3084 
Q 2853 3084 3261 2657 
Q 3669 2231 3669 1497 
Q 3669 778 3244 343 
Q 2819 -91 2113 -91 
Q 1303 -91 875 529 
Q 447 1150 447 2328 
Q 447 3434 972 4092 
Q 1497 4750 2381 4750 
Q 2619 4750 2861 4703 
Q 3103 4656 3366 4563 
z
" transform="scale(0.015625)"/>
       </defs>
       <use xlink:href="#DejaVuSans-30"/>
       <use xlink:href="#DejaVuSans-2e" x="63.623047"/>
       <use xlink:href="#DejaVuSans-36" x="95.410156"/>
      </g>
     </g>
    </g>
    <g id="xtick_5">
     <g id="line2d_5">
      <g>
       <use xlink:href="#m014f52ae71" x="260.590909" y="256.32" style="stroke: #000000; stroke-width: 0.8"/>
      </g>
     </g>
     <g id="text_5">
      <!-- 0.8 -->
      <g transform="translate(252.639347 270.918437) scale(0.1 -0.1)">
       <defs>
        <path id="DejaVuSans-38" d="M 2034 2216 
Q 1584 2216 1326 1975 
Q 1069 1734 1069 1313 
Q 1069 891 1326 650 
Q 1584 409 2034 409 
Q 2484 409 2743 651 
Q 3003 894 3003 1313 
Q 3003 1734 2745 1975 
Q 2488 2216 2034 2216 
z
M 1403 2484 
Q 997 2584 770 2862 
Q 544 3141 544 3541 
Q 544 4100 942 4425 
Q 1341 4750 2034 4750 
Q 2731 4750 3128 4425 
Q 3525 4100 3525 3541 
Q 3525 3141 3298 2862 
Q 3072 2584 2669 2484 
Q 3125 2378 3379 2068 
Q 3634 1759 3634 1313 
Q 3634 634 3220 271 
Q 2806 -91 2034 -91 
Q 1263 -91 848 271 
Q 434 634 434 1313 
Q 434 1759 690 2068 
Q 947 2378 1403 2484 
z
M 1172 3481 
Q 1172 3119 1398 2916 
Q 1625 2713 2034 2713 
Q 2441 2713 2670 2916 
Q 2900 3119 2900 3481 
Q 2900 3844 2670 4047 
Q 2441 4250 2034 4250 
Q 1625 4250 1398 4047 
Q 1172 3844 1172 3481 
z
" transform="scale(0.015625)"/>
       </defs>
       <use xlink:href="#DejaVuSans-30"/>
       <use xlink:href="#DejaVuSans-2e" x="63.623047"/>
       <use xlink:href="#DejaVuSans-38" x="95.410156"/>
      </g>
     </g>
    </g>
    <g id="xtick_6">
     <g id="line2d_6">
      <g>
       <use xlink:href="#m014f52ae71" x="311.318182" y="256.32" style="stroke: #000000; stroke-width: 0.8"/>
      </g>
     </g>
     <g id="text_6">
      <!-- 1.0 -->
      <g transform="translate(303.366619 270.918437) scale(0.1 -0.1)">
       <defs>
        <path id="DejaVuSans-31" d="M 794 531 
L 1825 531 
L 1825 4091 
L 703 3866 
L 703 4441 
L 1819 4666 
L 2450 4666 
L 2450 531 
L 3481 531 
L 3481 0 
L 794 0 
L 794 531 
z
" transform="scale(0.015625)"/>
       </defs>
       <use xlink:href="#DejaVuSans-31"/>
       <use xlink:href="#DejaVuSans-2e" x="63.623047"/>
       <use xlink:href="#DejaVuSans-30" x="95.410156"/>
      </g>
     </g>
    </g>
    <g id="text_7">
     <!-- FPR -->
     <g transform="translate(175.135156 284.596563) scale(0.1 -0.1)">
      <defs>
       <path id="DejaVuSans-46" d="M 628 4666 
L 3309 4666 
L 3309 4134 
L 1259 4134 
L 1259 2759 
L 3109 2759 
L 3109 2228 
L 1259 2228 
L 1259 0 
L 628 0 
L 628 4666 
z
" transform="scale(0.015625)"/>
       <path id="DejaVuSans-50" d="M 1259 4147 
L 1259 2394 
L 2053 2394 
Q 2494 2394 2734 2622 
Q 2975 2850 2975 3272 
Q 2975 3691 2734 3919 
Q 2494 4147 2053 4147 
L 1259 4147 
z
M 628 4666 
L 2053 4666 
Q 2838 4666 3239 4311 
Q 3641 3956 3641 3272 
Q 3641 2581 3239 2228 
Q 2838 1875 2053 1875 
L 1259 1875 
L 1259 0 
L 628 0 
L 628 4666 
z
" transform="scale(0.015625)"/>
       <path id="DejaVuSans-52" d="M 2841 2188 
Q 3044 2119 3236 1894 
Q 3428 1669 3622 1275 
L 4263 0 
L 3584 0 
L 2988 1197 
Q 2756 1666 2539 1819 
Q 2322 1972 1947 1972 
L 1259 1972 
L 1259 0 
L 628 0 
L 628 4666 
L 2053 4666 
Q 2853 4666 3247 4331 
Q 3641 3997 3641 3322 
Q 3641 2881 3436 2590 
Q 3231 2300 2841 2188 
z
M 1259 4147 
L 1259 2491 
L 2053 2491 
Q 2509 2491 2742 2702 
Q 2975 2913 2975 3322 
Q 2975 3731 2742 3939 
Q 2509 4147 2053 4147 
L 1259 4147 
z
" transform="scale(0.015625)"/>
      </defs>
      <use xlink:href="#DejaVuSans-46"/>
      <use xlink:href="#DejaVuSans-50" x="57.519531"/>
      <use xlink:href="#DejaVuSans-52" x="117.822266"/>
     </g>
    </g>
   </g>
   <g id="matplotlib.axis_2">
    <g id="ytick_1">
     <g id="line2d_7">
      <defs>
       <path id="m3ee45caa04" d="M 0 0 
L -3.5 0 
" style="stroke: #000000; stroke-width: 0.8"/>
      </defs>
      <g>
       <use xlink:href="#m3ee45caa04" x="45" y="246.24" style="stroke: #000000; stroke-width: 0.8"/>
      </g>
     </g>
     <g id="text_8">
      <!-- 0.0 -->
      <g transform="translate(22.096875 250.039219) scale(0.1 -0.1)">
       <use xlink:href="#DejaVuSans-30"/>
       <use xlink:href="#DejaVuSans-2e" x="63.623047"/>
       <use xlink:href="#DejaVuSans-30" x="95.410156"/>
      </g>
     </g>
    </g>
    <g id="ytick_2">
     <g id="line2d_8">
      <g>
       <use xlink:href="#m3ee45caa04" x="45" y="205.92" style="stroke: #000000; stroke-width: 0.8"/>
      </g>
     </g>
     <g id="text_9">
      <!-- 0.2 -->
      <g transform="translate(22.096875 209.719219) scale(0.1 -0.1)">
       <use xlink:href="#DejaVuSans-30"/>
       <use xlink:href="#DejaVuSans-2e" x="63.623047"/>
       <use xlink:href="#DejaVuSans-32" x="95.410156"/>
      </g>
     </g>
    </g>
    <g id="ytick_3">
     <g id="line2d_9">
      <g>
       <use xlink:href="#m3ee45caa04" x="45" y="165.6" style="stroke: #000000; stroke-width: 0.8"/>
      </g>
     </g>
     <g id="text_10">
      <!-- 0.4 -->
      <g transform="translate(22.096875 169.399219) scale(0.1 -0.1)">
       <use xlink:href="#DejaVuSans-30"/>
       <use xlink:href="#DejaVuSans-2e" x="63.623047"/>
       <use xlink:href="#DejaVuSans-34" x="95.410156"/>
      </g>
     </g>
    </g>
    <g id="ytick_4">
     <g id="line2d_10">
      <g>
       <use xlink:href="#m3ee45caa04" x="45" y="125.28" style="stroke: #000000; stroke-width: 0.8"/>
      </g>
     </g>
     <g id="text_11">
      <!-- 0.6 -->
      <g transform="translate(22.096875 129.079219) scale(0.1 -0.1)">
       <use xlink:href="#DejaVuSans-30"/>
       <use xlink:href="#DejaVuSans-2e" x="63.623047"/>
       <use xlink:href="#DejaVuSans-36" x="95.410156"/>
      </g>
     </g>
    </g>
    <g id="ytick_5">
     <g id="line2d_11">
      <g>
       <use xlink:href="#m3ee45caa04" x="45" y="84.96" style="stroke: #000000; stroke-width: 0.8"/>
      </g>
     </g>
     <g id="text_12">
      <!-- 0.8 -->
      <g transform="translate(22.096875 88.759219) scale(0.1 -0.1)">
       <use xlink:href="#DejaVuSans-30"/>
       <use xlink:href="#DejaVuSans-2e" x="63.623047"/>
       <use xlink:href="#DejaVuSans-38" x="95.410156"/>
      </g>
     </g>
    </g>
    <g id="ytick_6">
     <g id="line2d_12">
      <g>
       <use xlink:href="#m3ee45caa04" x="45" y="44.64" style="stroke: #000000; stroke-width: 0.8"/>
      </g>
     </g>
     <g id="text_13">
      <!-- 1.0 -->
      <g transform="translate(22.096875 48.439219) scale(0.1 -0.1)">
       <use xlink:href="#DejaVuSans-31"/>
       <use xlink:href="#DejaVuSans-2e" x="63.623047"/>
       <use xlink:href="#DejaVuSans-30" x="95.410156"/>
      </g>
     </g>
    </g>
    <g id="text_14">
     <!-- TPR -->
     <g transform="translate(16.017187 154.982969) rotate(-90) scale(0.1 -0.1)">
      <defs>
       <path id="DejaVuSans-54" d="M -19 4666 
L 3928 4666 
L 3928 4134 
L 2272 4134 
L 2272 0 
L 1638 0 
L 1638 4134 
L -19 4134 
L -19 4666 
z
" transform="scale(0.015625)"/>
      </defs>
      <use xlink:href="#DejaVuSans-54"/>
      <use xlink:href="#DejaVuSans-50" x="61.083984"/>
      <use xlink:href="#DejaVuSans-52" x="121.386719"/>
     </g>
    </g>
   </g>
   <g id="line2d_13">
    <path d="M 57.681818 246.24 
L 57.681818 245.306667 
L 57.681818 182.773333 
L 57.950501 182.773333 
L 57.950501 151.973333 
L 58.219183 151.973333 
L 58.219183 149.173333 
L 58.487866 149.173333 
L 58.487866 136.106667 
L 59.293914 136.106667 
L 59.293914 123.973333 
L 59.562596 123.973333 
L 59.562596 122.106667 
L 59.831279 122.106667 
L 59.831279 108.106667 
L 60.368644 108.106667 
L 60.368644 102.506667 
L 60.637327 102.506667 
L 60.637327 101.573333 
L 60.906009 101.573333 
L 60.906009 87.573333 
L 61.712057 87.573333 
L 61.712057 85.706667 
L 61.98074 85.706667 
L 61.98074 78.24 
L 62.249422 78.24 
L 62.249422 77.306667 
L 62.518105 77.306667 
L 62.518105 71.706667 
L 62.786787 71.706667 
L 62.786787 70.773333 
L 63.05547 70.773333 
L 63.05547 69.84 
L 63.324153 69.84 
L 63.324153 67.04 
L 63.861518 67.04 
L 63.861518 65.173333 
L 64.398883 65.173333 
L 64.398883 63.306667 
L 64.667565 63.306667 
L 64.667565 59.573333 
L 64.936248 59.573333 
L 64.936248 58.64 
L 65.204931 58.64 
L 65.204931 55.84 
L 66.548344 55.84 
L 66.548344 54.906667 
L 67.623074 54.906667 
L 67.623074 53.973333 
L 69.503852 53.973333 
L 69.503852 53.04 
L 72.996726 53.04 
L 72.996726 51.173333 
L 74.340139 51.173333 
L 74.340139 50.24 
L 104.701271 50.24 
L 104.701271 49.306667 
L 109.80624 49.306667 
L 109.80624 48.373333 
L 145.272342 48.373333 
L 145.272342 47.44 
L 148.496533 47.44 
L 148.496533 46.506667 
L 153.33282 46.506667 
L 153.33282 45.573333 
L 161.930663 45.573333 
L 161.930663 44.64 
L 311.318182 44.64 
" clip-path="url(#pbe0e41016a)" style="fill: none; stroke: #1f77b4; stroke-width: 1.5; stroke-linecap: square"/>
   </g>
   <g id="line2d_14">
    <path d="M 57.681818 246.24 
L 57.681818 245.887552 
L 57.681818 245.535105 
L 57.681818 244.83021 
L 57.681818 233.904336 
L 57.681818 232.494545 
L 57.681818 232.142098 
L 57.681818 231.437203 
L 57.681818 217.691748 
L 57.681818 216.986853 
L 57.681818 213.814825 
L 57.681818 213.10993 
L 57.681818 210.29035 
L 57.681818 209.585455 
L 57.681818 202.536503 
L 58.113173 202.536503 
L 58.113173 194.43021 
L 58.113173 193.725315 
L 58.113173 193.372867 
L 58.113173 192.667972 
L 58.113173 186.323916 
L 58.113173 185.619021 
L 58.113173 169.406434 
L 58.113173 168.701538 
L 58.113173 158.128112 
L 58.113173 157.423217 
L 58.113173 148.612028 
L 58.544527 148.612028 
L 58.544527 144.735105 
L 58.975881 144.735105 
L 58.975881 120.063776 
L 58.975881 119.358881 
L 58.975881 89.753287 
L 59.407236 89.753287 
L 59.407236 76.007832 
L 59.407236 75.302937 
L 59.407236 60.50014 
L 59.83859 60.50014 
L 59.83859 57.680559 
L 60.269944 57.680559 
L 60.269944 50.984056 
L 60.701299 50.984056 
L 60.701299 50.631608 
L 61.132653 50.631608 
L 61.132653 50.279161 
L 61.564007 50.279161 
L 61.564007 49.926713 
L 62.858071 49.926713 
L 62.858071 49.221818 
L 64.583488 49.221818 
L 64.583488 48.869371 
L 65.446197 48.869371 
L 65.446197 48.516923 
L 69.328386 48.516923 
L 69.328386 47.812028 
L 80.974954 47.812028 
L 80.974954 47.45958 
L 89.170686 47.45958 
L 89.170686 47.107133 
L 98.229128 47.107133 
L 98.229128 46.754685 
L 99.954545 46.754685 
L 99.954545 46.402238 
L 104.699443 46.402238 
L 104.699443 46.04979 
L 106.424861 46.04979 
L 106.424861 45.697343 
L 126.698516 45.697343 
L 126.698516 45.344895 
L 127.561224 45.344895 
L 127.561224 44.992448 
L 130.149351 44.992448 
L 130.149351 44.64 
L 311.318182 44.64 
" clip-path="url(#pbe0e41016a)" style="fill: none; stroke: #ff7f0e; stroke-width: 1.5; stroke-linecap: square"/>
   </g>
   <g id="line2d_15">
    <path d="M 57.681818 246.24 
L 57.681818 243.478356 
L 58.615163 243.478356 
L 58.615163 240.716712 
L 58.848499 240.716712 
L 58.848499 235.193425 
L 59.081835 235.193425 
L 59.081835 232.431781 
L 59.315171 232.431781 
L 59.315171 218.623562 
L 59.548507 218.623562 
L 59.548507 207.576986 
L 59.781843 207.576986 
L 59.781843 204.815342 
L 60.015179 204.815342 
L 60.015179 202.053699 
L 60.248516 202.053699 
L 60.248516 199.292055 
L 60.481852 199.292055 
L 60.481852 185.483836 
L 60.715188 185.483836 
L 60.715188 182.722192 
L 61.415196 182.722192 
L 61.415196 179.960548 
L 61.648532 179.960548 
L 61.648532 171.675616 
L 62.348541 171.675616 
L 62.348541 163.390685 
L 62.815213 163.390685 
L 62.815213 155.105753 
L 63.981893 155.105753 
L 63.981893 152.34411 
L 65.38191 152.34411 
L 65.38191 146.820822 
L 66.081919 146.820822 
L 66.081919 144.059178 
L 67.015263 144.059178 
L 67.015263 141.297534 
L 68.648616 141.297534 
L 68.648616 138.53589 
L 69.115288 138.53589 
L 69.115288 135.774247 
L 69.58196 135.774247 
L 69.58196 133.012603 
L 71.215313 133.012603 
L 71.215313 127.489315 
L 71.448649 127.489315 
L 71.448649 124.727671 
L 73.315338 124.727671 
L 73.315338 119.204384 
L 73.782011 119.204384 
L 73.782011 108.157808 
L 74.248683 108.157808 
L 74.248683 105.396164 
L 74.715355 105.396164 
L 74.715355 102.634521 
L 75.182027 102.634521 
L 75.182027 97.111233 
L 76.115372 97.111233 
L 76.115372 91.587945 
L 77.515388 91.587945 
L 77.515388 88.826301 
L 85.448817 88.826301 
L 85.448817 83.303014 
L 85.682153 83.303014 
L 85.682153 80.54137 
L 86.382161 80.54137 
L 86.382161 77.779726 
L 86.615497 77.779726 
L 86.615497 69.494795 
L 87.082169 69.494795 
L 87.082169 66.733151 
L 88.24885 66.733151 
L 88.24885 63.971507 
L 89.882203 63.971507 
L 89.882203 61.209863 
L 92.4489 61.209863 
L 92.4489 58.448219 
L 93.848917 58.448219 
L 93.848917 52.924932 
L 95.48227 52.924932 
L 95.48227 50.163288 
L 95.715606 50.163288 
L 95.715606 47.401644 
L 104.349042 47.401644 
L 104.349042 44.64 
L 311.318182 44.64 
" clip-path="url(#pbe0e41016a)" style="fill: none; stroke: #2ca02c; stroke-width: 1.5; stroke-linecap: square"/>
   </g>
   <g id="line2d_16">
    <path d="M 57.681818 246.24 
L 57.939579 246.24 
L 57.939579 243.949091 
L 58.4551 243.949091 
L 58.4551 237.076364 
L 58.970621 237.076364 
L 58.970621 218.749091 
L 59.228381 218.749091 
L 59.228381 214.167273 
L 59.486142 214.167273 
L 59.486142 209.585455 
L 60.001663 209.585455 
L 60.001663 208.44 
L 60.517184 208.44 
L 60.517184 203.858182 
L 60.774945 203.858182 
L 60.774945 201.567273 
L 61.032705 201.567273 
L 61.032705 200.421818 
L 61.290466 200.421818 
L 61.290466 192.403636 
L 61.548226 192.403636 
L 61.548226 164.912727 
L 61.805987 164.912727 
L 61.805987 158.04 
L 62.321508 158.04 
L 62.321508 154.603636 
L 62.579268 154.603636 
L 62.579268 152.312727 
L 63.094789 152.312727 
L 63.094789 150.021818 
L 63.61031 150.021818 
L 63.61031 147.730909 
L 64.641353 147.730909 
L 64.641353 145.44 
L 65.156874 145.44 
L 65.156874 137.421818 
L 65.414634 137.421818 
L 65.414634 136.276364 
L 65.672395 136.276364 
L 65.672395 129.403636 
L 65.930155 129.403636 
L 65.930155 124.821818 
L 66.445676 124.821818 
L 66.445676 117.949091 
L 66.703437 117.949091 
L 66.703437 115.658182 
L 66.961197 115.658182 
L 66.961197 112.221818 
L 67.218958 112.221818 
L 67.218958 108.785455 
L 67.476718 108.785455 
L 67.476718 106.494545 
L 67.734479 106.494545 
L 67.734479 99.621818 
L 68.765521 99.621818 
L 68.765521 96.185455 
L 69.281042 96.185455 
L 69.281042 92.749091 
L 69.796563 92.749091 
L 69.796563 91.603636 
L 70.054324 91.603636 
L 70.054324 89.312727 
L 70.312084 89.312727 
L 70.312084 87.021818 
L 70.569845 87.021818 
L 70.569845 85.876364 
L 71.858647 85.876364 
L 71.858647 84.730909 
L 72.116408 84.730909 
L 72.116408 81.294545 
L 73.405211 81.294545 
L 73.405211 80.149091 
L 74.951774 80.149091 
L 74.951774 79.003636 
L 75.209534 79.003636 
L 75.209534 77.858182 
L 75.725055 77.858182 
L 75.725055 76.712727 
L 75.982816 76.712727 
L 75.982816 73.276364 
L 76.240576 73.276364 
L 76.240576 72.130909 
L 76.756098 72.130909 
L 76.756098 70.985455 
L 77.013858 70.985455 
L 77.013858 69.84 
L 77.271619 69.84 
L 77.271619 67.549091 
L 78.0449 67.549091 
L 78.0449 66.403636 
L 79.075942 66.403636 
L 79.075942 65.258182 
L 79.591463 65.258182 
L 79.591463 64.112727 
L 81.138027 64.112727 
L 81.138027 62.967273 
L 85.519956 62.967273 
L 85.519956 60.676364 
L 90.675166 60.676364 
L 90.675166 59.530909 
L 96.088137 59.530909 
L 96.088137 58.385455 
L 97.37694 58.385455 
L 97.37694 57.24 
L 103.305432 57.24 
L 103.305432 56.094545 
L 103.563193 56.094545 
L 103.563193 54.949091 
L 104.078714 54.949091 
L 104.078714 53.803636 
L 104.851996 53.803636 
L 104.851996 52.658182 
L 106.656319 52.658182 
L 106.656319 51.512727 
L 114.646896 51.512727 
L 114.646896 49.221818 
L 120.575388 49.221818 
L 120.575388 48.076364 
L 136.556541 48.076364 
L 136.556541 46.930909 
L 146.866962 46.930909 
L 146.866962 45.785455 
L 159.497228 45.785455 
L 159.497228 44.64 
L 311.318182 44.64 
" clip-path="url(#pbe0e41016a)" style="fill: none; stroke: #d62728; stroke-width: 1.5; stroke-linecap: square"/>
   </g>
   <g id="line2d_17">
    <path d="M 57.681818 246.24 
L 57.681818 244.600976 
L 57.926405 244.600976 
L 57.926405 242.961951 
L 58.415578 242.961951 
L 58.415578 239.683902 
L 58.660165 239.683902 
L 58.660165 238.044878 
L 58.904751 238.044878 
L 58.904751 221.654634 
L 59.149338 221.654634 
L 59.149338 203.625366 
L 59.638511 203.625366 
L 59.638511 180.679024 
L 59.883098 180.679024 
L 59.883098 170.844878 
L 60.127685 170.844878 
L 60.127685 154.454634 
L 60.372271 154.454634 
L 60.372271 149.537561 
L 60.616858 149.537561 
L 60.616858 134.786341 
L 60.861445 134.786341 
L 60.861445 123.313171 
L 61.106031 123.313171 
L 61.106031 106.922927 
L 61.595205 106.922927 
L 61.595205 105.283902 
L 61.839791 105.283902 
L 61.839791 103.644878 
L 62.084378 103.644878 
L 62.084378 102.005854 
L 62.328965 102.005854 
L 62.328965 95.449756 
L 62.573551 95.449756 
L 62.573551 88.893659 
L 62.818138 88.893659 
L 62.818138 85.61561 
L 63.062725 85.61561 
L 63.062725 83.976585 
L 63.307311 83.976585 
L 63.307311 82.337561 
L 63.551898 82.337561 
L 63.551898 80.698537 
L 63.796485 80.698537 
L 63.796485 79.059512 
L 64.774831 79.059512 
L 64.774831 77.420488 
L 65.753178 77.420488 
L 65.753178 75.781463 
L 65.997765 75.781463 
L 65.997765 74.142439 
L 66.486938 74.142439 
L 66.486938 72.503415 
L 67.220698 72.503415 
L 67.220698 70.86439 
L 67.465284 70.86439 
L 67.465284 65.947317 
L 67.954458 65.947317 
L 67.954458 64.308293 
L 68.443631 64.308293 
L 68.443631 62.669268 
L 68.932804 62.669268 
L 68.932804 61.030244 
L 69.911151 61.030244 
L 69.911151 59.39122 
L 75.292058 59.39122 
L 75.292058 57.752195 
L 76.270404 57.752195 
L 76.270404 56.113171 
L 82.140484 56.113171 
L 82.140484 54.474146 
L 82.629657 54.474146 
L 82.629657 52.835122 
L 158.940694 52.835122 
L 158.940694 51.196098 
L 186.823573 51.196098 
L 186.823573 49.557073 
L 213.483519 49.557073 
L 213.483519 47.918049 
L 234.762558 47.918049 
L 234.762558 46.279024 
L 279.27733 46.279024 
L 279.27733 44.64 
L 311.318182 44.64 
" clip-path="url(#pbe0e41016a)" style="fill: none; stroke: #9467bd; stroke-width: 1.5; stroke-linecap: square"/>
   </g>
   <g id="patch_3">
    <path d="M 45 256.32 
L 45 34.56 
" style="fill: none; stroke: #000000; stroke-width: 0.8; stroke-linejoin: miter; stroke-linecap: square"/>
   </g>
   <g id="patch_4">
    <path d="M 324 256.32 
L 324 34.56 
" style="fill: none; stroke: #000000; stroke-width: 0.8; stroke-linejoin: miter; stroke-linecap: square"/>
   </g>
   <g id="patch_5">
    <path d="M 45 256.32 
L 324 256.32 
" style="fill: none; stroke: #000000; stroke-width: 0.8; stroke-linejoin: miter; stroke-linecap: square"/>
   </g>
   <g id="patch_6">
    <path d="M 45 34.56 
L 324 34.56 
" style="fill: none; stroke: #000000; stroke-width: 0.8; stroke-linejoin: miter; stroke-linecap: square"/>
   </g>
   <g id="text_15">
    <!-- ROC -->
    <g transform="translate(171.418125 28.56) scale(0.12 -0.12)">
     <defs>
      <path id="DejaVuSans-4f" d="M 2522 4238 
Q 1834 4238 1429 3725 
Q 1025 3213 1025 2328 
Q 1025 1447 1429 934 
Q 1834 422 2522 422 
Q 3209 422 3611 934 
Q 4013 1447 4013 2328 
Q 4013 3213 3611 3725 
Q 3209 4238 2522 4238 
z
M 2522 4750 
Q 3503 4750 4090 4092 
Q 4678 3434 4678 2328 
Q 4678 1225 4090 567 
Q 3503 -91 2522 -91 
Q 1538 -91 948 565 
Q 359 1222 359 2328 
Q 359 3434 948 4092 
Q 1538 4750 2522 4750 
z
" transform="scale(0.015625)"/>
      <path id="DejaVuSans-43" d="M 4122 4306 
L 4122 3641 
Q 3803 3938 3442 4084 
Q 3081 4231 2675 4231 
Q 1875 4231 1450 3742 
Q 1025 3253 1025 2328 
Q 1025 1406 1450 917 
Q 1875 428 2675 428 
Q 3081 428 3442 575 
Q 3803 722 4122 1019 
L 4122 359 
Q 3791 134 3420 21 
Q 3050 -91 2638 -91 
Q 1578 -91 968 557 
Q 359 1206 359 2328 
Q 359 3453 968 4101 
Q 1578 4750 2638 4750 
Q 3056 4750 3426 4639 
Q 3797 4528 4122 4306 
z
" transform="scale(0.015625)"/>
     </defs>
     <use xlink:href="#DejaVuSans-52"/>
     <use xlink:href="#DejaVuSans-4f" x="69.482422"/>
     <use xlink:href="#DejaVuSans-43" x="148.193359"/>
    </g>
   </g>
   <g id="legend_1">
    <g id="patch_7">
     <path d="M 243.4625 251.32 
L 317 251.32 
Q 319 251.32 319 249.32 
L 319 176.929375 
Q 319 174.929375 317 174.929375 
L 243.4625 174.929375 
Q 241.4625 174.929375 241.4625 176.929375 
L 241.4625 249.32 
Q 241.4625 251.32 243.4625 251.32 
z
" style="fill: #ffffff; opacity: 0.8; stroke: #cccccc; stroke-linejoin: miter"/>
    </g>
    <g id="line2d_18">
     <path d="M 245.4625 183.027813 
L 255.4625 183.027813 
L 265.4625 183.027813 
" style="fill: none; stroke: #1f77b4; stroke-width: 1.5; stroke-linecap: square"/>
    </g>
    <g id="text_16">
     <!-- 0: 0.984 -->
     <g transform="translate(273.4625 186.527813) scale(0.1 -0.1)">
      <defs>
       <path id="DejaVuSans-3a" d="M 750 794 
L 1409 794 
L 1409 0 
L 750 0 
L 750 794 
z
M 750 3309 
L 1409 3309 
L 1409 2516 
L 750 2516 
L 750 3309 
z
" transform="scale(0.015625)"/>
       <path id="DejaVuSans-20" transform="scale(0.015625)"/>
       <path id="DejaVuSans-39" d="M 703 97 
L 703 672 
Q 941 559 1184 500 
Q 1428 441 1663 441 
Q 2288 441 2617 861 
Q 2947 1281 2994 2138 
Q 2813 1869 2534 1725 
Q 2256 1581 1919 1581 
Q 1219 1581 811 2004 
Q 403 2428 403 3163 
Q 403 3881 828 4315 
Q 1253 4750 1959 4750 
Q 2769 4750 3195 4129 
Q 3622 3509 3622 2328 
Q 3622 1225 3098 567 
Q 2575 -91 1691 -91 
Q 1453 -91 1209 -44 
Q 966 3 703 97 
z
M 1959 2075 
Q 2384 2075 2632 2365 
Q 2881 2656 2881 3163 
Q 2881 3666 2632 3958 
Q 2384 4250 1959 4250 
Q 1534 4250 1286 3958 
Q 1038 3666 1038 3163 
Q 1038 2656 1286 2365 
Q 1534 2075 1959 2075 
z
" transform="scale(0.015625)"/>
      </defs>
      <use xlink:href="#DejaVuSans-30"/>
      <use xlink:href="#DejaVuSans-3a" x="63.623047"/>
      <use xlink:href="#DejaVuSans-20" x="97.314453"/>
      <use xlink:href="#DejaVuSans-30" x="129.101562"/>
      <use xlink:href="#DejaVuSans-2e" x="192.724609"/>
      <use xlink:href="#DejaVuSans-39" x="224.511719"/>
      <use xlink:href="#DejaVuSans-38" x="288.134766"/>
      <use xlink:href="#DejaVuSans-34" x="351.757812"/>
     </g>
    </g>
    <g id="line2d_19">
     <path d="M 245.4625 197.705938 
L 255.4625 197.705938 
L 265.4625 197.705938 
" style="fill: none; stroke: #ff7f0e; stroke-width: 1.5; stroke-linecap: square"/>
    </g>
    <g id="text_17">
     <!-- 1: 0.993 -->
     <g transform="translate(273.4625 201.205938) scale(0.1 -0.1)">
      <defs>
       <path id="DejaVuSans-33" d="M 2597 2516 
Q 3050 2419 3304 2112 
Q 3559 1806 3559 1356 
Q 3559 666 3084 287 
Q 2609 -91 1734 -91 
Q 1441 -91 1130 -33 
Q 819 25 488 141 
L 488 750 
Q 750 597 1062 519 
Q 1375 441 1716 441 
Q 2309 441 2620 675 
Q 2931 909 2931 1356 
Q 2931 1769 2642 2001 
Q 2353 2234 1838 2234 
L 1294 2234 
L 1294 2753 
L 1863 2753 
Q 2328 2753 2575 2939 
Q 2822 3125 2822 3475 
Q 2822 3834 2567 4026 
Q 2313 4219 1838 4219 
Q 1578 4219 1281 4162 
Q 984 4106 628 3988 
L 628 4550 
Q 988 4650 1302 4700 
Q 1616 4750 1894 4750 
Q 2613 4750 3031 4423 
Q 3450 4097 3450 3541 
Q 3450 3153 3228 2886 
Q 3006 2619 2597 2516 
z
" transform="scale(0.015625)"/>
      </defs>
      <use xlink:href="#DejaVuSans-31"/>
      <use xlink:href="#DejaVuSans-3a" x="63.623047"/>
      <use xlink:href="#DejaVuSans-20" x="97.314453"/>
      <use xlink:href="#DejaVuSans-30" x="129.101562"/>
      <use xlink:href="#DejaVuSans-2e" x="192.724609"/>
      <use xlink:href="#DejaVuSans-39" x="224.511719"/>
      <use xlink:href="#DejaVuSans-39" x="288.134766"/>
      <use xlink:href="#DejaVuSans-33" x="351.757812"/>
     </g>
    </g>
    <g id="line2d_20">
     <path d="M 245.4625 212.384063 
L 255.4625 212.384063 
L 265.4625 212.384063 
" style="fill: none; stroke: #2ca02c; stroke-width: 1.5; stroke-linecap: square"/>
    </g>
    <g id="text_18">
     <!-- 2: 0.949 -->
     <g transform="translate(273.4625 215.884063) scale(0.1 -0.1)">
      <use xlink:href="#DejaVuSans-32"/>
      <use xlink:href="#DejaVuSans-3a" x="63.623047"/>
      <use xlink:href="#DejaVuSans-20" x="97.314453"/>
      <use xlink:href="#DejaVuSans-30" x="129.101562"/>
      <use xlink:href="#DejaVuSans-2e" x="192.724609"/>
      <use xlink:href="#DejaVuSans-39" x="224.511719"/>
      <use xlink:href="#DejaVuSans-34" x="288.134766"/>
      <use xlink:href="#DejaVuSans-39" x="351.757812"/>
     </g>
    </g>
    <g id="line2d_21">
     <path d="M 245.4625 227.062188 
L 255.4625 227.062188 
L 265.4625 227.062188 
" style="fill: none; stroke: #d62728; stroke-width: 1.5; stroke-linecap: square"/>
    </g>
    <g id="text_19">
     <!-- 3: 0.956 -->
     <g transform="translate(273.4625 230.562188) scale(0.1 -0.1)">
      <defs>
       <path id="DejaVuSans-35" d="M 691 4666 
L 3169 4666 
L 3169 4134 
L 1269 4134 
L 1269 2991 
Q 1406 3038 1543 3061 
Q 1681 3084 1819 3084 
Q 2600 3084 3056 2656 
Q 3513 2228 3513 1497 
Q 3513 744 3044 326 
Q 2575 -91 1722 -91 
Q 1428 -91 1123 -41 
Q 819 9 494 109 
L 494 744 
Q 775 591 1075 516 
Q 1375 441 1709 441 
Q 2250 441 2565 725 
Q 2881 1009 2881 1497 
Q 2881 1984 2565 2268 
Q 2250 2553 1709 2553 
Q 1456 2553 1204 2497 
Q 953 2441 691 2322 
L 691 4666 
z
" transform="scale(0.015625)"/>
      </defs>
      <use xlink:href="#DejaVuSans-33"/>
      <use xlink:href="#DejaVuSans-3a" x="63.623047"/>
      <use xlink:href="#DejaVuSans-20" x="97.314453"/>
      <use xlink:href="#DejaVuSans-30" x="129.101562"/>
      <use xlink:href="#DejaVuSans-2e" x="192.724609"/>
      <use xlink:href="#DejaVuSans-39" x="224.511719"/>
      <use xlink:href="#DejaVuSans-35" x="288.134766"/>
      <use xlink:href="#DejaVuSans-36" x="351.757812"/>
     </g>
    </g>
    <g id="line2d_22">
     <path d="M 245.4625 241.740313 
L 255.4625 241.740313 
L 265.4625 241.740313 
" style="fill: none; stroke: #9467bd; stroke-width: 1.5; stroke-linecap: square"/>
    </g>
    <g id="text_20">
     <!-- 4: 0.960 -->
     <g transform="translate(273.4625 245.240313) scale(0.1 -0.1)">
      <use xlink:href="#DejaVuSans-34"/>
      <use xlink:href="#DejaVuSans-3a" x="63.623047"/>
      <use xlink:href="#DejaVuSans-20" x="97.314453"/>
      <use xlink:href="#DejaVuSans-30" x="129.101562"/>
      <use xlink:href="#DejaVuSans-2e" x="192.724609"/>
      <use xlink:href="#DejaVuSans-39" x="224.511719"/>
      <use xlink:href="#DejaVuSans-36" x="288.134766"/>
      <use xlink:href="#DejaVuSans-30" x="351.757812"/>
     </g>
    </g>
   </g>
  </g>
 </g>
 <defs>
  <clipPath id="pbe0e41016a">
   <rect x="45" y="34.56" width="279" height="221.76"/>
  </clipPath>
 </defs>
</svg>
