<?xml version="1.0" encoding="utf-8" standalone="no"?>
<!DOCTYPE svg PUBLIC "-//W3C//DTD SVG 1.1//EN"
  "http://www.w3.org/Graphics/SVG/1.1/DTD/svg11.dtd">
<svg xmlns:xlink="http://www.w3.org/1999/xlink" width="360pt" height="288pt" viewBox="0 0 360 288" xmlns="http://www.w3.org/2000/svg" version="1.1">
 <metadata>
  <rdf:RDF xmlns:dc="http://purl.org/dc/elements/1.1/" xmlns:cc="http://creativecommons.org/ns#" xmlns:rdf="http://www.w3.org/1999/02/22-rdf-syntax-ns#">
   <cc:Work>
    <dc:type rdf:resource="http://purl.org/dc/dcmitype/StillImage"/>
    <dc:date>2023-04-12T14:33:12.011461</dc:date>
    <dc:format>image/svg+xml</dc:format>
    <dc:creator>
     <cc:Agent>
      <dc:title>Matplotlib v3.6.2, https://matplotlib.org/</dc:title>
     </cc:Agent>
    </dc:creator>
   </cc:Work>
  </rdf:RDF>
 </metadata>
 <defs>
  <style type="text/css">*{stroke-linejoin: round; stroke-linecap: butt}</style>
 </defs>
 <g id="figure_1">
  <g id="patch_1">
   <path d="M 0 288 
L 360 288 
L 360 0 
L 0 0 
z
" style="fill: #ffffff"/>
  </g>
  <g id="axes_1">
   <g id="patch_2">
    <path d="M 45 256.32 
L 324 256.32 
L 324 34.56 
L 45 34.56 
z
" style="fill: #ffffff"/>
   </g>
   <g id="matplotlib.axis_1">
    <g id="xtick_1">
     <g id="line2d_1">
      <defs>
       <path id="m4da66740a4" d="M 0 0 
L 0 3.5 
" style="stroke: #000000; stroke-width: 0.8"/>
      </defs>
      <g>
       <use xlink:href="#m4da66740a4" x="57.681818" y="256.32" style="stroke: #000000; stroke-width: 0.8"/>
      </g>
     </g>
     <g id="text_1">
      <!-- 0.0 -->
      <g transform="translate(49.730256 270.918437) scale(0.1 -0.1)">
       <defs>
        <path id="DejaVuSans-30" d="M 2034 4250 
Q 1547 4250 1301 3770 
Q 1056 3291 1056 2328 
Q 1056 1369 1301 889 
Q 1547 409 2034 409 
Q 2525 409 2770 889 
Q 3016 1369 3016 2328 
Q 3016 3291 2770 3770 
Q 2525 4250 2034 4250 
z
M 2034 4750 
Q 2819 4750 3233 4129 
Q 3647 3509 3647 2328 
Q 3647 1150 3233 529 
Q 2819 -91 2034 -91 
Q 1250 -91 836 529 
Q 422 1150 422 2328 
Q 422 3509 836 4129 
Q 1250 4750 2034 4750 
z
" transform="scale(0.015625)"/>
        <path id="DejaVuSans-2e" d="M 684 794 
L 1344 794 
L 1344 0 
L 684 0 
L 684 794 
z
" transform="scale(0.015625)"/>
       </defs>
       <use xlink:href="#DejaVuSans-30"/>
       <use xlink:href="#DejaVuSans-2e" x="63.623047"/>
       <use xlink:href="#DejaVuSans-30" x="95.410156"/>
      </g>
     </g>
    </g>
    <g id="xtick_2">
     <g id="line2d_2">
      <g>
       <use xlink:href="#m4da66740a4" x="108.409091" y="256.32" style="stroke: #000000; stroke-width: 0.8"/>
      </g>
     </g>
     <g id="text_2">
      <!-- 0.2 -->
      <g transform="translate(100.457528 270.918437) scale(0.1 -0.1)">
       <defs>
        <path id="DejaVuSans-32" d="M 1228 531 
L 3431 531 
L 3431 0 
L 469 0 
L 469 531 
Q 828 903 1448 1529 
Q 2069 2156 2228 2338 
Q 2531 2678 2651 2914 
Q 2772 3150 2772 3378 
Q 2772 3750 2511 3984 
Q 2250 4219 1831 4219 
Q 1534 4219 1204 4116 
Q 875 4013 500 3803 
L 500 4441 
Q 881 4594 1212 4672 
Q 1544 4750 1819 4750 
Q 2544 4750 2975 4387 
Q 3406 4025 3406 3419 
Q 3406 3131 3298 2873 
Q 3191 2616 2906 2266 
Q 2828 2175 2409 1742 
Q 1991 1309 1228 531 
z
" transform="scale(0.015625)"/>
       </defs>
       <use xlink:href="#DejaVuSans-30"/>
       <use xlink:href="#DejaVuSans-2e" x="63.623047"/>
       <use xlink:href="#DejaVuSans-32" x="95.410156"/>
      </g>
     </g>
    </g>
    <g id="xtick_3">
     <g id="line2d_3">
      <g>
       <use xlink:href="#m4da66740a4" x="159.136364" y="256.32" style="stroke: #000000; stroke-width: 0.8"/>
      </g>
     </g>
     <g id="text_3">
      <!-- 0.4 -->
      <g transform="translate(151.184801 270.918437) scale(0.1 -0.1)">
       <defs>
        <path id="DejaVuSans-34" d="M 2419 4116 
L 825 1625 
L 2419 1625 
L 2419 4116 
z
M 2253 4666 
L 3047 4666 
L 3047 1625 
L 3713 1625 
L 3713 1100 
L 3047 1100 
L 3047 0 
L 2419 0 
L 2419 1100 
L 313 1100 
L 313 1709 
L 2253 4666 
z
" transform="scale(0.015625)"/>
       </defs>
       <use xlink:href="#DejaVuSans-30"/>
       <use xlink:href="#DejaVuSans-2e" x="63.623047"/>
       <use xlink:href="#DejaVuSans-34" x="95.410156"/>
      </g>
     </g>
    </g>
    <g id="xtick_4">
     <g id="line2d_4">
      <g>
       <use xlink:href="#m4da66740a4" x="209.863636" y="256.32" style="stroke: #000000; stroke-width: 0.8"/>
      </g>
     </g>
     <g id="text_4">
      <!-- 0.6 -->
      <g transform="translate(201.912074 270.918437) scale(0.1 -0.1)">
       <defs>
        <path id="DejaVuSans-36" d="M 2113 2584 
Q 1688 2584 1439 2293 
Q 1191 2003 1191 1497 
Q 1191 994 1439 701 
Q 1688 409 2113 409 
Q 2538 409 2786 701 
Q 3034 994 3034 1497 
Q 3034 2003 2786 2293 
Q 2538 2584 2113 2584 
z
M 3366 4563 
L 3366 3988 
Q 3128 4100 2886 4159 
Q 2644 4219 2406 4219 
Q 1781 4219 1451 3797 
Q 1122 3375 1075 2522 
Q 1259 2794 1537 2939 
Q 1816 3084 2150 3084 
Q 2853 3084 3261 2657 
Q 3669 2231 3669 1497 
Q 3669 778 3244 343 
Q 2819 -91 2113 -91 
Q 1303 -91 875 529 
Q 447 1150 447 2328 
Q 447 3434 972 4092 
Q 1497 4750 2381 4750 
Q 2619 4750 2861 4703 
Q 3103 4656 3366 4563 
z
" transform="scale(0.015625)"/>
       </defs>
       <use xlink:href="#DejaVuSans-30"/>
       <use xlink:href="#DejaVuSans-2e" x="63.623047"/>
       <use xlink:href="#DejaVuSans-36" x="95.410156"/>
      </g>
     </g>
    </g>
    <g id="xtick_5">
     <g id="line2d_5">
      <g>
       <use xlink:href="#m4da66740a4" x="260.590909" y="256.32" style="stroke: #000000; stroke-width: 0.8"/>
      </g>
     </g>
     <g id="text_5">
      <!-- 0.8 -->
      <g transform="translate(252.639347 270.918437) scale(0.1 -0.1)">
       <defs>
        <path id="DejaVuSans-38" d="M 2034 2216 
Q 1584 2216 1326 1975 
Q 1069 1734 1069 1313 
Q 1069 891 1326 650 
Q 1584 409 2034 409 
Q 2484 409 2743 651 
Q 3003 894 3003 1313 
Q 3003 1734 2745 1975 
Q 2488 2216 2034 2216 
z
M 1403 2484 
Q 997 2584 770 2862 
Q 544 3141 544 3541 
Q 544 4100 942 4425 
Q 1341 4750 2034 4750 
Q 2731 4750 3128 4425 
Q 3525 4100 3525 3541 
Q 3525 3141 3298 2862 
Q 3072 2584 2669 2484 
Q 3125 2378 3379 2068 
Q 3634 1759 3634 1313 
Q 3634 634 3220 271 
Q 2806 -91 2034 -91 
Q 1263 -91 848 271 
Q 434 634 434 1313 
Q 434 1759 690 2068 
Q 947 2378 1403 2484 
z
M 1172 3481 
Q 1172 3119 1398 2916 
Q 1625 2713 2034 2713 
Q 2441 2713 2670 2916 
Q 2900 3119 2900 3481 
Q 2900 3844 2670 4047 
Q 2441 4250 2034 4250 
Q 1625 4250 1398 4047 
Q 1172 3844 1172 3481 
z
" transform="scale(0.015625)"/>
       </defs>
       <use xlink:href="#DejaVuSans-30"/>
       <use xlink:href="#DejaVuSans-2e" x="63.623047"/>
       <use xlink:href="#DejaVuSans-38" x="95.410156"/>
      </g>
     </g>
    </g>
    <g id="xtick_6">
     <g id="line2d_6">
      <g>
       <use xlink:href="#m4da66740a4" x="311.318182" y="256.32" style="stroke: #000000; stroke-width: 0.8"/>
      </g>
     </g>
     <g id="text_6">
      <!-- 1.0 -->
      <g transform="translate(303.366619 270.918437) scale(0.1 -0.1)">
       <defs>
        <path id="DejaVuSans-31" d="M 794 531 
L 1825 531 
L 1825 4091 
L 703 3866 
L 703 4441 
L 1819 4666 
L 2450 4666 
L 2450 531 
L 3481 531 
L 3481 0 
L 794 0 
L 794 531 
z
" transform="scale(0.015625)"/>
       </defs>
       <use xlink:href="#DejaVuSans-31"/>
       <use xlink:href="#DejaVuSans-2e" x="63.623047"/>
       <use xlink:href="#DejaVuSans-30" x="95.410156"/>
      </g>
     </g>
    </g>
    <g id="text_7">
     <!-- FPR -->
     <g transform="translate(175.135156 284.596563) scale(0.1 -0.1)">
      <defs>
       <path id="DejaVuSans-46" d="M 628 4666 
L 3309 4666 
L 3309 4134 
L 1259 4134 
L 1259 2759 
L 3109 2759 
L 3109 2228 
L 1259 2228 
L 1259 0 
L 628 0 
L 628 4666 
z
" transform="scale(0.015625)"/>
       <path id="DejaVuSans-50" d="M 1259 4147 
L 1259 2394 
L 2053 2394 
Q 2494 2394 2734 2622 
Q 2975 2850 2975 3272 
Q 2975 3691 2734 3919 
Q 2494 4147 2053 4147 
L 1259 4147 
z
M 628 4666 
L 2053 4666 
Q 2838 4666 3239 4311 
Q 3641 3956 3641 3272 
Q 3641 2581 3239 2228 
Q 2838 1875 2053 1875 
L 1259 1875 
L 1259 0 
L 628 0 
L 628 4666 
z
" transform="scale(0.015625)"/>
       <path id="DejaVuSans-52" d="M 2841 2188 
Q 3044 2119 3236 1894 
Q 3428 1669 3622 1275 
L 4263 0 
L 3584 0 
L 2988 1197 
Q 2756 1666 2539 1819 
Q 2322 1972 1947 1972 
L 1259 1972 
L 1259 0 
L 628 0 
L 628 4666 
L 2053 4666 
Q 2853 4666 3247 4331 
Q 3641 3997 3641 3322 
Q 3641 2881 3436 2590 
Q 3231 2300 2841 2188 
z
M 1259 4147 
L 1259 2491 
L 2053 2491 
Q 2509 2491 2742 2702 
Q 2975 2913 2975 3322 
Q 2975 3731 2742 3939 
Q 2509 4147 2053 4147 
L 1259 4147 
z
" transform="scale(0.015625)"/>
      </defs>
      <use xlink:href="#DejaVuSans-46"/>
      <use xlink:href="#DejaVuSans-50" x="57.519531"/>
      <use xlink:href="#DejaVuSans-52" x="117.822266"/>
     </g>
    </g>
   </g>
   <g id="matplotlib.axis_2">
    <g id="ytick_1">
     <g id="line2d_7">
      <defs>
       <path id="m399b42fc3a" d="M 0 0 
L -3.5 0 
" style="stroke: #000000; stroke-width: 0.8"/>
      </defs>
      <g>
       <use xlink:href="#m399b42fc3a" x="45" y="246.24" style="stroke: #000000; stroke-width: 0.8"/>
      </g>
     </g>
     <g id="text_8">
      <!-- 0.0 -->
      <g transform="translate(22.096875 250.039219) scale(0.1 -0.1)">
       <use xlink:href="#DejaVuSans-30"/>
       <use xlink:href="#DejaVuSans-2e" x="63.623047"/>
       <use xlink:href="#DejaVuSans-30" x="95.410156"/>
      </g>
     </g>
    </g>
    <g id="ytick_2">
     <g id="line2d_8">
      <g>
       <use xlink:href="#m399b42fc3a" x="45" y="205.92" style="stroke: #000000; stroke-width: 0.8"/>
      </g>
     </g>
     <g id="text_9">
      <!-- 0.2 -->
      <g transform="translate(22.096875 209.719219) scale(0.1 -0.1)">
       <use xlink:href="#DejaVuSans-30"/>
       <use xlink:href="#DejaVuSans-2e" x="63.623047"/>
       <use xlink:href="#DejaVuSans-32" x="95.410156"/>
      </g>
     </g>
    </g>
    <g id="ytick_3">
     <g id="line2d_9">
      <g>
       <use xlink:href="#m399b42fc3a" x="45" y="165.6" style="stroke: #000000; stroke-width: 0.8"/>
      </g>
     </g>
     <g id="text_10">
      <!-- 0.4 -->
      <g transform="translate(22.096875 169.399219) scale(0.1 -0.1)">
       <use xlink:href="#DejaVuSans-30"/>
       <use xlink:href="#DejaVuSans-2e" x="63.623047"/>
       <use xlink:href="#DejaVuSans-34" x="95.410156"/>
      </g>
     </g>
    </g>
    <g id="ytick_4">
     <g id="line2d_10">
      <g>
       <use xlink:href="#m399b42fc3a" x="45" y="125.28" style="stroke: #000000; stroke-width: 0.8"/>
      </g>
     </g>
     <g id="text_11">
      <!-- 0.6 -->
      <g transform="translate(22.096875 129.079219) scale(0.1 -0.1)">
       <use xlink:href="#DejaVuSans-30"/>
       <use xlink:href="#DejaVuSans-2e" x="63.623047"/>
       <use xlink:href="#DejaVuSans-36" x="95.410156"/>
      </g>
     </g>
    </g>
    <g id="ytick_5">
     <g id="line2d_11">
      <g>
       <use xlink:href="#m399b42fc3a" x="45" y="84.96" style="stroke: #000000; stroke-width: 0.8"/>
      </g>
     </g>
     <g id="text_12">
      <!-- 0.8 -->
      <g transform="translate(22.096875 88.759219) scale(0.1 -0.1)">
       <use xlink:href="#DejaVuSans-30"/>
       <use xlink:href="#DejaVuSans-2e" x="63.623047"/>
       <use xlink:href="#DejaVuSans-38" x="95.410156"/>
      </g>
     </g>
    </g>
    <g id="ytick_6">
     <g id="line2d_12">
      <g>
       <use xlink:href="#m399b42fc3a" x="45" y="44.64" style="stroke: #000000; stroke-width: 0.8"/>
      </g>
     </g>
     <g id="text_13">
      <!-- 1.0 -->
      <g transform="translate(22.096875 48.439219) scale(0.1 -0.1)">
       <use xlink:href="#DejaVuSans-31"/>
       <use xlink:href="#DejaVuSans-2e" x="63.623047"/>
       <use xlink:href="#DejaVuSans-30" x="95.410156"/>
      </g>
     </g>
    </g>
    <g id="text_14">
     <!-- TPR -->
     <g transform="translate(16.017187 154.982969) rotate(-90) scale(0.1 -0.1)">
      <defs>
       <path id="DejaVuSans-54" d="M -19 4666 
L 3928 4666 
L 3928 4134 
L 2272 4134 
L 2272 0 
L 1638 0 
L 1638 4134 
L -19 4134 
L -19 4666 
z
" transform="scale(0.015625)"/>
      </defs>
      <use xlink:href="#DejaVuSans-54"/>
      <use xlink:href="#DejaVuSans-50" x="61.083984"/>
      <use xlink:href="#DejaVuSans-52" x="121.386719"/>
     </g>
    </g>
   </g>
   <g id="line2d_13">
    <path d="M 57.681818 246.24 
L 57.681818 202.373333 
L 57.950501 202.373333 
L 57.950501 186.506667 
L 58.219183 186.506667 
L 58.219183 177.173333 
L 58.487866 177.173333 
L 58.487866 173.44 
L 58.756549 173.44 
L 58.756549 172.506667 
L 59.025231 172.506667 
L 59.025231 169.706667 
L 59.293914 169.706667 
L 59.293914 166.906667 
L 59.562596 166.906667 
L 59.562596 160.373333 
L 59.831279 160.373333 
L 59.831279 159.44 
L 60.099961 159.44 
L 60.099961 153.84 
L 60.368644 153.84 
L 60.368644 146.373333 
L 60.906009 146.373333 
L 60.906009 145.44 
L 61.174692 145.44 
L 61.174692 132.373333 
L 61.443374 132.373333 
L 61.443374 130.506667 
L 61.712057 130.506667 
L 61.712057 125.84 
L 61.98074 125.84 
L 61.98074 124.906667 
L 62.249422 124.906667 
L 62.249422 121.173333 
L 62.518105 121.173333 
L 62.518105 114.64 
L 62.786787 114.64 
L 62.786787 110.906667 
L 63.05547 110.906667 
L 63.05547 96.906667 
L 63.324153 96.906667 
L 63.324153 92.24 
L 63.861518 92.24 
L 63.861518 91.306667 
L 64.1302 91.306667 
L 64.1302 88.506667 
L 64.398883 88.506667 
L 64.398883 87.573333 
L 64.667565 87.573333 
L 64.667565 86.64 
L 64.936248 86.64 
L 64.936248 85.706667 
L 65.204931 85.706667 
L 65.204931 84.773333 
L 65.473613 84.773333 
L 65.473613 83.84 
L 65.742296 83.84 
L 65.742296 81.04 
L 66.279661 81.04 
L 66.279661 80.106667 
L 66.548344 80.106667 
L 66.548344 79.173333 
L 66.817026 79.173333 
L 66.817026 78.24 
L 67.085709 78.24 
L 67.085709 75.44 
L 67.354391 75.44 
L 67.354391 74.506667 
L 67.623074 74.506667 
L 67.623074 73.573333 
L 67.891757 73.573333 
L 67.891757 72.64 
L 68.160439 72.64 
L 68.160439 70.773333 
L 69.235169 70.773333 
L 69.235169 69.84 
L 70.3099 69.84 
L 70.3099 68.906667 
L 75.146186 68.906667 
L 75.146186 67.973333 
L 77.833012 67.973333 
L 77.833012 67.04 
L 78.101695 67.04 
L 78.101695 66.106667 
L 78.63906 66.106667 
L 78.63906 65.173333 
L 79.176425 65.173333 
L 79.176425 63.306667 
L 79.445108 63.306667 
L 79.445108 62.373333 
L 79.71379 62.373333 
L 79.71379 61.44 
L 88.580316 61.44 
L 88.580316 60.506667 
L 93.416602 60.506667 
L 93.416602 58.64 
L 107.925462 58.64 
L 107.925462 57.706667 
L 110.074923 57.706667 
L 110.074923 56.773333 
L 114.91121 56.773333 
L 114.91121 55.84 
L 115.179892 55.84 
L 115.179892 54.906667 
L 129.420069 54.906667 
L 129.420069 53.973333 
L 131.300847 53.973333 
L 131.300847 53.04 
L 137.74923 53.04 
L 137.74923 52.106667 
L 138.286595 52.106667 
L 138.286595 51.173333 
L 159.781202 51.173333 
L 159.781202 50.24 
L 161.930663 50.24 
L 161.930663 49.306667 
L 162.468028 49.306667 
L 162.468028 48.373333 
L 199.00886 48.373333 
L 199.00886 47.44 
L 199.814908 47.44 
L 199.814908 46.506667 
L 200.620955 46.506667 
L 200.620955 45.573333 
L 247.909091 45.573333 
L 247.909091 44.64 
L 311.318182 44.64 
L 311.318182 44.64 
" clip-path="url(#p0e34291c9d)" style="fill: none; stroke: #1f77b4; stroke-width: 1.5; stroke-linecap: square"/>
   </g>
   <g id="line2d_14">
    <path d="M 57.681818 246.24 
L 57.681818 245.535105 
L 57.681818 236.723916 
L 57.681818 236.019021 
L 57.681818 229.674965 
L 57.681818 228.617622 
L 57.681818 225.798042 
L 57.681818 225.093147 
L 57.681818 218.044196 
L 57.681818 217.339301 
L 57.681818 213.462378 
L 57.681818 212.757483 
L 57.681818 210.995245 
L 58.113173 210.995245 
L 58.113173 210.29035 
L 58.113173 209.585455 
L 58.113173 206.413427 
L 58.113173 205.708531 
L 58.113173 204.651189 
L 58.113173 203.946294 
L 58.113173 201.479161 
L 58.113173 200.774266 
L 58.113173 197.24979 
L 58.113173 196.544895 
L 58.113173 185.971469 
L 58.544527 185.971469 
L 58.544527 185.266573 
L 58.975881 184.914126 
L 58.975881 183.856783 
L 59.407236 183.856783 
L 59.407236 183.151888 
L 59.407236 182.446993 
L 59.407236 165.177063 
L 59.83859 165.177063 
L 59.83859 152.136503 
L 59.83859 151.431608 
L 59.83859 143.677762 
L 60.269944 143.325315 
L 60.269944 142.62042 
L 60.701299 142.62042 
L 60.701299 116.891748 
L 61.132653 116.891748 
L 61.132653 109.842797 
L 61.564007 109.842797 
L 61.564007 108.080559 
L 61.995362 108.080559 
L 61.995362 86.933706 
L 62.426716 86.933706 
L 62.426716 64.024615 
L 62.858071 64.024615 
L 62.858071 52.746294 
L 63.720779 52.746294 
L 63.720779 51.336503 
L 64.152134 51.336503 
L 64.152134 50.984056 
L 64.583488 50.984056 
L 64.583488 49.926713 
L 67.602968 49.926713 
L 67.602968 49.574266 
L 75.367347 49.574266 
L 75.367347 49.221818 
L 82.700371 49.221818 
L 82.700371 48.869371 
L 87.876623 48.869371 
L 87.876623 48.516923 
L 96.072356 48.516923 
L 96.072356 48.164476 
L 99.091837 48.164476 
L 99.091837 47.812028 
L 110.30705 47.812028 
L 110.30705 47.45958 
L 123.679035 47.45958 
L 123.679035 47.107133 
L 183.205937 47.107133 
L 183.205937 46.754685 
L 191.833024 46.754685 
L 191.833024 46.402238 
L 239.713358 46.402238 
L 239.713358 46.04979 
L 242.301484 46.04979 
L 242.301484 45.697343 
L 242.732839 45.697343 
L 242.732839 45.344895 
L 254.379406 45.344895 
L 254.379406 44.992448 
L 271.202226 44.992448 
L 271.202226 44.64 
L 311.318182 44.64 
" clip-path="url(#p0e34291c9d)" style="fill: none; stroke: #ff7f0e; stroke-width: 1.5; stroke-linecap: square"/>
   </g>
   <g id="line2d_15">
    <path d="M 57.681818 246.24 
L 57.681818 243.478356 
L 57.681818 210.33863 
L 57.915154 210.33863 
L 57.915154 191.007123 
L 58.381827 191.007123 
L 58.381827 160.629041 
L 58.615163 160.629041 
L 58.615163 157.867397 
L 59.081835 157.867397 
L 59.081835 155.105753 
L 59.548507 155.105753 
L 59.548507 152.34411 
L 59.781843 152.34411 
L 59.781843 144.059178 
L 60.015179 144.059178 
L 60.015179 141.297534 
L 60.248516 141.297534 
L 60.248516 135.774247 
L 61.18186 135.774247 
L 61.18186 133.012603 
L 62.115204 133.012603 
L 62.115204 127.489315 
L 63.048549 127.489315 
L 63.048549 121.966027 
L 63.515221 121.966027 
L 63.515221 110.919452 
L 63.748557 110.919452 
L 63.748557 108.157808 
L 65.148574 108.157808 
L 65.148574 102.634521 
L 65.848582 102.634521 
L 65.848582 97.111233 
L 67.248599 97.111233 
L 67.248599 94.349589 
L 70.048633 94.349589 
L 70.048633 91.587945 
L 70.281969 91.587945 
L 70.281969 83.303014 
L 72.148658 83.303014 
L 72.148658 80.54137 
L 72.61533 80.54137 
L 72.61533 77.779726 
L 73.082002 77.779726 
L 73.082002 75.018082 
L 73.315338 75.018082 
L 73.315338 72.256438 
L 74.248683 72.256438 
L 74.248683 69.494795 
L 74.715355 69.494795 
L 74.715355 63.971507 
L 77.515388 63.971507 
L 77.515388 61.209863 
L 80.548758 61.209863 
L 80.548758 58.448219 
L 81.948775 58.448219 
L 81.948775 55.686575 
L 83.348792 55.686575 
L 83.348792 52.924932 
L 91.982228 52.924932 
L 91.982228 50.163288 
L 131.182696 50.163288 
L 131.182696 47.401644 
L 140.749477 47.401644 
L 140.749477 44.64 
L 311.318182 44.64 
" clip-path="url(#p0e34291c9d)" style="fill: none; stroke: #2ca02c; stroke-width: 1.5; stroke-linecap: square"/>
   </g>
   <g id="line2d_16">
    <path d="M 57.681818 246.24 
L 57.681818 245.094545 
L 57.681818 232.494545 
L 57.939579 232.494545 
L 57.939579 194.694545 
L 58.197339 194.694545 
L 58.197339 178.658182 
L 58.4551 178.658182 
L 58.4551 175.221818 
L 58.71286 175.221818 
L 58.71286 174.076364 
L 58.970621 174.076364 
L 58.970621 158.04 
L 59.228381 158.04 
L 59.228381 156.894545 
L 59.486142 156.894545 
L 59.486142 154.603636 
L 59.743902 154.603636 
L 59.743902 146.585455 
L 60.001663 146.585455 
L 60.001663 145.44 
L 60.259424 145.44 
L 60.259424 144.294545 
L 60.517184 144.294545 
L 60.517184 138.567273 
L 60.774945 138.567273 
L 60.774945 133.985455 
L 61.032705 133.985455 
L 61.032705 131.694545 
L 61.290466 131.694545 
L 61.290466 129.403636 
L 61.548226 129.403636 
L 61.548226 120.24 
L 62.321508 120.24 
L 62.321508 119.094545 
L 62.579268 119.094545 
L 62.579268 112.221818 
L 62.837029 112.221818 
L 62.837029 104.203636 
L 63.094789 104.203636 
L 63.094789 98.476364 
L 63.61031 98.476364 
L 63.61031 95.04 
L 64.125831 95.04 
L 64.125831 88.167273 
L 65.414634 88.167273 
L 65.414634 85.876364 
L 65.930155 85.876364 
L 65.930155 82.44 
L 66.187916 82.44 
L 66.187916 81.294545 
L 66.703437 81.294545 
L 66.703437 76.712727 
L 66.961197 76.712727 
L 66.961197 72.130909 
L 67.476718 72.130909 
L 67.476718 70.985455 
L 67.734479 70.985455 
L 67.734479 69.84 
L 68.765521 69.84 
L 68.765521 68.694545 
L 69.023282 68.694545 
L 69.023282 66.403636 
L 69.281042 66.403636 
L 69.281042 64.112727 
L 69.538803 64.112727 
L 69.538803 62.967273 
L 72.116408 62.967273 
L 72.116408 61.821818 
L 72.88969 61.821818 
L 72.88969 59.530909 
L 74.178492 59.530909 
L 74.178492 58.385455 
L 74.694013 58.385455 
L 74.694013 57.24 
L 79.849224 57.24 
L 79.849224 56.094545 
L 81.911308 56.094545 
L 81.911308 54.949091 
L 86.550998 54.949091 
L 86.550998 53.803636 
L 91.190687 53.803636 
L 91.190687 52.658182 
L 111.296009 52.658182 
L 111.296009 51.512727 
L 115.420177 51.512727 
L 115.420177 50.367273 
L 116.193459 50.367273 
L 116.193459 49.221818 
L 118.771064 49.221818 
L 118.771064 48.076364 
L 122.379712 48.076364 
L 122.379712 46.930909 
L 127.534922 46.930909 
L 127.534922 45.785455 
L 133.721175 45.785455 
L 133.721175 44.64 
L 311.318182 44.64 
" clip-path="url(#p0e34291c9d)" style="fill: none; stroke: #d62728; stroke-width: 1.5; stroke-linecap: square"/>
   </g>
   <g id="line2d_17">
    <path d="M 57.681818 246.24 
L 57.681818 244.600976 
L 57.681818 239.683902 
L 57.926405 239.683902 
L 57.926405 236.405854 
L 58.170991 236.405854 
L 58.170991 233.127805 
L 58.415578 233.127805 
L 58.415578 228.210732 
L 58.660165 228.210732 
L 58.660165 226.571707 
L 58.904751 226.571707 
L 58.904751 220.01561 
L 59.149338 220.01561 
L 59.149338 216.737561 
L 59.393925 216.737561 
L 59.393925 211.820488 
L 59.638511 211.820488 
L 59.638511 206.903415 
L 60.127685 206.903415 
L 60.127685 195.430244 
L 60.372271 195.430244 
L 60.372271 190.513171 
L 60.616858 190.513171 
L 60.616858 188.874146 
L 60.861445 188.874146 
L 60.861445 187.235122 
L 61.106031 187.235122 
L 61.106031 177.400976 
L 61.350618 177.400976 
L 61.350618 170.844878 
L 61.595205 170.844878 
L 61.595205 165.927805 
L 61.839791 165.927805 
L 61.839791 156.093659 
L 62.084378 156.093659 
L 62.084378 149.537561 
L 62.573551 149.537561 
L 62.573551 146.259512 
L 63.062725 146.259512 
L 63.062725 142.981463 
L 63.307311 142.981463 
L 63.307311 141.342439 
L 63.551898 141.342439 
L 63.551898 120.035122 
L 63.796485 120.035122 
L 63.796485 108.561951 
L 64.041071 108.561951 
L 64.041071 105.283902 
L 64.530245 105.283902 
L 64.530245 100.366829 
L 65.019418 100.366829 
L 65.019418 95.449756 
L 65.264005 95.449756 
L 65.264005 88.893659 
L 66.486938 88.893659 
L 66.486938 87.254634 
L 67.220698 87.254634 
L 67.220698 85.61561 
L 67.709871 85.61561 
L 67.709871 82.337561 
L 68.443631 82.337561 
L 68.443631 77.420488 
L 69.911151 77.420488 
L 69.911151 74.142439 
L 70.400324 74.142439 
L 70.400324 72.503415 
L 71.378671 72.503415 
L 71.378671 70.86439 
L 73.335364 70.86439 
L 73.335364 69.225366 
L 74.558298 69.225366 
L 74.558298 67.586341 
L 77.248751 67.586341 
L 77.248751 65.947317 
L 80.672964 65.947317 
L 80.672964 64.308293 
L 82.629657 64.308293 
L 82.629657 62.669268 
L 83.608004 62.669268 
L 83.608004 61.030244 
L 86.298457 61.030244 
L 86.298457 59.39122 
L 87.276804 59.39122 
L 87.276804 57.752195 
L 97.549443 57.752195 
L 97.549443 56.113171 
L 135.215789 56.113171 
L 135.215789 54.474146 
L 137.417068 54.474146 
L 137.417068 52.835122 
L 139.129175 52.835122 
L 139.129175 49.557073 
L 140.596695 49.557073 
L 140.596695 47.918049 
L 152.581441 47.918049 
L 152.581441 46.279024 
L 256.286184 46.279024 
L 256.286184 44.64 
L 311.318182 44.64 
" clip-path="url(#p0e34291c9d)" style="fill: none; stroke: #9467bd; stroke-width: 1.5; stroke-linecap: square"/>
   </g>
   <g id="patch_3">
    <path d="M 45 256.32 
L 45 34.56 
" style="fill: none; stroke: #000000; stroke-width: 0.8; stroke-linejoin: miter; stroke-linecap: square"/>
   </g>
   <g id="patch_4">
    <path d="M 324 256.32 
L 324 34.56 
" style="fill: none; stroke: #000000; stroke-width: 0.8; stroke-linejoin: miter; stroke-linecap: square"/>
   </g>
   <g id="patch_5">
    <path d="M 45 256.32 
L 324 256.32 
" style="fill: none; stroke: #000000; stroke-width: 0.8; stroke-linejoin: miter; stroke-linecap: square"/>
   </g>
   <g id="patch_6">
    <path d="M 45 34.56 
L 324 34.56 
" style="fill: none; stroke: #000000; stroke-width: 0.8; stroke-linejoin: miter; stroke-linecap: square"/>
   </g>
   <g id="text_15">
    <!-- ROC -->
    <g transform="translate(171.418125 28.56) scale(0.12 -0.12)">
     <defs>
      <path id="DejaVuSans-4f" d="M 2522 4238 
Q 1834 4238 1429 3725 
Q 1025 3213 1025 2328 
Q 1025 1447 1429 934 
Q 1834 422 2522 422 
Q 3209 422 3611 934 
Q 4013 1447 4013 2328 
Q 4013 3213 3611 3725 
Q 3209 4238 2522 4238 
z
M 2522 4750 
Q 3503 4750 4090 4092 
Q 4678 3434 4678 2328 
Q 4678 1225 4090 567 
Q 3503 -91 2522 -91 
Q 1538 -91 948 565 
Q 359 1222 359 2328 
Q 359 3434 948 4092 
Q 1538 4750 2522 4750 
z
" transform="scale(0.015625)"/>
      <path id="DejaVuSans-43" d="M 4122 4306 
L 4122 3641 
Q 3803 3938 3442 4084 
Q 3081 4231 2675 4231 
Q 1875 4231 1450 3742 
Q 1025 3253 1025 2328 
Q 1025 1406 1450 917 
Q 1875 428 2675 428 
Q 3081 428 3442 575 
Q 3803 722 4122 1019 
L 4122 359 
Q 3791 134 3420 21 
Q 3050 -91 2638 -91 
Q 1578 -91 968 557 
Q 359 1206 359 2328 
Q 359 3453 968 4101 
Q 1578 4750 2638 4750 
Q 3056 4750 3426 4639 
Q 3797 4528 4122 4306 
z
" transform="scale(0.015625)"/>
     </defs>
     <use xlink:href="#DejaVuSans-52"/>
     <use xlink:href="#DejaVuSans-4f" x="69.482422"/>
     <use xlink:href="#DejaVuSans-43" x="148.193359"/>
    </g>
   </g>
   <g id="legend_1">
    <g id="patch_7">
     <path d="M 243.4625 251.32 
L 317 251.32 
Q 319 251.32 319 249.32 
L 319 176.929375 
Q 319 174.929375 317 174.929375 
L 243.4625 174.929375 
Q 241.4625 174.929375 241.4625 176.929375 
L 241.4625 249.32 
Q 241.4625 251.32 243.4625 251.32 
z
" style="fill: #ffffff; opacity: 0.8; stroke: #cccccc; stroke-linejoin: miter"/>
    </g>
    <g id="line2d_18">
     <path d="M 245.4625 183.027813 
L 255.4625 183.027813 
L 265.4625 183.027813 
" style="fill: none; stroke: #1f77b4; stroke-width: 1.5; stroke-linecap: square"/>
    </g>
    <g id="text_16">
     <!-- 0: 0.958 -->
     <g transform="translate(273.4625 186.527813) scale(0.1 -0.1)">
      <defs>
       <path id="DejaVuSans-3a" d="M 750 794 
L 1409 794 
L 1409 0 
L 750 0 
L 750 794 
z
M 750 3309 
L 1409 3309 
L 1409 2516 
L 750 2516 
L 750 3309 
z
" transform="scale(0.015625)"/>
       <path id="DejaVuSans-20" transform="scale(0.015625)"/>
       <path id="DejaVuSans-39" d="M 703 97 
L 703 672 
Q 941 559 1184 500 
Q 1428 441 1663 441 
Q 2288 441 2617 861 
Q 2947 1281 2994 2138 
Q 2813 1869 2534 1725 
Q 2256 1581 1919 1581 
Q 1219 1581 811 2004 
Q 403 2428 403 3163 
Q 403 3881 828 4315 
Q 1253 4750 1959 4750 
Q 2769 4750 3195 4129 
Q 3622 3509 3622 2328 
Q 3622 1225 3098 567 
Q 2575 -91 1691 -91 
Q 1453 -91 1209 -44 
Q 966 3 703 97 
z
M 1959 2075 
Q 2384 2075 2632 2365 
Q 2881 2656 2881 3163 
Q 2881 3666 2632 3958 
Q 2384 4250 1959 4250 
Q 1534 4250 1286 3958 
Q 1038 3666 1038 3163 
Q 1038 2656 1286 2365 
Q 1534 2075 1959 2075 
z
" transform="scale(0.015625)"/>
       <path id="DejaVuSans-35" d="M 691 4666 
L 3169 4666 
L 3169 4134 
L 1269 4134 
L 1269 2991 
Q 1406 3038 1543 3061 
Q 1681 3084 1819 3084 
Q 2600 3084 3056 2656 
Q 3513 2228 3513 1497 
Q 3513 744 3044 326 
Q 2575 -91 1722 -91 
Q 1428 -91 1123 -41 
Q 819 9 494 109 
L 494 744 
Q 775 591 1075 516 
Q 1375 441 1709 441 
Q 2250 441 2565 725 
Q 2881 1009 2881 1497 
Q 2881 1984 2565 2268 
Q 2250 2553 1709 2553 
Q 1456 2553 1204 2497 
Q 953 2441 691 2322 
L 691 4666 
z
" transform="scale(0.015625)"/>
      </defs>
      <use xlink:href="#DejaVuSans-30"/>
      <use xlink:href="#DejaVuSans-3a" x="63.623047"/>
      <use xlink:href="#DejaVuSans-20" x="97.314453"/>
      <use xlink:href="#DejaVuSans-30" x="129.101562"/>
      <use xlink:href="#DejaVuSans-2e" x="192.724609"/>
      <use xlink:href="#DejaVuSans-39" x="224.511719"/>
      <use xlink:href="#DejaVuSans-35" x="288.134766"/>
      <use xlink:href="#DejaVuSans-38" x="351.757812"/>
     </g>
    </g>
    <g id="line2d_19">
     <path d="M 245.4625 197.705938 
L 255.4625 197.705938 
L 265.4625 197.705938 
" style="fill: none; stroke: #ff7f0e; stroke-width: 1.5; stroke-linecap: square"/>
    </g>
    <g id="text_17">
     <!-- 1: 0.980 -->
     <g transform="translate(273.4625 201.205938) scale(0.1 -0.1)">
      <use xlink:href="#DejaVuSans-31"/>
      <use xlink:href="#DejaVuSans-3a" x="63.623047"/>
      <use xlink:href="#DejaVuSans-20" x="97.314453"/>
      <use xlink:href="#DejaVuSans-30" x="129.101562"/>
      <use xlink:href="#DejaVuSans-2e" x="192.724609"/>
      <use xlink:href="#DejaVuSans-39" x="224.511719"/>
      <use xlink:href="#DejaVuSans-38" x="288.134766"/>
      <use xlink:href="#DejaVuSans-30" x="351.757812"/>
     </g>
    </g>
    <g id="line2d_20">
     <path d="M 245.4625 212.384063 
L 255.4625 212.384063 
L 265.4625 212.384063 
" style="fill: none; stroke: #2ca02c; stroke-width: 1.5; stroke-linecap: square"/>
    </g>
    <g id="text_18">
     <!-- 2: 0.969 -->
     <g transform="translate(273.4625 215.884063) scale(0.1 -0.1)">
      <use xlink:href="#DejaVuSans-32"/>
      <use xlink:href="#DejaVuSans-3a" x="63.623047"/>
      <use xlink:href="#DejaVuSans-20" x="97.314453"/>
      <use xlink:href="#DejaVuSans-30" x="129.101562"/>
      <use xlink:href="#DejaVuSans-2e" x="192.724609"/>
      <use xlink:href="#DejaVuSans-39" x="224.511719"/>
      <use xlink:href="#DejaVuSans-36" x="288.134766"/>
      <use xlink:href="#DejaVuSans-39" x="351.757812"/>
     </g>
    </g>
    <g id="line2d_21">
     <path d="M 245.4625 227.062188 
L 255.4625 227.062188 
L 265.4625 227.062188 
" style="fill: none; stroke: #d62728; stroke-width: 1.5; stroke-linecap: square"/>
    </g>
    <g id="text_19">
     <!-- 3: 0.975 -->
     <g transform="translate(273.4625 230.562188) scale(0.1 -0.1)">
      <defs>
       <path id="DejaVuSans-33" d="M 2597 2516 
Q 3050 2419 3304 2112 
Q 3559 1806 3559 1356 
Q 3559 666 3084 287 
Q 2609 -91 1734 -91 
Q 1441 -91 1130 -33 
Q 819 25 488 141 
L 488 750 
Q 750 597 1062 519 
Q 1375 441 1716 441 
Q 2309 441 2620 675 
Q 2931 909 2931 1356 
Q 2931 1769 2642 2001 
Q 2353 2234 1838 2234 
L 1294 2234 
L 1294 2753 
L 1863 2753 
Q 2328 2753 2575 2939 
Q 2822 3125 2822 3475 
Q 2822 3834 2567 4026 
Q 2313 4219 1838 4219 
Q 1578 4219 1281 4162 
Q 984 4106 628 3988 
L 628 4550 
Q 988 4650 1302 4700 
Q 1616 4750 1894 4750 
Q 2613 4750 3031 4423 
Q 3450 4097 3450 3541 
Q 3450 3153 3228 2886 
Q 3006 2619 2597 2516 
z
" transform="scale(0.015625)"/>
       <path id="DejaVuSans-37" d="M 525 4666 
L 3525 4666 
L 3525 4397 
L 1831 0 
L 1172 0 
L 2766 4134 
L 525 4134 
L 525 4666 
z
" transform="scale(0.015625)"/>
      </defs>
      <use xlink:href="#DejaVuSans-33"/>
      <use xlink:href="#DejaVuSans-3a" x="63.623047"/>
      <use xlink:href="#DejaVuSans-20" x="97.314453"/>
      <use xlink:href="#DejaVuSans-30" x="129.101562"/>
      <use xlink:href="#DejaVuSans-2e" x="192.724609"/>
      <use xlink:href="#DejaVuSans-39" x="224.511719"/>
      <use xlink:href="#DejaVuSans-37" x="288.134766"/>
      <use xlink:href="#DejaVuSans-35" x="351.757812"/>
     </g>
    </g>
    <g id="line2d_22">
     <path d="M 245.4625 241.740313 
L 255.4625 241.740313 
L 265.4625 241.740313 
" style="fill: none; stroke: #9467bd; stroke-width: 1.5; stroke-linecap: square"/>
    </g>
    <g id="text_20">
     <!-- 4: 0.955 -->
     <g transform="translate(273.4625 245.240313) scale(0.1 -0.1)">
      <use xlink:href="#DejaVuSans-34"/>
      <use xlink:href="#DejaVuSans-3a" x="63.623047"/>
      <use xlink:href="#DejaVuSans-20" x="97.314453"/>
      <use xlink:href="#DejaVuSans-30" x="129.101562"/>
      <use xlink:href="#DejaVuSans-2e" x="192.724609"/>
      <use xlink:href="#DejaVuSans-39" x="224.511719"/>
      <use xlink:href="#DejaVuSans-35" x="288.134766"/>
      <use xlink:href="#DejaVuSans-35" x="351.757812"/>
     </g>
    </g>
   </g>
  </g>
 </g>
 <defs>
  <clipPath id="p0e34291c9d">
   <rect x="45" y="34.56" width="279" height="221.76"/>
  </clipPath>
 </defs>
</svg>
