<?xml version="1.0" encoding="utf-8" standalone="no"?>
<!DOCTYPE svg PUBLIC "-//W3C//DTD SVG 1.1//EN"
  "http://www.w3.org/Graphics/SVG/1.1/DTD/svg11.dtd">
<svg xmlns:xlink="http://www.w3.org/1999/xlink" width="360pt" height="288pt" viewBox="0 0 360 288" xmlns="http://www.w3.org/2000/svg" version="1.1">
 <metadata>
  <rdf:RDF xmlns:dc="http://purl.org/dc/elements/1.1/" xmlns:cc="http://creativecommons.org/ns#" xmlns:rdf="http://www.w3.org/1999/02/22-rdf-syntax-ns#">
   <cc:Work>
    <dc:type rdf:resource="http://purl.org/dc/dcmitype/StillImage"/>
    <dc:date>2023-04-10T16:38:40.489347</dc:date>
    <dc:format>image/svg+xml</dc:format>
    <dc:creator>
     <cc:Agent>
      <dc:title>Matplotlib v3.6.2, https://matplotlib.org/</dc:title>
     </cc:Agent>
    </dc:creator>
   </cc:Work>
  </rdf:RDF>
 </metadata>
 <defs>
  <style type="text/css">*{stroke-linejoin: round; stroke-linecap: butt}</style>
 </defs>
 <g id="figure_1">
  <g id="patch_1">
   <path d="M 0 288 
L 360 288 
L 360 0 
L 0 0 
z
" style="fill: #ffffff"/>
  </g>
  <g id="axes_1">
   <g id="patch_2">
    <path d="M 45 256.32 
L 324 256.32 
L 324 34.56 
L 45 34.56 
z
" style="fill: #ffffff"/>
   </g>
   <g id="matplotlib.axis_1">
    <g id="xtick_1">
     <g id="line2d_1">
      <defs>
       <path id="medba546a6a" d="M 0 0 
L 0 3.5 
" style="stroke: #000000; stroke-width: 0.8"/>
      </defs>
      <g>
       <use xlink:href="#medba546a6a" x="57.681818" y="256.32" style="stroke: #000000; stroke-width: 0.8"/>
      </g>
     </g>
     <g id="text_1">
      <!-- 0.0 -->
      <g transform="translate(49.730256 270.918437) scale(0.1 -0.1)">
       <defs>
        <path id="DejaVuSans-30" d="M 2034 4250 
Q 1547 4250 1301 3770 
Q 1056 3291 1056 2328 
Q 1056 1369 1301 889 
Q 1547 409 2034 409 
Q 2525 409 2770 889 
Q 3016 1369 3016 2328 
Q 3016 3291 2770 3770 
Q 2525 4250 2034 4250 
z
M 2034 4750 
Q 2819 4750 3233 4129 
Q 3647 3509 3647 2328 
Q 3647 1150 3233 529 
Q 2819 -91 2034 -91 
Q 1250 -91 836 529 
Q 422 1150 422 2328 
Q 422 3509 836 4129 
Q 1250 4750 2034 4750 
z
" transform="scale(0.015625)"/>
        <path id="DejaVuSans-2e" d="M 684 794 
L 1344 794 
L 1344 0 
L 684 0 
L 684 794 
z
" transform="scale(0.015625)"/>
       </defs>
       <use xlink:href="#DejaVuSans-30"/>
       <use xlink:href="#DejaVuSans-2e" x="63.623047"/>
       <use xlink:href="#DejaVuSans-30" x="95.410156"/>
      </g>
     </g>
    </g>
    <g id="xtick_2">
     <g id="line2d_2">
      <g>
       <use xlink:href="#medba546a6a" x="108.409091" y="256.32" style="stroke: #000000; stroke-width: 0.8"/>
      </g>
     </g>
     <g id="text_2">
      <!-- 0.2 -->
      <g transform="translate(100.457528 270.918437) scale(0.1 -0.1)">
       <defs>
        <path id="DejaVuSans-32" d="M 1228 531 
L 3431 531 
L 3431 0 
L 469 0 
L 469 531 
Q 828 903 1448 1529 
Q 2069 2156 2228 2338 
Q 2531 2678 2651 2914 
Q 2772 3150 2772 3378 
Q 2772 3750 2511 3984 
Q 2250 4219 1831 4219 
Q 1534 4219 1204 4116 
Q 875 4013 500 3803 
L 500 4441 
Q 881 4594 1212 4672 
Q 1544 4750 1819 4750 
Q 2544 4750 2975 4387 
Q 3406 4025 3406 3419 
Q 3406 3131 3298 2873 
Q 3191 2616 2906 2266 
Q 2828 2175 2409 1742 
Q 1991 1309 1228 531 
z
" transform="scale(0.015625)"/>
       </defs>
       <use xlink:href="#DejaVuSans-30"/>
       <use xlink:href="#DejaVuSans-2e" x="63.623047"/>
       <use xlink:href="#DejaVuSans-32" x="95.410156"/>
      </g>
     </g>
    </g>
    <g id="xtick_3">
     <g id="line2d_3">
      <g>
       <use xlink:href="#medba546a6a" x="159.136364" y="256.32" style="stroke: #000000; stroke-width: 0.8"/>
      </g>
     </g>
     <g id="text_3">
      <!-- 0.4 -->
      <g transform="translate(151.184801 270.918437) scale(0.1 -0.1)">
       <defs>
        <path id="DejaVuSans-34" d="M 2419 4116 
L 825 1625 
L 2419 1625 
L 2419 4116 
z
M 2253 4666 
L 3047 4666 
L 3047 1625 
L 3713 1625 
L 3713 1100 
L 3047 1100 
L 3047 0 
L 2419 0 
L 2419 1100 
L 313 1100 
L 313 1709 
L 2253 4666 
z
" transform="scale(0.015625)"/>
       </defs>
       <use xlink:href="#DejaVuSans-30"/>
       <use xlink:href="#DejaVuSans-2e" x="63.623047"/>
       <use xlink:href="#DejaVuSans-34" x="95.410156"/>
      </g>
     </g>
    </g>
    <g id="xtick_4">
     <g id="line2d_4">
      <g>
       <use xlink:href="#medba546a6a" x="209.863636" y="256.32" style="stroke: #000000; stroke-width: 0.8"/>
      </g>
     </g>
     <g id="text_4">
      <!-- 0.6 -->
      <g transform="translate(201.912074 270.918437) scale(0.1 -0.1)">
       <defs>
        <path id="DejaVuSans-36" d="M 2113 2584 
Q 1688 2584 1439 2293 
Q 1191 2003 1191 1497 
Q 1191 994 1439 701 
Q 1688 409 2113 409 
Q 2538 409 2786 701 
Q 3034 994 3034 1497 
Q 3034 2003 2786 2293 
Q 2538 2584 2113 2584 
z
M 3366 4563 
L 3366 3988 
Q 3128 4100 2886 4159 
Q 2644 4219 2406 4219 
Q 1781 4219 1451 3797 
Q 1122 3375 1075 2522 
Q 1259 2794 1537 2939 
Q 1816 3084 2150 3084 
Q 2853 3084 3261 2657 
Q 3669 2231 3669 1497 
Q 3669 778 3244 343 
Q 2819 -91 2113 -91 
Q 1303 -91 875 529 
Q 447 1150 447 2328 
Q 447 3434 972 4092 
Q 1497 4750 2381 4750 
Q 2619 4750 2861 4703 
Q 3103 4656 3366 4563 
z
" transform="scale(0.015625)"/>
       </defs>
       <use xlink:href="#DejaVuSans-30"/>
       <use xlink:href="#DejaVuSans-2e" x="63.623047"/>
       <use xlink:href="#DejaVuSans-36" x="95.410156"/>
      </g>
     </g>
    </g>
    <g id="xtick_5">
     <g id="line2d_5">
      <g>
       <use xlink:href="#medba546a6a" x="260.590909" y="256.32" style="stroke: #000000; stroke-width: 0.8"/>
      </g>
     </g>
     <g id="text_5">
      <!-- 0.8 -->
      <g transform="translate(252.639347 270.918437) scale(0.1 -0.1)">
       <defs>
        <path id="DejaVuSans-38" d="M 2034 2216 
Q 1584 2216 1326 1975 
Q 1069 1734 1069 1313 
Q 1069 891 1326 650 
Q 1584 409 2034 409 
Q 2484 409 2743 651 
Q 3003 894 3003 1313 
Q 3003 1734 2745 1975 
Q 2488 2216 2034 2216 
z
M 1403 2484 
Q 997 2584 770 2862 
Q 544 3141 544 3541 
Q 544 4100 942 4425 
Q 1341 4750 2034 4750 
Q 2731 4750 3128 4425 
Q 3525 4100 3525 3541 
Q 3525 3141 3298 2862 
Q 3072 2584 2669 2484 
Q 3125 2378 3379 2068 
Q 3634 1759 3634 1313 
Q 3634 634 3220 271 
Q 2806 -91 2034 -91 
Q 1263 -91 848 271 
Q 434 634 434 1313 
Q 434 1759 690 2068 
Q 947 2378 1403 2484 
z
M 1172 3481 
Q 1172 3119 1398 2916 
Q 1625 2713 2034 2713 
Q 2441 2713 2670 2916 
Q 2900 3119 2900 3481 
Q 2900 3844 2670 4047 
Q 2441 4250 2034 4250 
Q 1625 4250 1398 4047 
Q 1172 3844 1172 3481 
z
" transform="scale(0.015625)"/>
       </defs>
       <use xlink:href="#DejaVuSans-30"/>
       <use xlink:href="#DejaVuSans-2e" x="63.623047"/>
       <use xlink:href="#DejaVuSans-38" x="95.410156"/>
      </g>
     </g>
    </g>
    <g id="xtick_6">
     <g id="line2d_6">
      <g>
       <use xlink:href="#medba546a6a" x="311.318182" y="256.32" style="stroke: #000000; stroke-width: 0.8"/>
      </g>
     </g>
     <g id="text_6">
      <!-- 1.0 -->
      <g transform="translate(303.366619 270.918437) scale(0.1 -0.1)">
       <defs>
        <path id="DejaVuSans-31" d="M 794 531 
L 1825 531 
L 1825 4091 
L 703 3866 
L 703 4441 
L 1819 4666 
L 2450 4666 
L 2450 531 
L 3481 531 
L 3481 0 
L 794 0 
L 794 531 
z
" transform="scale(0.015625)"/>
       </defs>
       <use xlink:href="#DejaVuSans-31"/>
       <use xlink:href="#DejaVuSans-2e" x="63.623047"/>
       <use xlink:href="#DejaVuSans-30" x="95.410156"/>
      </g>
     </g>
    </g>
    <g id="text_7">
     <!-- FPR -->
     <g transform="translate(175.135156 284.596563) scale(0.1 -0.1)">
      <defs>
       <path id="DejaVuSans-46" d="M 628 4666 
L 3309 4666 
L 3309 4134 
L 1259 4134 
L 1259 2759 
L 3109 2759 
L 3109 2228 
L 1259 2228 
L 1259 0 
L 628 0 
L 628 4666 
z
" transform="scale(0.015625)"/>
       <path id="DejaVuSans-50" d="M 1259 4147 
L 1259 2394 
L 2053 2394 
Q 2494 2394 2734 2622 
Q 2975 2850 2975 3272 
Q 2975 3691 2734 3919 
Q 2494 4147 2053 4147 
L 1259 4147 
z
M 628 4666 
L 2053 4666 
Q 2838 4666 3239 4311 
Q 3641 3956 3641 3272 
Q 3641 2581 3239 2228 
Q 2838 1875 2053 1875 
L 1259 1875 
L 1259 0 
L 628 0 
L 628 4666 
z
" transform="scale(0.015625)"/>
       <path id="DejaVuSans-52" d="M 2841 2188 
Q 3044 2119 3236 1894 
Q 3428 1669 3622 1275 
L 4263 0 
L 3584 0 
L 2988 1197 
Q 2756 1666 2539 1819 
Q 2322 1972 1947 1972 
L 1259 1972 
L 1259 0 
L 628 0 
L 628 4666 
L 2053 4666 
Q 2853 4666 3247 4331 
Q 3641 3997 3641 3322 
Q 3641 2881 3436 2590 
Q 3231 2300 2841 2188 
z
M 1259 4147 
L 1259 2491 
L 2053 2491 
Q 2509 2491 2742 2702 
Q 2975 2913 2975 3322 
Q 2975 3731 2742 3939 
Q 2509 4147 2053 4147 
L 1259 4147 
z
" transform="scale(0.015625)"/>
      </defs>
      <use xlink:href="#DejaVuSans-46"/>
      <use xlink:href="#DejaVuSans-50" x="57.519531"/>
      <use xlink:href="#DejaVuSans-52" x="117.822266"/>
     </g>
    </g>
   </g>
   <g id="matplotlib.axis_2">
    <g id="ytick_1">
     <g id="line2d_7">
      <defs>
       <path id="ma427e455e0" d="M 0 0 
L -3.5 0 
" style="stroke: #000000; stroke-width: 0.8"/>
      </defs>
      <g>
       <use xlink:href="#ma427e455e0" x="45" y="246.24" style="stroke: #000000; stroke-width: 0.8"/>
      </g>
     </g>
     <g id="text_8">
      <!-- 0.0 -->
      <g transform="translate(22.096875 250.039219) scale(0.1 -0.1)">
       <use xlink:href="#DejaVuSans-30"/>
       <use xlink:href="#DejaVuSans-2e" x="63.623047"/>
       <use xlink:href="#DejaVuSans-30" x="95.410156"/>
      </g>
     </g>
    </g>
    <g id="ytick_2">
     <g id="line2d_8">
      <g>
       <use xlink:href="#ma427e455e0" x="45" y="205.92" style="stroke: #000000; stroke-width: 0.8"/>
      </g>
     </g>
     <g id="text_9">
      <!-- 0.2 -->
      <g transform="translate(22.096875 209.719219) scale(0.1 -0.1)">
       <use xlink:href="#DejaVuSans-30"/>
       <use xlink:href="#DejaVuSans-2e" x="63.623047"/>
       <use xlink:href="#DejaVuSans-32" x="95.410156"/>
      </g>
     </g>
    </g>
    <g id="ytick_3">
     <g id="line2d_9">
      <g>
       <use xlink:href="#ma427e455e0" x="45" y="165.6" style="stroke: #000000; stroke-width: 0.8"/>
      </g>
     </g>
     <g id="text_10">
      <!-- 0.4 -->
      <g transform="translate(22.096875 169.399219) scale(0.1 -0.1)">
       <use xlink:href="#DejaVuSans-30"/>
       <use xlink:href="#DejaVuSans-2e" x="63.623047"/>
       <use xlink:href="#DejaVuSans-34" x="95.410156"/>
      </g>
     </g>
    </g>
    <g id="ytick_4">
     <g id="line2d_10">
      <g>
       <use xlink:href="#ma427e455e0" x="45" y="125.28" style="stroke: #000000; stroke-width: 0.8"/>
      </g>
     </g>
     <g id="text_11">
      <!-- 0.6 -->
      <g transform="translate(22.096875 129.079219) scale(0.1 -0.1)">
       <use xlink:href="#DejaVuSans-30"/>
       <use xlink:href="#DejaVuSans-2e" x="63.623047"/>
       <use xlink:href="#DejaVuSans-36" x="95.410156"/>
      </g>
     </g>
    </g>
    <g id="ytick_5">
     <g id="line2d_11">
      <g>
       <use xlink:href="#ma427e455e0" x="45" y="84.96" style="stroke: #000000; stroke-width: 0.8"/>
      </g>
     </g>
     <g id="text_12">
      <!-- 0.8 -->
      <g transform="translate(22.096875 88.759219) scale(0.1 -0.1)">
       <use xlink:href="#DejaVuSans-30"/>
       <use xlink:href="#DejaVuSans-2e" x="63.623047"/>
       <use xlink:href="#DejaVuSans-38" x="95.410156"/>
      </g>
     </g>
    </g>
    <g id="ytick_6">
     <g id="line2d_12">
      <g>
       <use xlink:href="#ma427e455e0" x="45" y="44.64" style="stroke: #000000; stroke-width: 0.8"/>
      </g>
     </g>
     <g id="text_13">
      <!-- 1.0 -->
      <g transform="translate(22.096875 48.439219) scale(0.1 -0.1)">
       <use xlink:href="#DejaVuSans-31"/>
       <use xlink:href="#DejaVuSans-2e" x="63.623047"/>
       <use xlink:href="#DejaVuSans-30" x="95.410156"/>
      </g>
     </g>
    </g>
    <g id="text_14">
     <!-- TPR -->
     <g transform="translate(16.017187 154.982969) rotate(-90) scale(0.1 -0.1)">
      <defs>
       <path id="DejaVuSans-54" d="M -19 4666 
L 3928 4666 
L 3928 4134 
L 2272 4134 
L 2272 0 
L 1638 0 
L 1638 4134 
L -19 4134 
L -19 4666 
z
" transform="scale(0.015625)"/>
      </defs>
      <use xlink:href="#DejaVuSans-54"/>
      <use xlink:href="#DejaVuSans-50" x="61.083984"/>
      <use xlink:href="#DejaVuSans-52" x="121.386719"/>
     </g>
    </g>
   </g>
   <g id="line2d_13">
    <path d="M 57.681818 246.24 
L 57.766364 167.2128 
L 57.794545 167.2128 
L 57.850909 154.3104 
L 57.907273 154.3104 
L 57.991818 143.0208 
L 58.02 143.0208 
L 58.104545 126.6912 
L 58.132727 126.6912 
L 58.217273 115.6032 
L 58.245455 115.6032 
L 58.273636 112.5792 
L 58.358182 112.5792 
L 58.442727 109.152 
L 58.470909 109.152 
L 58.555455 99.6768 
L 58.583636 99.6768 
L 58.611818 97.056 
L 58.696364 97.056 
L 58.724545 96.6528 
L 58.837273 96.6528 
L 58.865455 95.04 
L 58.95 95.04 
L 58.978182 94.2336 
L 59.062727 94.2336 
L 59.147273 93.4272 
L 59.175455 93.4272 
L 59.26 90.4032 
L 59.344545 90.4032 
L 59.429091 85.7664 
L 59.485455 85.7664 
L 59.57 84.96 
L 59.654545 84.96 
L 59.739091 81.3312 
L 59.767273 81.3312 
L 59.851818 79.5168 
L 59.88 79.5168 
L 59.936364 78.3072 
L 60.020909 78.3072 
L 60.105455 76.6944 
L 60.161818 76.6944 
L 60.218182 74.6784 
L 60.274545 74.6784 
L 60.359091 73.0656 
L 60.387273 73.0656 
L 60.415455 72.6624 
L 60.528182 72.6624 
L 60.612727 71.6544 
L 60.640909 71.6544 
L 60.697273 71.0496 
L 60.753636 71.0496 
L 60.838182 70.0416 
L 60.950909 70.0416 
L 61.035455 69.0336 
L 61.12 69.0336 
L 61.204545 68.2272 
L 61.260909 68.2272 
L 61.260909 68.0256 
L 61.458182 68.0256 
L 61.486364 67.2192 
L 61.627273 67.2192 
L 61.711818 66.816 
L 61.796364 66.816 
L 61.796364 66.4128 
L 61.937273 66.4128 
L 62.021818 65.808 
L 62.05 65.808 
L 62.106364 65.2032 
L 62.162727 65.2032 
L 62.162727 65.0016 
L 62.36 65.0016 
L 62.36 64.8 
L 62.67 64.8 
L 62.754545 64.3968 
L 62.810909 64.3968 
L 62.810909 64.1952 
L 62.923636 64.1952 
L 62.951818 63.5904 
L 63.036364 63.5904 
L 63.120909 62.9856 
L 63.177273 62.9856 
L 63.261818 62.3808 
L 63.29 62.3808 
L 63.374545 61.776 
L 63.543636 61.776 
L 63.628182 61.1712 
L 63.881818 61.1712 
L 63.881818 60.5664 
L 64.191818 60.5664 
L 64.248182 60.1632 
L 64.360909 60.1632 
L 64.445455 59.76 
L 64.501818 59.76 
L 64.501818 59.5584 
L 64.670909 59.5584 
L 64.755455 59.1552 
L 64.868182 59.1552 
L 64.868182 58.9536 
L 65.037273 58.9536 
L 65.037273 58.5504 
L 65.290909 58.5504 
L 65.319091 57.9456 
L 65.46 57.9456 
L 65.544545 57.5424 
L 65.629091 57.5424 
L 65.629091 57.3408 
L 65.826364 57.3408 
L 65.882727 56.9376 
L 66.023636 56.9376 
L 66.023636 56.5344 
L 66.192727 56.5344 
L 66.277273 56.1312 
L 66.39 56.1312 
L 66.474545 55.728 
L 66.615455 55.728 
L 66.615455 55.5264 
L 66.953636 55.5264 
L 67.01 54.72 
L 67.742727 54.72 
L 67.742727 54.5184 
L 67.883636 54.5184 
L 67.968182 54.1152 
L 67.996364 54.1152 
L 67.996364 53.9136 
L 68.221818 53.9136 
L 68.221818 53.5104 
L 68.390909 53.5104 
L 68.390909 53.3088 
L 68.56 53.3088 
L 68.616364 52.9056 
L 68.785455 52.9056 
L 68.813636 52.3008 
L 69.236364 52.3008 
L 69.236364 52.0992 
L 69.433636 52.0992 
L 69.433636 51.8976 
L 69.659091 51.8976 
L 69.659091 51.696 
L 70.476364 51.696 
L 70.476364 51.4944 
L 70.899091 51.4944 
L 70.899091 51.2928 
L 71.237273 51.2928 
L 71.237273 51.0912 
L 71.434545 51.0912 
L 71.434545 50.8896 
L 72.195455 50.8896 
L 72.251818 50.4864 
L 72.674545 50.4864 
L 72.674545 50.2848 
L 73.21 50.2848 
L 73.21 50.0832 
L 74.900909 50.0832 
L 74.900909 49.8816 
L 75.013636 49.8816 
L 75.013636 49.68 
L 75.239091 49.68 
L 75.239091 49.4784 
L 76.422727 49.4784 
L 76.422727 49.2768 
L 78.057273 49.2768 
L 78.057273 49.0752 
L 78.310909 49.0752 
L 78.310909 48.8736 
L 78.508182 48.8736 
L 78.508182 48.672 
L 78.620909 48.672 
L 78.620909 48.4704 
L 79.1 48.4704 
L 79.1 48.2688 
L 79.804545 48.2688 
L 79.889091 47.8656 
L 81.27 47.8656 
L 81.27 47.664 
L 81.636364 47.664 
L 81.636364 47.4624 
L 82.481818 47.4624 
L 82.481818 47.2608 
L 84.961818 47.2608 
L 84.961818 47.0592 
L 87.16 47.0592 
L 87.16 46.8576 
L 87.357273 46.8576 
L 87.357273 46.656 
L 92.035455 46.656 
L 92.035455 46.4544 
L 92.796364 46.4544 
L 92.796364 46.2528 
L 93.98 46.2528 
L 93.98 46.0512 
L 100.264545 46.0512 
L 100.264545 45.8496 
L 100.630909 45.8496 
L 100.715455 45.4464 
L 113.622727 45.4464 
L 113.622727 45.2448 
L 116.835455 45.2448 
L 116.835455 45.0432 
L 118.949091 45.0432 
L 118.949091 44.8416 
L 153.077273 44.8416 
L 153.077273 44.64 
L 311.318182 44.64 
L 311.318182 44.64 
" clip-path="url(#p232638e379)" style="fill: none; stroke: #1f77b4; stroke-width: 1.5; stroke-linecap: square"/>
   </g>
   <g id="line2d_14">
    <path d="M 57.681818 246.24 
L 57.766364 107.3376 
L 57.794545 107.3376 
L 57.879091 94.2336 
L 57.907273 94.2336 
L 57.991818 78.7104 
L 58.02 78.7104 
L 58.048182 76.2912 
L 58.132727 76.2912 
L 58.217273 73.6704 
L 58.245455 73.6704 
L 58.33 67.6224 
L 58.358182 67.6224 
L 58.442727 64.1952 
L 58.470909 64.1952 
L 58.527273 61.5744 
L 58.611818 61.5744 
L 58.668182 60.768 
L 58.752727 60.768 
L 58.809091 59.76 
L 58.921818 59.76 
L 59.006364 58.5504 
L 59.034545 58.5504 
L 59.090909 57.5424 
L 59.147273 57.5424 
L 59.231818 56.3328 
L 59.26 56.3328 
L 59.316364 55.9296 
L 59.372727 55.9296 
L 59.372727 55.3248 
L 59.88 55.3248 
L 59.88 55.1232 
L 60.049091 55.1232 
L 60.105455 54.5184 
L 60.274545 54.5184 
L 60.274545 54.3168 
L 60.443636 54.3168 
L 60.443636 53.712 
L 60.556364 53.712 
L 60.640909 53.3088 
L 60.753636 53.3088 
L 60.753636 53.1072 
L 60.894545 53.1072 
L 60.894545 52.9056 
L 61.063636 52.9056 
L 61.148182 52.3008 
L 61.289091 52.3008 
L 61.317273 51.8976 
L 61.401818 51.8976 
L 61.486364 51.4944 
L 61.599091 51.4944 
L 61.599091 51.0912 
L 61.711818 51.0912 
L 61.796364 50.688 
L 61.909091 50.688 
L 61.909091 50.4864 
L 62.247273 50.4864 
L 62.247273 50.2848 
L 62.416364 50.2848 
L 62.416364 50.0832 
L 62.839091 50.0832 
L 62.839091 49.8816 
L 63.149091 49.8816 
L 63.149091 49.68 
L 63.515455 49.68 
L 63.515455 49.4784 
L 63.881818 49.4784 
L 63.966364 48.8736 
L 64.586364 48.8736 
L 64.670909 48.0672 
L 65.544545 48.0672 
L 65.544545 47.8656 
L 66.249091 47.8656 
L 66.249091 47.664 
L 67.883636 47.664 
L 67.883636 47.4624 
L 68.024545 47.4624 
L 68.024545 47.2608 
L 68.390909 47.2608 
L 68.390909 47.0592 
L 69.264545 47.0592 
L 69.264545 46.8576 
L 69.969091 46.8576 
L 69.969091 46.656 
L 70.307273 46.656 
L 70.307273 46.4544 
L 71.04 46.4544 
L 71.04 46.2528 
L 72.082727 46.2528 
L 72.082727 46.0512 
L 75.295455 46.0512 
L 75.295455 45.8496 
L 75.915455 45.8496 
L 75.915455 45.648 
L 77.042727 45.648 
L 77.042727 45.4464 
L 79.691818 45.4464 
L 79.691818 45.2448 
L 88.371818 45.2448 
L 88.371818 45.0432 
L 105.083636 45.0432 
L 105.083636 44.8416 
L 124.529091 44.8416 
L 124.529091 44.64 
L 311.318182 44.64 
L 311.318182 44.64 
" clip-path="url(#p232638e379)" style="fill: none; stroke: #ff7f0e; stroke-width: 1.5; stroke-linecap: square"/>
   </g>
   <g id="line2d_15">
    <path d="M 57.681818 246.24 
L 57.766364 163.1808 
L 57.794545 163.1808 
L 57.879091 155.1168 
L 57.907273 155.1168 
L 57.991818 150.0768 
L 58.02 150.0768 
L 58.104545 140.1984 
L 58.132727 140.1984 
L 58.217273 129.312 
L 58.245455 129.312 
L 58.301818 127.0944 
L 58.358182 127.0944 
L 58.442727 122.8608 
L 58.470909 122.8608 
L 58.527273 119.8368 
L 58.583636 119.8368 
L 58.668182 117.6192 
L 58.696364 117.6192 
L 58.752727 115.8048 
L 58.865455 115.8048 
L 58.95 111.3696 
L 58.978182 111.3696 
L 59.062727 108.3456 
L 59.090909 108.3456 
L 59.175455 105.7248 
L 59.231818 105.7248 
L 59.316364 103.104 
L 59.400909 103.104 
L 59.485455 101.088 
L 59.513636 101.088 
L 59.541818 99.8784 
L 59.626364 99.8784 
L 59.710909 97.8624 
L 59.739091 97.8624 
L 59.823636 95.2416 
L 59.908182 95.2416 
L 59.992727 94.032 
L 60.020909 94.032 
L 60.077273 93.024 
L 60.161818 93.024 
L 60.246364 92.016 
L 60.330909 92.016 
L 60.415455 91.008 
L 60.443636 91.008 
L 60.528182 89.5968 
L 60.556364 89.5968 
L 60.556364 89.3952 
L 60.697273 89.3952 
L 60.697273 89.1936 
L 60.81 89.1936 
L 60.838182 88.7904 
L 61.007273 88.7904 
L 61.091818 87.5808 
L 61.12 87.5808 
L 61.12 87.3792 
L 61.232727 87.3792 
L 61.317273 86.7744 
L 61.458182 86.7744 
L 61.542727 85.1616 
L 61.570909 85.1616 
L 61.599091 84.5568 
L 61.683636 84.5568 
L 61.768182 83.3472 
L 61.796364 83.3472 
L 61.880909 82.7424 
L 61.909091 82.7424 
L 61.993636 82.3392 
L 62.021818 82.3392 
L 62.078182 81.7344 
L 62.134545 81.7344 
L 62.162727 81.3312 
L 62.247273 81.3312 
L 62.331818 80.928 
L 62.472727 80.928 
L 62.500909 80.1216 
L 62.613636 80.1216 
L 62.67 79.3152 
L 62.726364 79.3152 
L 62.810909 78.912 
L 62.839091 78.912 
L 62.895455 77.904 
L 63.008182 77.904 
L 63.092727 77.2992 
L 63.120909 77.2992 
L 63.205455 76.0896 
L 63.233636 76.0896 
L 63.29 74.88 
L 63.374545 74.88 
L 63.374545 74.6784 
L 63.6 74.6784 
L 63.684545 74.2752 
L 63.712727 74.2752 
L 63.712727 74.0736 
L 63.825455 74.0736 
L 63.881818 73.4688 
L 63.938182 73.4688 
L 64.022727 73.0656 
L 64.135455 73.0656 
L 64.135455 72.864 
L 64.417273 72.864 
L 64.445455 72.4608 
L 64.53 72.4608 
L 64.53 72.2592 
L 64.699091 72.2592 
L 64.783636 71.4528 
L 64.84 71.4528 
L 64.924545 71.0496 
L 65.009091 71.0496 
L 65.065455 70.2432 
L 65.121818 70.2432 
L 65.206364 69.4368 
L 65.234545 69.4368 
L 65.262727 69.0336 
L 65.516364 69.0336 
L 65.572727 68.2272 
L 65.657273 68.2272 
L 65.741818 67.6224 
L 65.77 67.6224 
L 65.854545 67.2192 
L 66.023636 67.2192 
L 66.023636 67.0176 
L 66.136364 67.0176 
L 66.220909 66.6144 
L 66.249091 66.6144 
L 66.305455 66.2112 
L 66.559091 66.2112 
L 66.559091 66.0096 
L 67.348182 66.0096 
L 67.432727 65.6064 
L 67.573636 65.6064 
L 67.63 65.0016 
L 67.714545 65.0016 
L 67.770909 64.1952 
L 67.827273 64.1952 
L 67.827273 63.9936 
L 67.968182 63.9936 
L 67.968182 63.792 
L 68.221818 63.792 
L 68.221818 63.5904 
L 68.419091 63.5904 
L 68.419091 63.3888 
L 68.644545 63.3888 
L 68.700909 62.9856 
L 69.349091 62.9856 
L 69.433636 62.3808 
L 69.546364 62.3808 
L 69.574545 61.776 
L 70.081818 61.776 
L 70.081818 61.5744 
L 70.279091 61.5744 
L 70.279091 61.3728 
L 70.673636 61.3728 
L 70.673636 61.1712 
L 71.519091 61.1712 
L 71.519091 60.768 
L 71.66 60.768 
L 71.66 60.3648 
L 71.857273 60.3648 
L 71.885455 59.9616 
L 72.59 59.9616 
L 72.674545 59.3568 
L 72.984545 59.3568 
L 73.069091 58.9536 
L 73.463636 58.9536 
L 73.463636 58.752 
L 74.196364 58.752 
L 74.196364 58.5504 
L 74.337273 58.5504 
L 74.365455 58.1472 
L 75.351818 58.1472 
L 75.351818 57.9456 
L 75.746364 57.9456 
L 75.830909 57.5424 
L 75.943636 57.5424 
L 75.943636 57.3408 
L 76.197273 57.3408 
L 76.197273 57.1392 
L 76.873636 57.1392 
L 76.873636 56.9376 
L 76.986364 56.9376 
L 76.986364 56.736 
L 77.493636 56.736 
L 77.493636 56.5344 
L 77.916364 56.5344 
L 77.916364 56.3328 
L 78.141818 56.3328 
L 78.226364 55.9296 
L 78.395455 55.9296 
L 78.395455 55.728 
L 78.536364 55.728 
L 78.536364 55.5264 
L 79.128182 55.5264 
L 79.128182 55.3248 
L 79.466364 55.3248 
L 79.466364 55.1232 
L 80.142727 55.1232 
L 80.142727 54.9216 
L 80.34 54.9216 
L 80.424545 54.5184 
L 80.762727 54.5184 
L 80.819091 54.1152 
L 81.467273 54.1152 
L 81.467273 53.9136 
L 82.256364 53.9136 
L 82.256364 53.712 
L 82.876364 53.712 
L 82.876364 53.5104 
L 83.411818 53.5104 
L 83.411818 53.3088 
L 84.003636 53.3088 
L 84.003636 53.1072 
L 84.426364 53.1072 
L 84.482727 52.704 
L 84.792727 52.704 
L 84.877273 52.3008 
L 85.074545 52.3008 
L 85.074545 52.0992 
L 86.173636 52.0992 
L 86.173636 51.8976 
L 86.85 51.8976 
L 86.85 51.696 
L 89.048182 51.696 
L 89.048182 51.4944 
L 89.160909 51.4944 
L 89.160909 51.2928 
L 89.386364 51.2928 
L 89.386364 51.0912 
L 90.908182 51.0912 
L 90.908182 50.8896 
L 91.077273 50.8896 
L 91.077273 50.688 
L 91.669091 50.688 
L 91.669091 50.4864 
L 92.993636 50.4864 
L 92.993636 50.2848 
L 95.332727 50.2848 
L 95.332727 50.0832 
L 96.431818 50.0832 
L 96.431818 49.8816 
L 97.164545 49.8816 
L 97.164545 49.68 
L 97.474545 49.68 
L 97.474545 49.4784 
L 98.714545 49.4784 
L 98.714545 49.2768 
L 100.828182 49.2768 
L 100.828182 49.0752 
L 101.617273 49.0752 
L 101.617273 48.8736 
L 105.393636 48.8736 
L 105.45 48.4704 
L 105.872727 48.4704 
L 105.872727 48.2688 
L 106.239091 48.2688 
L 106.239091 48.0672 
L 107.732727 48.0672 
L 107.732727 47.8656 
L 108.409091 47.8656 
L 108.409091 47.664 
L 108.578182 47.664 
L 108.578182 47.4624 
L 114.975455 47.4624 
L 114.975455 47.2608 
L 115.257273 47.2608 
L 115.257273 47.0592 
L 115.764545 47.0592 
L 115.764545 46.8576 
L 117.173636 46.8576 
L 117.173636 46.656 
L 123.768182 46.656 
L 123.768182 46.4544 
L 128.023636 46.4544 
L 128.023636 46.2528 
L 133.913636 46.2528 
L 133.913636 46.0512 
L 138.084545 46.0512 
L 138.084545 45.8496 
L 138.366364 45.8496 
L 138.366364 45.648 
L 143.664545 45.648 
L 143.664545 45.4464 
L 153.359091 45.4464 
L 153.359091 45.2448 
L 164.603636 45.2448 
L 164.603636 45.0432 
L 178.215455 45.0432 
L 178.215455 44.8416 
L 184.105455 44.8416 
L 184.105455 44.64 
L 311.318182 44.64 
L 311.318182 44.64 
" clip-path="url(#p232638e379)" style="fill: none; stroke: #2ca02c; stroke-width: 1.5; stroke-linecap: square"/>
   </g>
   <g id="line2d_16">
    <path d="M 57.681818 246.24 
L 57.766364 207.7344 
L 57.794545 207.7344 
L 57.879091 195.84 
L 57.907273 195.84 
L 57.991818 189.5904 
L 58.02 189.5904 
L 58.104545 181.3248 
L 58.132727 181.3248 
L 58.217273 175.8816 
L 58.245455 175.8816 
L 58.33 173.664 
L 58.358182 173.664 
L 58.442727 167.2128 
L 58.499091 167.2128 
L 58.583636 161.7696 
L 58.611818 161.7696 
L 58.668182 160.3584 
L 58.724545 160.3584 
L 58.809091 153.504 
L 58.837273 153.504 
L 58.921818 151.6896 
L 58.95 151.6896 
L 59.034545 144.432 
L 59.062727 144.432 
L 59.119091 143.424 
L 59.175455 143.424 
L 59.26 142.2144 
L 59.316364 142.2144 
L 59.400909 139.9968 
L 59.429091 139.9968 
L 59.485455 138.9888 
L 59.541818 138.9888 
L 59.626364 135.36 
L 59.654545 135.36 
L 59.739091 133.1424 
L 59.767273 133.1424 
L 59.823636 132.336 
L 59.88 132.336 
L 59.908182 130.9248 
L 59.992727 130.9248 
L 60.049091 129.7152 
L 60.246364 129.7152 
L 60.330909 127.296 
L 60.359091 127.296 
L 60.443636 126.4896 
L 60.5 126.4896 
L 60.584545 124.8768 
L 60.640909 124.8768 
L 60.725455 123.0624 
L 60.781818 123.0624 
L 60.866364 122.4576 
L 60.922727 122.4576 
L 61.007273 121.8528 
L 61.035455 121.8528 
L 61.12 120.8448 
L 61.148182 120.8448 
L 61.232727 119.0304 
L 61.317273 119.0304 
L 61.373636 117.8208 
L 61.43 117.8208 
L 61.486364 114.9984 
L 61.542727 114.9984 
L 61.627273 113.5872 
L 61.768182 113.5872 
L 61.852727 112.176 
L 61.880909 112.176 
L 61.937273 111.168 
L 62.078182 111.168 
L 62.078182 110.9664 
L 62.190909 110.9664 
L 62.247273 109.5552 
L 62.303636 109.5552 
L 62.331818 108.3456 
L 62.416364 108.3456 
L 62.500909 107.136 
L 62.613636 107.136 
L 62.67 106.128 
L 62.895455 106.128 
L 62.98 105.3216 
L 63.120909 105.3216 
L 63.120909 105.12 
L 63.233636 105.12 
L 63.233636 104.7168 
L 63.346364 104.7168 
L 63.430909 103.5072 
L 63.515455 103.5072 
L 63.543636 102.9024 
L 63.656364 102.9024 
L 63.740909 101.4912 
L 63.769091 101.4912 
L 63.853636 100.8864 
L 63.91 100.8864 
L 63.966364 100.2816 
L 64.050909 100.2816 
L 64.135455 98.2656 
L 64.22 98.2656 
L 64.248182 96.8544 
L 64.360909 96.8544 
L 64.445455 96.4512 
L 64.473636 96.4512 
L 64.558182 95.6448 
L 64.586364 95.6448 
L 64.642727 94.6368 
L 64.727273 94.6368 
L 64.811818 93.8304 
L 64.84 93.8304 
L 64.924545 93.4272 
L 65.009091 93.4272 
L 65.009091 93.2256 
L 65.121818 93.2256 
L 65.206364 92.016 
L 65.290909 92.016 
L 65.319091 91.2096 
L 65.403636 91.2096 
L 65.46 90.6048 
L 65.516364 90.6048 
L 65.600909 90 
L 65.713636 90 
L 65.798182 89.5968 
L 66.023636 89.5968 
L 66.051818 89.1936 
L 66.136364 89.1936 
L 66.192727 88.7904 
L 66.277273 88.7904 
L 66.361818 87.7824 
L 66.39 87.7824 
L 66.446364 87.1776 
L 66.7 87.1776 
L 66.756364 86.3712 
L 66.897273 86.3712 
L 66.953636 85.968 
L 67.01 85.968 
L 67.094545 84.96 
L 67.122727 84.96 
L 67.150909 84.3552 
L 67.263636 84.3552 
L 67.291818 83.7504 
L 67.460909 83.7504 
L 67.517273 83.1456 
L 67.601818 83.1456 
L 67.601818 82.944 
L 67.742727 82.944 
L 67.827273 82.5408 
L 67.883636 82.5408 
L 67.94 82.1376 
L 68.024545 82.1376 
L 68.080909 81.7344 
L 68.193636 81.7344 
L 68.278182 81.1296 
L 68.306364 81.1296 
L 68.390909 80.5248 
L 68.447273 80.5248 
L 68.447273 80.3232 
L 68.588182 80.3232 
L 68.588182 80.1216 
L 68.785455 80.1216 
L 68.87 78.7104 
L 68.926364 78.7104 
L 68.982727 77.904 
L 69.236364 77.904 
L 69.292727 77.5008 
L 69.405455 77.5008 
L 69.461818 77.0976 
L 69.574545 77.0976 
L 69.630909 76.4928 
L 69.940909 76.4928 
L 70.025455 76.0896 
L 70.222727 76.0896 
L 70.222727 75.888 
L 70.363636 75.888 
L 70.391818 75.4848 
L 70.589091 75.4848 
L 70.589091 75.2832 
L 70.73 75.2832 
L 70.814545 74.88 
L 70.899091 74.88 
L 70.899091 74.6784 
L 71.152727 74.6784 
L 71.237273 74.2752 
L 71.406364 74.2752 
L 71.462727 73.6704 
L 71.519091 73.6704 
L 71.603636 73.0656 
L 71.688182 73.0656 
L 71.688182 72.864 
L 72.082727 72.864 
L 72.082727 72.6624 
L 72.364545 72.6624 
L 72.449091 72.2592 
L 72.59 72.2592 
L 72.618182 71.6544 
L 72.730909 71.6544 
L 72.730909 71.4528 
L 72.843636 71.4528 
L 72.843636 71.2512 
L 72.956364 71.2512 
L 73.040909 70.848 
L 73.238182 70.848 
L 73.266364 70.4448 
L 73.435455 70.4448 
L 73.435455 70.0416 
L 73.632727 70.0416 
L 73.632727 69.84 
L 73.773636 69.84 
L 73.83 69.4368 
L 74.14 69.4368 
L 74.14 69.2352 
L 74.252727 69.2352 
L 74.337273 68.832 
L 74.478182 68.832 
L 74.478182 68.6304 
L 74.731818 68.6304 
L 74.816364 68.0256 
L 74.844545 68.0256 
L 74.900909 67.6224 
L 75.295455 67.6224 
L 75.351818 67.0176 
L 75.774545 67.0176 
L 75.774545 66.6144 
L 76.056364 66.6144 
L 76.056364 66.4128 
L 76.197273 66.4128 
L 76.197273 66.2112 
L 76.31 66.2112 
L 76.31 66.0096 
L 76.732727 66.0096 
L 76.817273 65.6064 
L 76.845455 65.6064 
L 76.93 65.2032 
L 77.014545 65.2032 
L 77.070909 64.8 
L 77.521818 64.8 
L 77.521818 64.5984 
L 77.831818 64.5984 
L 77.888182 63.9936 
L 78.113636 63.9936 
L 78.113636 63.792 
L 78.254545 63.792 
L 78.339091 63.3888 
L 78.902727 63.3888 
L 78.902727 63.1872 
L 79.128182 63.1872 
L 79.128182 62.9856 
L 79.691818 62.9856 
L 79.691818 62.784 
L 80.058182 62.784 
L 80.114545 61.9776 
L 80.34 61.9776 
L 80.34 61.776 
L 81.044545 61.776 
L 81.044545 61.5744 
L 81.185455 61.5744 
L 81.185455 61.3728 
L 81.439091 61.3728 
L 81.439091 61.1712 
L 81.664545 61.1712 
L 81.749091 60.3648 
L 82.735455 60.3648 
L 82.735455 60.1632 
L 82.960909 60.1632 
L 82.960909 59.9616 
L 83.214545 59.9616 
L 83.242727 59.1552 
L 83.44 59.1552 
L 83.44 58.9536 
L 83.75 58.9536 
L 83.75 58.752 
L 84.031818 58.752 
L 84.116364 58.3488 
L 84.200909 58.3488 
L 84.200909 58.1472 
L 84.37 58.1472 
L 84.37 57.9456 
L 85.271818 57.9456 
L 85.271818 57.744 
L 85.440909 57.744 
L 85.440909 57.3408 
L 85.750909 57.3408 
L 85.750909 57.1392 
L 85.863636 57.1392 
L 85.863636 56.9376 
L 86.060909 56.9376 
L 86.060909 56.736 
L 86.201818 56.736 
L 86.201818 56.5344 
L 86.85 56.5344 
L 86.85 56.3328 
L 86.962727 56.3328 
L 86.962727 56.1312 
L 87.103636 56.1312 
L 87.103636 55.9296 
L 88.71 55.9296 
L 88.71 55.728 
L 88.991818 55.728 
L 88.991818 55.5264 
L 89.583636 55.5264 
L 89.583636 55.3248 
L 89.893636 55.3248 
L 89.893636 55.1232 
L 90.034545 55.1232 
L 90.034545 54.9216 
L 90.682727 54.9216 
L 90.682727 54.5184 
L 91.020909 54.5184 
L 91.049091 54.1152 
L 92.204545 54.1152 
L 92.204545 53.9136 
L 92.683636 53.9136 
L 92.683636 53.712 
L 92.993636 53.712 
L 92.993636 53.5104 
L 93.839091 53.5104 
L 93.839091 53.3088 
L 94.177273 53.3088 
L 94.177273 53.1072 
L 94.656364 53.1072 
L 94.656364 52.9056 
L 94.797273 52.9056 
L 94.797273 52.704 
L 95.022727 52.704 
L 95.022727 52.5024 
L 95.755455 52.5024 
L 95.755455 52.3008 
L 96.065455 52.3008 
L 96.065455 52.0992 
L 96.629091 52.0992 
L 96.629091 51.8976 
L 97.39 51.8976 
L 97.474545 51.2928 
L 98.376364 51.2928 
L 98.376364 51.0912 
L 99.137273 51.0912 
L 99.137273 50.8896 
L 99.362727 50.8896 
L 99.362727 50.688 
L 99.982727 50.688 
L 99.982727 50.4864 
L 102.35 50.4864 
L 102.406364 50.0832 
L 103.420909 50.0832 
L 103.420909 49.8816 
L 104.350909 49.8816 
L 104.350909 49.68 
L 104.858182 49.68 
L 104.858182 49.4784 
L 105.816364 49.4784 
L 105.816364 49.2768 
L 106.718182 49.2768 
L 106.802727 48.8736 
L 108.014545 48.8736 
L 108.014545 48.672 
L 109.029091 48.672 
L 109.029091 48.4704 
L 110.860909 48.4704 
L 110.860909 48.0672 
L 114.13 48.0672 
L 114.13 47.8656 
L 117.765455 47.8656 
L 117.765455 47.664 
L 119.850909 47.664 
L 119.850909 47.4624 
L 123.148182 47.4624 
L 123.148182 47.2608 
L 127.178182 47.2608 
L 127.178182 47.0592 
L 128.418182 47.0592 
L 128.418182 46.8576 
L 132.11 46.8576 
L 132.11 46.4544 
L 138.394545 46.4544 
L 138.394545 46.2528 
L 140.367273 46.2528 
L 140.367273 46.0512 
L 145.270909 46.0512 
L 145.270909 45.8496 
L 151.724545 45.8496 
L 151.724545 45.648 
L 153.105455 45.648 
L 153.105455 45.4464 
L 153.894545 45.4464 
L 153.894545 45.2448 
L 170.183636 45.2448 
L 170.183636 45.0432 
L 175.650909 45.0432 
L 175.650909 44.8416 
L 229.055455 44.8416 
L 229.055455 44.64 
L 311.318182 44.64 
L 311.318182 44.64 
" clip-path="url(#p232638e379)" style="fill: none; stroke: #d62728; stroke-width: 1.5; stroke-linecap: square"/>
   </g>
   <g id="line2d_17">
    <path d="M 57.681818 246.24 
L 57.766364 158.544 
L 57.794545 158.544 
L 57.879091 146.6496 
L 57.907273 146.6496 
L 57.991818 135.5616 
L 58.02 135.5616 
L 58.104545 129.1104 
L 58.132727 129.1104 
L 58.217273 116.0064 
L 58.245455 116.0064 
L 58.301818 108.9504 
L 58.358182 108.9504 
L 58.414545 106.7328 
L 58.470909 106.7328 
L 58.555455 103.3056 
L 58.583636 103.3056 
L 58.668182 100.2816 
L 58.696364 100.2816 
L 58.780909 95.8464 
L 58.837273 95.8464 
L 58.893636 93.8304 
L 58.95 93.8304 
L 59.034545 91.8144 
L 59.090909 91.8144 
L 59.175455 88.992 
L 59.203636 88.992 
L 59.26 87.7824 
L 59.316364 87.7824 
L 59.400909 85.7664 
L 59.429091 85.7664 
L 59.485455 83.1456 
L 59.541818 83.1456 
L 59.57 82.3392 
L 59.654545 82.3392 
L 59.739091 80.5248 
L 59.767273 80.5248 
L 59.795455 79.5168 
L 59.936364 79.5168 
L 59.964545 78.3072 
L 60.077273 78.3072 
L 60.161818 77.5008 
L 60.246364 77.5008 
L 60.330909 76.4928 
L 60.387273 76.4928 
L 60.387273 76.0896 
L 60.5 76.0896 
L 60.584545 74.4768 
L 60.612727 74.4768 
L 60.640909 73.0656 
L 60.781818 73.0656 
L 60.866364 71.856 
L 60.894545 71.856 
L 60.894545 71.4528 
L 61.12 71.4528 
L 61.12 71.2512 
L 61.232727 71.2512 
L 61.317273 70.6464 
L 61.345455 70.6464 
L 61.345455 70.4448 
L 61.542727 70.4448 
L 61.599091 69.6384 
L 61.655455 69.6384 
L 61.655455 69.2352 
L 61.880909 69.2352 
L 61.937273 68.832 
L 62.021818 68.832 
L 62.078182 68.4288 
L 62.247273 68.4288 
L 62.247273 68.0256 
L 62.36 68.0256 
L 62.388182 67.6224 
L 62.472727 67.6224 
L 62.557273 67.0176 
L 62.613636 67.0176 
L 62.613636 66.816 
L 62.839091 66.816 
L 62.895455 66.2112 
L 62.98 66.2112 
L 63.064545 65.808 
L 63.092727 65.808 
L 63.149091 65.0016 
L 63.205455 65.0016 
L 63.233636 64.1952 
L 63.318182 64.1952 
L 63.346364 63.792 
L 63.459091 63.792 
L 63.459091 63.3888 
L 63.571818 63.3888 
L 63.571818 63.1872 
L 63.712727 63.1872 
L 63.712727 62.5824 
L 63.938182 62.5824 
L 63.994545 61.9776 
L 64.107273 61.9776 
L 64.191818 61.1712 
L 64.304545 61.1712 
L 64.332727 60.768 
L 65.009091 60.768 
L 65.037273 60.3648 
L 65.178182 60.3648 
L 65.178182 60.1632 
L 65.488182 60.1632 
L 65.488182 59.9616 
L 65.939091 59.9616 
L 65.967273 59.5584 
L 66.051818 59.5584 
L 66.136364 59.1552 
L 66.164545 59.1552 
L 66.192727 58.752 
L 66.305455 58.752 
L 66.361818 58.3488 
L 66.474545 58.3488 
L 66.559091 57.9456 
L 66.756364 57.9456 
L 66.756364 57.744 
L 66.953636 57.744 
L 66.953636 57.3408 
L 67.179091 57.3408 
L 67.235455 56.736 
L 67.883636 56.736 
L 67.883636 56.5344 
L 68.221818 56.5344 
L 68.278182 55.9296 
L 68.334545 55.9296 
L 68.362727 55.1232 
L 68.588182 55.1232 
L 68.588182 54.9216 
L 68.785455 54.9216 
L 68.785455 54.72 
L 68.926364 54.72 
L 68.926364 54.5184 
L 69.687273 54.5184 
L 69.687273 54.3168 
L 70.025455 54.3168 
L 70.053636 53.9136 
L 70.589091 53.9136 
L 70.589091 53.712 
L 70.899091 53.712 
L 70.899091 53.3088 
L 71.265455 53.3088 
L 71.265455 53.1072 
L 71.434545 53.1072 
L 71.462727 52.704 
L 72.054545 52.704 
L 72.054545 52.5024 
L 72.533636 52.5024 
L 72.618182 52.0992 
L 72.702727 52.0992 
L 72.730909 51.696 
L 72.928182 51.696 
L 72.928182 51.4944 
L 73.181818 51.4944 
L 73.181818 51.2928 
L 73.294545 51.2928 
L 73.294545 51.0912 
L 73.999091 51.0912 
L 73.999091 50.8896 
L 74.224545 50.8896 
L 74.224545 50.688 
L 74.506364 50.688 
L 74.590909 50.2848 
L 74.900909 50.2848 
L 74.985455 49.8816 
L 75.239091 49.8816 
L 75.239091 49.4784 
L 76.62 49.4784 
L 76.62 49.2768 
L 76.845455 49.2768 
L 76.845455 49.0752 
L 77.437273 49.0752 
L 77.437273 48.8736 
L 79.269091 48.8736 
L 79.269091 48.672 
L 82.030909 48.672 
L 82.030909 48.4704 
L 84.144545 48.4704 
L 84.144545 48.2688 
L 84.792727 48.2688 
L 84.792727 48.0672 
L 85.61 48.0672 
L 85.61 47.8656 
L 86.201818 47.8656 
L 86.201818 47.664 
L 87.047273 47.664 
L 87.047273 47.4624 
L 87.667273 47.4624 
L 87.667273 47.2608 
L 88.738182 47.2608 
L 88.738182 47.0592 
L 89.414545 47.0592 
L 89.414545 46.8576 
L 91.246364 46.8576 
L 91.246364 46.656 
L 93.867273 46.656 
L 93.867273 46.4544 
L 104.266364 46.4544 
L 104.266364 46.2528 
L 110.325455 46.2528 
L 110.325455 46.0512 
L 116.779091 46.0512 
L 116.779091 45.8496 
L 122.105455 45.8496 
L 122.105455 45.648 
L 129.376364 45.648 
L 129.376364 45.4464 
L 132.42 45.4464 
L 132.42 45.2448 
L 136.590909 45.2448 
L 136.590909 45.0432 
L 145.214545 45.0432 
L 145.214545 44.8416 
L 146.285455 44.8416 
L 146.285455 44.64 
L 311.318182 44.64 
L 311.318182 44.64 
" clip-path="url(#p232638e379)" style="fill: none; stroke: #9467bd; stroke-width: 1.5; stroke-linecap: square"/>
   </g>
   <g id="line2d_18">
    <path d="M 57.681818 246.24 
L 57.766364 171.0432 
L 57.794545 171.0432 
L 57.879091 157.9392 
L 57.907273 157.9392 
L 57.991818 147.2544 
L 58.02 147.2544 
L 58.104545 143.2224 
L 58.132727 143.2224 
L 58.217273 138.5856 
L 58.301818 138.5856 
L 58.386364 134.7552 
L 58.414545 134.7552 
L 58.499091 131.1264 
L 58.527273 131.1264 
L 58.611818 127.4976 
L 58.64 127.4976 
L 58.724545 126.0864 
L 58.780909 126.0864 
L 58.865455 122.4576 
L 58.893636 122.4576 
L 58.978182 120.24 
L 59.006364 120.24 
L 59.090909 117.4176 
L 59.147273 117.4176 
L 59.231818 113.7888 
L 59.288182 113.7888 
L 59.344545 112.7808 
L 59.429091 112.7808 
L 59.513636 111.9744 
L 59.541818 111.9744 
L 59.626364 111.168 
L 59.739091 111.168 
L 59.823636 109.9584 
L 59.88 109.9584 
L 59.964545 109.3536 
L 59.992727 109.3536 
L 60.077273 108.3456 
L 60.133636 108.3456 
L 60.218182 106.5312 
L 60.246364 106.5312 
L 60.330909 105.3216 
L 60.359091 105.3216 
L 60.415455 104.7168 
L 60.612727 104.7168 
L 60.697273 103.104 
L 60.725455 103.104 
L 60.781818 102.7008 
L 60.838182 102.7008 
L 60.838182 101.8944 
L 60.950909 101.8944 
L 61.007273 101.2896 
L 61.063636 101.2896 
L 61.148182 100.08 
L 61.176364 100.08 
L 61.260909 99.4752 
L 61.345455 99.4752 
L 61.43 97.2576 
L 61.458182 97.2576 
L 61.542727 96.8544 
L 61.599091 96.8544 
L 61.683636 95.8464 
L 61.74 95.8464 
L 61.74 95.6448 
L 61.880909 95.6448 
L 61.965455 94.032 
L 62.05 94.032 
L 62.134545 93.2256 
L 62.162727 93.2256 
L 62.247273 92.4192 
L 62.275455 92.4192 
L 62.36 91.8144 
L 62.388182 91.8144 
L 62.472727 90.8064 
L 62.500909 90.8064 
L 62.557273 90.4032 
L 62.641818 90.4032 
L 62.726364 88.7904 
L 62.810909 88.7904 
L 62.867273 87.984 
L 62.98 87.984 
L 63.036364 87.3792 
L 63.205455 87.3792 
L 63.29 86.7744 
L 63.374545 86.7744 
L 63.402727 85.968 
L 63.515455 85.968 
L 63.6 85.3632 
L 63.628182 85.3632 
L 63.684545 84.5568 
L 63.853636 84.5568 
L 63.938182 82.944 
L 64.022727 82.944 
L 64.107273 81.936 
L 64.22 81.936 
L 64.22 81.7344 
L 64.445455 81.7344 
L 64.53 80.7264 
L 64.670909 80.7264 
L 64.699091 80.3232 
L 64.783636 80.3232 
L 64.811818 79.92 
L 64.924545 79.92 
L 64.924545 79.5168 
L 65.121818 79.5168 
L 65.206364 77.904 
L 65.234545 77.904 
L 65.234545 77.7024 
L 65.375455 77.7024 
L 65.403636 77.2992 
L 65.516364 77.2992 
L 65.572727 76.6944 
L 65.629091 76.6944 
L 65.629091 76.2912 
L 65.741818 76.2912 
L 65.826364 75.2832 
L 65.882727 75.2832 
L 65.967273 74.2752 
L 65.995455 74.2752 
L 66.08 73.6704 
L 66.277273 73.6704 
L 66.277273 73.4688 
L 66.502727 73.4688 
L 66.587273 72.864 
L 66.615455 72.864 
L 66.671818 72.4608 
L 66.869091 72.4608 
L 66.925455 71.856 
L 66.981818 71.856 
L 66.981818 70.848 
L 67.179091 70.848 
L 67.179091 70.6464 
L 67.291818 70.6464 
L 67.32 70.2432 
L 67.517273 70.2432 
L 67.517273 70.0416 
L 67.63 70.0416 
L 67.714545 69.6384 
L 67.827273 69.6384 
L 67.911818 68.6304 
L 68.109091 68.6304 
L 68.137273 68.0256 
L 68.419091 68.0256 
L 68.419091 67.4208 
L 68.531818 67.4208 
L 68.616364 66.816 
L 69.067273 66.816 
L 69.123636 66.2112 
L 69.208182 66.2112 
L 69.208182 66.0096 
L 69.461818 66.0096 
L 69.461818 65.6064 
L 69.687273 65.6064 
L 69.687273 65.4048 
L 69.969091 65.4048 
L 70.053636 65.0016 
L 70.138182 65.0016 
L 70.222727 64.3968 
L 70.279091 64.3968 
L 70.279091 64.1952 
L 70.476364 64.1952 
L 70.504545 63.792 
L 70.617273 63.792 
L 70.617273 63.5904 
L 70.814545 63.5904 
L 70.899091 63.1872 
L 70.955455 63.1872 
L 70.955455 62.784 
L 71.575455 62.784 
L 71.66 62.1792 
L 71.716364 62.1792 
L 71.800909 61.776 
L 72.59 61.776 
L 72.59 61.5744 
L 72.759091 61.5744 
L 72.843636 61.1712 
L 73.069091 61.1712 
L 73.069091 60.9696 
L 73.52 60.9696 
L 73.52 60.768 
L 73.773636 60.768 
L 73.773636 60.5664 
L 74.393636 60.5664 
L 74.393636 60.1632 
L 75.013636 60.1632 
L 75.013636 59.9616 
L 75.182727 59.9616 
L 75.182727 59.76 
L 75.661818 59.76 
L 75.661818 59.5584 
L 76.253636 59.5584 
L 76.253636 59.3568 
L 76.591818 59.3568 
L 76.591818 59.1552 
L 76.760909 59.1552 
L 76.845455 58.752 
L 76.93 58.752 
L 76.93 58.5504 
L 77.127273 58.5504 
L 77.127273 58.3488 
L 77.24 58.3488 
L 77.24 58.1472 
L 77.465455 58.1472 
L 77.465455 57.9456 
L 77.690909 57.9456 
L 77.747273 57.5424 
L 78.000909 57.5424 
L 78.000909 57.3408 
L 78.846364 57.3408 
L 78.846364 56.9376 
L 79.776364 56.9376 
L 79.860909 56.5344 
L 81.354545 56.5344 
L 81.354545 55.9296 
L 81.58 55.9296 
L 81.58 55.728 
L 82.030909 55.728 
L 82.030909 55.5264 
L 82.876364 55.5264 
L 82.876364 55.3248 
L 83.13 55.3248 
L 83.186364 54.9216 
L 84.003636 54.9216 
L 84.003636 54.5184 
L 84.482727 54.5184 
L 84.482727 54.3168 
L 84.792727 54.3168 
L 84.792727 54.1152 
L 85.440909 54.1152 
L 85.440909 53.9136 
L 85.722727 53.9136 
L 85.722727 53.712 
L 86.54 53.712 
L 86.596364 53.3088 
L 86.737273 53.3088 
L 86.737273 53.1072 
L 88.259091 53.1072 
L 88.259091 52.9056 
L 89.132727 52.9056 
L 89.132727 52.704 
L 90.231818 52.704 
L 90.231818 52.5024 
L 90.344545 52.5024 
L 90.344545 52.3008 
L 92.035455 52.3008 
L 92.035455 52.0992 
L 92.401818 52.0992 
L 92.401818 51.8976 
L 92.824545 51.8976 
L 92.824545 51.696 
L 93.303636 51.696 
L 93.303636 51.2928 
L 94.092727 51.2928 
L 94.092727 51.0912 
L 95.107273 51.0912 
L 95.107273 50.8896 
L 95.332727 50.8896 
L 95.332727 50.4864 
L 96.826364 50.4864 
L 96.826364 50.2848 
L 97.840909 50.2848 
L 97.840909 50.0832 
L 98.01 50.0832 
L 98.01 49.8816 
L 98.686364 49.8816 
L 98.686364 49.68 
L 100.405455 49.68 
L 100.405455 49.4784 
L 101.42 49.4784 
L 101.42 49.2768 
L 101.701818 49.2768 
L 101.701818 49.0752 
L 103.9 49.0752 
L 103.9 48.8736 
L 104.181818 48.8736 
L 104.181818 48.672 
L 105.731818 48.672 
L 105.731818 48.2688 
L 108.211818 48.2688 
L 108.211818 48.0672 
L 113.030909 48.0672 
L 113.030909 47.8656 
L 115.877273 47.8656 
L 115.933636 47.4624 
L 119.259091 47.4624 
L 119.259091 47.2608 
L 126.022727 47.2608 
L 126.022727 47.0592 
L 126.135455 47.0592 
L 126.135455 46.8576 
L 127.290909 46.8576 
L 127.290909 46.656 
L 130.87 46.656 
L 130.87 46.4544 
L 131.095455 46.4544 
L 131.095455 46.2528 
L 132.899091 46.2528 
L 132.899091 46.0512 
L 136.957273 46.0512 
L 136.957273 45.8496 
L 137.126364 45.8496 
L 137.126364 45.648 
L 142.593636 45.648 
L 142.593636 45.4464 
L 150.963636 45.4464 
L 150.963636 45.2448 
L 155.641818 45.2448 
L 155.641818 45.0432 
L 168.38 45.0432 
L 168.38 44.8416 
L 185.993636 44.8416 
L 185.993636 44.64 
L 311.318182 44.64 
L 311.318182 44.64 
" clip-path="url(#p232638e379)" style="fill: none; stroke: #8c564b; stroke-width: 1.5; stroke-linecap: square"/>
   </g>
   <g id="line2d_19">
    <path d="M 57.681818 246.24 
L 57.766364 150.2784 
L 57.794545 150.2784 
L 57.879091 106.7328 
L 57.907273 106.7328 
L 57.991818 96.8544 
L 58.02 96.8544 
L 58.104545 94.032 
L 58.132727 94.032 
L 58.217273 87.1776 
L 58.273636 87.1776 
L 58.358182 84.1536 
L 58.386364 84.1536 
L 58.470909 80.928 
L 58.499091 80.928 
L 58.583636 77.7024 
L 58.611818 77.7024 
L 58.668182 75.6864 
L 58.724545 75.6864 
L 58.809091 74.2752 
L 58.865455 74.2752 
L 58.95 72.0576 
L 59.006364 72.0576 
L 59.090909 69.4368 
L 59.175455 69.4368 
L 59.26 68.6304 
L 59.288182 68.6304 
L 59.316364 67.2192 
L 59.400909 67.2192 
L 59.400909 67.0176 
L 59.513636 67.0176 
L 59.513636 66.816 
L 59.626364 66.816 
L 59.654545 66.0096 
L 59.88 66.0096 
L 59.88 65.6064 
L 59.992727 65.6064 
L 60.049091 64.3968 
L 60.161818 64.3968 
L 60.246364 63.792 
L 60.302727 63.792 
L 60.330909 63.3888 
L 60.415455 63.3888 
L 60.5 62.784 
L 60.584545 62.784 
L 60.640909 61.9776 
L 60.922727 61.9776 
L 60.950909 61.3728 
L 61.063636 61.3728 
L 61.12 60.768 
L 61.289091 60.768 
L 61.289091 60.1632 
L 61.43 60.1632 
L 61.43 59.9616 
L 61.683636 59.9616 
L 61.768182 59.1552 
L 61.880909 59.1552 
L 61.937273 58.752 
L 62.021818 58.752 
L 62.021818 58.3488 
L 62.134545 58.3488 
L 62.190909 57.9456 
L 62.275455 57.9456 
L 62.275455 57.744 
L 62.388182 57.744 
L 62.472727 57.1392 
L 62.726364 57.1392 
L 62.726364 56.9376 
L 62.867273 56.9376 
L 62.867273 56.736 
L 63.120909 56.736 
L 63.205455 56.1312 
L 63.233636 56.1312 
L 63.29 55.5264 
L 63.797273 55.5264 
L 63.797273 55.3248 
L 64.276364 55.3248 
L 64.276364 55.1232 
L 64.699091 55.1232 
L 64.699091 54.9216 
L 64.84 54.9216 
L 64.84 54.5184 
L 65.037273 54.5184 
L 65.037273 54.3168 
L 65.319091 54.3168 
L 65.319091 54.1152 
L 65.431818 54.1152 
L 65.431818 53.9136 
L 65.741818 53.9136 
L 65.741818 53.712 
L 66.136364 53.712 
L 66.136364 53.5104 
L 67.01 53.5104 
L 67.094545 53.1072 
L 67.432727 53.1072 
L 67.432727 52.9056 
L 67.770909 52.9056 
L 67.770909 52.704 
L 68.080909 52.704 
L 68.080909 52.5024 
L 68.334545 52.5024 
L 68.334545 52.3008 
L 69.8 52.3008 
L 69.8 52.0992 
L 70.758182 52.0992 
L 70.814545 51.696 
L 71.406364 51.696 
L 71.406364 51.4944 
L 71.547273 51.4944 
L 71.547273 51.2928 
L 71.744545 51.2928 
L 71.800909 50.8896 
L 71.885455 50.8896 
L 71.885455 50.4864 
L 72.702727 50.4864 
L 72.702727 50.2848 
L 72.956364 50.2848 
L 73.040909 49.8816 
L 73.097273 49.8816 
L 73.181818 49.4784 
L 73.548182 49.4784 
L 73.548182 49.2768 
L 73.773636 49.2768 
L 73.773636 49.0752 
L 74.619091 49.0752 
L 74.647273 48.672 
L 75.07 48.672 
L 75.07 48.4704 
L 75.605455 48.4704 
L 75.605455 48.2688 
L 76.535455 48.2688 
L 76.535455 48.0672 
L 78.874545 48.0672 
L 78.874545 47.8656 
L 84.595455 47.8656 
L 84.595455 47.664 
L 84.708182 47.664 
L 84.708182 47.4624 
L 85.384545 47.4624 
L 85.384545 47.2608 
L 87.441818 47.2608 
L 87.441818 47.0592 
L 89.386364 47.0592 
L 89.386364 46.8576 
L 90.006364 46.8576 
L 90.006364 46.656 
L 91.528182 46.656 
L 91.528182 46.4544 
L 92.260909 46.4544 
L 92.260909 46.2528 
L 94.6 46.2528 
L 94.6 46.0512 
L 95.248182 46.0512 
L 95.248182 45.8496 
L 98.686364 45.8496 
L 98.686364 45.648 
L 104.773636 45.648 
L 104.773636 45.4464 
L 107.140909 45.4464 
L 107.140909 45.2448 
L 144.284545 45.2448 
L 144.284545 45.0432 
L 153.218182 45.0432 
L 153.218182 44.8416 
L 170.493636 44.8416 
L 170.493636 44.64 
L 311.318182 44.64 
L 311.318182 44.64 
" clip-path="url(#p232638e379)" style="fill: none; stroke: #e377c2; stroke-width: 1.5; stroke-linecap: square"/>
   </g>
   <g id="line2d_20">
    <path d="M 57.681818 246.24 
L 57.766364 120.24 
L 57.794545 120.24 
L 57.879091 103.3056 
L 57.907273 103.3056 
L 57.991818 96.6528 
L 58.02 96.6528 
L 58.104545 92.4192 
L 58.189091 92.4192 
L 58.273636 86.3712 
L 58.301818 86.3712 
L 58.386364 83.5488 
L 58.470909 83.5488 
L 58.555455 80.3232 
L 58.611818 80.3232 
L 58.696364 77.904 
L 58.724545 77.904 
L 58.809091 77.2992 
L 58.837273 77.2992 
L 58.893636 76.0896 
L 58.95 76.0896 
L 59.034545 73.6704 
L 59.090909 73.6704 
L 59.175455 73.2672 
L 59.288182 73.2672 
L 59.372727 71.6544 
L 59.429091 71.6544 
L 59.513636 70.848 
L 59.541818 70.848 
L 59.57 70.2432 
L 59.654545 70.2432 
L 59.739091 68.4288 
L 59.767273 68.4288 
L 59.795455 68.0256 
L 60.049091 68.0256 
L 60.049091 67.6224 
L 60.161818 67.6224 
L 60.246364 66.6144 
L 60.387273 66.6144 
L 60.443636 66.2112 
L 60.697273 66.2112 
L 60.697273 65.6064 
L 60.838182 65.6064 
L 60.894545 64.5984 
L 61.063636 64.5984 
L 61.148182 63.5904 
L 61.232727 63.5904 
L 61.289091 62.5824 
L 61.458182 62.5824 
L 61.542727 62.1792 
L 61.627273 62.1792 
L 61.655455 61.776 
L 61.796364 61.776 
L 61.824545 61.1712 
L 61.937273 61.1712 
L 61.937273 60.9696 
L 62.05 60.9696 
L 62.106364 60.5664 
L 62.219091 60.5664 
L 62.219091 60.3648 
L 62.36 60.3648 
L 62.388182 59.9616 
L 62.557273 59.9616 
L 62.641818 59.3568 
L 62.698182 59.3568 
L 62.698182 59.1552 
L 62.839091 59.1552 
L 62.839091 58.9536 
L 62.951818 58.9536 
L 62.951818 58.752 
L 63.064545 58.752 
L 63.120909 58.3488 
L 63.261818 58.3488 
L 63.261818 58.1472 
L 63.684545 58.1472 
L 63.740909 57.744 
L 63.797273 57.744 
L 63.825455 57.3408 
L 64.022727 57.3408 
L 64.107273 56.9376 
L 64.276364 56.9376 
L 64.304545 56.5344 
L 64.614545 56.5344 
L 64.614545 56.3328 
L 64.755455 56.3328 
L 64.755455 56.1312 
L 64.952727 56.1312 
L 64.952727 55.9296 
L 65.600909 55.9296 
L 65.629091 55.3248 
L 65.741818 55.3248 
L 65.798182 54.9216 
L 66.249091 54.9216 
L 66.277273 54.3168 
L 66.784545 54.3168 
L 66.812727 53.9136 
L 67.460909 53.9136 
L 67.460909 53.712 
L 67.714545 53.712 
L 67.770909 53.3088 
L 67.94 53.3088 
L 67.94 53.1072 
L 68.052727 53.1072 
L 68.052727 52.9056 
L 68.165455 52.9056 
L 68.165455 52.704 
L 68.503636 52.704 
L 68.503636 52.5024 
L 68.644545 52.5024 
L 68.644545 52.3008 
L 68.813636 52.3008 
L 68.813636 52.0992 
L 69.236364 52.0992 
L 69.236364 51.8976 
L 69.518182 51.8976 
L 69.518182 51.696 
L 69.8 51.696 
L 69.8 51.4944 
L 70.053636 51.4944 
L 70.053636 51.2928 
L 70.194545 51.2928 
L 70.194545 51.0912 
L 70.476364 51.0912 
L 70.476364 50.8896 
L 70.983636 50.8896 
L 70.983636 50.688 
L 71.237273 50.688 
L 71.293636 50.2848 
L 72.223636 50.2848 
L 72.223636 50.0832 
L 72.928182 50.0832 
L 72.928182 49.8816 
L 74.252727 49.8816 
L 74.252727 49.68 
L 75.126364 49.68 
L 75.126364 49.4784 
L 75.239091 49.4784 
L 75.239091 49.2768 
L 75.351818 49.2768 
L 75.351818 49.0752 
L 75.971818 49.0752 
L 75.971818 48.8736 
L 79.325455 48.8736 
L 79.325455 48.672 
L 79.804545 48.672 
L 79.804545 48.4704 
L 81.439091 48.4704 
L 81.439091 48.2688 
L 81.89 48.2688 
L 81.89 48.0672 
L 82.397273 48.0672 
L 82.425455 47.664 
L 82.51 47.664 
L 82.51 47.4624 
L 84.454545 47.4624 
L 84.454545 47.2608 
L 84.792727 47.2608 
L 84.792727 47.0592 
L 85.638182 47.0592 
L 85.638182 46.8576 
L 86.173636 46.8576 
L 86.173636 46.656 
L 87.47 46.656 
L 87.47 46.2528 
L 88.935455 46.2528 
L 88.935455 46.0512 
L 90.429091 46.0512 
L 90.429091 45.8496 
L 97.474545 45.8496 
L 97.474545 45.648 
L 98.545455 45.648 
L 98.545455 45.4464 
L 105.675455 45.4464 
L 105.675455 44.8416 
L 113.481818 44.8416 
L 113.481818 44.64 
L 311.318182 44.64 
L 311.318182 44.64 
" clip-path="url(#p232638e379)" style="fill: none; stroke: #7f7f7f; stroke-width: 1.5; stroke-linecap: square"/>
   </g>
   <g id="line2d_21">
    <path d="M 57.681818 246.24 
L 57.766364 145.6416 
L 57.794545 145.6416 
L 57.879091 112.3776 
L 57.907273 112.3776 
L 57.991818 101.6928 
L 58.02 101.6928 
L 58.104545 88.1856 
L 58.132727 88.1856 
L 58.217273 78.7104 
L 58.245455 78.7104 
L 58.33 74.4768 
L 58.358182 74.4768 
L 58.414545 72.864 
L 58.470909 72.864 
L 58.555455 69.4368 
L 58.583636 69.4368 
L 58.668182 68.2272 
L 58.724545 68.2272 
L 58.809091 66.6144 
L 58.893636 66.6144 
L 58.95 65.0016 
L 59.006364 65.0016 
L 59.090909 64.1952 
L 59.119091 64.1952 
L 59.203636 62.3808 
L 59.26 62.3808 
L 59.344545 60.768 
L 59.372727 60.768 
L 59.457273 59.5584 
L 59.513636 59.5584 
L 59.541818 58.752 
L 59.626364 58.752 
L 59.710909 57.9456 
L 59.795455 57.9456 
L 59.795455 57.744 
L 60.020909 57.744 
L 60.020909 57.3408 
L 60.161818 57.3408 
L 60.218182 56.736 
L 60.302727 56.736 
L 60.359091 56.1312 
L 60.725455 56.1312 
L 60.781818 55.5264 
L 60.950909 55.5264 
L 60.950909 55.3248 
L 61.063636 55.3248 
L 61.063636 55.1232 
L 61.232727 55.1232 
L 61.260909 54.72 
L 61.373636 54.72 
L 61.373636 54.5184 
L 61.570909 54.5184 
L 61.570909 54.3168 
L 61.683636 54.3168 
L 61.683636 54.1152 
L 61.965455 54.1152 
L 62.05 53.5104 
L 62.303636 53.5104 
L 62.303636 53.3088 
L 62.444545 53.3088 
L 62.444545 53.1072 
L 62.641818 53.1072 
L 62.641818 52.9056 
L 63.205455 52.9056 
L 63.233636 52.3008 
L 63.346364 52.3008 
L 63.430909 51.2928 
L 63.487273 51.2928 
L 63.515455 50.8896 
L 63.656364 50.8896 
L 63.712727 50.4864 
L 64.332727 50.4864 
L 64.332727 50.2848 
L 64.445455 50.2848 
L 64.445455 50.0832 
L 65.15 50.0832 
L 65.206364 49.68 
L 65.375455 49.68 
L 65.375455 49.4784 
L 66.023636 49.4784 
L 66.023636 49.2768 
L 66.136364 49.2768 
L 66.136364 49.0752 
L 66.361818 49.0752 
L 66.361818 48.8736 
L 66.559091 48.8736 
L 66.559091 48.672 
L 67.207273 48.672 
L 67.207273 48.4704 
L 67.996364 48.4704 
L 67.996364 48.2688 
L 68.137273 48.2688 
L 68.137273 48.0672 
L 68.419091 48.0672 
L 68.419091 47.8656 
L 68.616364 47.8656 
L 68.616364 47.664 
L 68.729091 47.664 
L 68.729091 47.4624 
L 69.405455 47.4624 
L 69.405455 47.2608 
L 70.025455 47.2608 
L 70.025455 47.0592 
L 70.42 47.0592 
L 70.476364 46.656 
L 73.266364 46.656 
L 73.266364 46.4544 
L 74.900909 46.4544 
L 74.900909 46.2528 
L 75.492727 46.2528 
L 75.492727 46.0512 
L 78.339091 46.0512 
L 78.339091 45.8496 
L 78.620909 45.8496 
L 78.620909 45.648 
L 78.79 45.648 
L 78.79 45.4464 
L 79.776364 45.4464 
L 79.776364 45.2448 
L 82.791818 45.2448 
L 82.791818 45.0432 
L 86.399091 45.0432 
L 86.399091 44.8416 
L 103.054545 44.8416 
L 103.054545 44.64 
L 311.318182 44.64 
L 311.318182 44.64 
" clip-path="url(#p232638e379)" style="fill: none; stroke: #bcbd22; stroke-width: 1.5; stroke-linecap: square"/>
   </g>
   <g id="line2d_22">
    <path d="M 57.681818 246.24 
L 57.766364 115.6032 
L 57.794545 115.6032 
L 57.879091 92.2176 
L 57.907273 92.2176 
L 57.991818 87.7824 
L 58.02 87.7824 
L 58.076364 82.5408 
L 58.132727 82.5408 
L 58.217273 77.2992 
L 58.245455 77.2992 
L 58.33 71.6544 
L 58.442727 71.6544 
L 58.442727 70.4448 
L 58.555455 70.4448 
L 58.611818 68.832 
L 58.752727 68.832 
L 58.809091 66.816 
L 58.893636 66.816 
L 58.978182 64.3968 
L 59.034545 64.3968 
L 59.062727 63.9936 
L 59.147273 63.9936 
L 59.147273 63.3888 
L 59.26 63.3888 
L 59.344545 62.1792 
L 59.457273 62.1792 
L 59.541818 60.9696 
L 59.654545 60.9696 
L 59.739091 59.3568 
L 59.88 59.3568 
L 59.964545 58.9536 
L 60.133636 58.9536 
L 60.133636 58.752 
L 60.359091 58.752 
L 60.443636 57.5424 
L 60.528182 57.5424 
L 60.612727 57.1392 
L 60.697273 57.1392 
L 60.781818 56.5344 
L 60.950909 56.5344 
L 60.950909 56.3328 
L 61.289091 56.3328 
L 61.289091 55.9296 
L 61.43 55.9296 
L 61.458182 55.1232 
L 61.599091 55.1232 
L 61.655455 54.3168 
L 61.824545 54.3168 
L 61.824545 54.1152 
L 62.05 54.1152 
L 62.05 53.9136 
L 62.388182 53.9136 
L 62.388182 53.712 
L 62.557273 53.712 
L 62.557273 53.5104 
L 62.867273 53.5104 
L 62.867273 53.1072 
L 62.98 53.1072 
L 62.98 52.704 
L 63.149091 52.704 
L 63.233636 52.3008 
L 63.487273 52.3008 
L 63.571818 51.696 
L 63.6 51.696 
L 63.6 51.4944 
L 63.994545 51.4944 
L 63.994545 51.2928 
L 64.163636 51.2928 
L 64.163636 51.0912 
L 64.389091 51.0912 
L 64.389091 50.688 
L 64.84 50.688 
L 64.84 50.4864 
L 64.952727 50.4864 
L 64.952727 50.2848 
L 65.15 50.2848 
L 65.178182 49.8816 
L 65.798182 49.8816 
L 65.798182 49.68 
L 66.897273 49.68 
L 66.897273 49.4784 
L 67.066364 49.4784 
L 67.066364 49.2768 
L 67.263636 49.2768 
L 67.263636 48.8736 
L 67.573636 48.8736 
L 67.573636 48.672 
L 67.911818 48.672 
L 67.911818 48.4704 
L 68.898182 48.4704 
L 68.898182 48.2688 
L 69.433636 48.2688 
L 69.433636 48.0672 
L 69.687273 48.0672 
L 69.687273 47.8656 
L 70.870909 47.8656 
L 70.870909 47.664 
L 71.096364 47.664 
L 71.096364 47.4624 
L 72.28 47.4624 
L 72.336364 47.0592 
L 73.886364 47.0592 
L 73.886364 46.8576 
L 74.900909 46.8576 
L 74.900909 46.656 
L 76.62 46.656 
L 76.62 46.4544 
L 78.254545 46.4544 
L 78.254545 46.2528 
L 80.480909 46.2528 
L 80.509091 45.8496 
L 85.469091 45.8496 
L 85.469091 45.648 
L 91.979091 45.648 
L 91.979091 45.4464 
L 100.8 45.4464 
L 100.8 45.2448 
L 114.045455 45.2448 
L 114.045455 45.0432 
L 118.836364 45.0432 
L 118.836364 44.8416 
L 125.064545 44.8416 
L 125.064545 44.64 
L 311.318182 44.64 
L 311.318182 44.64 
" clip-path="url(#p232638e379)" style="fill: none; stroke: #17becf; stroke-width: 1.5; stroke-linecap: square"/>
   </g>
   <g id="patch_3">
    <path d="M 45 256.32 
L 45 34.56 
" style="fill: none; stroke: #000000; stroke-width: 0.8; stroke-linejoin: miter; stroke-linecap: square"/>
   </g>
   <g id="patch_4">
    <path d="M 324 256.32 
L 324 34.56 
" style="fill: none; stroke: #000000; stroke-width: 0.8; stroke-linejoin: miter; stroke-linecap: square"/>
   </g>
   <g id="patch_5">
    <path d="M 45 256.32 
L 324 256.32 
" style="fill: none; stroke: #000000; stroke-width: 0.8; stroke-linejoin: miter; stroke-linecap: square"/>
   </g>
   <g id="patch_6">
    <path d="M 45 34.56 
L 324 34.56 
" style="fill: none; stroke: #000000; stroke-width: 0.8; stroke-linejoin: miter; stroke-linecap: square"/>
   </g>
   <g id="text_15">
    <!-- ROC -->
    <g transform="translate(171.418125 28.56) scale(0.12 -0.12)">
     <defs>
      <path id="DejaVuSans-4f" d="M 2522 4238 
Q 1834 4238 1429 3725 
Q 1025 3213 1025 2328 
Q 1025 1447 1429 934 
Q 1834 422 2522 422 
Q 3209 422 3611 934 
Q 4013 1447 4013 2328 
Q 4013 3213 3611 3725 
Q 3209 4238 2522 4238 
z
M 2522 4750 
Q 3503 4750 4090 4092 
Q 4678 3434 4678 2328 
Q 4678 1225 4090 567 
Q 3503 -91 2522 -91 
Q 1538 -91 948 565 
Q 359 1222 359 2328 
Q 359 3434 948 4092 
Q 1538 4750 2522 4750 
z
" transform="scale(0.015625)"/>
      <path id="DejaVuSans-43" d="M 4122 4306 
L 4122 3641 
Q 3803 3938 3442 4084 
Q 3081 4231 2675 4231 
Q 1875 4231 1450 3742 
Q 1025 3253 1025 2328 
Q 1025 1406 1450 917 
Q 1875 428 2675 428 
Q 3081 428 3442 575 
Q 3803 722 4122 1019 
L 4122 359 
Q 3791 134 3420 21 
Q 3050 -91 2638 -91 
Q 1578 -91 968 557 
Q 359 1206 359 2328 
Q 359 3453 968 4101 
Q 1578 4750 2638 4750 
Q 3056 4750 3426 4639 
Q 3797 4528 4122 4306 
z
" transform="scale(0.015625)"/>
     </defs>
     <use xlink:href="#DejaVuSans-52"/>
     <use xlink:href="#DejaVuSans-4f" x="69.482422"/>
     <use xlink:href="#DejaVuSans-43" x="148.193359"/>
    </g>
   </g>
   <g id="legend_1">
    <g id="patch_7">
     <path d="M 243.4625 251.32 
L 317 251.32 
Q 319 251.32 319 249.32 
L 319 103.53875 
Q 319 101.53875 317 101.53875 
L 243.4625 101.53875 
Q 241.4625 101.53875 241.4625 103.53875 
L 241.4625 249.32 
Q 241.4625 251.32 243.4625 251.32 
z
" style="fill: #ffffff; opacity: 0.8; stroke: #cccccc; stroke-linejoin: miter"/>
    </g>
    <g id="line2d_23">
     <path d="M 245.4625 109.637188 
L 255.4625 109.637188 
L 265.4625 109.637188 
" style="fill: none; stroke: #1f77b4; stroke-width: 1.5; stroke-linecap: square"/>
    </g>
    <g id="text_16">
     <!-- 0: 0.992 -->
     <g transform="translate(273.4625 113.137188) scale(0.1 -0.1)">
      <defs>
       <path id="DejaVuSans-3a" d="M 750 794 
L 1409 794 
L 1409 0 
L 750 0 
L 750 794 
z
M 750 3309 
L 1409 3309 
L 1409 2516 
L 750 2516 
L 750 3309 
z
" transform="scale(0.015625)"/>
       <path id="DejaVuSans-20" transform="scale(0.015625)"/>
       <path id="DejaVuSans-39" d="M 703 97 
L 703 672 
Q 941 559 1184 500 
Q 1428 441 1663 441 
Q 2288 441 2617 861 
Q 2947 1281 2994 2138 
Q 2813 1869 2534 1725 
Q 2256 1581 1919 1581 
Q 1219 1581 811 2004 
Q 403 2428 403 3163 
Q 403 3881 828 4315 
Q 1253 4750 1959 4750 
Q 2769 4750 3195 4129 
Q 3622 3509 3622 2328 
Q 3622 1225 3098 567 
Q 2575 -91 1691 -91 
Q 1453 -91 1209 -44 
Q 966 3 703 97 
z
M 1959 2075 
Q 2384 2075 2632 2365 
Q 2881 2656 2881 3163 
Q 2881 3666 2632 3958 
Q 2384 4250 1959 4250 
Q 1534 4250 1286 3958 
Q 1038 3666 1038 3163 
Q 1038 2656 1286 2365 
Q 1534 2075 1959 2075 
z
" transform="scale(0.015625)"/>
      </defs>
      <use xlink:href="#DejaVuSans-30"/>
      <use xlink:href="#DejaVuSans-3a" x="63.623047"/>
      <use xlink:href="#DejaVuSans-20" x="97.314453"/>
      <use xlink:href="#DejaVuSans-30" x="129.101562"/>
      <use xlink:href="#DejaVuSans-2e" x="192.724609"/>
      <use xlink:href="#DejaVuSans-39" x="224.511719"/>
      <use xlink:href="#DejaVuSans-39" x="288.134766"/>
      <use xlink:href="#DejaVuSans-32" x="351.757812"/>
     </g>
    </g>
    <g id="line2d_24">
     <path d="M 245.4625 124.315313 
L 255.4625 124.315313 
L 265.4625 124.315313 
" style="fill: none; stroke: #ff7f0e; stroke-width: 1.5; stroke-linecap: square"/>
    </g>
    <g id="text_17">
     <!-- 1: 0.998 -->
     <g transform="translate(273.4625 127.815313) scale(0.1 -0.1)">
      <use xlink:href="#DejaVuSans-31"/>
      <use xlink:href="#DejaVuSans-3a" x="63.623047"/>
      <use xlink:href="#DejaVuSans-20" x="97.314453"/>
      <use xlink:href="#DejaVuSans-30" x="129.101562"/>
      <use xlink:href="#DejaVuSans-2e" x="192.724609"/>
      <use xlink:href="#DejaVuSans-39" x="224.511719"/>
      <use xlink:href="#DejaVuSans-39" x="288.134766"/>
      <use xlink:href="#DejaVuSans-38" x="351.757812"/>
     </g>
    </g>
    <g id="line2d_25">
     <path d="M 245.4625 138.993438 
L 255.4625 138.993438 
L 265.4625 138.993438 
" style="fill: none; stroke: #2ca02c; stroke-width: 1.5; stroke-linecap: square"/>
    </g>
    <g id="text_18">
     <!-- 2: 0.983 -->
     <g transform="translate(273.4625 142.493438) scale(0.1 -0.1)">
      <defs>
       <path id="DejaVuSans-33" d="M 2597 2516 
Q 3050 2419 3304 2112 
Q 3559 1806 3559 1356 
Q 3559 666 3084 287 
Q 2609 -91 1734 -91 
Q 1441 -91 1130 -33 
Q 819 25 488 141 
L 488 750 
Q 750 597 1062 519 
Q 1375 441 1716 441 
Q 2309 441 2620 675 
Q 2931 909 2931 1356 
Q 2931 1769 2642 2001 
Q 2353 2234 1838 2234 
L 1294 2234 
L 1294 2753 
L 1863 2753 
Q 2328 2753 2575 2939 
Q 2822 3125 2822 3475 
Q 2822 3834 2567 4026 
Q 2313 4219 1838 4219 
Q 1578 4219 1281 4162 
Q 984 4106 628 3988 
L 628 4550 
Q 988 4650 1302 4700 
Q 1616 4750 1894 4750 
Q 2613 4750 3031 4423 
Q 3450 4097 3450 3541 
Q 3450 3153 3228 2886 
Q 3006 2619 2597 2516 
z
" transform="scale(0.015625)"/>
      </defs>
      <use xlink:href="#DejaVuSans-32"/>
      <use xlink:href="#DejaVuSans-3a" x="63.623047"/>
      <use xlink:href="#DejaVuSans-20" x="97.314453"/>
      <use xlink:href="#DejaVuSans-30" x="129.101562"/>
      <use xlink:href="#DejaVuSans-2e" x="192.724609"/>
      <use xlink:href="#DejaVuSans-39" x="224.511719"/>
      <use xlink:href="#DejaVuSans-38" x="288.134766"/>
      <use xlink:href="#DejaVuSans-33" x="351.757812"/>
     </g>
    </g>
    <g id="line2d_26">
     <path d="M 245.4625 153.671563 
L 255.4625 153.671563 
L 265.4625 153.671563 
" style="fill: none; stroke: #d62728; stroke-width: 1.5; stroke-linecap: square"/>
    </g>
    <g id="text_19">
     <!-- 3: 0.972 -->
     <g transform="translate(273.4625 157.171563) scale(0.1 -0.1)">
      <defs>
       <path id="DejaVuSans-37" d="M 525 4666 
L 3525 4666 
L 3525 4397 
L 1831 0 
L 1172 0 
L 2766 4134 
L 525 4134 
L 525 4666 
z
" transform="scale(0.015625)"/>
      </defs>
      <use xlink:href="#DejaVuSans-33"/>
      <use xlink:href="#DejaVuSans-3a" x="63.623047"/>
      <use xlink:href="#DejaVuSans-20" x="97.314453"/>
      <use xlink:href="#DejaVuSans-30" x="129.101562"/>
      <use xlink:href="#DejaVuSans-2e" x="192.724609"/>
      <use xlink:href="#DejaVuSans-39" x="224.511719"/>
      <use xlink:href="#DejaVuSans-37" x="288.134766"/>
      <use xlink:href="#DejaVuSans-32" x="351.757812"/>
     </g>
    </g>
    <g id="line2d_27">
     <path d="M 245.4625 168.349688 
L 255.4625 168.349688 
L 265.4625 168.349688 
" style="fill: none; stroke: #9467bd; stroke-width: 1.5; stroke-linecap: square"/>
    </g>
    <g id="text_20">
     <!-- 4: 0.991 -->
     <g transform="translate(273.4625 171.849688) scale(0.1 -0.1)">
      <use xlink:href="#DejaVuSans-34"/>
      <use xlink:href="#DejaVuSans-3a" x="63.623047"/>
      <use xlink:href="#DejaVuSans-20" x="97.314453"/>
      <use xlink:href="#DejaVuSans-30" x="129.101562"/>
      <use xlink:href="#DejaVuSans-2e" x="192.724609"/>
      <use xlink:href="#DejaVuSans-39" x="224.511719"/>
      <use xlink:href="#DejaVuSans-39" x="288.134766"/>
      <use xlink:href="#DejaVuSans-31" x="351.757812"/>
     </g>
    </g>
    <g id="line2d_28">
     <path d="M 245.4625 183.027813 
L 255.4625 183.027813 
L 265.4625 183.027813 
" style="fill: none; stroke: #8c564b; stroke-width: 1.5; stroke-linecap: square"/>
    </g>
    <g id="text_21">
     <!-- 5: 0.980 -->
     <g transform="translate(273.4625 186.527813) scale(0.1 -0.1)">
      <defs>
       <path id="DejaVuSans-35" d="M 691 4666 
L 3169 4666 
L 3169 4134 
L 1269 4134 
L 1269 2991 
Q 1406 3038 1543 3061 
Q 1681 3084 1819 3084 
Q 2600 3084 3056 2656 
Q 3513 2228 3513 1497 
Q 3513 744 3044 326 
Q 2575 -91 1722 -91 
Q 1428 -91 1123 -41 
Q 819 9 494 109 
L 494 744 
Q 775 591 1075 516 
Q 1375 441 1709 441 
Q 2250 441 2565 725 
Q 2881 1009 2881 1497 
Q 2881 1984 2565 2268 
Q 2250 2553 1709 2553 
Q 1456 2553 1204 2497 
Q 953 2441 691 2322 
L 691 4666 
z
" transform="scale(0.015625)"/>
      </defs>
      <use xlink:href="#DejaVuSans-35"/>
      <use xlink:href="#DejaVuSans-3a" x="63.623047"/>
      <use xlink:href="#DejaVuSans-20" x="97.314453"/>
      <use xlink:href="#DejaVuSans-30" x="129.101562"/>
      <use xlink:href="#DejaVuSans-2e" x="192.724609"/>
      <use xlink:href="#DejaVuSans-39" x="224.511719"/>
      <use xlink:href="#DejaVuSans-38" x="288.134766"/>
      <use xlink:href="#DejaVuSans-30" x="351.757812"/>
     </g>
    </g>
    <g id="line2d_29">
     <path d="M 245.4625 197.705938 
L 255.4625 197.705938 
L 265.4625 197.705938 
" style="fill: none; stroke: #e377c2; stroke-width: 1.5; stroke-linecap: square"/>
    </g>
    <g id="text_22">
     <!-- 6: 0.994 -->
     <g transform="translate(273.4625 201.205938) scale(0.1 -0.1)">
      <use xlink:href="#DejaVuSans-36"/>
      <use xlink:href="#DejaVuSans-3a" x="63.623047"/>
      <use xlink:href="#DejaVuSans-20" x="97.314453"/>
      <use xlink:href="#DejaVuSans-30" x="129.101562"/>
      <use xlink:href="#DejaVuSans-2e" x="192.724609"/>
      <use xlink:href="#DejaVuSans-39" x="224.511719"/>
      <use xlink:href="#DejaVuSans-39" x="288.134766"/>
      <use xlink:href="#DejaVuSans-34" x="351.757812"/>
     </g>
    </g>
    <g id="line2d_30">
     <path d="M 245.4625 212.384063 
L 255.4625 212.384063 
L 265.4625 212.384063 
" style="fill: none; stroke: #7f7f7f; stroke-width: 1.5; stroke-linecap: square"/>
    </g>
    <g id="text_23">
     <!-- 7: 0.994 -->
     <g transform="translate(273.4625 215.884063) scale(0.1 -0.1)">
      <use xlink:href="#DejaVuSans-37"/>
      <use xlink:href="#DejaVuSans-3a" x="63.623047"/>
      <use xlink:href="#DejaVuSans-20" x="97.314453"/>
      <use xlink:href="#DejaVuSans-30" x="129.101562"/>
      <use xlink:href="#DejaVuSans-2e" x="192.724609"/>
      <use xlink:href="#DejaVuSans-39" x="224.511719"/>
      <use xlink:href="#DejaVuSans-39" x="288.134766"/>
      <use xlink:href="#DejaVuSans-34" x="351.757812"/>
     </g>
    </g>
    <g id="line2d_31">
     <path d="M 245.4625 227.062188 
L 255.4625 227.062188 
L 265.4625 227.062188 
" style="fill: none; stroke: #bcbd22; stroke-width: 1.5; stroke-linecap: square"/>
    </g>
    <g id="text_24">
     <!-- 8: 0.997 -->
     <g transform="translate(273.4625 230.562188) scale(0.1 -0.1)">
      <use xlink:href="#DejaVuSans-38"/>
      <use xlink:href="#DejaVuSans-3a" x="63.623047"/>
      <use xlink:href="#DejaVuSans-20" x="97.314453"/>
      <use xlink:href="#DejaVuSans-30" x="129.101562"/>
      <use xlink:href="#DejaVuSans-2e" x="192.724609"/>
      <use xlink:href="#DejaVuSans-39" x="224.511719"/>
      <use xlink:href="#DejaVuSans-39" x="288.134766"/>
      <use xlink:href="#DejaVuSans-37" x="351.757812"/>
     </g>
    </g>
    <g id="line2d_32">
     <path d="M 245.4625 241.740313 
L 255.4625 241.740313 
L 265.4625 241.740313 
" style="fill: none; stroke: #17becf; stroke-width: 1.5; stroke-linecap: square"/>
    </g>
    <g id="text_25">
     <!-- 9: 0.996 -->
     <g transform="translate(273.4625 245.240313) scale(0.1 -0.1)">
      <use xlink:href="#DejaVuSans-39"/>
      <use xlink:href="#DejaVuSans-3a" x="63.623047"/>
      <use xlink:href="#DejaVuSans-20" x="97.314453"/>
      <use xlink:href="#DejaVuSans-30" x="129.101562"/>
      <use xlink:href="#DejaVuSans-2e" x="192.724609"/>
      <use xlink:href="#DejaVuSans-39" x="224.511719"/>
      <use xlink:href="#DejaVuSans-39" x="288.134766"/>
      <use xlink:href="#DejaVuSans-36" x="351.757812"/>
     </g>
    </g>
   </g>
  </g>
 </g>
 <defs>
  <clipPath id="p232638e379">
   <rect x="45" y="34.56" width="279" height="221.76"/>
  </clipPath>
 </defs>
</svg>
