<?xml version="1.0" encoding="utf-8" standalone="no"?>
<!DOCTYPE svg PUBLIC "-//W3C//DTD SVG 1.1//EN"
  "http://www.w3.org/Graphics/SVG/1.1/DTD/svg11.dtd">
<svg xmlns:xlink="http://www.w3.org/1999/xlink" width="360pt" height="288pt" viewBox="0 0 360 288" xmlns="http://www.w3.org/2000/svg" version="1.1">
 <metadata>
  <rdf:RDF xmlns:dc="http://purl.org/dc/elements/1.1/" xmlns:cc="http://creativecommons.org/ns#" xmlns:rdf="http://www.w3.org/1999/02/22-rdf-syntax-ns#">
   <cc:Work>
    <dc:type rdf:resource="http://purl.org/dc/dcmitype/StillImage"/>
    <dc:date>2023-04-10T16:37:53.288066</dc:date>
    <dc:format>image/svg+xml</dc:format>
    <dc:creator>
     <cc:Agent>
      <dc:title>Matplotlib v3.6.2, https://matplotlib.org/</dc:title>
     </cc:Agent>
    </dc:creator>
   </cc:Work>
  </rdf:RDF>
 </metadata>
 <defs>
  <style type="text/css">*{stroke-linejoin: round; stroke-linecap: butt}</style>
 </defs>
 <g id="figure_1">
  <g id="patch_1">
   <path d="M 0 288 
L 360 288 
L 360 0 
L 0 0 
z
" style="fill: #ffffff"/>
  </g>
  <g id="axes_1">
   <g id="patch_2">
    <path d="M 45 256.32 
L 324 256.32 
L 324 34.56 
L 45 34.56 
z
" style="fill: #ffffff"/>
   </g>
   <g id="matplotlib.axis_1">
    <g id="xtick_1">
     <g id="line2d_1">
      <defs>
       <path id="me294a4e9ce" d="M 0 0 
L 0 3.5 
" style="stroke: #000000; stroke-width: 0.8"/>
      </defs>
      <g>
       <use xlink:href="#me294a4e9ce" x="57.681818" y="256.32" style="stroke: #000000; stroke-width: 0.8"/>
      </g>
     </g>
     <g id="text_1">
      <!-- 0.0 -->
      <g transform="translate(49.730256 270.918437) scale(0.1 -0.1)">
       <defs>
        <path id="DejaVuSans-30" d="M 2034 4250 
Q 1547 4250 1301 3770 
Q 1056 3291 1056 2328 
Q 1056 1369 1301 889 
Q 1547 409 2034 409 
Q 2525 409 2770 889 
Q 3016 1369 3016 2328 
Q 3016 3291 2770 3770 
Q 2525 4250 2034 4250 
z
M 2034 4750 
Q 2819 4750 3233 4129 
Q 3647 3509 3647 2328 
Q 3647 1150 3233 529 
Q 2819 -91 2034 -91 
Q 1250 -91 836 529 
Q 422 1150 422 2328 
Q 422 3509 836 4129 
Q 1250 4750 2034 4750 
z
" transform="scale(0.015625)"/>
        <path id="DejaVuSans-2e" d="M 684 794 
L 1344 794 
L 1344 0 
L 684 0 
L 684 794 
z
" transform="scale(0.015625)"/>
       </defs>
       <use xlink:href="#DejaVuSans-30"/>
       <use xlink:href="#DejaVuSans-2e" x="63.623047"/>
       <use xlink:href="#DejaVuSans-30" x="95.410156"/>
      </g>
     </g>
    </g>
    <g id="xtick_2">
     <g id="line2d_2">
      <g>
       <use xlink:href="#me294a4e9ce" x="108.409091" y="256.32" style="stroke: #000000; stroke-width: 0.8"/>
      </g>
     </g>
     <g id="text_2">
      <!-- 0.2 -->
      <g transform="translate(100.457528 270.918437) scale(0.1 -0.1)">
       <defs>
        <path id="DejaVuSans-32" d="M 1228 531 
L 3431 531 
L 3431 0 
L 469 0 
L 469 531 
Q 828 903 1448 1529 
Q 2069 2156 2228 2338 
Q 2531 2678 2651 2914 
Q 2772 3150 2772 3378 
Q 2772 3750 2511 3984 
Q 2250 4219 1831 4219 
Q 1534 4219 1204 4116 
Q 875 4013 500 3803 
L 500 4441 
Q 881 4594 1212 4672 
Q 1544 4750 1819 4750 
Q 2544 4750 2975 4387 
Q 3406 4025 3406 3419 
Q 3406 3131 3298 2873 
Q 3191 2616 2906 2266 
Q 2828 2175 2409 1742 
Q 1991 1309 1228 531 
z
" transform="scale(0.015625)"/>
       </defs>
       <use xlink:href="#DejaVuSans-30"/>
       <use xlink:href="#DejaVuSans-2e" x="63.623047"/>
       <use xlink:href="#DejaVuSans-32" x="95.410156"/>
      </g>
     </g>
    </g>
    <g id="xtick_3">
     <g id="line2d_3">
      <g>
       <use xlink:href="#me294a4e9ce" x="159.136364" y="256.32" style="stroke: #000000; stroke-width: 0.8"/>
      </g>
     </g>
     <g id="text_3">
      <!-- 0.4 -->
      <g transform="translate(151.184801 270.918437) scale(0.1 -0.1)">
       <defs>
        <path id="DejaVuSans-34" d="M 2419 4116 
L 825 1625 
L 2419 1625 
L 2419 4116 
z
M 2253 4666 
L 3047 4666 
L 3047 1625 
L 3713 1625 
L 3713 1100 
L 3047 1100 
L 3047 0 
L 2419 0 
L 2419 1100 
L 313 1100 
L 313 1709 
L 2253 4666 
z
" transform="scale(0.015625)"/>
       </defs>
       <use xlink:href="#DejaVuSans-30"/>
       <use xlink:href="#DejaVuSans-2e" x="63.623047"/>
       <use xlink:href="#DejaVuSans-34" x="95.410156"/>
      </g>
     </g>
    </g>
    <g id="xtick_4">
     <g id="line2d_4">
      <g>
       <use xlink:href="#me294a4e9ce" x="209.863636" y="256.32" style="stroke: #000000; stroke-width: 0.8"/>
      </g>
     </g>
     <g id="text_4">
      <!-- 0.6 -->
      <g transform="translate(201.912074 270.918437) scale(0.1 -0.1)">
       <defs>
        <path id="DejaVuSans-36" d="M 2113 2584 
Q 1688 2584 1439 2293 
Q 1191 2003 1191 1497 
Q 1191 994 1439 701 
Q 1688 409 2113 409 
Q 2538 409 2786 701 
Q 3034 994 3034 1497 
Q 3034 2003 2786 2293 
Q 2538 2584 2113 2584 
z
M 3366 4563 
L 3366 3988 
Q 3128 4100 2886 4159 
Q 2644 4219 2406 4219 
Q 1781 4219 1451 3797 
Q 1122 3375 1075 2522 
Q 1259 2794 1537 2939 
Q 1816 3084 2150 3084 
Q 2853 3084 3261 2657 
Q 3669 2231 3669 1497 
Q 3669 778 3244 343 
Q 2819 -91 2113 -91 
Q 1303 -91 875 529 
Q 447 1150 447 2328 
Q 447 3434 972 4092 
Q 1497 4750 2381 4750 
Q 2619 4750 2861 4703 
Q 3103 4656 3366 4563 
z
" transform="scale(0.015625)"/>
       </defs>
       <use xlink:href="#DejaVuSans-30"/>
       <use xlink:href="#DejaVuSans-2e" x="63.623047"/>
       <use xlink:href="#DejaVuSans-36" x="95.410156"/>
      </g>
     </g>
    </g>
    <g id="xtick_5">
     <g id="line2d_5">
      <g>
       <use xlink:href="#me294a4e9ce" x="260.590909" y="256.32" style="stroke: #000000; stroke-width: 0.8"/>
      </g>
     </g>
     <g id="text_5">
      <!-- 0.8 -->
      <g transform="translate(252.639347 270.918437) scale(0.1 -0.1)">
       <defs>
        <path id="DejaVuSans-38" d="M 2034 2216 
Q 1584 2216 1326 1975 
Q 1069 1734 1069 1313 
Q 1069 891 1326 650 
Q 1584 409 2034 409 
Q 2484 409 2743 651 
Q 3003 894 3003 1313 
Q 3003 1734 2745 1975 
Q 2488 2216 2034 2216 
z
M 1403 2484 
Q 997 2584 770 2862 
Q 544 3141 544 3541 
Q 544 4100 942 4425 
Q 1341 4750 2034 4750 
Q 2731 4750 3128 4425 
Q 3525 4100 3525 3541 
Q 3525 3141 3298 2862 
Q 3072 2584 2669 2484 
Q 3125 2378 3379 2068 
Q 3634 1759 3634 1313 
Q 3634 634 3220 271 
Q 2806 -91 2034 -91 
Q 1263 -91 848 271 
Q 434 634 434 1313 
Q 434 1759 690 2068 
Q 947 2378 1403 2484 
z
M 1172 3481 
Q 1172 3119 1398 2916 
Q 1625 2713 2034 2713 
Q 2441 2713 2670 2916 
Q 2900 3119 2900 3481 
Q 2900 3844 2670 4047 
Q 2441 4250 2034 4250 
Q 1625 4250 1398 4047 
Q 1172 3844 1172 3481 
z
" transform="scale(0.015625)"/>
       </defs>
       <use xlink:href="#DejaVuSans-30"/>
       <use xlink:href="#DejaVuSans-2e" x="63.623047"/>
       <use xlink:href="#DejaVuSans-38" x="95.410156"/>
      </g>
     </g>
    </g>
    <g id="xtick_6">
     <g id="line2d_6">
      <g>
       <use xlink:href="#me294a4e9ce" x="311.318182" y="256.32" style="stroke: #000000; stroke-width: 0.8"/>
      </g>
     </g>
     <g id="text_6">
      <!-- 1.0 -->
      <g transform="translate(303.366619 270.918437) scale(0.1 -0.1)">
       <defs>
        <path id="DejaVuSans-31" d="M 794 531 
L 1825 531 
L 1825 4091 
L 703 3866 
L 703 4441 
L 1819 4666 
L 2450 4666 
L 2450 531 
L 3481 531 
L 3481 0 
L 794 0 
L 794 531 
z
" transform="scale(0.015625)"/>
       </defs>
       <use xlink:href="#DejaVuSans-31"/>
       <use xlink:href="#DejaVuSans-2e" x="63.623047"/>
       <use xlink:href="#DejaVuSans-30" x="95.410156"/>
      </g>
     </g>
    </g>
    <g id="text_7">
     <!-- FPR -->
     <g transform="translate(175.135156 284.596563) scale(0.1 -0.1)">
      <defs>
       <path id="DejaVuSans-46" d="M 628 4666 
L 3309 4666 
L 3309 4134 
L 1259 4134 
L 1259 2759 
L 3109 2759 
L 3109 2228 
L 1259 2228 
L 1259 0 
L 628 0 
L 628 4666 
z
" transform="scale(0.015625)"/>
       <path id="DejaVuSans-50" d="M 1259 4147 
L 1259 2394 
L 2053 2394 
Q 2494 2394 2734 2622 
Q 2975 2850 2975 3272 
Q 2975 3691 2734 3919 
Q 2494 4147 2053 4147 
L 1259 4147 
z
M 628 4666 
L 2053 4666 
Q 2838 4666 3239 4311 
Q 3641 3956 3641 3272 
Q 3641 2581 3239 2228 
Q 2838 1875 2053 1875 
L 1259 1875 
L 1259 0 
L 628 0 
L 628 4666 
z
" transform="scale(0.015625)"/>
       <path id="DejaVuSans-52" d="M 2841 2188 
Q 3044 2119 3236 1894 
Q 3428 1669 3622 1275 
L 4263 0 
L 3584 0 
L 2988 1197 
Q 2756 1666 2539 1819 
Q 2322 1972 1947 1972 
L 1259 1972 
L 1259 0 
L 628 0 
L 628 4666 
L 2053 4666 
Q 2853 4666 3247 4331 
Q 3641 3997 3641 3322 
Q 3641 2881 3436 2590 
Q 3231 2300 2841 2188 
z
M 1259 4147 
L 1259 2491 
L 2053 2491 
Q 2509 2491 2742 2702 
Q 2975 2913 2975 3322 
Q 2975 3731 2742 3939 
Q 2509 4147 2053 4147 
L 1259 4147 
z
" transform="scale(0.015625)"/>
      </defs>
      <use xlink:href="#DejaVuSans-46"/>
      <use xlink:href="#DejaVuSans-50" x="57.519531"/>
      <use xlink:href="#DejaVuSans-52" x="117.822266"/>
     </g>
    </g>
   </g>
   <g id="matplotlib.axis_2">
    <g id="ytick_1">
     <g id="line2d_7">
      <defs>
       <path id="mab7d8b40c2" d="M 0 0 
L -3.5 0 
" style="stroke: #000000; stroke-width: 0.8"/>
      </defs>
      <g>
       <use xlink:href="#mab7d8b40c2" x="45" y="246.24" style="stroke: #000000; stroke-width: 0.8"/>
      </g>
     </g>
     <g id="text_8">
      <!-- 0.0 -->
      <g transform="translate(22.096875 250.039219) scale(0.1 -0.1)">
       <use xlink:href="#DejaVuSans-30"/>
       <use xlink:href="#DejaVuSans-2e" x="63.623047"/>
       <use xlink:href="#DejaVuSans-30" x="95.410156"/>
      </g>
     </g>
    </g>
    <g id="ytick_2">
     <g id="line2d_8">
      <g>
       <use xlink:href="#mab7d8b40c2" x="45" y="205.92" style="stroke: #000000; stroke-width: 0.8"/>
      </g>
     </g>
     <g id="text_9">
      <!-- 0.2 -->
      <g transform="translate(22.096875 209.719219) scale(0.1 -0.1)">
       <use xlink:href="#DejaVuSans-30"/>
       <use xlink:href="#DejaVuSans-2e" x="63.623047"/>
       <use xlink:href="#DejaVuSans-32" x="95.410156"/>
      </g>
     </g>
    </g>
    <g id="ytick_3">
     <g id="line2d_9">
      <g>
       <use xlink:href="#mab7d8b40c2" x="45" y="165.6" style="stroke: #000000; stroke-width: 0.8"/>
      </g>
     </g>
     <g id="text_10">
      <!-- 0.4 -->
      <g transform="translate(22.096875 169.399219) scale(0.1 -0.1)">
       <use xlink:href="#DejaVuSans-30"/>
       <use xlink:href="#DejaVuSans-2e" x="63.623047"/>
       <use xlink:href="#DejaVuSans-34" x="95.410156"/>
      </g>
     </g>
    </g>
    <g id="ytick_4">
     <g id="line2d_10">
      <g>
       <use xlink:href="#mab7d8b40c2" x="45" y="125.28" style="stroke: #000000; stroke-width: 0.8"/>
      </g>
     </g>
     <g id="text_11">
      <!-- 0.6 -->
      <g transform="translate(22.096875 129.079219) scale(0.1 -0.1)">
       <use xlink:href="#DejaVuSans-30"/>
       <use xlink:href="#DejaVuSans-2e" x="63.623047"/>
       <use xlink:href="#DejaVuSans-36" x="95.410156"/>
      </g>
     </g>
    </g>
    <g id="ytick_5">
     <g id="line2d_11">
      <g>
       <use xlink:href="#mab7d8b40c2" x="45" y="84.96" style="stroke: #000000; stroke-width: 0.8"/>
      </g>
     </g>
     <g id="text_12">
      <!-- 0.8 -->
      <g transform="translate(22.096875 88.759219) scale(0.1 -0.1)">
       <use xlink:href="#DejaVuSans-30"/>
       <use xlink:href="#DejaVuSans-2e" x="63.623047"/>
       <use xlink:href="#DejaVuSans-38" x="95.410156"/>
      </g>
     </g>
    </g>
    <g id="ytick_6">
     <g id="line2d_12">
      <g>
       <use xlink:href="#mab7d8b40c2" x="45" y="44.64" style="stroke: #000000; stroke-width: 0.8"/>
      </g>
     </g>
     <g id="text_13">
      <!-- 1.0 -->
      <g transform="translate(22.096875 48.439219) scale(0.1 -0.1)">
       <use xlink:href="#DejaVuSans-31"/>
       <use xlink:href="#DejaVuSans-2e" x="63.623047"/>
       <use xlink:href="#DejaVuSans-30" x="95.410156"/>
      </g>
     </g>
    </g>
    <g id="text_14">
     <!-- TPR -->
     <g transform="translate(16.017187 154.982969) rotate(-90) scale(0.1 -0.1)">
      <defs>
       <path id="DejaVuSans-54" d="M -19 4666 
L 3928 4666 
L 3928 4134 
L 2272 4134 
L 2272 0 
L 1638 0 
L 1638 4134 
L -19 4134 
L -19 4666 
z
" transform="scale(0.015625)"/>
      </defs>
      <use xlink:href="#DejaVuSans-54"/>
      <use xlink:href="#DejaVuSans-50" x="61.083984"/>
      <use xlink:href="#DejaVuSans-52" x="121.386719"/>
     </g>
    </g>
   </g>
   <g id="line2d_13">
    <path d="M 57.681818 246.24 
L 57.766364 168.8256 
L 57.794545 168.8256 
L 57.879091 144.0288 
L 57.907273 144.0288 
L 57.963636 128.5056 
L 58.02 128.5056 
L 58.104545 125.28 
L 58.132727 125.28 
L 58.189091 121.248 
L 58.245455 121.248 
L 58.33 114.7968 
L 58.358182 114.7968 
L 58.442727 109.9584 
L 58.470909 109.9584 
L 58.527273 103.9104 
L 58.583636 103.9104 
L 58.668182 101.4912 
L 58.696364 101.4912 
L 58.780909 97.6608 
L 58.809091 97.6608 
L 58.893636 94.6368 
L 58.95 94.6368 
L 59.006364 91.8144 
L 59.062727 91.8144 
L 59.147273 89.7984 
L 59.203636 89.7984 
L 59.288182 89.1936 
L 59.316364 89.1936 
L 59.344545 86.976 
L 59.429091 86.976 
L 59.485455 86.1696 
L 59.541818 86.1696 
L 59.626364 83.5488 
L 59.654545 83.5488 
L 59.682727 82.3392 
L 59.767273 82.3392 
L 59.823636 81.3312 
L 59.908182 81.3312 
L 59.992727 78.912 
L 60.020909 78.912 
L 60.077273 77.5008 
L 60.161818 77.5008 
L 60.246364 75.2832 
L 60.274545 75.2832 
L 60.359091 73.6704 
L 60.387273 73.6704 
L 60.415455 72.864 
L 60.5 72.864 
L 60.528182 72.4608 
L 60.669091 72.4608 
L 60.725455 72.0576 
L 60.866364 72.0576 
L 60.922727 71.2512 
L 60.979091 71.2512 
L 61.035455 70.848 
L 61.260909 70.848 
L 61.345455 69.2352 
L 61.401818 69.2352 
L 61.401818 69.0336 
L 61.514545 69.0336 
L 61.542727 68.6304 
L 61.627273 68.6304 
L 61.683636 68.0256 
L 61.74 68.0256 
L 61.824545 67.2192 
L 61.852727 67.2192 
L 61.937273 66.6144 
L 61.993636 66.6144 
L 62.078182 66.0096 
L 62.106364 66.0096 
L 62.106364 65.6064 
L 62.247273 65.6064 
L 62.247273 65.2032 
L 62.36 65.2032 
L 62.36 65.0016 
L 62.472727 65.0016 
L 62.557273 63.5904 
L 62.585455 63.5904 
L 62.585455 63.1872 
L 62.810909 63.1872 
L 62.810909 62.9856 
L 63.008182 62.9856 
L 63.064545 62.1792 
L 63.149091 62.1792 
L 63.233636 60.5664 
L 63.346364 60.5664 
L 63.346364 60.3648 
L 63.459091 60.3648 
L 63.487273 59.76 
L 63.571818 59.76 
L 63.628182 59.1552 
L 63.825455 59.1552 
L 63.825455 58.5504 
L 63.938182 58.5504 
L 63.938182 58.3488 
L 64.107273 58.3488 
L 64.107273 58.1472 
L 64.248182 58.1472 
L 64.304545 57.744 
L 64.389091 57.744 
L 64.445455 57.1392 
L 64.53 57.1392 
L 64.53 56.9376 
L 64.755455 56.9376 
L 64.84 56.5344 
L 64.868182 56.5344 
L 64.868182 56.3328 
L 65.15 56.3328 
L 65.234545 55.1232 
L 65.741818 55.1232 
L 65.741818 54.72 
L 65.854545 54.72 
L 65.854545 54.5184 
L 66.277273 54.5184 
L 66.361818 53.9136 
L 66.897273 53.9136 
L 66.897273 53.712 
L 67.348182 53.712 
L 67.348182 53.5104 
L 67.573636 53.5104 
L 67.573636 53.3088 
L 67.883636 53.3088 
L 67.968182 52.9056 
L 68.052727 52.9056 
L 68.052727 52.5024 
L 68.165455 52.5024 
L 68.165455 52.3008 
L 68.362727 52.3008 
L 68.362727 52.0992 
L 68.729091 52.0992 
L 68.729091 51.8976 
L 69.123636 51.8976 
L 69.123636 51.696 
L 69.49 51.696 
L 69.49 51.2928 
L 69.659091 51.2928 
L 69.659091 51.0912 
L 69.940909 51.0912 
L 69.940909 50.8896 
L 70.645455 50.8896 
L 70.645455 50.688 
L 70.842727 50.688 
L 70.842727 50.2848 
L 71.406364 50.2848 
L 71.406364 50.0832 
L 71.716364 50.0832 
L 71.716364 49.8816 
L 72.026364 49.8816 
L 72.054545 49.4784 
L 72.815455 49.4784 
L 72.815455 49.2768 
L 73.407273 49.2768 
L 73.407273 48.8736 
L 74.111818 48.8736 
L 74.111818 48.672 
L 74.478182 48.672 
L 74.478182 48.4704 
L 74.619091 48.4704 
L 74.619091 48.2688 
L 75.464545 48.2688 
L 75.492727 47.8656 
L 76.112727 47.8656 
L 76.112727 47.664 
L 81.016364 47.664 
L 81.016364 47.4624 
L 81.382727 47.4624 
L 81.382727 47.2608 
L 85.694545 47.2608 
L 85.694545 47.0592 
L 86.652727 47.0592 
L 86.652727 46.8576 
L 88.456364 46.8576 
L 88.456364 46.656 
L 89.442727 46.656 
L 89.442727 46.4544 
L 91.274545 46.4544 
L 91.274545 46.2528 
L 94.177273 46.2528 
L 94.177273 46.0512 
L 95.417273 46.0512 
L 95.417273 45.8496 
L 99.419091 45.8496 
L 99.419091 45.648 
L 102.406364 45.648 
L 102.406364 45.4464 
L 105.731818 45.4464 
L 105.731818 45.2448 
L 114.524545 45.2448 
L 114.524545 45.0432 
L 139.042727 45.0432 
L 139.042727 44.8416 
L 166.463636 44.8416 
L 166.463636 44.64 
L 311.318182 44.64 
L 311.318182 44.64 
" clip-path="url(#pef6602b995)" style="fill: none; stroke: #1f77b4; stroke-width: 1.5; stroke-linecap: square"/>
   </g>
   <g id="line2d_14">
    <path d="M 57.681818 246.24 
L 57.766364 110.5632 
L 57.794545 110.5632 
L 57.879091 86.5728 
L 57.907273 86.5728 
L 57.991818 80.1216 
L 58.02 80.1216 
L 58.048182 74.88 
L 58.132727 74.88 
L 58.217273 69.2352 
L 58.245455 69.2352 
L 58.33 67.6224 
L 58.358182 67.6224 
L 58.442727 65.808 
L 58.470909 65.808 
L 58.555455 62.784 
L 58.583636 62.784 
L 58.668182 61.3728 
L 58.752727 61.3728 
L 58.837273 59.9616 
L 58.865455 59.9616 
L 58.95 57.9456 
L 59.006364 57.9456 
L 59.090909 56.9376 
L 59.119091 56.9376 
L 59.147273 56.1312 
L 59.288182 56.1312 
L 59.288182 55.9296 
L 59.429091 55.9296 
L 59.513636 55.5264 
L 59.626364 55.5264 
L 59.710909 54.3168 
L 59.739091 54.3168 
L 59.795455 53.712 
L 59.851818 53.712 
L 59.936364 53.1072 
L 60.077273 53.1072 
L 60.133636 52.5024 
L 60.274545 52.5024 
L 60.302727 51.8976 
L 60.415455 51.8976 
L 60.415455 51.696 
L 60.528182 51.696 
L 60.584545 51.0912 
L 60.640909 51.0912 
L 60.640909 50.8896 
L 60.81 50.8896 
L 60.894545 50.4864 
L 60.950909 50.4864 
L 60.950909 50.2848 
L 61.063636 50.2848 
L 61.063636 50.0832 
L 61.937273 50.0832 
L 61.937273 49.8816 
L 62.134545 49.8816 
L 62.134545 49.4784 
L 62.303636 49.4784 
L 62.303636 49.2768 
L 62.472727 49.2768 
L 62.529091 48.8736 
L 62.613636 48.8736 
L 62.698182 48.4704 
L 62.754545 48.4704 
L 62.754545 48.2688 
L 63.177273 48.2688 
L 63.177273 48.0672 
L 63.402727 48.0672 
L 63.402727 47.8656 
L 63.543636 47.8656 
L 63.543636 47.664 
L 64.248182 47.664 
L 64.248182 47.4624 
L 64.360909 47.4624 
L 64.360909 47.2608 
L 66.728182 47.2608 
L 66.728182 47.0592 
L 69.349091 47.0592 
L 69.349091 46.8576 
L 71.35 46.8576 
L 71.35 46.656 
L 72.251818 46.656 
L 72.251818 46.4544 
L 75.38 46.4544 
L 75.38 46.2528 
L 76.507273 46.2528 
L 76.507273 46.0512 
L 77.493636 46.0512 
L 77.55 45.648 
L 88.991818 45.648 
L 88.991818 45.4464 
L 90.823636 45.4464 
L 90.823636 45.2448 
L 106.098182 45.2448 
L 106.098182 45.0432 
L 111.170909 45.0432 
L 111.170909 44.8416 
L 130.503636 44.8416 
L 130.503636 44.64 
L 311.318182 44.64 
L 311.318182 44.64 
" clip-path="url(#pef6602b995)" style="fill: none; stroke: #ff7f0e; stroke-width: 1.5; stroke-linecap: square"/>
   </g>
   <g id="line2d_15">
    <path d="M 57.681818 246.24 
L 57.766364 168.624 
L 57.794545 168.624 
L 57.879091 152.0928 
L 57.907273 152.0928 
L 57.991818 145.8432 
L 58.02 145.8432 
L 58.104545 137.376 
L 58.132727 137.376 
L 58.217273 135.5616 
L 58.245455 135.5616 
L 58.33 132.5376 
L 58.358182 132.5376 
L 58.442727 128.1024 
L 58.499091 128.1024 
L 58.583636 126.8928 
L 58.611818 126.8928 
L 58.696364 124.0704 
L 58.724545 124.0704 
L 58.809091 119.6352 
L 58.837273 119.6352 
L 58.921818 117.216 
L 58.95 117.216 
L 58.978182 115.6032 
L 59.062727 115.6032 
L 59.119091 114.3936 
L 59.175455 114.3936 
L 59.26 112.7808 
L 59.288182 112.7808 
L 59.372727 111.3696 
L 59.457273 111.3696 
L 59.541818 107.9424 
L 59.710909 107.9424 
L 59.795455 107.3376 
L 59.88 107.3376 
L 59.964545 106.128 
L 59.992727 106.128 
L 60.077273 103.9104 
L 60.105455 103.9104 
L 60.133636 103.104 
L 60.218182 103.104 
L 60.302727 101.088 
L 60.330909 101.088 
L 60.415455 100.2816 
L 60.471818 100.2816 
L 60.471818 99.4752 
L 60.584545 99.4752 
L 60.640909 98.6688 
L 60.697273 98.6688 
L 60.781818 97.056 
L 60.81 97.056 
L 60.894545 94.4352 
L 60.922727 94.4352 
L 60.979091 93.2256 
L 61.035455 93.2256 
L 61.091818 91.008 
L 61.148182 91.008 
L 61.232727 90.6048 
L 61.260909 90.6048 
L 61.317273 90.2016 
L 61.373636 90.2016 
L 61.401818 89.5968 
L 61.486364 89.5968 
L 61.570909 88.1856 
L 61.599091 88.1856 
L 61.599091 87.984 
L 61.711818 87.984 
L 61.711818 87.5808 
L 61.824545 87.5808 
L 61.880909 86.1696 
L 61.965455 86.1696 
L 62.021818 84.5568 
L 62.078182 84.5568 
L 62.078182 84.3552 
L 62.190909 84.3552 
L 62.219091 83.7504 
L 62.303636 83.7504 
L 62.303636 83.5488 
L 62.444545 83.5488 
L 62.444545 83.1456 
L 62.613636 83.1456 
L 62.613636 82.944 
L 62.726364 82.944 
L 62.810909 81.7344 
L 62.923636 81.7344 
L 62.951818 80.5248 
L 63.036364 80.5248 
L 63.064545 80.1216 
L 63.233636 80.1216 
L 63.233636 79.92 
L 63.346364 79.92 
L 63.346364 79.7184 
L 63.459091 79.7184 
L 63.543636 78.7104 
L 63.571818 78.7104 
L 63.656364 77.904 
L 63.769091 77.904 
L 63.853636 76.6944 
L 63.938182 76.6944 
L 63.938182 76.4928 
L 64.079091 76.4928 
L 64.107273 76.0896 
L 64.248182 76.0896 
L 64.248182 75.888 
L 64.53 75.888 
L 64.614545 75.2832 
L 64.783636 75.2832 
L 64.783636 74.88 
L 64.924545 74.88 
L 65.009091 74.2752 
L 65.065455 74.2752 
L 65.121818 73.2672 
L 65.234545 73.2672 
L 65.262727 72.864 
L 65.375455 72.864 
L 65.375455 72.6624 
L 65.685455 72.6624 
L 65.685455 72.4608 
L 66.023636 72.4608 
L 66.023636 72.2592 
L 66.728182 72.2592 
L 66.728182 72.0576 
L 66.840909 72.0576 
L 66.897273 71.4528 
L 67.01 71.4528 
L 67.01 71.2512 
L 67.179091 71.2512 
L 67.179091 71.0496 
L 67.460909 71.0496 
L 67.517273 70.6464 
L 67.573636 70.6464 
L 67.658182 70.0416 
L 67.686364 70.0416 
L 67.770909 69.6384 
L 67.855455 69.6384 
L 67.911818 69.0336 
L 67.968182 69.0336 
L 67.968182 68.832 
L 68.109091 68.832 
L 68.109091 68.4288 
L 68.588182 68.4288 
L 68.672727 67.824 
L 68.757273 67.824 
L 68.841818 67.4208 
L 68.954545 67.4208 
L 69.039091 67.0176 
L 69.349091 67.0176 
L 69.349091 66.6144 
L 69.49 66.6144 
L 69.574545 66.2112 
L 69.884545 66.2112 
L 69.884545 66.0096 
L 70.081818 66.0096 
L 70.138182 65.6064 
L 70.194545 65.6064 
L 70.250909 65.2032 
L 70.391818 65.2032 
L 70.42 64.5984 
L 70.645455 64.5984 
L 70.673636 64.1952 
L 71.011818 64.1952 
L 71.096364 63.792 
L 71.35 63.792 
L 71.35 63.5904 
L 71.462727 63.5904 
L 71.462727 63.3888 
L 71.631818 63.3888 
L 71.631818 63.1872 
L 71.744545 63.1872 
L 71.744545 62.9856 
L 72.026364 62.9856 
L 72.026364 62.784 
L 72.308182 62.784 
L 72.308182 62.5824 
L 72.420909 62.5824 
L 72.449091 61.9776 
L 72.646364 61.9776 
L 72.646364 61.5744 
L 72.871818 61.5744 
L 72.9 61.1712 
L 73.153636 61.1712 
L 73.153636 60.9696 
L 73.294545 60.9696 
L 73.350909 60.5664 
L 73.689091 60.5664 
L 73.689091 60.3648 
L 73.886364 60.3648 
L 73.886364 60.1632 
L 74.365455 60.1632 
L 74.365455 59.9616 
L 74.76 59.9616 
L 74.76 59.76 
L 74.929091 59.76 
L 74.929091 59.5584 
L 75.323636 59.5584 
L 75.408182 59.1552 
L 76.056364 59.1552 
L 76.084545 58.5504 
L 76.197273 58.5504 
L 76.197273 58.3488 
L 76.563636 58.3488 
L 76.563636 58.1472 
L 76.732727 58.1472 
L 76.817273 57.5424 
L 77.099091 57.5424 
L 77.099091 57.3408 
L 77.211818 57.3408 
L 77.211818 57.1392 
L 77.380909 57.1392 
L 77.380909 56.9376 
L 77.916364 56.9376 
L 77.916364 56.736 
L 78.310909 56.736 
L 78.310909 56.5344 
L 78.451818 56.5344 
L 78.451818 56.3328 
L 79.438182 56.3328 
L 79.438182 56.1312 
L 79.804545 56.1312 
L 79.832727 55.728 
L 81.439091 55.728 
L 81.439091 55.5264 
L 81.551818 55.5264 
L 81.58 55.1232 
L 81.777273 55.1232 
L 81.777273 54.9216 
L 82.312727 54.9216 
L 82.369091 54.5184 
L 82.904545 54.5184 
L 82.904545 54.3168 
L 83.045455 54.3168 
L 83.073636 53.9136 
L 84.257273 53.9136 
L 84.257273 53.712 
L 84.426364 53.712 
L 84.426364 53.3088 
L 85.328182 53.3088 
L 85.328182 52.9056 
L 86.173636 52.9056 
L 86.173636 52.704 
L 86.624545 52.704 
L 86.624545 52.5024 
L 86.962727 52.5024 
L 86.962727 52.3008 
L 88.118182 52.3008 
L 88.118182 52.0992 
L 88.850909 52.0992 
L 88.850909 51.8976 
L 91.922727 51.8976 
L 91.922727 51.696 
L 92.204545 51.696 
L 92.204545 51.4944 
L 92.317273 51.4944 
L 92.345455 51.0912 
L 93.388182 51.0912 
L 93.444545 50.688 
L 94.430909 50.688 
L 94.430909 50.4864 
L 94.797273 50.4864 
L 94.797273 50.2848 
L 95.332727 50.2848 
L 95.332727 50.0832 
L 96.516364 50.0832 
L 96.516364 49.8816 
L 97.192727 49.8816 
L 97.277273 49.4784 
L 97.39 49.4784 
L 97.39 49.2768 
L 98.01 49.2768 
L 98.01 49.0752 
L 98.32 49.0752 
L 98.32 48.8736 
L 103.28 48.8736 
L 103.28 48.672 
L 103.646364 48.672 
L 103.646364 48.4704 
L 106.887273 48.4704 
L 106.887273 48.2688 
L 109.198182 48.2688 
L 109.198182 48.0672 
L 109.677273 48.0672 
L 109.677273 47.8656 
L 110.663636 47.8656 
L 110.663636 47.664 
L 114.073636 47.664 
L 114.073636 47.4624 
L 115.257273 47.4624 
L 115.257273 47.2608 
L 118.554545 47.2608 
L 118.554545 47.0592 
L 120.724545 47.0592 
L 120.724545 46.8576 
L 122.81 46.8576 
L 122.81 46.656 
L 125.120909 46.656 
L 125.120909 46.4544 
L 126.163636 46.4544 
L 126.163636 46.2528 
L 129.63 46.2528 
L 129.63 46.0512 
L 129.996364 46.0512 
L 129.996364 45.8496 
L 139.690909 45.8496 
L 139.690909 45.648 
L 141.860909 45.648 
L 141.860909 45.4464 
L 161.419091 45.4464 
L 161.419091 45.2448 
L 167.703636 45.2448 
L 167.703636 45.0432 
L 173.565455 45.0432 
L 173.565455 44.8416 
L 221.39 44.8416 
L 221.39 44.64 
L 311.318182 44.64 
L 311.318182 44.64 
" clip-path="url(#pef6602b995)" style="fill: none; stroke: #2ca02c; stroke-width: 1.5; stroke-linecap: square"/>
   </g>
   <g id="line2d_16">
    <path d="M 57.681818 246.24 
L 57.766364 195.6384 
L 57.794545 195.6384 
L 57.879091 186.5664 
L 57.907273 186.5664 
L 57.991818 178.9056 
L 58.02 178.9056 
L 58.104545 176.2848 
L 58.132727 176.2848 
L 58.217273 166.8096 
L 58.245455 166.8096 
L 58.33 165.6 
L 58.414545 165.6 
L 58.499091 163.1808 
L 58.527273 163.1808 
L 58.611818 159.552 
L 58.64 159.552 
L 58.724545 156.3264 
L 58.752727 156.3264 
L 58.837273 152.496 
L 58.865455 152.496 
L 58.95 147.6576 
L 59.006364 147.6576 
L 59.062727 147.0528 
L 59.147273 147.0528 
L 59.231818 144.0288 
L 59.26 144.0288 
L 59.316364 141.8112 
L 59.372727 141.8112 
L 59.457273 139.392 
L 59.541818 139.392 
L 59.598182 138.1824 
L 59.739091 138.1824 
L 59.823636 135.36 
L 59.851818 135.36 
L 59.936364 132.7392 
L 59.964545 132.7392 
L 60.020909 131.9328 
L 60.077273 131.9328 
L 60.133636 130.1184 
L 60.19 130.1184 
L 60.246364 128.1024 
L 60.302727 128.1024 
L 60.387273 127.296 
L 60.528182 127.296 
L 60.612727 126.0864 
L 60.669091 126.0864 
L 60.697273 125.4816 
L 60.781818 125.4816 
L 60.866364 123.8688 
L 60.894545 123.8688 
L 60.894545 123.0624 
L 61.007273 123.0624 
L 61.091818 121.4496 
L 61.12 121.4496 
L 61.176364 119.8368 
L 61.289091 119.8368 
L 61.289091 119.6352 
L 61.401818 119.6352 
L 61.43 118.8288 
L 61.542727 118.8288 
L 61.627273 118.0224 
L 61.74 118.0224 
L 61.796364 117.216 
L 61.852727 117.216 
L 61.937273 115.2 
L 61.993636 115.2 
L 62.021818 114.192 
L 62.303636 114.192 
L 62.36 113.3856 
L 62.416364 113.3856 
L 62.500909 111.7728 
L 62.585455 111.7728 
L 62.585455 111.168 
L 62.726364 111.168 
L 62.726364 110.3616 
L 62.923636 110.3616 
L 63.008182 109.7568 
L 63.149091 109.7568 
L 63.233636 108.3456 
L 63.29 108.3456 
L 63.29 106.5312 
L 63.402727 106.5312 
L 63.459091 106.128 
L 63.543636 106.128 
L 63.628182 105.12 
L 63.684545 105.12 
L 63.769091 104.3136 
L 63.938182 104.3136 
L 63.994545 103.3056 
L 64.079091 103.3056 
L 64.079091 102.4992 
L 64.191818 102.4992 
L 64.248182 101.8944 
L 64.332727 101.8944 
L 64.332727 101.6928 
L 64.445455 101.6928 
L 64.53 100.6848 
L 64.586364 100.6848 
L 64.586364 100.4832 
L 64.755455 100.4832 
L 64.84 99.072 
L 64.868182 99.072 
L 64.952727 98.064 
L 65.121818 98.064 
L 65.178182 97.4592 
L 65.347273 97.4592 
L 65.347273 97.2576 
L 65.488182 97.2576 
L 65.488182 97.056 
L 65.657273 97.056 
L 65.657273 96.4512 
L 65.77 96.4512 
L 65.798182 95.8464 
L 65.882727 95.8464 
L 65.939091 94.032 
L 65.995455 94.032 
L 66.051818 93.2256 
L 66.108182 93.2256 
L 66.164545 92.4192 
L 66.249091 92.4192 
L 66.333636 91.4112 
L 66.559091 91.4112 
L 66.643636 90.4032 
L 66.7 90.4032 
L 66.728182 90 
L 66.925455 90 
L 66.981818 89.3952 
L 67.038182 89.3952 
L 67.038182 89.1936 
L 67.150909 89.1936 
L 67.150909 88.7904 
L 67.263636 88.7904 
L 67.32 88.3872 
L 67.460909 88.3872 
L 67.460909 87.984 
L 67.686364 87.984 
L 67.686364 87.7824 
L 67.94 87.7824 
L 67.94 87.5808 
L 68.165455 87.5808 
L 68.25 87.1776 
L 68.419091 87.1776 
L 68.419091 86.976 
L 68.616364 86.976 
L 68.616364 86.7744 
L 68.729091 86.7744 
L 68.813636 86.3712 
L 68.87 86.3712 
L 68.87 86.1696 
L 69.067273 86.1696 
L 69.151818 85.5648 
L 69.236364 85.5648 
L 69.292727 84.96 
L 69.377273 84.96 
L 69.461818 84.5568 
L 69.743636 84.5568 
L 69.771818 83.952 
L 69.884545 83.952 
L 69.884545 83.7504 
L 70.081818 83.7504 
L 70.138182 83.3472 
L 70.279091 83.3472 
L 70.363636 82.7424 
L 70.391818 82.7424 
L 70.391818 82.5408 
L 70.560909 82.5408 
L 70.589091 81.936 
L 70.673636 81.936 
L 70.701818 81.3312 
L 71.124545 81.3312 
L 71.124545 81.1296 
L 71.434545 81.1296 
L 71.462727 80.7264 
L 71.547273 80.7264 
L 71.631818 79.5168 
L 71.688182 79.5168 
L 71.744545 79.1136 
L 71.800909 79.1136 
L 71.800909 78.912 
L 71.941818 78.912 
L 71.941818 78.7104 
L 72.054545 78.7104 
L 72.054545 78.5088 
L 72.223636 78.5088 
L 72.223636 78.3072 
L 72.336364 78.3072 
L 72.336364 78.1056 
L 72.477273 78.1056 
L 72.477273 77.904 
L 72.702727 77.904 
L 72.730909 77.5008 
L 72.815455 77.5008 
L 72.815455 77.2992 
L 73.153636 77.2992 
L 73.153636 77.0976 
L 73.407273 77.0976 
L 73.407273 76.896 
L 73.52 76.896 
L 73.548182 76.2912 
L 73.745455 76.2912 
L 73.745455 76.0896 
L 73.858182 76.0896 
L 73.914545 75.6864 
L 74.083636 75.6864 
L 74.083636 75.4848 
L 74.534545 75.4848 
L 74.590909 75.0816 
L 74.675455 75.0816 
L 74.675455 74.6784 
L 74.844545 74.6784 
L 74.844545 74.2752 
L 74.985455 74.2752 
L 74.985455 74.0736 
L 75.126364 74.0736 
L 75.210909 73.4688 
L 75.295455 73.4688 
L 75.323636 73.0656 
L 75.464545 73.0656 
L 75.464545 72.864 
L 75.605455 72.864 
L 75.661818 72.4608 
L 76.028182 72.4608 
L 76.028182 72.2592 
L 76.394545 72.2592 
L 76.422727 71.4528 
L 76.676364 71.4528 
L 76.676364 71.2512 
L 76.817273 71.2512 
L 76.817273 71.0496 
L 77.014545 71.0496 
L 77.099091 70.4448 
L 77.183636 70.4448 
L 77.268182 69.84 
L 77.409091 69.84 
L 77.409091 69.2352 
L 77.521818 69.2352 
L 77.521818 69.0336 
L 77.690909 69.0336 
L 77.690909 68.832 
L 77.803636 68.832 
L 77.803636 68.6304 
L 78.085455 68.6304 
L 78.085455 68.4288 
L 78.395455 68.4288 
L 78.395455 68.0256 
L 78.592727 68.0256 
L 78.620909 67.6224 
L 78.79 67.6224 
L 78.818182 67.2192 
L 79.071818 67.2192 
L 79.071818 67.0176 
L 79.325455 67.0176 
L 79.381818 66.6144 
L 79.748182 66.6144 
L 79.748182 66.4128 
L 79.889091 66.4128 
L 79.889091 66.2112 
L 80.368182 66.2112 
L 80.368182 66.0096 
L 80.565455 66.0096 
L 80.621818 65.4048 
L 80.706364 65.4048 
L 80.706364 65.2032 
L 80.875455 65.2032 
L 80.875455 65.0016 
L 81.410909 65.0016 
L 81.410909 64.3968 
L 81.918182 64.3968 
L 81.918182 64.1952 
L 82.059091 64.1952 
L 82.059091 63.9936 
L 82.904545 63.9936 
L 82.960909 63.5904 
L 83.101818 63.5904 
L 83.101818 62.9856 
L 83.270909 62.9856 
L 83.355455 62.5824 
L 83.721818 62.5824 
L 83.778182 62.1792 
L 83.947273 62.1792 
L 83.947273 61.9776 
L 84.398182 61.9776 
L 84.398182 61.776 
L 84.651818 61.776 
L 84.651818 61.5744 
L 84.933636 61.5744 
L 84.99 61.1712 
L 85.046364 61.1712 
L 85.046364 60.9696 
L 85.215455 60.9696 
L 85.3 60.1632 
L 85.328182 60.1632 
L 85.328182 59.9616 
L 85.440909 59.9616 
L 85.440909 59.76 
L 85.553636 59.76 
L 85.581818 59.3568 
L 85.666364 59.3568 
L 85.666364 59.1552 
L 85.863636 59.1552 
L 85.863636 58.752 
L 86.342727 58.752 
L 86.399091 58.3488 
L 86.596364 58.3488 
L 86.652727 57.744 
L 87.244545 57.744 
L 87.244545 57.5424 
L 88.146364 57.5424 
L 88.146364 57.3408 
L 88.625455 57.3408 
L 88.625455 57.1392 
L 89.499091 57.1392 
L 89.499091 56.9376 
L 89.809091 56.9376 
L 89.809091 56.736 
L 90.400909 56.736 
L 90.400909 56.5344 
L 90.936364 56.5344 
L 90.936364 56.1312 
L 91.161818 56.1312 
L 91.161818 55.9296 
L 91.359091 55.9296 
L 91.387273 55.5264 
L 91.5 55.5264 
L 91.5 55.3248 
L 91.753636 55.3248 
L 91.753636 55.1232 
L 91.894545 55.1232 
L 91.894545 54.9216 
L 92.43 54.9216 
L 92.43 54.72 
L 92.711818 54.72 
L 92.711818 54.5184 
L 93.641818 54.5184 
L 93.641818 54.3168 
L 94.402727 54.3168 
L 94.402727 54.1152 
L 95.727273 54.1152 
L 95.755455 53.5104 
L 96.910909 53.5104 
L 96.910909 53.3088 
L 98.150909 53.3088 
L 98.150909 53.1072 
L 98.996364 53.1072 
L 98.996364 52.9056 
L 99.221818 52.9056 
L 99.221818 52.704 
L 99.334545 52.704 
L 99.334545 52.5024 
L 99.785455 52.5024 
L 99.785455 52.3008 
L 100.433636 52.3008 
L 100.433636 52.0992 
L 100.602727 52.0992 
L 100.602727 51.8976 
L 100.8 51.8976 
L 100.8 51.696 
L 103.110909 51.696 
L 103.110909 51.4944 
L 103.477273 51.4944 
L 103.477273 51.2928 
L 104.407273 51.2928 
L 104.407273 51.0912 
L 105.900909 51.0912 
L 105.900909 50.8896 
L 106.210909 50.8896 
L 106.210909 50.688 
L 106.520909 50.688 
L 106.520909 50.4864 
L 107.112727 50.4864 
L 107.169091 50.0832 
L 108.465455 50.0832 
L 108.465455 49.8816 
L 108.662727 49.8816 
L 108.690909 49.4784 
L 108.831818 49.4784 
L 108.831818 49.2768 
L 110.297273 49.2768 
L 110.297273 49.0752 
L 110.776364 49.0752 
L 110.776364 48.8736 
L 111.847273 48.8736 
L 111.847273 48.672 
L 112.410909 48.672 
L 112.410909 48.4704 
L 114.468182 48.4704 
L 114.468182 48.2688 
L 116.666364 48.2688 
L 116.666364 48.0672 
L 118.667273 48.0672 
L 118.667273 47.8656 
L 120.386364 47.8656 
L 120.386364 47.664 
L 121.739091 47.664 
L 121.739091 47.4624 
L 126.670909 47.4624 
L 126.670909 47.2608 
L 130.334545 47.2608 
L 130.334545 47.0592 
L 135.181818 47.0592 
L 135.181818 46.8576 
L 135.407273 46.8576 
L 135.407273 46.656 
L 140.029091 46.656 
L 140.029091 46.4544 
L 140.536364 46.4544 
L 140.536364 46.2528 
L 143.664545 46.2528 
L 143.664545 46.0512 
L 145.496364 46.0512 
L 145.496364 45.8496 
L 152.429091 45.8496 
L 152.429091 45.648 
L 162.771818 45.648 
L 162.771818 45.4464 
L 169.281818 45.4464 
L 169.281818 45.2448 
L 180.554545 45.2448 
L 180.554545 45.0432 
L 233.423636 45.0432 
L 233.423636 44.8416 
L 276.57 44.8416 
L 276.57 44.64 
L 311.318182 44.64 
L 311.318182 44.64 
" clip-path="url(#pef6602b995)" style="fill: none; stroke: #d62728; stroke-width: 1.5; stroke-linecap: square"/>
   </g>
   <g id="line2d_17">
    <path d="M 57.681818 246.24 
L 57.766364 192.0096 
L 57.794545 192.0096 
L 57.879091 155.52 
L 57.907273 155.52 
L 57.991818 138.1824 
L 58.02 138.1824 
L 58.104545 131.328 
L 58.132727 131.328 
L 58.217273 121.4496 
L 58.245455 121.4496 
L 58.33 117.216 
L 58.358182 117.216 
L 58.442727 111.9744 
L 58.470909 111.9744 
L 58.555455 108.5472 
L 58.611818 108.5472 
L 58.696364 104.3136 
L 58.724545 104.3136 
L 58.809091 103.9104 
L 58.837273 103.9104 
L 58.921818 102.9024 
L 58.95 102.9024 
L 59.034545 100.4832 
L 59.062727 100.4832 
L 59.147273 97.6608 
L 59.175455 97.6608 
L 59.26 93.8304 
L 59.288182 93.8304 
L 59.344545 91.8144 
L 59.400909 91.8144 
L 59.485455 90 
L 59.57 90 
L 59.654545 87.984 
L 59.682727 87.984 
L 59.767273 85.968 
L 59.795455 85.968 
L 59.88 84.3552 
L 59.908182 84.3552 
L 59.964545 83.5488 
L 60.020909 83.5488 
L 60.105455 81.936 
L 60.133636 81.936 
L 60.218182 81.1296 
L 60.246364 81.1296 
L 60.330909 80.1216 
L 60.443636 80.1216 
L 60.528182 78.912 
L 60.556364 78.912 
L 60.584545 78.5088 
L 60.669091 78.5088 
L 60.697273 78.1056 
L 60.838182 78.1056 
L 60.922727 76.896 
L 61.007273 76.896 
L 61.091818 76.0896 
L 61.12 76.0896 
L 61.148182 75.0816 
L 61.373636 75.0816 
L 61.458182 73.872 
L 61.486364 73.872 
L 61.570909 73.2672 
L 61.599091 73.2672 
L 61.599091 72.6624 
L 61.74 72.6624 
L 61.796364 71.6544 
L 61.937273 71.6544 
L 61.937273 71.2512 
L 62.106364 71.2512 
L 62.106364 71.0496 
L 62.36 71.0496 
L 62.416364 69.84 
L 62.500909 69.84 
L 62.557273 69.0336 
L 62.613636 69.0336 
L 62.67 68.0256 
L 62.839091 68.0256 
L 62.839091 67.824 
L 63.064545 67.824 
L 63.149091 67.2192 
L 63.205455 67.2192 
L 63.29 66.4128 
L 63.318182 66.4128 
L 63.374545 65.2032 
L 63.487273 65.2032 
L 63.571818 64.5984 
L 63.684545 64.5984 
L 63.769091 63.5904 
L 63.853636 63.5904 
L 63.91 63.1872 
L 64.135455 63.1872 
L 64.22 62.5824 
L 64.248182 62.5824 
L 64.304545 62.1792 
L 64.53 62.1792 
L 64.558182 61.776 
L 64.642727 61.776 
L 64.642727 60.768 
L 64.952727 60.768 
L 64.952727 60.5664 
L 65.065455 60.5664 
L 65.065455 60.3648 
L 65.262727 60.3648 
L 65.262727 60.1632 
L 65.600909 60.1632 
L 65.685455 59.5584 
L 66.136364 59.5584 
L 66.220909 58.9536 
L 66.333636 58.9536 
L 66.333636 58.752 
L 66.615455 58.752 
L 66.643636 58.3488 
L 67.348182 58.3488 
L 67.348182 58.1472 
L 67.460909 58.1472 
L 67.545455 57.744 
L 67.63 57.744 
L 67.63 57.5424 
L 67.883636 57.5424 
L 67.968182 57.1392 
L 68.052727 57.1392 
L 68.052727 56.9376 
L 68.56 56.9376 
L 68.588182 56.5344 
L 68.672727 56.5344 
L 68.672727 56.3328 
L 69.095455 56.3328 
L 69.18 55.728 
L 69.208182 55.728 
L 69.292727 54.72 
L 69.715455 54.72 
L 69.715455 54.5184 
L 69.912727 54.5184 
L 69.912727 54.3168 
L 70.166364 54.3168 
L 70.166364 54.1152 
L 70.335455 54.1152 
L 70.335455 53.9136 
L 70.758182 53.9136 
L 70.758182 53.712 
L 71.011818 53.712 
L 71.011818 53.5104 
L 71.293636 53.5104 
L 71.293636 53.3088 
L 71.66 53.3088 
L 71.66 53.1072 
L 71.829091 53.1072 
L 71.829091 52.9056 
L 71.97 52.9056 
L 71.97 52.704 
L 72.336364 52.704 
L 72.336364 52.5024 
L 72.449091 52.5024 
L 72.449091 52.3008 
L 73.012727 52.3008 
L 73.012727 52.0992 
L 73.238182 52.0992 
L 73.238182 51.8976 
L 74.252727 51.8976 
L 74.252727 51.696 
L 74.703636 51.696 
L 74.703636 51.4944 
L 74.957273 51.4944 
L 74.957273 51.2928 
L 75.295455 51.2928 
L 75.295455 51.0912 
L 76.084545 51.0912 
L 76.084545 50.8896 
L 76.479091 50.8896 
L 76.479091 50.688 
L 76.62 50.688 
L 76.62 50.4864 
L 77.127273 50.4864 
L 77.127273 50.2848 
L 78.620909 50.2848 
L 78.620909 50.0832 
L 79.635455 50.0832 
L 79.635455 49.8816 
L 79.776364 49.8816 
L 79.776364 49.68 
L 80.762727 49.68 
L 80.762727 49.4784 
L 80.903636 49.4784 
L 80.903636 49.2768 
L 81.664545 49.2768 
L 81.664545 49.0752 
L 84.426364 49.0752 
L 84.426364 48.8736 
L 85.807273 48.8736 
L 85.807273 48.672 
L 87.949091 48.672 
L 87.949091 48.4704 
L 88.230909 48.4704 
L 88.230909 48.2688 
L 88.822727 48.2688 
L 88.822727 48.0672 
L 90.316364 48.0672 
L 90.316364 47.8656 
L 90.513636 47.8656 
L 90.513636 47.664 
L 91.387273 47.664 
L 91.387273 47.4624 
L 93.585455 47.4624 
L 93.585455 47.2608 
L 93.839091 47.2608 
L 93.839091 46.8576 
L 94.064545 46.8576 
L 94.064545 46.656 
L 96.544545 46.656 
L 96.544545 46.4544 
L 100.771818 46.4544 
L 100.771818 46.2528 
L 101.899091 46.2528 
L 101.899091 46.0512 
L 103.110909 46.0512 
L 103.110909 45.8496 
L 107.62 45.8496 
L 107.62 45.648 
L 107.958182 45.648 
L 107.958182 45.4464 
L 108.578182 45.4464 
L 108.578182 45.2448 
L 117.737273 45.2448 
L 117.737273 45.0432 
L 137.69 45.0432 
L 137.69 44.8416 
L 188.53 44.8416 
L 188.53 44.64 
L 311.318182 44.64 
L 311.318182 44.64 
" clip-path="url(#pef6602b995)" style="fill: none; stroke: #9467bd; stroke-width: 1.5; stroke-linecap: square"/>
   </g>
   <g id="line2d_18">
    <path d="M 57.681818 246.24 
L 57.766364 171.0432 
L 57.794545 171.0432 
L 57.879091 156.3264 
L 57.907273 156.3264 
L 57.963636 150.0768 
L 58.02 150.0768 
L 58.104545 142.0128 
L 58.132727 142.0128 
L 58.217273 136.9728 
L 58.301818 136.9728 
L 58.386364 133.9488 
L 58.414545 133.9488 
L 58.499091 131.5296 
L 58.527273 131.5296 
L 58.555455 127.9008 
L 58.64 127.9008 
L 58.696364 126.6912 
L 58.752727 126.6912 
L 58.837273 123.264 
L 58.893636 123.264 
L 58.978182 120.6432 
L 59.006364 120.6432 
L 59.090909 117.8208 
L 59.119091 117.8208 
L 59.203636 112.176 
L 59.231818 112.176 
L 59.316364 110.7648 
L 59.344545 110.7648 
L 59.429091 109.5552 
L 59.457273 109.5552 
L 59.541818 108.5472 
L 59.57 108.5472 
L 59.626364 107.3376 
L 59.682727 107.3376 
L 59.739091 106.9344 
L 59.795455 106.9344 
L 59.823636 106.3296 
L 59.992727 106.3296 
L 60.077273 103.3056 
L 60.105455 103.3056 
L 60.133636 102.9024 
L 60.246364 102.9024 
L 60.330909 101.2896 
L 60.359091 101.2896 
L 60.415455 100.8864 
L 60.471818 100.8864 
L 60.556364 100.2816 
L 60.584545 100.2816 
L 60.669091 99.072 
L 60.725455 99.072 
L 60.81 97.6608 
L 60.866364 97.6608 
L 60.950909 96.2496 
L 60.979091 96.2496 
L 61.035455 95.2416 
L 61.091818 95.2416 
L 61.176364 94.2336 
L 61.260909 94.2336 
L 61.289091 93.8304 
L 61.373636 93.8304 
L 61.458182 92.8224 
L 61.570909 92.8224 
L 61.627273 91.6128 
L 61.796364 91.6128 
L 61.796364 91.4112 
L 61.909091 91.4112 
L 61.965455 90.2016 
L 62.05 90.2016 
L 62.106364 89.7984 
L 62.162727 89.7984 
L 62.190909 89.3952 
L 62.275455 89.3952 
L 62.36 88.5888 
L 62.388182 88.5888 
L 62.388182 88.1856 
L 62.557273 88.1856 
L 62.641818 87.5808 
L 62.698182 87.5808 
L 62.698182 87.1776 
L 62.839091 87.1776 
L 62.895455 86.7744 
L 63.036364 86.7744 
L 63.120909 86.3712 
L 63.149091 86.3712 
L 63.177273 85.7664 
L 63.29 85.7664 
L 63.346364 85.1616 
L 63.402727 85.1616 
L 63.459091 84.5568 
L 63.656364 84.5568 
L 63.656364 84.3552 
L 63.797273 84.3552 
L 63.881818 83.7504 
L 63.91 83.7504 
L 63.938182 82.7424 
L 64.050909 82.7424 
L 64.107273 81.936 
L 64.163636 81.936 
L 64.22 81.3312 
L 64.417273 81.3312 
L 64.473636 80.7264 
L 64.558182 80.7264 
L 64.586364 79.92 
L 64.670909 79.92 
L 64.755455 79.1136 
L 64.868182 79.1136 
L 64.868182 78.912 
L 65.319091 78.912 
L 65.403636 77.7024 
L 65.431818 77.7024 
L 65.488182 77.2992 
L 65.572727 77.2992 
L 65.572727 76.896 
L 65.685455 76.896 
L 65.685455 76.6944 
L 65.995455 76.6944 
L 66.08 75.888 
L 66.220909 75.888 
L 66.220909 75.6864 
L 66.39 75.6864 
L 66.39 75.4848 
L 66.615455 75.4848 
L 66.7 74.6784 
L 66.756364 74.6784 
L 66.756364 74.4768 
L 66.925455 74.4768 
L 66.925455 74.0736 
L 67.066364 74.0736 
L 67.066364 73.872 
L 67.263636 73.872 
L 67.291818 73.4688 
L 67.432727 73.4688 
L 67.489091 72.864 
L 67.545455 72.864 
L 67.573636 72.2592 
L 67.799091 72.2592 
L 67.799091 72.0576 
L 67.968182 72.0576 
L 67.968182 71.856 
L 68.109091 71.856 
L 68.193636 70.6464 
L 68.390909 70.6464 
L 68.475455 70.0416 
L 68.531818 70.0416 
L 68.588182 69.6384 
L 68.644545 69.6384 
L 68.644545 69.4368 
L 68.813636 69.4368 
L 68.87 69.0336 
L 69.039091 69.0336 
L 69.123636 68.4288 
L 69.208182 68.4288 
L 69.208182 68.2272 
L 69.461818 68.2272 
L 69.49 67.824 
L 69.630909 67.824 
L 69.630909 67.6224 
L 69.743636 67.6224 
L 69.743636 67.4208 
L 69.912727 67.4208 
L 69.997273 67.0176 
L 70.025455 67.0176 
L 70.053636 66.6144 
L 70.42 66.6144 
L 70.476364 66.0096 
L 71.04 66.0096 
L 71.04 65.808 
L 71.265455 65.808 
L 71.265455 65.6064 
L 71.631818 65.6064 
L 71.631818 65.4048 
L 71.829091 65.4048 
L 71.885455 64.8 
L 72.308182 64.8 
L 72.392727 64.1952 
L 72.449091 64.1952 
L 72.449091 63.9936 
L 72.787273 63.9936 
L 72.815455 63.1872 
L 72.9 63.1872 
L 72.9 62.9856 
L 73.012727 62.9856 
L 73.012727 62.784 
L 73.153636 62.784 
L 73.181818 62.3808 
L 73.350909 62.3808 
L 73.350909 62.1792 
L 73.52 62.1792 
L 73.52 61.5744 
L 73.801818 61.5744 
L 73.801818 61.1712 
L 74.083636 61.1712 
L 74.083636 60.9696 
L 74.196364 60.9696 
L 74.196364 60.5664 
L 74.675455 60.5664 
L 74.675455 60.1632 
L 74.957273 60.1632 
L 74.957273 59.9616 
L 75.577273 59.9616 
L 75.577273 59.76 
L 75.887273 59.76 
L 75.915455 59.3568 
L 76.140909 59.3568 
L 76.140909 59.1552 
L 76.479091 59.1552 
L 76.479091 58.9536 
L 76.648182 58.9536 
L 76.676364 58.3488 
L 77.803636 58.3488 
L 77.888182 57.9456 
L 77.972727 57.9456 
L 77.972727 57.744 
L 78.339091 57.744 
L 78.423636 57.3408 
L 78.592727 57.3408 
L 78.649091 56.9376 
L 78.846364 56.9376 
L 78.846364 56.736 
L 79.579091 56.736 
L 79.635455 56.3328 
L 79.691818 56.3328 
L 79.691818 56.1312 
L 80.086364 56.1312 
L 80.086364 55.9296 
L 80.509091 55.9296 
L 80.509091 55.728 
L 80.903636 55.728 
L 80.903636 55.5264 
L 81.918182 55.5264 
L 81.918182 55.1232 
L 82.059091 55.1232 
L 82.059091 54.9216 
L 82.453636 54.9216 
L 82.453636 54.72 
L 82.989091 54.72 
L 82.989091 54.5184 
L 83.637273 54.5184 
L 83.637273 54.3168 
L 84.003636 54.3168 
L 84.003636 54.1152 
L 84.229091 54.1152 
L 84.229091 53.9136 
L 84.341818 53.9136 
L 84.341818 53.712 
L 84.792727 53.712 
L 84.792727 53.5104 
L 85.384545 53.5104 
L 85.384545 53.1072 
L 85.497273 53.1072 
L 85.497273 52.9056 
L 86.032727 52.9056 
L 86.032727 52.704 
L 86.455455 52.704 
L 86.455455 52.5024 
L 87.357273 52.5024 
L 87.357273 52.3008 
L 87.554545 52.3008 
L 87.554545 52.0992 
L 88.174545 52.0992 
L 88.174545 51.8976 
L 88.456364 51.8976 
L 88.456364 51.696 
L 89.358182 51.696 
L 89.358182 51.4944 
L 89.95 51.4944 
L 90.006364 51.0912 
L 91.5 51.0912 
L 91.584545 50.688 
L 91.725455 50.688 
L 91.725455 50.4864 
L 92.345455 50.4864 
L 92.401818 50.0832 
L 93.585455 50.0832 
L 93.585455 49.8816 
L 93.895455 49.8816 
L 93.895455 49.68 
L 94.571818 49.68 
L 94.571818 49.4784 
L 95.304545 49.4784 
L 95.304545 49.2768 
L 96.967273 49.2768 
L 96.967273 49.0752 
L 97.981818 49.0752 
L 97.981818 48.8736 
L 100.687273 48.8736 
L 100.687273 48.672 
L 101.222727 48.672 
L 101.222727 48.4704 
L 102.152727 48.4704 
L 102.152727 48.2688 
L 102.519091 48.2688 
L 102.519091 48.0672 
L 102.800909 48.0672 
L 102.800909 47.8656 
L 103.308182 47.8656 
L 103.308182 47.664 
L 104.435455 47.664 
L 104.435455 47.4624 
L 106.520909 47.4624 
L 106.520909 47.2608 
L 107.056364 47.2608 
L 107.056364 47.0592 
L 107.394545 47.0592 
L 107.394545 46.8576 
L 109.254545 46.8576 
L 109.254545 46.656 
L 109.564545 46.656 
L 109.564545 46.4544 
L 111.452727 46.4544 
L 111.452727 46.2528 
L 114.496364 46.2528 
L 114.496364 46.0512 
L 137.041818 46.0512 
L 137.041818 45.8496 
L 144.960909 45.8496 
L 144.960909 45.648 
L 147.553636 45.648 
L 147.553636 45.4464 
L 150.625455 45.4464 
L 150.625455 45.2448 
L 158.178182 45.2448 
L 158.178182 45.0432 
L 158.347273 45.0432 
L 158.347273 44.8416 
L 184.246364 44.8416 
L 184.246364 44.64 
L 311.318182 44.64 
L 311.318182 44.64 
" clip-path="url(#pef6602b995)" style="fill: none; stroke: #8c564b; stroke-width: 1.5; stroke-linecap: square"/>
   </g>
   <g id="line2d_19">
    <path d="M 57.681818 246.24 
L 57.766364 140.1984 
L 57.794545 140.1984 
L 57.879091 117.6192 
L 57.907273 117.6192 
L 57.963636 105.3216 
L 58.02 105.3216 
L 58.104545 101.088 
L 58.132727 101.088 
L 58.217273 95.2416 
L 58.273636 95.2416 
L 58.358182 91.8144 
L 58.386364 91.8144 
L 58.470909 85.7664 
L 58.527273 85.7664 
L 58.555455 82.944 
L 58.64 82.944 
L 58.724545 80.7264 
L 58.752727 80.7264 
L 58.837273 77.5008 
L 58.865455 77.5008 
L 58.95 76.0896 
L 58.978182 76.0896 
L 59.006364 74.0736 
L 59.090909 74.0736 
L 59.119091 73.4688 
L 59.203636 73.4688 
L 59.288182 72.2592 
L 59.344545 72.2592 
L 59.429091 71.2512 
L 59.541818 71.2512 
L 59.626364 69.4368 
L 59.739091 69.4368 
L 59.823636 68.4288 
L 59.851818 68.4288 
L 59.88 67.6224 
L 60.049091 67.6224 
L 60.133636 66.4128 
L 60.161818 66.4128 
L 60.246364 65.808 
L 60.274545 65.808 
L 60.359091 63.9936 
L 60.528182 63.9936 
L 60.528182 63.792 
L 60.725455 63.792 
L 60.781818 62.784 
L 60.922727 62.784 
L 60.979091 62.1792 
L 61.063636 62.1792 
L 61.063636 61.776 
L 61.289091 61.776 
L 61.345455 61.3728 
L 61.458182 61.3728 
L 61.486364 60.9696 
L 61.570909 60.9696 
L 61.627273 60.3648 
L 61.74 60.3648 
L 61.74 60.1632 
L 62.021818 60.1632 
L 62.106364 59.76 
L 62.162727 59.76 
L 62.190909 59.3568 
L 62.416364 59.3568 
L 62.416364 59.1552 
L 62.585455 59.1552 
L 62.641818 58.752 
L 62.782727 58.752 
L 62.810909 58.3488 
L 62.951818 58.3488 
L 63.008182 57.9456 
L 63.374545 57.9456 
L 63.430909 57.5424 
L 63.487273 57.5424 
L 63.515455 57.1392 
L 63.938182 57.1392 
L 63.994545 56.5344 
L 64.135455 56.5344 
L 64.22 56.1312 
L 64.248182 56.1312 
L 64.248182 55.9296 
L 64.501818 55.9296 
L 64.501818 55.728 
L 64.614545 55.728 
L 64.614545 55.5264 
L 65.037273 55.5264 
L 65.037273 55.3248 
L 65.206364 55.3248 
L 65.206364 55.1232 
L 65.46 55.1232 
L 65.46 54.9216 
L 65.657273 54.9216 
L 65.657273 54.72 
L 65.826364 54.72 
L 65.826364 54.5184 
L 66.108182 54.5184 
L 66.108182 54.3168 
L 66.784545 54.3168 
L 66.784545 54.1152 
L 66.981818 54.1152 
L 66.981818 53.9136 
L 67.122727 53.9136 
L 67.207273 53.5104 
L 67.376364 53.5104 
L 67.376364 53.3088 
L 67.601818 53.3088 
L 67.686364 52.9056 
L 67.770909 52.9056 
L 67.770909 52.704 
L 67.883636 52.704 
L 67.883636 52.5024 
L 68.109091 52.5024 
L 68.109091 52.3008 
L 68.503636 52.3008 
L 68.503636 51.8976 
L 68.644545 51.8976 
L 68.644545 51.696 
L 68.87 51.696 
L 68.87 51.4944 
L 69.236364 51.4944 
L 69.236364 51.2928 
L 69.687273 51.2928 
L 69.687273 51.0912 
L 69.828182 51.0912 
L 69.828182 50.8896 
L 70.307273 50.8896 
L 70.307273 50.688 
L 71.490909 50.688 
L 71.547273 50.2848 
L 72.082727 50.2848 
L 72.139091 49.8816 
L 72.646364 49.8816 
L 72.646364 49.68 
L 72.815455 49.68 
L 72.815455 49.2768 
L 73.491818 49.2768 
L 73.491818 49.0752 
L 75.69 49.0752 
L 75.69 48.8736 
L 76.253636 48.8736 
L 76.253636 48.672 
L 76.986364 48.672 
L 76.986364 48.4704 
L 79.663636 48.4704 
L 79.663636 48.2688 
L 79.776364 48.2688 
L 79.776364 48.0672 
L 80.988182 48.0672 
L 80.988182 47.8656 
L 81.523636 47.8656 
L 81.523636 47.4624 
L 83.721818 47.4624 
L 83.721818 47.2608 
L 84.003636 47.2608 
L 84.003636 47.0592 
L 87.413636 47.0592 
L 87.413636 46.8576 
L 92.148182 46.8576 
L 92.148182 46.656 
L 93.331818 46.656 
L 93.331818 46.4544 
L 96.403636 46.4544 
L 96.403636 46.0512 
L 101.983636 46.0512 
L 101.983636 45.8496 
L 110.156364 45.8496 
L 110.156364 45.648 
L 121.964545 45.648 
L 121.964545 45.4464 
L 131.151818 45.4464 
L 131.151818 45.2448 
L 133.378182 45.2448 
L 133.434545 44.8416 
L 189.657273 44.8416 
L 189.657273 44.64 
L 311.318182 44.64 
L 311.318182 44.64 
" clip-path="url(#pef6602b995)" style="fill: none; stroke: #e377c2; stroke-width: 1.5; stroke-linecap: square"/>
   </g>
   <g id="line2d_20">
    <path d="M 57.681818 246.24 
L 57.766364 115.8048 
L 57.794545 115.8048 
L 57.850909 103.3056 
L 57.907273 103.3056 
L 57.991818 94.2336 
L 58.02 94.2336 
L 58.104545 86.976 
L 58.132727 86.976 
L 58.189091 82.7424 
L 58.245455 82.7424 
L 58.273636 81.936 
L 58.386364 81.936 
L 58.442727 77.904 
L 58.499091 77.904 
L 58.527273 75.888 
L 58.696364 75.888 
L 58.724545 74.6784 
L 58.809091 74.6784 
L 58.837273 73.872 
L 58.921818 73.872 
L 59.006364 70.6464 
L 59.034545 70.6464 
L 59.119091 69.2352 
L 59.203636 69.2352 
L 59.288182 68.4288 
L 59.316364 68.4288 
L 59.372727 67.4208 
L 59.429091 67.4208 
L 59.513636 67.0176 
L 59.541818 67.0176 
L 59.598182 65.6064 
L 59.654545 65.6064 
L 59.739091 63.9936 
L 59.964545 63.9936 
L 60.020909 63.1872 
L 60.133636 63.1872 
L 60.218182 62.5824 
L 60.330909 62.5824 
L 60.359091 61.9776 
L 60.669091 61.9776 
L 60.669091 61.776 
L 60.838182 61.776 
L 60.922727 60.9696 
L 60.950909 60.9696 
L 60.950909 60.768 
L 61.063636 60.768 
L 61.148182 60.3648 
L 61.176364 60.3648 
L 61.232727 59.9616 
L 61.570909 59.9616 
L 61.627273 59.5584 
L 61.74 59.5584 
L 61.824545 59.1552 
L 61.880909 59.1552 
L 61.965455 58.5504 
L 62.05 58.5504 
L 62.106364 58.1472 
L 62.162727 58.1472 
L 62.247273 57.1392 
L 62.303636 57.1392 
L 62.303636 56.9376 
L 62.585455 56.9376 
L 62.585455 56.736 
L 62.895455 56.736 
L 62.951818 56.1312 
L 63.008182 56.1312 
L 63.008182 55.9296 
L 63.233636 55.9296 
L 63.318182 55.5264 
L 63.684545 55.5264 
L 63.769091 54.72 
L 63.881818 54.72 
L 63.881818 54.5184 
L 63.994545 54.5184 
L 64.050909 54.1152 
L 64.445455 54.1152 
L 64.445455 53.9136 
L 64.642727 53.9136 
L 64.642727 53.712 
L 64.952727 53.712 
L 64.952727 53.5104 
L 65.178182 53.5104 
L 65.178182 53.3088 
L 65.290909 53.3088 
L 65.290909 52.9056 
L 66.756364 52.9056 
L 66.756364 52.5024 
L 67.263636 52.5024 
L 67.263636 52.3008 
L 67.404545 52.3008 
L 67.460909 51.8976 
L 67.545455 51.8976 
L 67.573636 51.4944 
L 67.658182 51.4944 
L 67.658182 51.2928 
L 67.827273 51.2928 
L 67.827273 50.8896 
L 68.334545 50.8896 
L 68.334545 50.688 
L 68.475455 50.688 
L 68.475455 50.4864 
L 68.616364 50.4864 
L 68.616364 50.2848 
L 68.813636 50.2848 
L 68.813636 50.0832 
L 68.982727 50.0832 
L 68.982727 49.8816 
L 69.236364 49.8816 
L 69.236364 49.68 
L 69.377273 49.68 
L 69.377273 49.4784 
L 69.518182 49.4784 
L 69.518182 49.2768 
L 69.743636 49.2768 
L 69.743636 49.0752 
L 70.899091 49.0752 
L 70.899091 48.8736 
L 72.449091 48.8736 
L 72.449091 48.672 
L 72.618182 48.672 
L 72.618182 48.4704 
L 73.52 48.4704 
L 73.548182 48.0672 
L 73.999091 48.0672 
L 73.999091 47.8656 
L 76.31 47.8656 
L 76.31 47.664 
L 76.93 47.664 
L 76.93 47.4624 
L 77.606364 47.4624 
L 77.606364 47.2608 
L 78.987273 47.2608 
L 78.987273 47.0592 
L 79.212727 47.0592 
L 79.212727 46.8576 
L 88.850909 46.8576 
L 88.850909 46.656 
L 91.020909 46.656 
L 91.020909 46.4544 
L 93.021818 46.4544 
L 93.021818 46.2528 
L 93.782727 46.2528 
L 93.782727 46.0512 
L 96.093636 46.0512 
L 96.093636 45.8496 
L 100.461818 45.8496 
L 100.461818 45.648 
L 100.715455 45.648 
L 100.715455 45.4464 
L 106.210909 45.4464 
L 106.210909 45.2448 
L 107.563636 45.2448 
L 107.563636 45.0432 
L 140.141818 45.0432 
L 140.141818 44.8416 
L 146.99 44.8416 
L 146.99 44.64 
L 311.318182 44.64 
L 311.318182 44.64 
" clip-path="url(#pef6602b995)" style="fill: none; stroke: #7f7f7f; stroke-width: 1.5; stroke-linecap: square"/>
   </g>
   <g id="line2d_21">
    <path d="M 57.681818 246.24 
L 57.766364 131.5296 
L 57.794545 131.5296 
L 57.879091 105.9264 
L 57.907273 105.9264 
L 57.963636 89.3952 
L 58.02 89.3952 
L 58.104545 81.936 
L 58.132727 81.936 
L 58.189091 79.92 
L 58.245455 79.92 
L 58.301818 74.6784 
L 58.358182 74.6784 
L 58.414545 74.0736 
L 58.470909 74.0736 
L 58.555455 71.6544 
L 58.583636 71.6544 
L 58.611818 69.4368 
L 58.696364 69.4368 
L 58.780909 66.6144 
L 58.837273 66.6144 
L 58.921818 65.2032 
L 58.95 65.2032 
L 59.006364 64.3968 
L 59.090909 64.3968 
L 59.175455 62.9856 
L 59.203636 62.9856 
L 59.26 62.3808 
L 59.344545 62.3808 
L 59.429091 61.776 
L 59.654545 61.776 
L 59.654545 61.1712 
L 59.795455 61.1712 
L 59.851818 58.9536 
L 59.908182 58.9536 
L 59.992727 57.3408 
L 60.020909 57.3408 
L 60.077273 56.3328 
L 60.133636 56.3328 
L 60.133636 56.1312 
L 60.246364 56.1312 
L 60.246364 55.728 
L 60.556364 55.728 
L 60.612727 55.3248 
L 60.753636 55.3248 
L 60.81 54.9216 
L 60.979091 54.9216 
L 60.979091 53.712 
L 61.204545 53.712 
L 61.260909 53.3088 
L 61.401818 53.3088 
L 61.43 52.9056 
L 61.627273 52.9056 
L 61.711818 52.3008 
L 61.880909 52.3008 
L 61.937273 51.8976 
L 62.021818 51.8976 
L 62.021818 51.696 
L 62.219091 51.696 
L 62.219091 51.4944 
L 62.500909 51.4944 
L 62.500909 51.2928 
L 62.698182 51.2928 
L 62.698182 51.0912 
L 62.951818 51.0912 
L 62.98 50.688 
L 63.064545 50.688 
L 63.064545 50.4864 
L 63.261818 50.4864 
L 63.261818 50.2848 
L 63.430909 50.2848 
L 63.430909 50.0832 
L 63.712727 50.0832 
L 63.712727 49.8816 
L 64.163636 49.8816 
L 64.163636 49.68 
L 64.417273 49.68 
L 64.501818 49.0752 
L 64.783636 49.0752 
L 64.783636 48.8736 
L 64.924545 48.8736 
L 64.952727 48.4704 
L 65.403636 48.4704 
L 65.403636 48.2688 
L 65.741818 48.2688 
L 65.741818 48.0672 
L 66.192727 48.0672 
L 66.192727 47.8656 
L 66.784545 47.8656 
L 66.812727 47.4624 
L 68.109091 47.4624 
L 68.109091 47.2608 
L 68.841818 47.2608 
L 68.841818 47.0592 
L 69.546364 47.0592 
L 69.546364 46.8576 
L 70.053636 46.8576 
L 70.053636 46.656 
L 70.814545 46.656 
L 70.814545 46.4544 
L 71.434545 46.4544 
L 71.434545 46.2528 
L 73.632727 46.2528 
L 73.632727 46.0512 
L 74.788182 46.0512 
L 74.788182 45.8496 
L 76.986364 45.8496 
L 76.986364 45.648 
L 81.157273 45.648 
L 81.157273 45.4464 
L 81.749091 45.4464 
L 81.749091 45.2448 
L 85.243636 45.2448 
L 85.243636 45.0432 
L 103.956364 45.0432 
L 103.956364 44.8416 
L 145.975455 44.8416 
L 145.975455 44.64 
L 311.318182 44.64 
L 311.318182 44.64 
" clip-path="url(#pef6602b995)" style="fill: none; stroke: #bcbd22; stroke-width: 1.5; stroke-linecap: square"/>
   </g>
   <g id="line2d_22">
    <path d="M 57.681818 246.24 
L 57.766364 120.4416 
L 57.794545 120.4416 
L 57.879091 97.8624 
L 57.907273 97.8624 
L 57.991818 92.016 
L 58.02 92.016 
L 58.104545 84.7584 
L 58.132727 84.7584 
L 58.217273 81.3312 
L 58.245455 81.3312 
L 58.33 76.4928 
L 58.358182 76.4928 
L 58.442727 73.2672 
L 58.470909 73.2672 
L 58.555455 70.4448 
L 58.583636 70.4448 
L 58.668182 67.4208 
L 58.696364 67.4208 
L 58.780909 65.6064 
L 58.837273 65.6064 
L 58.921818 63.792 
L 58.978182 63.792 
L 59.006364 62.784 
L 59.119091 62.784 
L 59.119091 62.5824 
L 59.231818 62.5824 
L 59.316364 61.3728 
L 59.400909 61.3728 
L 59.485455 60.3648 
L 59.513636 60.3648 
L 59.57 59.5584 
L 59.626364 59.5584 
L 59.710909 59.1552 
L 59.767273 59.1552 
L 59.851818 58.5504 
L 59.88 58.5504 
L 59.936364 58.1472 
L 60.105455 58.1472 
L 60.133636 57.5424 
L 60.218182 57.5424 
L 60.302727 56.9376 
L 60.471818 56.9376 
L 60.556364 56.1312 
L 60.640909 56.1312 
L 60.725455 55.3248 
L 60.866364 55.3248 
L 60.866364 55.1232 
L 60.979091 55.1232 
L 61.007273 54.5184 
L 61.091818 54.5184 
L 61.148182 54.1152 
L 61.260909 54.1152 
L 61.345455 53.1072 
L 61.852727 53.1072 
L 61.852727 52.704 
L 61.965455 52.704 
L 62.05 51.8976 
L 62.162727 51.8976 
L 62.190909 51.4944 
L 62.613636 51.4944 
L 62.641818 51.0912 
L 63.543636 51.0912 
L 63.628182 50.4864 
L 63.769091 50.4864 
L 63.825455 50.0832 
L 64.107273 50.0832 
L 64.163636 49.68 
L 64.699091 49.68 
L 64.699091 49.4784 
L 65.234545 49.4784 
L 65.234545 49.2768 
L 66.305455 49.2768 
L 66.305455 49.0752 
L 66.502727 49.0752 
L 66.502727 48.672 
L 67.460909 48.672 
L 67.460909 48.4704 
L 67.770909 48.4704 
L 67.770909 48.2688 
L 67.883636 48.2688 
L 67.911818 47.8656 
L 67.996364 47.8656 
L 67.996364 47.664 
L 68.362727 47.664 
L 68.362727 47.4624 
L 69.010909 47.4624 
L 69.010909 47.2608 
L 69.292727 47.2608 
L 69.292727 47.0592 
L 69.518182 47.0592 
L 69.518182 46.8576 
L 73.097273 46.8576 
L 73.097273 46.656 
L 73.350909 46.656 
L 73.350909 46.4544 
L 75.408182 46.4544 
L 75.408182 46.2528 
L 76.845455 46.2528 
L 76.845455 46.0512 
L 82.594545 46.0512 
L 82.594545 45.8496 
L 85.159091 45.8496 
L 85.159091 45.648 
L 86.117273 45.648 
L 86.117273 45.4464 
L 92.317273 45.4464 
L 92.317273 45.2448 
L 101.476364 45.2448 
L 101.476364 45.0432 
L 102.068182 45.0432 
L 102.068182 44.8416 
L 128.7 44.8416 
L 128.7 44.64 
L 311.318182 44.64 
L 311.318182 44.64 
" clip-path="url(#pef6602b995)" style="fill: none; stroke: #17becf; stroke-width: 1.5; stroke-linecap: square"/>
   </g>
   <g id="patch_3">
    <path d="M 45 256.32 
L 45 34.56 
" style="fill: none; stroke: #000000; stroke-width: 0.8; stroke-linejoin: miter; stroke-linecap: square"/>
   </g>
   <g id="patch_4">
    <path d="M 324 256.32 
L 324 34.56 
" style="fill: none; stroke: #000000; stroke-width: 0.8; stroke-linejoin: miter; stroke-linecap: square"/>
   </g>
   <g id="patch_5">
    <path d="M 45 256.32 
L 324 256.32 
" style="fill: none; stroke: #000000; stroke-width: 0.8; stroke-linejoin: miter; stroke-linecap: square"/>
   </g>
   <g id="patch_6">
    <path d="M 45 34.56 
L 324 34.56 
" style="fill: none; stroke: #000000; stroke-width: 0.8; stroke-linejoin: miter; stroke-linecap: square"/>
   </g>
   <g id="text_15">
    <!-- ROC -->
    <g transform="translate(171.418125 28.56) scale(0.12 -0.12)">
     <defs>
      <path id="DejaVuSans-4f" d="M 2522 4238 
Q 1834 4238 1429 3725 
Q 1025 3213 1025 2328 
Q 1025 1447 1429 934 
Q 1834 422 2522 422 
Q 3209 422 3611 934 
Q 4013 1447 4013 2328 
Q 4013 3213 3611 3725 
Q 3209 4238 2522 4238 
z
M 2522 4750 
Q 3503 4750 4090 4092 
Q 4678 3434 4678 2328 
Q 4678 1225 4090 567 
Q 3503 -91 2522 -91 
Q 1538 -91 948 565 
Q 359 1222 359 2328 
Q 359 3434 948 4092 
Q 1538 4750 2522 4750 
z
" transform="scale(0.015625)"/>
      <path id="DejaVuSans-43" d="M 4122 4306 
L 4122 3641 
Q 3803 3938 3442 4084 
Q 3081 4231 2675 4231 
Q 1875 4231 1450 3742 
Q 1025 3253 1025 2328 
Q 1025 1406 1450 917 
Q 1875 428 2675 428 
Q 3081 428 3442 575 
Q 3803 722 4122 1019 
L 4122 359 
Q 3791 134 3420 21 
Q 3050 -91 2638 -91 
Q 1578 -91 968 557 
Q 359 1206 359 2328 
Q 359 3453 968 4101 
Q 1578 4750 2638 4750 
Q 3056 4750 3426 4639 
Q 3797 4528 4122 4306 
z
" transform="scale(0.015625)"/>
     </defs>
     <use xlink:href="#DejaVuSans-52"/>
     <use xlink:href="#DejaVuSans-4f" x="69.482422"/>
     <use xlink:href="#DejaVuSans-43" x="148.193359"/>
    </g>
   </g>
   <g id="legend_1">
    <g id="patch_7">
     <path d="M 243.4625 251.32 
L 317 251.32 
Q 319 251.32 319 249.32 
L 319 103.53875 
Q 319 101.53875 317 101.53875 
L 243.4625 101.53875 
Q 241.4625 101.53875 241.4625 103.53875 
L 241.4625 249.32 
Q 241.4625 251.32 243.4625 251.32 
z
" style="fill: #ffffff; opacity: 0.8; stroke: #cccccc; stroke-linejoin: miter"/>
    </g>
    <g id="line2d_23">
     <path d="M 245.4625 109.637188 
L 255.4625 109.637188 
L 265.4625 109.637188 
" style="fill: none; stroke: #1f77b4; stroke-width: 1.5; stroke-linecap: square"/>
    </g>
    <g id="text_16">
     <!-- 0: 0.992 -->
     <g transform="translate(273.4625 113.137188) scale(0.1 -0.1)">
      <defs>
       <path id="DejaVuSans-3a" d="M 750 794 
L 1409 794 
L 1409 0 
L 750 0 
L 750 794 
z
M 750 3309 
L 1409 3309 
L 1409 2516 
L 750 2516 
L 750 3309 
z
" transform="scale(0.015625)"/>
       <path id="DejaVuSans-20" transform="scale(0.015625)"/>
       <path id="DejaVuSans-39" d="M 703 97 
L 703 672 
Q 941 559 1184 500 
Q 1428 441 1663 441 
Q 2288 441 2617 861 
Q 2947 1281 2994 2138 
Q 2813 1869 2534 1725 
Q 2256 1581 1919 1581 
Q 1219 1581 811 2004 
Q 403 2428 403 3163 
Q 403 3881 828 4315 
Q 1253 4750 1959 4750 
Q 2769 4750 3195 4129 
Q 3622 3509 3622 2328 
Q 3622 1225 3098 567 
Q 2575 -91 1691 -91 
Q 1453 -91 1209 -44 
Q 966 3 703 97 
z
M 1959 2075 
Q 2384 2075 2632 2365 
Q 2881 2656 2881 3163 
Q 2881 3666 2632 3958 
Q 2384 4250 1959 4250 
Q 1534 4250 1286 3958 
Q 1038 3666 1038 3163 
Q 1038 2656 1286 2365 
Q 1534 2075 1959 2075 
z
" transform="scale(0.015625)"/>
      </defs>
      <use xlink:href="#DejaVuSans-30"/>
      <use xlink:href="#DejaVuSans-3a" x="63.623047"/>
      <use xlink:href="#DejaVuSans-20" x="97.314453"/>
      <use xlink:href="#DejaVuSans-30" x="129.101562"/>
      <use xlink:href="#DejaVuSans-2e" x="192.724609"/>
      <use xlink:href="#DejaVuSans-39" x="224.511719"/>
      <use xlink:href="#DejaVuSans-39" x="288.134766"/>
      <use xlink:href="#DejaVuSans-32" x="351.757812"/>
     </g>
    </g>
    <g id="line2d_24">
     <path d="M 245.4625 124.315313 
L 255.4625 124.315313 
L 265.4625 124.315313 
" style="fill: none; stroke: #ff7f0e; stroke-width: 1.5; stroke-linecap: square"/>
    </g>
    <g id="text_17">
     <!-- 1: 0.998 -->
     <g transform="translate(273.4625 127.815313) scale(0.1 -0.1)">
      <use xlink:href="#DejaVuSans-31"/>
      <use xlink:href="#DejaVuSans-3a" x="63.623047"/>
      <use xlink:href="#DejaVuSans-20" x="97.314453"/>
      <use xlink:href="#DejaVuSans-30" x="129.101562"/>
      <use xlink:href="#DejaVuSans-2e" x="192.724609"/>
      <use xlink:href="#DejaVuSans-39" x="224.511719"/>
      <use xlink:href="#DejaVuSans-39" x="288.134766"/>
      <use xlink:href="#DejaVuSans-38" x="351.757812"/>
     </g>
    </g>
    <g id="line2d_25">
     <path d="M 245.4625 138.993438 
L 255.4625 138.993438 
L 265.4625 138.993438 
" style="fill: none; stroke: #2ca02c; stroke-width: 1.5; stroke-linecap: square"/>
    </g>
    <g id="text_18">
     <!-- 2: 0.981 -->
     <g transform="translate(273.4625 142.493438) scale(0.1 -0.1)">
      <use xlink:href="#DejaVuSans-32"/>
      <use xlink:href="#DejaVuSans-3a" x="63.623047"/>
      <use xlink:href="#DejaVuSans-20" x="97.314453"/>
      <use xlink:href="#DejaVuSans-30" x="129.101562"/>
      <use xlink:href="#DejaVuSans-2e" x="192.724609"/>
      <use xlink:href="#DejaVuSans-39" x="224.511719"/>
      <use xlink:href="#DejaVuSans-38" x="288.134766"/>
      <use xlink:href="#DejaVuSans-31" x="351.757812"/>
     </g>
    </g>
    <g id="line2d_26">
     <path d="M 245.4625 153.671563 
L 255.4625 153.671563 
L 265.4625 153.671563 
" style="fill: none; stroke: #d62728; stroke-width: 1.5; stroke-linecap: square"/>
    </g>
    <g id="text_19">
     <!-- 3: 0.969 -->
     <g transform="translate(273.4625 157.171563) scale(0.1 -0.1)">
      <defs>
       <path id="DejaVuSans-33" d="M 2597 2516 
Q 3050 2419 3304 2112 
Q 3559 1806 3559 1356 
Q 3559 666 3084 287 
Q 2609 -91 1734 -91 
Q 1441 -91 1130 -33 
Q 819 25 488 141 
L 488 750 
Q 750 597 1062 519 
Q 1375 441 1716 441 
Q 2309 441 2620 675 
Q 2931 909 2931 1356 
Q 2931 1769 2642 2001 
Q 2353 2234 1838 2234 
L 1294 2234 
L 1294 2753 
L 1863 2753 
Q 2328 2753 2575 2939 
Q 2822 3125 2822 3475 
Q 2822 3834 2567 4026 
Q 2313 4219 1838 4219 
Q 1578 4219 1281 4162 
Q 984 4106 628 3988 
L 628 4550 
Q 988 4650 1302 4700 
Q 1616 4750 1894 4750 
Q 2613 4750 3031 4423 
Q 3450 4097 3450 3541 
Q 3450 3153 3228 2886 
Q 3006 2619 2597 2516 
z
" transform="scale(0.015625)"/>
      </defs>
      <use xlink:href="#DejaVuSans-33"/>
      <use xlink:href="#DejaVuSans-3a" x="63.623047"/>
      <use xlink:href="#DejaVuSans-20" x="97.314453"/>
      <use xlink:href="#DejaVuSans-30" x="129.101562"/>
      <use xlink:href="#DejaVuSans-2e" x="192.724609"/>
      <use xlink:href="#DejaVuSans-39" x="224.511719"/>
      <use xlink:href="#DejaVuSans-36" x="288.134766"/>
      <use xlink:href="#DejaVuSans-39" x="351.757812"/>
     </g>
    </g>
    <g id="line2d_27">
     <path d="M 245.4625 168.349688 
L 255.4625 168.349688 
L 265.4625 168.349688 
" style="fill: none; stroke: #9467bd; stroke-width: 1.5; stroke-linecap: square"/>
    </g>
    <g id="text_20">
     <!-- 4: 0.990 -->
     <g transform="translate(273.4625 171.849688) scale(0.1 -0.1)">
      <use xlink:href="#DejaVuSans-34"/>
      <use xlink:href="#DejaVuSans-3a" x="63.623047"/>
      <use xlink:href="#DejaVuSans-20" x="97.314453"/>
      <use xlink:href="#DejaVuSans-30" x="129.101562"/>
      <use xlink:href="#DejaVuSans-2e" x="192.724609"/>
      <use xlink:href="#DejaVuSans-39" x="224.511719"/>
      <use xlink:href="#DejaVuSans-39" x="288.134766"/>
      <use xlink:href="#DejaVuSans-30" x="351.757812"/>
     </g>
    </g>
    <g id="line2d_28">
     <path d="M 245.4625 183.027813 
L 255.4625 183.027813 
L 265.4625 183.027813 
" style="fill: none; stroke: #8c564b; stroke-width: 1.5; stroke-linecap: square"/>
    </g>
    <g id="text_21">
     <!-- 5: 0.981 -->
     <g transform="translate(273.4625 186.527813) scale(0.1 -0.1)">
      <defs>
       <path id="DejaVuSans-35" d="M 691 4666 
L 3169 4666 
L 3169 4134 
L 1269 4134 
L 1269 2991 
Q 1406 3038 1543 3061 
Q 1681 3084 1819 3084 
Q 2600 3084 3056 2656 
Q 3513 2228 3513 1497 
Q 3513 744 3044 326 
Q 2575 -91 1722 -91 
Q 1428 -91 1123 -41 
Q 819 9 494 109 
L 494 744 
Q 775 591 1075 516 
Q 1375 441 1709 441 
Q 2250 441 2565 725 
Q 2881 1009 2881 1497 
Q 2881 1984 2565 2268 
Q 2250 2553 1709 2553 
Q 1456 2553 1204 2497 
Q 953 2441 691 2322 
L 691 4666 
z
" transform="scale(0.015625)"/>
      </defs>
      <use xlink:href="#DejaVuSans-35"/>
      <use xlink:href="#DejaVuSans-3a" x="63.623047"/>
      <use xlink:href="#DejaVuSans-20" x="97.314453"/>
      <use xlink:href="#DejaVuSans-30" x="129.101562"/>
      <use xlink:href="#DejaVuSans-2e" x="192.724609"/>
      <use xlink:href="#DejaVuSans-39" x="224.511719"/>
      <use xlink:href="#DejaVuSans-38" x="288.134766"/>
      <use xlink:href="#DejaVuSans-31" x="351.757812"/>
     </g>
    </g>
    <g id="line2d_29">
     <path d="M 245.4625 197.705938 
L 255.4625 197.705938 
L 265.4625 197.705938 
" style="fill: none; stroke: #e377c2; stroke-width: 1.5; stroke-linecap: square"/>
    </g>
    <g id="text_22">
     <!-- 6: 0.993 -->
     <g transform="translate(273.4625 201.205938) scale(0.1 -0.1)">
      <use xlink:href="#DejaVuSans-36"/>
      <use xlink:href="#DejaVuSans-3a" x="63.623047"/>
      <use xlink:href="#DejaVuSans-20" x="97.314453"/>
      <use xlink:href="#DejaVuSans-30" x="129.101562"/>
      <use xlink:href="#DejaVuSans-2e" x="192.724609"/>
      <use xlink:href="#DejaVuSans-39" x="224.511719"/>
      <use xlink:href="#DejaVuSans-39" x="288.134766"/>
      <use xlink:href="#DejaVuSans-33" x="351.757812"/>
     </g>
    </g>
    <g id="line2d_30">
     <path d="M 245.4625 212.384063 
L 255.4625 212.384063 
L 265.4625 212.384063 
" style="fill: none; stroke: #7f7f7f; stroke-width: 1.5; stroke-linecap: square"/>
    </g>
    <g id="text_23">
     <!-- 7: 0.995 -->
     <g transform="translate(273.4625 215.884063) scale(0.1 -0.1)">
      <defs>
       <path id="DejaVuSans-37" d="M 525 4666 
L 3525 4666 
L 3525 4397 
L 1831 0 
L 1172 0 
L 2766 4134 
L 525 4134 
L 525 4666 
z
" transform="scale(0.015625)"/>
      </defs>
      <use xlink:href="#DejaVuSans-37"/>
      <use xlink:href="#DejaVuSans-3a" x="63.623047"/>
      <use xlink:href="#DejaVuSans-20" x="97.314453"/>
      <use xlink:href="#DejaVuSans-30" x="129.101562"/>
      <use xlink:href="#DejaVuSans-2e" x="192.724609"/>
      <use xlink:href="#DejaVuSans-39" x="224.511719"/>
      <use xlink:href="#DejaVuSans-39" x="288.134766"/>
      <use xlink:href="#DejaVuSans-35" x="351.757812"/>
     </g>
    </g>
    <g id="line2d_31">
     <path d="M 245.4625 227.062188 
L 255.4625 227.062188 
L 265.4625 227.062188 
" style="fill: none; stroke: #bcbd22; stroke-width: 1.5; stroke-linecap: square"/>
    </g>
    <g id="text_24">
     <!-- 8: 0.997 -->
     <g transform="translate(273.4625 230.562188) scale(0.1 -0.1)">
      <use xlink:href="#DejaVuSans-38"/>
      <use xlink:href="#DejaVuSans-3a" x="63.623047"/>
      <use xlink:href="#DejaVuSans-20" x="97.314453"/>
      <use xlink:href="#DejaVuSans-30" x="129.101562"/>
      <use xlink:href="#DejaVuSans-2e" x="192.724609"/>
      <use xlink:href="#DejaVuSans-39" x="224.511719"/>
      <use xlink:href="#DejaVuSans-39" x="288.134766"/>
      <use xlink:href="#DejaVuSans-37" x="351.757812"/>
     </g>
    </g>
    <g id="line2d_32">
     <path d="M 245.4625 241.740313 
L 255.4625 241.740313 
L 265.4625 241.740313 
" style="fill: none; stroke: #17becf; stroke-width: 1.5; stroke-linecap: square"/>
    </g>
    <g id="text_25">
     <!-- 9: 0.997 -->
     <g transform="translate(273.4625 245.240313) scale(0.1 -0.1)">
      <use xlink:href="#DejaVuSans-39"/>
      <use xlink:href="#DejaVuSans-3a" x="63.623047"/>
      <use xlink:href="#DejaVuSans-20" x="97.314453"/>
      <use xlink:href="#DejaVuSans-30" x="129.101562"/>
      <use xlink:href="#DejaVuSans-2e" x="192.724609"/>
      <use xlink:href="#DejaVuSans-39" x="224.511719"/>
      <use xlink:href="#DejaVuSans-39" x="288.134766"/>
      <use xlink:href="#DejaVuSans-37" x="351.757812"/>
     </g>
    </g>
   </g>
  </g>
 </g>
 <defs>
  <clipPath id="pef6602b995">
   <rect x="45" y="34.56" width="279" height="221.76"/>
  </clipPath>
 </defs>
</svg>
