<?xml version="1.0" encoding="utf-8" standalone="no"?>
<!DOCTYPE svg PUBLIC "-//W3C//DTD SVG 1.1//EN"
  "http://www.w3.org/Graphics/SVG/1.1/DTD/svg11.dtd">
<svg xmlns:xlink="http://www.w3.org/1999/xlink" width="360pt" height="288pt" viewBox="0 0 360 288" xmlns="http://www.w3.org/2000/svg" version="1.1">
 <metadata>
  <rdf:RDF xmlns:dc="http://purl.org/dc/elements/1.1/" xmlns:cc="http://creativecommons.org/ns#" xmlns:rdf="http://www.w3.org/1999/02/22-rdf-syntax-ns#">
   <cc:Work>
    <dc:type rdf:resource="http://purl.org/dc/dcmitype/StillImage"/>
    <dc:date>2023-04-10T16:37:11.970962</dc:date>
    <dc:format>image/svg+xml</dc:format>
    <dc:creator>
     <cc:Agent>
      <dc:title>Matplotlib v3.6.2, https://matplotlib.org/</dc:title>
     </cc:Agent>
    </dc:creator>
   </cc:Work>
  </rdf:RDF>
 </metadata>
 <defs>
  <style type="text/css">*{stroke-linejoin: round; stroke-linecap: butt}</style>
 </defs>
 <g id="figure_1">
  <g id="patch_1">
   <path d="M 0 288 
L 360 288 
L 360 0 
L 0 0 
z
" style="fill: #ffffff"/>
  </g>
  <g id="axes_1">
   <g id="patch_2">
    <path d="M 45 256.32 
L 324 256.32 
L 324 34.56 
L 45 34.56 
z
" style="fill: #ffffff"/>
   </g>
   <g id="matplotlib.axis_1">
    <g id="xtick_1">
     <g id="line2d_1">
      <defs>
       <path id="m51f6e48405" d="M 0 0 
L 0 3.5 
" style="stroke: #000000; stroke-width: 0.8"/>
      </defs>
      <g>
       <use xlink:href="#m51f6e48405" x="57.681818" y="256.32" style="stroke: #000000; stroke-width: 0.8"/>
      </g>
     </g>
     <g id="text_1">
      <!-- 0.0 -->
      <g transform="translate(49.730256 270.918437) scale(0.1 -0.1)">
       <defs>
        <path id="DejaVuSans-30" d="M 2034 4250 
Q 1547 4250 1301 3770 
Q 1056 3291 1056 2328 
Q 1056 1369 1301 889 
Q 1547 409 2034 409 
Q 2525 409 2770 889 
Q 3016 1369 3016 2328 
Q 3016 3291 2770 3770 
Q 2525 4250 2034 4250 
z
M 2034 4750 
Q 2819 4750 3233 4129 
Q 3647 3509 3647 2328 
Q 3647 1150 3233 529 
Q 2819 -91 2034 -91 
Q 1250 -91 836 529 
Q 422 1150 422 2328 
Q 422 3509 836 4129 
Q 1250 4750 2034 4750 
z
" transform="scale(0.015625)"/>
        <path id="DejaVuSans-2e" d="M 684 794 
L 1344 794 
L 1344 0 
L 684 0 
L 684 794 
z
" transform="scale(0.015625)"/>
       </defs>
       <use xlink:href="#DejaVuSans-30"/>
       <use xlink:href="#DejaVuSans-2e" x="63.623047"/>
       <use xlink:href="#DejaVuSans-30" x="95.410156"/>
      </g>
     </g>
    </g>
    <g id="xtick_2">
     <g id="line2d_2">
      <g>
       <use xlink:href="#m51f6e48405" x="108.409091" y="256.32" style="stroke: #000000; stroke-width: 0.8"/>
      </g>
     </g>
     <g id="text_2">
      <!-- 0.2 -->
      <g transform="translate(100.457528 270.918437) scale(0.1 -0.1)">
       <defs>
        <path id="DejaVuSans-32" d="M 1228 531 
L 3431 531 
L 3431 0 
L 469 0 
L 469 531 
Q 828 903 1448 1529 
Q 2069 2156 2228 2338 
Q 2531 2678 2651 2914 
Q 2772 3150 2772 3378 
Q 2772 3750 2511 3984 
Q 2250 4219 1831 4219 
Q 1534 4219 1204 4116 
Q 875 4013 500 3803 
L 500 4441 
Q 881 4594 1212 4672 
Q 1544 4750 1819 4750 
Q 2544 4750 2975 4387 
Q 3406 4025 3406 3419 
Q 3406 3131 3298 2873 
Q 3191 2616 2906 2266 
Q 2828 2175 2409 1742 
Q 1991 1309 1228 531 
z
" transform="scale(0.015625)"/>
       </defs>
       <use xlink:href="#DejaVuSans-30"/>
       <use xlink:href="#DejaVuSans-2e" x="63.623047"/>
       <use xlink:href="#DejaVuSans-32" x="95.410156"/>
      </g>
     </g>
    </g>
    <g id="xtick_3">
     <g id="line2d_3">
      <g>
       <use xlink:href="#m51f6e48405" x="159.136364" y="256.32" style="stroke: #000000; stroke-width: 0.8"/>
      </g>
     </g>
     <g id="text_3">
      <!-- 0.4 -->
      <g transform="translate(151.184801 270.918437) scale(0.1 -0.1)">
       <defs>
        <path id="DejaVuSans-34" d="M 2419 4116 
L 825 1625 
L 2419 1625 
L 2419 4116 
z
M 2253 4666 
L 3047 4666 
L 3047 1625 
L 3713 1625 
L 3713 1100 
L 3047 1100 
L 3047 0 
L 2419 0 
L 2419 1100 
L 313 1100 
L 313 1709 
L 2253 4666 
z
" transform="scale(0.015625)"/>
       </defs>
       <use xlink:href="#DejaVuSans-30"/>
       <use xlink:href="#DejaVuSans-2e" x="63.623047"/>
       <use xlink:href="#DejaVuSans-34" x="95.410156"/>
      </g>
     </g>
    </g>
    <g id="xtick_4">
     <g id="line2d_4">
      <g>
       <use xlink:href="#m51f6e48405" x="209.863636" y="256.32" style="stroke: #000000; stroke-width: 0.8"/>
      </g>
     </g>
     <g id="text_4">
      <!-- 0.6 -->
      <g transform="translate(201.912074 270.918437) scale(0.1 -0.1)">
       <defs>
        <path id="DejaVuSans-36" d="M 2113 2584 
Q 1688 2584 1439 2293 
Q 1191 2003 1191 1497 
Q 1191 994 1439 701 
Q 1688 409 2113 409 
Q 2538 409 2786 701 
Q 3034 994 3034 1497 
Q 3034 2003 2786 2293 
Q 2538 2584 2113 2584 
z
M 3366 4563 
L 3366 3988 
Q 3128 4100 2886 4159 
Q 2644 4219 2406 4219 
Q 1781 4219 1451 3797 
Q 1122 3375 1075 2522 
Q 1259 2794 1537 2939 
Q 1816 3084 2150 3084 
Q 2853 3084 3261 2657 
Q 3669 2231 3669 1497 
Q 3669 778 3244 343 
Q 2819 -91 2113 -91 
Q 1303 -91 875 529 
Q 447 1150 447 2328 
Q 447 3434 972 4092 
Q 1497 4750 2381 4750 
Q 2619 4750 2861 4703 
Q 3103 4656 3366 4563 
z
" transform="scale(0.015625)"/>
       </defs>
       <use xlink:href="#DejaVuSans-30"/>
       <use xlink:href="#DejaVuSans-2e" x="63.623047"/>
       <use xlink:href="#DejaVuSans-36" x="95.410156"/>
      </g>
     </g>
    </g>
    <g id="xtick_5">
     <g id="line2d_5">
      <g>
       <use xlink:href="#m51f6e48405" x="260.590909" y="256.32" style="stroke: #000000; stroke-width: 0.8"/>
      </g>
     </g>
     <g id="text_5">
      <!-- 0.8 -->
      <g transform="translate(252.639347 270.918437) scale(0.1 -0.1)">
       <defs>
        <path id="DejaVuSans-38" d="M 2034 2216 
Q 1584 2216 1326 1975 
Q 1069 1734 1069 1313 
Q 1069 891 1326 650 
Q 1584 409 2034 409 
Q 2484 409 2743 651 
Q 3003 894 3003 1313 
Q 3003 1734 2745 1975 
Q 2488 2216 2034 2216 
z
M 1403 2484 
Q 997 2584 770 2862 
Q 544 3141 544 3541 
Q 544 4100 942 4425 
Q 1341 4750 2034 4750 
Q 2731 4750 3128 4425 
Q 3525 4100 3525 3541 
Q 3525 3141 3298 2862 
Q 3072 2584 2669 2484 
Q 3125 2378 3379 2068 
Q 3634 1759 3634 1313 
Q 3634 634 3220 271 
Q 2806 -91 2034 -91 
Q 1263 -91 848 271 
Q 434 634 434 1313 
Q 434 1759 690 2068 
Q 947 2378 1403 2484 
z
M 1172 3481 
Q 1172 3119 1398 2916 
Q 1625 2713 2034 2713 
Q 2441 2713 2670 2916 
Q 2900 3119 2900 3481 
Q 2900 3844 2670 4047 
Q 2441 4250 2034 4250 
Q 1625 4250 1398 4047 
Q 1172 3844 1172 3481 
z
" transform="scale(0.015625)"/>
       </defs>
       <use xlink:href="#DejaVuSans-30"/>
       <use xlink:href="#DejaVuSans-2e" x="63.623047"/>
       <use xlink:href="#DejaVuSans-38" x="95.410156"/>
      </g>
     </g>
    </g>
    <g id="xtick_6">
     <g id="line2d_6">
      <g>
       <use xlink:href="#m51f6e48405" x="311.318182" y="256.32" style="stroke: #000000; stroke-width: 0.8"/>
      </g>
     </g>
     <g id="text_6">
      <!-- 1.0 -->
      <g transform="translate(303.366619 270.918437) scale(0.1 -0.1)">
       <defs>
        <path id="DejaVuSans-31" d="M 794 531 
L 1825 531 
L 1825 4091 
L 703 3866 
L 703 4441 
L 1819 4666 
L 2450 4666 
L 2450 531 
L 3481 531 
L 3481 0 
L 794 0 
L 794 531 
z
" transform="scale(0.015625)"/>
       </defs>
       <use xlink:href="#DejaVuSans-31"/>
       <use xlink:href="#DejaVuSans-2e" x="63.623047"/>
       <use xlink:href="#DejaVuSans-30" x="95.410156"/>
      </g>
     </g>
    </g>
    <g id="text_7">
     <!-- FPR -->
     <g transform="translate(175.135156 284.596563) scale(0.1 -0.1)">
      <defs>
       <path id="DejaVuSans-46" d="M 628 4666 
L 3309 4666 
L 3309 4134 
L 1259 4134 
L 1259 2759 
L 3109 2759 
L 3109 2228 
L 1259 2228 
L 1259 0 
L 628 0 
L 628 4666 
z
" transform="scale(0.015625)"/>
       <path id="DejaVuSans-50" d="M 1259 4147 
L 1259 2394 
L 2053 2394 
Q 2494 2394 2734 2622 
Q 2975 2850 2975 3272 
Q 2975 3691 2734 3919 
Q 2494 4147 2053 4147 
L 1259 4147 
z
M 628 4666 
L 2053 4666 
Q 2838 4666 3239 4311 
Q 3641 3956 3641 3272 
Q 3641 2581 3239 2228 
Q 2838 1875 2053 1875 
L 1259 1875 
L 1259 0 
L 628 0 
L 628 4666 
z
" transform="scale(0.015625)"/>
       <path id="DejaVuSans-52" d="M 2841 2188 
Q 3044 2119 3236 1894 
Q 3428 1669 3622 1275 
L 4263 0 
L 3584 0 
L 2988 1197 
Q 2756 1666 2539 1819 
Q 2322 1972 1947 1972 
L 1259 1972 
L 1259 0 
L 628 0 
L 628 4666 
L 2053 4666 
Q 2853 4666 3247 4331 
Q 3641 3997 3641 3322 
Q 3641 2881 3436 2590 
Q 3231 2300 2841 2188 
z
M 1259 4147 
L 1259 2491 
L 2053 2491 
Q 2509 2491 2742 2702 
Q 2975 2913 2975 3322 
Q 2975 3731 2742 3939 
Q 2509 4147 2053 4147 
L 1259 4147 
z
" transform="scale(0.015625)"/>
      </defs>
      <use xlink:href="#DejaVuSans-46"/>
      <use xlink:href="#DejaVuSans-50" x="57.519531"/>
      <use xlink:href="#DejaVuSans-52" x="117.822266"/>
     </g>
    </g>
   </g>
   <g id="matplotlib.axis_2">
    <g id="ytick_1">
     <g id="line2d_7">
      <defs>
       <path id="m9b9244fd25" d="M 0 0 
L -3.5 0 
" style="stroke: #000000; stroke-width: 0.8"/>
      </defs>
      <g>
       <use xlink:href="#m9b9244fd25" x="45" y="246.24" style="stroke: #000000; stroke-width: 0.8"/>
      </g>
     </g>
     <g id="text_8">
      <!-- 0.0 -->
      <g transform="translate(22.096875 250.039219) scale(0.1 -0.1)">
       <use xlink:href="#DejaVuSans-30"/>
       <use xlink:href="#DejaVuSans-2e" x="63.623047"/>
       <use xlink:href="#DejaVuSans-30" x="95.410156"/>
      </g>
     </g>
    </g>
    <g id="ytick_2">
     <g id="line2d_8">
      <g>
       <use xlink:href="#m9b9244fd25" x="45" y="205.92" style="stroke: #000000; stroke-width: 0.8"/>
      </g>
     </g>
     <g id="text_9">
      <!-- 0.2 -->
      <g transform="translate(22.096875 209.719219) scale(0.1 -0.1)">
       <use xlink:href="#DejaVuSans-30"/>
       <use xlink:href="#DejaVuSans-2e" x="63.623047"/>
       <use xlink:href="#DejaVuSans-32" x="95.410156"/>
      </g>
     </g>
    </g>
    <g id="ytick_3">
     <g id="line2d_9">
      <g>
       <use xlink:href="#m9b9244fd25" x="45" y="165.6" style="stroke: #000000; stroke-width: 0.8"/>
      </g>
     </g>
     <g id="text_10">
      <!-- 0.4 -->
      <g transform="translate(22.096875 169.399219) scale(0.1 -0.1)">
       <use xlink:href="#DejaVuSans-30"/>
       <use xlink:href="#DejaVuSans-2e" x="63.623047"/>
       <use xlink:href="#DejaVuSans-34" x="95.410156"/>
      </g>
     </g>
    </g>
    <g id="ytick_4">
     <g id="line2d_10">
      <g>
       <use xlink:href="#m9b9244fd25" x="45" y="125.28" style="stroke: #000000; stroke-width: 0.8"/>
      </g>
     </g>
     <g id="text_11">
      <!-- 0.6 -->
      <g transform="translate(22.096875 129.079219) scale(0.1 -0.1)">
       <use xlink:href="#DejaVuSans-30"/>
       <use xlink:href="#DejaVuSans-2e" x="63.623047"/>
       <use xlink:href="#DejaVuSans-36" x="95.410156"/>
      </g>
     </g>
    </g>
    <g id="ytick_5">
     <g id="line2d_11">
      <g>
       <use xlink:href="#m9b9244fd25" x="45" y="84.96" style="stroke: #000000; stroke-width: 0.8"/>
      </g>
     </g>
     <g id="text_12">
      <!-- 0.8 -->
      <g transform="translate(22.096875 88.759219) scale(0.1 -0.1)">
       <use xlink:href="#DejaVuSans-30"/>
       <use xlink:href="#DejaVuSans-2e" x="63.623047"/>
       <use xlink:href="#DejaVuSans-38" x="95.410156"/>
      </g>
     </g>
    </g>
    <g id="ytick_6">
     <g id="line2d_12">
      <g>
       <use xlink:href="#m9b9244fd25" x="45" y="44.64" style="stroke: #000000; stroke-width: 0.8"/>
      </g>
     </g>
     <g id="text_13">
      <!-- 1.0 -->
      <g transform="translate(22.096875 48.439219) scale(0.1 -0.1)">
       <use xlink:href="#DejaVuSans-31"/>
       <use xlink:href="#DejaVuSans-2e" x="63.623047"/>
       <use xlink:href="#DejaVuSans-30" x="95.410156"/>
      </g>
     </g>
    </g>
    <g id="text_14">
     <!-- TPR -->
     <g transform="translate(16.017187 154.982969) rotate(-90) scale(0.1 -0.1)">
      <defs>
       <path id="DejaVuSans-54" d="M -19 4666 
L 3928 4666 
L 3928 4134 
L 2272 4134 
L 2272 0 
L 1638 0 
L 1638 4134 
L -19 4134 
L -19 4666 
z
" transform="scale(0.015625)"/>
      </defs>
      <use xlink:href="#DejaVuSans-54"/>
      <use xlink:href="#DejaVuSans-50" x="61.083984"/>
      <use xlink:href="#DejaVuSans-52" x="121.386719"/>
     </g>
    </g>
   </g>
   <g id="line2d_13">
    <path d="M 57.681818 246.24 
L 57.766364 184.752 
L 57.794545 184.752 
L 57.879091 157.7376 
L 57.907273 157.7376 
L 57.991818 144.8352 
L 58.02 144.8352 
L 58.104545 135.5616 
L 58.160909 135.5616 
L 58.245455 126.8928 
L 58.273636 126.8928 
L 58.358182 114.192 
L 58.386364 114.192 
L 58.470909 110.9664 
L 58.499091 110.9664 
L 58.583636 108.9504 
L 58.611818 108.9504 
L 58.696364 104.3136 
L 58.752727 104.3136 
L 58.809091 96.8544 
L 58.893636 96.8544 
L 58.978182 90.4032 
L 59.006364 90.4032 
L 59.062727 88.992 
L 59.119091 88.992 
L 59.175455 87.3792 
L 59.231818 87.3792 
L 59.288182 86.1696 
L 59.344545 86.1696 
L 59.372727 85.5648 
L 59.485455 85.5648 
L 59.57 84.3552 
L 59.598182 84.3552 
L 59.654545 83.7504 
L 59.710909 83.7504 
L 59.795455 82.1376 
L 59.908182 82.1376 
L 59.936364 80.5248 
L 60.020909 80.5248 
L 60.020909 80.1216 
L 60.161818 80.1216 
L 60.246364 78.912 
L 60.274545 78.912 
L 60.359091 77.7024 
L 60.443636 77.7024 
L 60.5 76.6944 
L 60.584545 76.6944 
L 60.669091 76.2912 
L 60.697273 76.2912 
L 60.781818 75.0816 
L 60.838182 75.0816 
L 60.922727 72.0576 
L 60.950909 72.0576 
L 61.035455 70.6464 
L 61.063636 70.6464 
L 61.148182 68.832 
L 61.176364 68.832 
L 61.176364 68.6304 
L 61.373636 68.6304 
L 61.373636 68.4288 
L 61.486364 68.4288 
L 61.542727 67.2192 
L 61.627273 67.2192 
L 61.683636 66.4128 
L 61.74 66.4128 
L 61.74 66.0096 
L 61.852727 66.0096 
L 61.937273 65.2032 
L 62.05 65.2032 
L 62.134545 63.9936 
L 62.162727 63.9936 
L 62.247273 63.5904 
L 62.275455 63.5904 
L 62.275455 63.3888 
L 62.416364 63.3888 
L 62.444545 62.9856 
L 62.557273 62.9856 
L 62.557273 62.784 
L 62.67 62.784 
L 62.754545 61.1712 
L 62.98 61.1712 
L 62.98 60.9696 
L 63.205455 60.9696 
L 63.233636 60.5664 
L 63.318182 60.5664 
L 63.318182 60.3648 
L 63.656364 60.3648 
L 63.684545 59.76 
L 64.473636 59.76 
L 64.501818 59.3568 
L 64.811818 59.3568 
L 64.811818 59.1552 
L 65.121818 59.1552 
L 65.15 58.5504 
L 65.375455 58.5504 
L 65.375455 58.3488 
L 65.488182 58.3488 
L 65.544545 57.744 
L 65.629091 57.744 
L 65.657273 56.9376 
L 65.741818 56.9376 
L 65.741818 56.736 
L 65.967273 56.736 
L 65.967273 56.5344 
L 66.08 56.5344 
L 66.08 56.3328 
L 66.277273 56.3328 
L 66.277273 56.1312 
L 66.643636 56.1312 
L 66.643636 55.9296 
L 66.981818 55.9296 
L 66.981818 55.728 
L 67.714545 55.728 
L 67.742727 54.9216 
L 67.968182 54.9216 
L 68.052727 54.5184 
L 68.137273 54.5184 
L 68.137273 54.3168 
L 68.588182 54.3168 
L 68.588182 54.1152 
L 68.785455 54.1152 
L 68.785455 53.9136 
L 69.151818 53.9136 
L 69.151818 53.712 
L 69.264545 53.712 
L 69.264545 53.5104 
L 69.433636 53.5104 
L 69.49 53.1072 
L 69.546364 53.1072 
L 69.546364 52.9056 
L 69.687273 52.9056 
L 69.687273 52.704 
L 69.884545 52.704 
L 69.884545 52.5024 
L 69.997273 52.5024 
L 70.081818 52.0992 
L 70.363636 52.0992 
L 70.363636 51.8976 
L 70.617273 51.8976 
L 70.701818 51.4944 
L 71.096364 51.4944 
L 71.096364 51.2928 
L 72.139091 51.2928 
L 72.223636 50.688 
L 72.449091 50.688 
L 72.449091 50.4864 
L 73.069091 50.4864 
L 73.069091 50.2848 
L 73.548182 50.2848 
L 73.548182 50.0832 
L 73.745455 50.0832 
L 73.745455 49.8816 
L 74.393636 49.8816 
L 74.393636 49.4784 
L 74.562727 49.4784 
L 74.562727 49.0752 
L 75.098182 49.0752 
L 75.098182 48.8736 
L 75.408182 48.8736 
L 75.464545 48.2688 
L 77.183636 48.2688 
L 77.183636 48.0672 
L 77.831818 48.0672 
L 77.831818 47.8656 
L 78.564545 47.8656 
L 78.564545 47.664 
L 79.635455 47.664 
L 79.635455 47.4624 
L 79.832727 47.4624 
L 79.832727 47.2608 
L 80.199091 47.2608 
L 80.199091 47.0592 
L 85.525455 47.0592 
L 85.525455 46.8576 
L 85.638182 46.8576 
L 85.638182 46.656 
L 86.568182 46.656 
L 86.568182 46.4544 
L 89.132727 46.4544 
L 89.132727 46.2528 
L 91.669091 46.2528 
L 91.669091 46.0512 
L 95.191818 46.0512 
L 95.191818 45.8496 
L 95.896364 45.8496 
L 95.896364 45.648 
L 125.938182 45.648 
L 125.938182 45.4464 
L 127.319091 45.4464 
L 127.319091 45.2448 
L 128.587273 45.2448 
L 128.587273 45.0432 
L 133.180909 45.0432 
L 133.180909 44.8416 
L 144.425455 44.8416 
L 144.425455 44.64 
L 311.318182 44.64 
L 311.318182 44.64 
" clip-path="url(#p707753741f)" style="fill: none; stroke: #1f77b4; stroke-width: 1.5; stroke-linecap: square"/>
   </g>
   <g id="line2d_14">
    <path d="M 57.681818 246.24 
L 57.766364 102.096 
L 57.794545 102.096 
L 57.879091 90.4032 
L 57.907273 90.4032 
L 57.991818 82.944 
L 58.02 82.944 
L 58.104545 74.6784 
L 58.132727 74.6784 
L 58.189091 72.864 
L 58.245455 72.864 
L 58.33 64.5984 
L 58.358182 64.5984 
L 58.386364 63.5904 
L 58.470909 63.5904 
L 58.555455 61.9776 
L 58.583636 61.9776 
L 58.668182 60.768 
L 58.696364 60.768 
L 58.752727 59.5584 
L 58.809091 59.5584 
L 58.893636 58.9536 
L 58.921818 58.9536 
L 58.921818 57.5424 
L 59.034545 57.5424 
L 59.119091 56.736 
L 59.175455 56.736 
L 59.203636 55.9296 
L 59.288182 55.9296 
L 59.288182 55.728 
L 59.513636 55.728 
L 59.57 54.9216 
L 59.710909 54.9216 
L 59.710909 54.5184 
L 59.823636 54.5184 
L 59.88 53.5104 
L 60.105455 53.5104 
L 60.161818 52.9056 
L 60.274545 52.9056 
L 60.359091 52.5024 
L 60.556364 52.5024 
L 60.556364 52.3008 
L 60.866364 52.3008 
L 60.866364 52.0992 
L 61.007273 52.0992 
L 61.091818 51.696 
L 61.204545 51.696 
L 61.289091 51.2928 
L 61.852727 51.2928 
L 61.852727 51.0912 
L 62.219091 51.0912 
L 62.219091 50.688 
L 62.895455 50.688 
L 62.895455 50.4864 
L 63.036364 50.4864 
L 63.092727 49.68 
L 63.29 49.68 
L 63.29 49.4784 
L 64.135455 49.4784 
L 64.135455 49.2768 
L 64.896364 49.2768 
L 64.896364 49.0752 
L 65.206364 49.0752 
L 65.206364 48.8736 
L 65.544545 48.8736 
L 65.544545 48.672 
L 66.136364 48.672 
L 66.136364 48.4704 
L 67.63 48.4704 
L 67.63 48.2688 
L 67.827273 48.2688 
L 67.855455 47.8656 
L 68.729091 47.8656 
L 68.729091 47.4624 
L 69.433636 47.4624 
L 69.433636 47.2608 
L 70.11 47.2608 
L 70.11 47.0592 
L 70.448182 47.0592 
L 70.448182 46.8576 
L 71.547273 46.8576 
L 71.547273 46.656 
L 72.928182 46.656 
L 72.928182 46.4544 
L 74.111818 46.4544 
L 74.111818 46.2528 
L 74.957273 46.2528 
L 74.957273 46.0512 
L 75.830909 46.0512 
L 75.915455 45.648 
L 86.060909 45.648 
L 86.060909 45.4464 
L 87.751818 45.4464 
L 87.751818 45.2448 
L 93.303636 45.2448 
L 93.303636 45.0432 
L 101.448182 45.0432 
L 101.448182 44.8416 
L 102.237273 44.8416 
L 102.237273 44.64 
L 311.318182 44.64 
L 311.318182 44.64 
" clip-path="url(#p707753741f)" style="fill: none; stroke: #ff7f0e; stroke-width: 1.5; stroke-linecap: square"/>
   </g>
   <g id="line2d_15">
    <path d="M 57.681818 246.24 
L 57.766364 185.1552 
L 57.794545 185.1552 
L 57.879091 166.0032 
L 57.907273 166.0032 
L 57.991818 155.9232 
L 58.02 155.9232 
L 58.104545 146.448 
L 58.132727 146.448 
L 58.217273 139.5936 
L 58.245455 139.5936 
L 58.33 137.7792 
L 58.386364 137.7792 
L 58.470909 133.9488 
L 58.499091 133.9488 
L 58.583636 132.7392 
L 58.611818 132.7392 
L 58.696364 131.1264 
L 58.752727 131.1264 
L 58.837273 128.7072 
L 58.865455 128.7072 
L 58.95 126.6912 
L 59.062727 126.6912 
L 59.147273 124.272 
L 59.175455 124.272 
L 59.231818 120.8448 
L 59.344545 120.8448 
L 59.429091 118.0224 
L 59.457273 118.0224 
L 59.541818 114.5952 
L 59.57 114.5952 
L 59.654545 112.3776 
L 59.682727 112.3776 
L 59.767273 109.5552 
L 59.795455 109.5552 
L 59.88 108.144 
L 59.964545 108.144 
L 60.049091 106.7328 
L 60.105455 106.7328 
L 60.19 104.3136 
L 60.246364 104.3136 
L 60.330909 103.3056 
L 60.359091 103.3056 
L 60.443636 102.2976 
L 60.471818 102.2976 
L 60.556364 101.6928 
L 60.584545 101.6928 
L 60.669091 99.6768 
L 60.697273 99.6768 
L 60.781818 98.6688 
L 60.81 98.6688 
L 60.894545 98.064 
L 60.979091 98.064 
L 61.007273 97.056 
L 61.091818 97.056 
L 61.176364 93.8304 
L 61.204545 93.8304 
L 61.289091 92.6208 
L 61.401818 92.6208 
L 61.486364 92.016 
L 61.542727 92.016 
L 61.599091 90.8064 
L 61.655455 90.8064 
L 61.655455 89.3952 
L 61.796364 89.3952 
L 61.880909 87.3792 
L 61.937273 87.3792 
L 61.993636 86.7744 
L 62.05 86.7744 
L 62.134545 85.7664 
L 62.219091 85.7664 
L 62.303636 85.1616 
L 62.388182 85.1616 
L 62.388182 84.3552 
L 62.529091 84.3552 
L 62.557273 83.952 
L 62.641818 83.952 
L 62.726364 82.7424 
L 62.895455 82.7424 
L 62.895455 82.5408 
L 63.036364 82.5408 
L 63.120909 81.1296 
L 63.205455 81.1296 
L 63.205455 80.5248 
L 63.459091 80.5248 
L 63.459091 80.3232 
L 63.6 80.3232 
L 63.6 80.1216 
L 63.712727 80.1216 
L 63.769091 79.7184 
L 63.825455 79.7184 
L 63.825455 79.5168 
L 64.135455 79.5168 
L 64.135455 79.3152 
L 64.304545 79.3152 
L 64.389091 78.912 
L 64.445455 78.912 
L 64.445455 78.3072 
L 64.614545 78.3072 
L 64.642727 77.904 
L 64.783636 77.904 
L 64.783636 77.5008 
L 64.924545 77.5008 
L 65.009091 76.6944 
L 65.093636 76.6944 
L 65.178182 76.0896 
L 65.234545 76.0896 
L 65.234545 75.888 
L 65.347273 75.888 
L 65.347273 75.6864 
L 65.544545 75.6864 
L 65.600909 75.2832 
L 65.685455 75.2832 
L 65.685455 75.0816 
L 65.826364 75.0816 
L 65.826364 74.88 
L 66.164545 74.88 
L 66.192727 74.4768 
L 66.502727 74.4768 
L 66.587273 73.4688 
L 66.728182 73.4688 
L 66.784545 72.864 
L 66.840909 72.864 
L 66.925455 72.4608 
L 66.953636 72.4608 
L 67.01 71.856 
L 67.122727 71.856 
L 67.207273 71.0496 
L 67.263636 71.0496 
L 67.348182 70.6464 
L 67.517273 70.6464 
L 67.545455 70.2432 
L 67.827273 70.2432 
L 67.827273 70.0416 
L 67.996364 70.0416 
L 67.996364 69.84 
L 68.109091 69.84 
L 68.109091 69.6384 
L 68.221818 69.6384 
L 68.221818 69.2352 
L 68.362727 69.2352 
L 68.362727 69.0336 
L 68.87 69.0336 
L 68.898182 68.6304 
L 68.982727 68.6304 
L 68.982727 68.2272 
L 69.320909 68.2272 
L 69.377273 67.824 
L 69.49 67.824 
L 69.546364 67.4208 
L 69.715455 67.4208 
L 69.715455 67.2192 
L 69.997273 67.2192 
L 69.997273 67.0176 
L 70.166364 67.0176 
L 70.250909 66.6144 
L 70.476364 66.6144 
L 70.504545 66.2112 
L 70.758182 66.2112 
L 70.758182 66.0096 
L 70.899091 66.0096 
L 70.955455 65.4048 
L 71.04 65.4048 
L 71.04 65.2032 
L 71.152727 65.2032 
L 71.237273 64.5984 
L 71.406364 64.5984 
L 71.406364 64.3968 
L 71.688182 64.3968 
L 71.688182 64.1952 
L 71.941818 64.1952 
L 72.026364 63.5904 
L 72.139091 63.5904 
L 72.139091 63.3888 
L 72.674545 63.3888 
L 72.674545 63.1872 
L 72.984545 63.1872 
L 73.040909 62.784 
L 73.153636 62.784 
L 73.153636 62.5824 
L 73.266364 62.5824 
L 73.266364 62.3808 
L 73.689091 62.3808 
L 73.689091 62.1792 
L 74.337273 62.1792 
L 74.393636 61.3728 
L 74.929091 61.3728 
L 74.929091 60.9696 
L 75.605455 60.9696 
L 75.605455 60.768 
L 76.084545 60.768 
L 76.084545 60.5664 
L 76.450909 60.5664 
L 76.507273 59.9616 
L 76.648182 59.9616 
L 76.648182 59.76 
L 76.901818 59.76 
L 76.93 59.3568 
L 77.155455 59.3568 
L 77.211818 58.3488 
L 77.662727 58.3488 
L 77.662727 58.1472 
L 77.831818 58.1472 
L 77.831818 57.9456 
L 78.085455 57.9456 
L 78.17 57.5424 
L 78.48 57.5424 
L 78.564545 56.9376 
L 78.705455 56.9376 
L 78.705455 56.736 
L 79.494545 56.736 
L 79.494545 56.5344 
L 80.086364 56.5344 
L 80.086364 56.3328 
L 80.311818 56.3328 
L 80.311818 56.1312 
L 80.424545 56.1312 
L 80.424545 55.9296 
L 80.537273 55.9296 
L 80.593636 55.5264 
L 80.875455 55.5264 
L 80.875455 55.3248 
L 81.326364 55.3248 
L 81.326364 55.1232 
L 81.805455 55.1232 
L 81.805455 54.9216 
L 82.059091 54.9216 
L 82.059091 54.72 
L 82.989091 54.72 
L 82.989091 54.5184 
L 83.524545 54.5184 
L 83.580909 54.1152 
L 83.637273 54.1152 
L 83.637273 53.9136 
L 83.862727 53.9136 
L 83.862727 53.712 
L 85.102727 53.712 
L 85.187273 53.3088 
L 85.469091 53.3088 
L 85.469091 53.1072 
L 87.639091 53.1072 
L 87.695455 52.704 
L 88.230909 52.704 
L 88.230909 52.5024 
L 89.780909 52.5024 
L 89.780909 52.3008 
L 89.95 52.3008 
L 89.95 52.0992 
L 90.795455 52.0992 
L 90.851818 51.696 
L 91.133636 51.696 
L 91.133636 51.4944 
L 93.36 51.4944 
L 93.36 51.2928 
L 93.585455 51.2928 
L 93.585455 51.0912 
L 94.120909 51.0912 
L 94.120909 50.8896 
L 94.825455 50.8896 
L 94.825455 50.688 
L 97.643636 50.688 
L 97.643636 50.4864 
L 98.179091 50.4864 
L 98.207273 50.0832 
L 98.376364 50.0832 
L 98.376364 49.8816 
L 99.278182 49.8816 
L 99.278182 49.68 
L 100.010909 49.68 
L 100.010909 49.4784 
L 100.151818 49.4784 
L 100.151818 49.2768 
L 100.546364 49.2768 
L 100.546364 49.0752 
L 100.828182 49.0752 
L 100.828182 48.8736 
L 103.477273 48.8736 
L 103.477273 48.672 
L 103.956364 48.672 
L 103.956364 48.4704 
L 104.660909 48.4704 
L 104.660909 48.2688 
L 105.280909 48.2688 
L 105.280909 48.0672 
L 110.579091 48.0672 
L 110.579091 47.8656 
L 113.622727 47.8656 
L 113.622727 47.664 
L 117.709091 47.664 
L 117.709091 47.4624 
L 117.990909 47.4624 
L 117.990909 47.2608 
L 123.12 47.2608 
L 123.12 47.0592 
L 126.332727 47.0592 
L 126.332727 46.8576 
L 127.037273 46.8576 
L 127.037273 46.656 
L 131.602727 46.656 
L 131.602727 46.4544 
L 135.548182 46.4544 
L 135.548182 46.2528 
L 142.819091 46.2528 
L 142.819091 46.0512 
L 155.162727 46.0512 
L 155.162727 45.8496 
L 163.504545 45.8496 
L 163.504545 45.648 
L 168.041818 45.648 
L 168.041818 45.4464 
L 171.423636 45.4464 
L 171.423636 45.2448 
L 172.579091 45.2448 
L 172.579091 45.0432 
L 174.439091 45.0432 
L 174.439091 44.8416 
L 177.595455 44.8416 
L 177.595455 44.64 
L 311.318182 44.64 
L 311.318182 44.64 
" clip-path="url(#p707753741f)" style="fill: none; stroke: #2ca02c; stroke-width: 1.5; stroke-linecap: square"/>
   </g>
   <g id="line2d_16">
    <path d="M 57.681818 246.24 
L 57.766364 210.96 
L 57.794545 210.96 
L 57.879091 202.0896 
L 57.907273 202.0896 
L 57.991818 192.2112 
L 58.02 192.2112 
L 58.104545 181.1232 
L 58.160909 181.1232 
L 58.245455 177.8976 
L 58.273636 177.8976 
L 58.358182 174.8736 
L 58.386364 174.8736 
L 58.470909 172.656 
L 58.499091 172.656 
L 58.583636 166.608 
L 58.611818 166.608 
L 58.696364 165.1968 
L 58.752727 165.1968 
L 58.837273 160.1568 
L 58.921818 160.1568 
L 58.978182 154.7136 
L 59.034545 154.7136 
L 59.119091 151.8912 
L 59.147273 151.8912 
L 59.231818 148.2624 
L 59.26 148.2624 
L 59.344545 143.2224 
L 59.513636 143.2224 
L 59.598182 142.0128 
L 59.626364 142.0128 
L 59.710909 140.4 
L 59.767273 140.4 
L 59.851818 139.1904 
L 59.936364 139.1904 
L 59.992727 136.7712 
L 60.049091 136.7712 
L 60.077273 135.7632 
L 60.218182 135.7632 
L 60.302727 133.9488 
L 60.359091 133.9488 
L 60.443636 130.32 
L 60.5 130.32 
L 60.584545 128.5056 
L 60.612727 128.5056 
L 60.640909 128.1024 
L 60.838182 128.1024 
L 60.894545 127.0944 
L 60.950909 127.0944 
L 61.035455 122.8608 
L 61.091818 122.8608 
L 61.12 121.248 
L 61.289091 121.248 
L 61.373636 118.4256 
L 61.401818 118.4256 
L 61.486364 117.8208 
L 61.542727 117.8208 
L 61.627273 116.208 
L 61.711818 116.208 
L 61.796364 115.8048 
L 61.824545 115.8048 
L 61.909091 114.9984 
L 61.937273 114.9984 
L 62.021818 113.7888 
L 62.078182 113.7888 
L 62.162727 112.5792 
L 62.247273 112.5792 
L 62.331818 111.7728 
L 62.388182 111.7728 
L 62.472727 110.9664 
L 62.529091 110.9664 
L 62.613636 110.5632 
L 62.641818 110.5632 
L 62.641818 110.16 
L 62.754545 110.16 
L 62.839091 109.3536 
L 62.895455 109.3536 
L 62.895455 108.9504 
L 63.036364 108.9504 
L 63.120909 108.144 
L 63.177273 108.144 
L 63.177273 107.9424 
L 63.374545 107.9424 
L 63.459091 107.3376 
L 63.487273 107.3376 
L 63.543636 106.9344 
L 63.6 106.9344 
L 63.684545 105.9264 
L 63.712727 105.9264 
L 63.712727 105.5232 
L 63.853636 105.5232 
L 63.853636 105.12 
L 63.966364 105.12 
L 63.994545 104.5152 
L 64.079091 104.5152 
L 64.135455 104.112 
L 64.248182 104.112 
L 64.304545 103.5072 
L 64.360909 103.5072 
L 64.445455 102.4992 
L 64.642727 102.4992 
L 64.699091 102.096 
L 64.811818 102.096 
L 64.896364 101.2896 
L 65.093636 101.2896 
L 65.178182 100.08 
L 65.234545 100.08 
L 65.319091 99.072 
L 65.347273 99.072 
L 65.431818 98.064 
L 65.657273 98.064 
L 65.713636 97.2576 
L 65.77 97.2576 
L 65.77 97.056 
L 65.882727 97.056 
L 65.910909 96.4512 
L 65.995455 96.4512 
L 66.08 95.8464 
L 66.164545 95.8464 
L 66.249091 94.8384 
L 66.277273 94.8384 
L 66.361818 94.032 
L 66.587273 94.032 
L 66.671818 93.6288 
L 66.728182 93.6288 
L 66.784545 93.2256 
L 66.869091 93.2256 
L 66.925455 92.4192 
L 67.01 92.4192 
L 67.01 92.2176 
L 67.150909 92.2176 
L 67.235455 91.4112 
L 67.432727 91.4112 
L 67.432727 91.2096 
L 67.770909 91.2096 
L 67.799091 90.4032 
L 67.968182 90.4032 
L 68.052727 89.1936 
L 68.080909 89.1936 
L 68.165455 87.7824 
L 68.193636 87.7824 
L 68.193636 87.5808 
L 68.503636 87.5808 
L 68.588182 87.1776 
L 68.729091 87.1776 
L 68.729091 86.976 
L 68.954545 86.976 
L 68.982727 86.3712 
L 69.123636 86.3712 
L 69.18 85.7664 
L 69.377273 85.7664 
L 69.377273 85.3632 
L 69.49 85.3632 
L 69.518182 84.96 
L 69.659091 84.96 
L 69.687273 84.5568 
L 70.081818 84.5568 
L 70.138182 84.1536 
L 70.222727 84.1536 
L 70.222727 83.952 
L 70.335455 83.952 
L 70.42 83.3472 
L 70.560909 83.3472 
L 70.645455 82.944 
L 70.73 82.944 
L 70.814545 82.1376 
L 70.870909 82.1376 
L 70.870909 81.936 
L 70.983636 81.936 
L 70.983636 81.7344 
L 71.096364 81.7344 
L 71.152727 81.1296 
L 71.209091 81.1296 
L 71.237273 80.7264 
L 71.321818 80.7264 
L 71.406364 79.92 
L 71.462727 79.92 
L 71.462727 79.5168 
L 71.66 79.5168 
L 71.716364 78.7104 
L 71.800909 78.7104 
L 71.800909 78.5088 
L 71.97 78.5088 
L 72.026364 77.904 
L 72.251818 77.904 
L 72.336364 77.2992 
L 72.674545 77.2992 
L 72.759091 76.6944 
L 72.928182 76.6944 
L 72.928182 76.4928 
L 73.21 76.4928 
L 73.21 76.2912 
L 73.379091 76.2912 
L 73.379091 76.0896 
L 73.52 76.0896 
L 73.604545 75.4848 
L 73.773636 75.4848 
L 73.773636 75.2832 
L 73.914545 75.2832 
L 73.970909 74.88 
L 74.168182 74.88 
L 74.168182 74.6784 
L 74.337273 74.6784 
L 74.337273 74.4768 
L 74.703636 74.4768 
L 74.76 73.872 
L 75.126364 73.872 
L 75.126364 73.6704 
L 75.323636 73.6704 
L 75.323636 73.2672 
L 75.436364 73.2672 
L 75.492727 72.864 
L 75.549091 72.864 
L 75.605455 72.4608 
L 75.661818 72.4608 
L 75.718182 72.0576 
L 75.971818 72.0576 
L 76.056364 71.6544 
L 76.084545 71.6544 
L 76.112727 71.2512 
L 76.563636 71.2512 
L 76.591818 70.848 
L 76.676364 70.848 
L 76.676364 70.6464 
L 76.789091 70.6464 
L 76.789091 70.2432 
L 77.24 70.2432 
L 77.24 70.0416 
L 77.55 70.0416 
L 77.634545 69.2352 
L 78.226364 69.2352 
L 78.226364 69.0336 
L 78.339091 69.0336 
L 78.423636 68.6304 
L 78.761818 68.6304 
L 78.79 68.2272 
L 78.902727 68.2272 
L 78.902727 68.0256 
L 79.015455 68.0256 
L 79.1 67.6224 
L 79.184545 67.6224 
L 79.240909 67.0176 
L 79.466364 67.0176 
L 79.466364 66.6144 
L 79.663636 66.6144 
L 79.663636 66.4128 
L 79.776364 66.4128 
L 79.776364 66.2112 
L 80.03 66.2112 
L 80.03 66.0096 
L 80.170909 66.0096 
L 80.199091 65.6064 
L 80.368182 65.6064 
L 80.368182 65.4048 
L 80.819091 65.4048 
L 80.875455 65.0016 
L 80.96 65.0016 
L 80.96 64.8 
L 81.439091 64.8 
L 81.439091 64.5984 
L 81.551818 64.5984 
L 81.551818 64.3968 
L 81.833636 64.3968 
L 81.833636 64.1952 
L 81.946364 64.1952 
L 81.946364 63.9936 
L 82.171818 63.9936 
L 82.2 63.5904 
L 82.340909 63.5904 
L 82.340909 63.3888 
L 82.453636 63.3888 
L 82.453636 63.1872 
L 82.566364 63.1872 
L 82.594545 62.784 
L 82.763636 62.784 
L 82.848182 62.3808 
L 82.960909 62.3808 
L 82.960909 62.1792 
L 83.186364 62.1792 
L 83.186364 61.9776 
L 83.355455 61.9776 
L 83.355455 61.5744 
L 83.552727 61.5744 
L 83.552727 61.3728 
L 83.947273 61.3728 
L 83.947273 61.1712 
L 84.37 61.1712 
L 84.37 60.9696 
L 84.792727 60.9696 
L 84.877273 60.5664 
L 85.215455 60.5664 
L 85.271818 60.1632 
L 85.412727 60.1632 
L 85.412727 59.9616 
L 85.61 59.9616 
L 85.61 59.76 
L 85.863636 59.76 
L 85.863636 59.5584 
L 85.976364 59.5584 
L 85.976364 59.3568 
L 86.173636 59.3568 
L 86.173636 59.1552 
L 86.455455 59.1552 
L 86.455455 58.9536 
L 87.413636 58.9536 
L 87.413636 58.752 
L 87.554545 58.752 
L 87.554545 58.5504 
L 88.259091 58.5504 
L 88.259091 58.3488 
L 88.428182 58.3488 
L 88.428182 58.1472 
L 88.71 58.1472 
L 88.738182 57.744 
L 89.414545 57.744 
L 89.414545 57.5424 
L 89.555455 57.5424 
L 89.555455 57.3408 
L 89.780909 57.3408 
L 89.837273 56.9376 
L 90.26 56.9376 
L 90.316364 56.5344 
L 90.626364 56.5344 
L 90.626364 56.3328 
L 91.697273 56.3328 
L 91.697273 56.1312 
L 92.373636 56.1312 
L 92.373636 55.728 
L 92.74 55.728 
L 92.74 55.5264 
L 92.852727 55.5264 
L 92.852727 55.3248 
L 92.993636 55.3248 
L 92.993636 55.1232 
L 93.275455 55.1232 
L 93.275455 54.9216 
L 93.557273 54.9216 
L 93.557273 54.72 
L 94.120909 54.72 
L 94.120909 54.5184 
L 95.896364 54.5184 
L 95.896364 54.3168 
L 96.431818 54.3168 
L 96.431818 53.9136 
L 98.404545 53.9136 
L 98.404545 53.712 
L 98.883636 53.712 
L 98.911818 53.3088 
L 99.419091 53.3088 
L 99.419091 53.1072 
L 100.433636 53.1072 
L 100.433636 52.9056 
L 101.983636 52.9056 
L 101.983636 52.704 
L 102.857273 52.704 
L 102.857273 52.5024 
L 103.646364 52.5024 
L 103.646364 52.3008 
L 104.745455 52.3008 
L 104.745455 52.0992 
L 105.929091 52.0992 
L 105.929091 51.8976 
L 106.126364 51.8976 
L 106.126364 51.696 
L 106.915455 51.696 
L 106.971818 51.2928 
L 107.056364 51.2928 
L 107.056364 51.0912 
L 107.31 51.0912 
L 107.31 50.8896 
L 110.269091 50.8896 
L 110.269091 50.688 
L 110.776364 50.688 
L 110.804545 50.2848 
L 110.945455 50.2848 
L 111.03 49.8816 
L 113.791818 49.8816 
L 113.791818 49.68 
L 114.017273 49.68 
L 114.017273 49.4784 
L 114.721818 49.4784 
L 114.721818 49.2768 
L 119.794545 49.2768 
L 119.794545 48.8736 
L 123.289091 48.8736 
L 123.289091 48.672 
L 125.346364 48.672 
L 125.346364 48.4704 
L 129.150909 48.4704 
L 129.150909 48.2688 
L 129.799091 48.2688 
L 129.799091 48.0672 
L 130.588182 48.0672 
L 130.588182 47.8656 
L 133.547273 47.8656 
L 133.547273 47.664 
L 133.829091 47.664 
L 133.829091 47.4624 
L 135.21 47.4624 
L 135.21 47.2608 
L 138.31 47.2608 
L 138.31 47.0592 
L 140.959091 47.0592 
L 140.959091 46.8576 
L 142.368182 46.8576 
L 142.368182 46.656 
L 143.382727 46.656 
L 143.382727 46.4544 
L 149.272727 46.4544 
L 149.272727 46.2528 
L 153.894545 46.2528 
L 153.894545 46.0512 
L 154.317273 46.0512 
L 154.317273 45.8496 
L 154.599091 45.8496 
L 154.599091 45.648 
L 164.180909 45.648 
L 164.180909 45.4464 
L 170.972727 45.4464 
L 170.972727 45.2448 
L 204.114545 45.2448 
L 204.114545 45.0432 
L 214.26 45.0432 
L 214.26 44.8416 
L 270.200909 44.8416 
L 270.200909 44.64 
L 311.318182 44.64 
L 311.318182 44.64 
" clip-path="url(#p707753741f)" style="fill: none; stroke: #d62728; stroke-width: 1.5; stroke-linecap: square"/>
   </g>
   <g id="line2d_17">
    <path d="M 57.681818 246.24 
L 57.766364 165.6 
L 57.794545 165.6 
L 57.879091 149.0688 
L 57.935455 149.0688 
L 58.02 135.1584 
L 58.048182 135.1584 
L 58.132727 130.9248 
L 58.160909 130.9248 
L 58.245455 121.4496 
L 58.273636 121.4496 
L 58.358182 118.6272 
L 58.386364 118.6272 
L 58.470909 115.8048 
L 58.499091 115.8048 
L 58.555455 111.7728 
L 58.611818 111.7728 
L 58.696364 109.5552 
L 58.724545 109.5552 
L 58.809091 106.9344 
L 58.865455 106.9344 
L 58.95 104.5152 
L 58.978182 104.5152 
L 59.034545 100.8864 
L 59.090909 100.8864 
L 59.175455 99.4752 
L 59.203636 99.4752 
L 59.26 97.8624 
L 59.344545 97.8624 
L 59.400909 96.8544 
L 59.457273 96.8544 
L 59.541818 95.6448 
L 59.57 95.6448 
L 59.654545 92.8224 
L 59.682727 92.8224 
L 59.767273 90.2016 
L 59.823636 90.2016 
L 59.88 89.1936 
L 59.992727 89.1936 
L 60.049091 87.5808 
L 60.133636 87.5808 
L 60.218182 85.5648 
L 60.274545 85.5648 
L 60.359091 83.3472 
L 60.415455 83.3472 
L 60.443636 82.5408 
L 60.556364 82.5408 
L 60.640909 80.928 
L 60.725455 80.928 
L 60.781818 78.912 
L 60.838182 78.912 
L 60.922727 78.1056 
L 60.979091 78.1056 
L 61.007273 77.2992 
L 61.091818 77.2992 
L 61.091818 76.896 
L 61.204545 76.896 
L 61.289091 76.4928 
L 61.345455 76.4928 
L 61.43 75.4848 
L 61.486364 75.4848 
L 61.514545 74.88 
L 61.655455 74.88 
L 61.74 73.6704 
L 61.768182 73.6704 
L 61.852727 72.864 
L 61.937273 72.864 
L 61.965455 72.2592 
L 62.078182 72.2592 
L 62.106364 71.4528 
L 62.219091 71.4528 
L 62.303636 69.2352 
L 62.36 69.2352 
L 62.388182 68.832 
L 62.472727 68.832 
L 62.500909 68.0256 
L 62.585455 68.0256 
L 62.613636 67.6224 
L 62.726364 67.6224 
L 62.726364 67.2192 
L 62.923636 67.2192 
L 62.923636 66.816 
L 63.036364 66.816 
L 63.036364 66.6144 
L 63.205455 66.6144 
L 63.205455 66.4128 
L 63.402727 66.4128 
L 63.402727 65.4048 
L 63.769091 65.4048 
L 63.797273 64.8 
L 63.938182 64.8 
L 63.994545 63.792 
L 64.276364 63.792 
L 64.276364 63.5904 
L 64.501818 63.5904 
L 64.501818 63.1872 
L 64.614545 63.1872 
L 64.699091 62.784 
L 64.727273 62.784 
L 64.783636 62.1792 
L 64.868182 62.1792 
L 64.868182 61.9776 
L 64.980909 61.9776 
L 65.037273 61.5744 
L 65.178182 61.5744 
L 65.234545 60.9696 
L 65.347273 60.9696 
L 65.431818 60.3648 
L 65.544545 60.3648 
L 65.600909 59.9616 
L 65.657273 59.9616 
L 65.657273 59.76 
L 65.798182 59.76 
L 65.854545 59.1552 
L 65.910909 59.1552 
L 65.910909 58.9536 
L 66.108182 58.9536 
L 66.108182 58.5504 
L 66.446364 58.5504 
L 66.474545 58.1472 
L 67.207273 58.1472 
L 67.207273 57.9456 
L 67.404545 57.9456 
L 67.460909 57.3408 
L 67.827273 57.3408 
L 67.855455 56.5344 
L 68.306364 56.5344 
L 68.306364 56.3328 
L 68.616364 56.3328 
L 68.616364 56.1312 
L 68.898182 56.1312 
L 68.898182 55.9296 
L 69.010909 55.9296 
L 69.039091 55.5264 
L 69.405455 55.5264 
L 69.405455 55.3248 
L 69.630909 55.3248 
L 69.630909 55.1232 
L 70.025455 55.1232 
L 70.025455 54.9216 
L 70.138182 54.9216 
L 70.138182 54.3168 
L 70.842727 54.3168 
L 70.842727 54.1152 
L 71.462727 54.1152 
L 71.462727 53.9136 
L 71.66 53.9136 
L 71.66 53.712 
L 71.885455 53.712 
L 71.885455 53.5104 
L 72.026364 53.5104 
L 72.026364 53.3088 
L 72.167273 53.3088 
L 72.167273 53.1072 
L 72.28 53.1072 
L 72.28 52.9056 
L 72.561818 52.9056 
L 72.561818 52.3008 
L 73.322727 52.3008 
L 73.322727 52.0992 
L 74.45 52.0992 
L 74.478182 51.4944 
L 74.675455 51.4944 
L 74.76 51.0912 
L 76.958182 51.0912 
L 76.958182 50.8896 
L 77.099091 50.8896 
L 77.099091 50.688 
L 77.352727 50.688 
L 77.352727 50.4864 
L 77.55 50.4864 
L 77.55 50.2848 
L 77.888182 50.2848 
L 77.888182 50.0832 
L 78.226364 50.0832 
L 78.226364 49.8816 
L 78.846364 49.8816 
L 78.846364 49.68 
L 81.016364 49.68 
L 81.016364 49.4784 
L 82.2 49.4784 
L 82.2 49.2768 
L 83.947273 49.2768 
L 83.947273 49.0752 
L 84.285455 49.0752 
L 84.285455 48.8736 
L 86.145455 48.8736 
L 86.145455 48.672 
L 86.962727 48.672 
L 86.962727 48.4704 
L 87.244545 48.4704 
L 87.244545 48.2688 
L 88.230909 48.2688 
L 88.230909 48.0672 
L 91.584545 48.0672 
L 91.584545 47.8656 
L 92.43 47.8656 
L 92.43 47.664 
L 94.149091 47.664 
L 94.149091 47.4624 
L 94.712727 47.4624 
L 94.712727 47.2608 
L 97.220909 47.2608 
L 97.220909 47.0592 
L 98.150909 47.0592 
L 98.150909 46.8576 
L 98.545455 46.8576 
L 98.545455 46.656 
L 102.011818 46.656 
L 102.011818 46.4544 
L 105.506364 46.4544 
L 105.506364 46.2528 
L 107.93 46.2528 
L 107.93 46.0512 
L 115.341818 46.0512 
L 115.341818 45.8496 
L 121.57 45.8496 
L 121.57 45.648 
L 129.63 45.648 
L 129.63 45.4464 
L 131.856364 45.4464 
L 131.856364 45.2448 
L 139.775455 45.2448 
L 139.775455 45.0432 
L 140.226364 45.0432 
L 140.226364 44.8416 
L 167.478182 44.8416 
L 167.478182 44.64 
L 311.318182 44.64 
L 311.318182 44.64 
" clip-path="url(#p707753741f)" style="fill: none; stroke: #9467bd; stroke-width: 1.5; stroke-linecap: square"/>
   </g>
   <g id="line2d_18">
    <path d="M 57.681818 246.24 
L 57.766364 180.1152 
L 57.794545 180.1152 
L 57.879091 161.1648 
L 57.907273 161.1648 
L 57.991818 156.528 
L 58.02 156.528 
L 58.104545 149.6736 
L 58.160909 149.6736 
L 58.245455 144.2304 
L 58.358182 144.2304 
L 58.442727 138.9888 
L 58.470909 138.9888 
L 58.555455 136.9728 
L 58.583636 136.9728 
L 58.668182 132.9408 
L 58.752727 132.9408 
L 58.837273 129.5136 
L 58.865455 129.5136 
L 58.95 126.6912 
L 59.034545 126.6912 
L 59.119091 123.264 
L 59.147273 123.264 
L 59.231818 122.256 
L 59.344545 122.256 
L 59.400909 120.24 
L 59.457273 120.24 
L 59.541818 117.8208 
L 59.57 117.8208 
L 59.654545 115.6032 
L 59.682727 115.6032 
L 59.767273 113.5872 
L 59.795455 113.5872 
L 59.88 111.5712 
L 59.992727 111.5712 
L 60.077273 110.3616 
L 60.161818 110.3616 
L 60.246364 108.3456 
L 60.274545 108.3456 
L 60.359091 106.9344 
L 60.415455 106.9344 
L 60.471818 105.12 
L 60.640909 105.12 
L 60.725455 103.9104 
L 60.753636 103.9104 
L 60.838182 101.4912 
L 60.866364 101.4912 
L 60.922727 100.6848 
L 61.035455 100.6848 
L 61.12 100.08 
L 61.148182 100.08 
L 61.176364 99.6768 
L 61.260909 99.6768 
L 61.345455 96.6528 
L 61.373636 96.6528 
L 61.43 95.8464 
L 61.486364 95.8464 
L 61.570909 95.2416 
L 61.74 95.2416 
L 61.768182 94.6368 
L 61.880909 94.6368 
L 61.965455 93.6288 
L 61.993636 93.6288 
L 62.078182 92.4192 
L 62.219091 92.4192 
L 62.303636 91.4112 
L 62.331818 91.4112 
L 62.331818 91.2096 
L 62.444545 91.2096 
L 62.529091 90.4032 
L 62.641818 90.4032 
L 62.641818 90 
L 62.810909 90 
L 62.839091 89.5968 
L 63.064545 89.5968 
L 63.149091 88.3872 
L 63.177273 88.3872 
L 63.177273 88.1856 
L 63.374545 88.1856 
L 63.402727 87.5808 
L 63.6 87.5808 
L 63.684545 86.1696 
L 63.769091 86.1696 
L 63.769091 85.968 
L 63.881818 85.968 
L 63.938182 85.1616 
L 64.079091 85.1616 
L 64.079091 84.7584 
L 64.22 84.7584 
L 64.276364 84.3552 
L 64.417273 84.3552 
L 64.501818 83.1456 
L 64.53 83.1456 
L 64.614545 82.5408 
L 64.670909 82.5408 
L 64.670909 82.3392 
L 64.811818 82.3392 
L 64.896364 81.936 
L 65.065455 81.936 
L 65.121818 81.3312 
L 65.206364 81.3312 
L 65.206364 81.1296 
L 65.347273 81.1296 
L 65.431818 79.92 
L 65.572727 79.92 
L 65.600909 79.5168 
L 65.685455 79.5168 
L 65.685455 79.3152 
L 65.798182 79.3152 
L 65.882727 78.5088 
L 65.939091 78.5088 
L 65.995455 77.5008 
L 66.164545 77.5008 
L 66.192727 77.0976 
L 66.333636 77.0976 
L 66.39 76.4928 
L 66.502727 76.4928 
L 66.559091 76.0896 
L 66.643636 76.0896 
L 66.643636 75.888 
L 66.784545 75.888 
L 66.784545 75.6864 
L 67.038182 75.6864 
L 67.038182 75.4848 
L 67.179091 75.4848 
L 67.263636 74.6784 
L 67.291818 74.6784 
L 67.376364 74.0736 
L 67.404545 74.0736 
L 67.432727 73.4688 
L 67.573636 73.4688 
L 67.658182 73.0656 
L 67.770909 73.0656 
L 67.827273 72.4608 
L 67.94 72.4608 
L 67.94 72.0576 
L 68.193636 72.0576 
L 68.221818 71.4528 
L 68.362727 71.4528 
L 68.447273 70.848 
L 68.503636 70.848 
L 68.503636 70.6464 
L 68.700909 70.6464 
L 68.700909 70.4448 
L 68.87 70.4448 
L 68.87 70.2432 
L 69.095455 70.2432 
L 69.095455 69.6384 
L 69.377273 69.6384 
L 69.377273 69.4368 
L 69.49 69.4368 
L 69.574545 68.6304 
L 69.997273 68.6304 
L 69.997273 68.0256 
L 70.335455 68.0256 
L 70.335455 67.824 
L 70.617273 67.824 
L 70.617273 67.6224 
L 70.73 67.6224 
L 70.73 67.4208 
L 71.35 67.4208 
L 71.35 67.2192 
L 71.462727 67.2192 
L 71.462727 66.816 
L 71.603636 66.816 
L 71.688182 66.4128 
L 72.28 66.4128 
L 72.364545 66.0096 
L 72.533636 66.0096 
L 72.59 65.4048 
L 72.9 65.4048 
L 72.9 65.2032 
L 73.012727 65.2032 
L 73.012727 65.0016 
L 73.125455 65.0016 
L 73.125455 64.8 
L 73.435455 64.8 
L 73.435455 64.5984 
L 73.576364 64.5984 
L 73.576364 64.3968 
L 73.801818 64.3968 
L 73.801818 64.1952 
L 74.196364 64.1952 
L 74.280909 63.792 
L 74.309091 63.792 
L 74.309091 63.5904 
L 74.562727 63.5904 
L 74.647273 62.9856 
L 74.76 62.9856 
L 74.76 62.784 
L 74.957273 62.784 
L 75.013636 62.3808 
L 75.802727 62.3808 
L 75.802727 62.1792 
L 75.971818 62.1792 
L 76.056364 61.776 
L 76.140909 61.776 
L 76.140909 61.5744 
L 76.676364 61.5744 
L 76.704545 61.1712 
L 76.873636 61.1712 
L 76.873636 60.9696 
L 77.268182 60.9696 
L 77.352727 60.5664 
L 77.747273 60.5664 
L 77.831818 60.1632 
L 77.888182 60.1632 
L 77.972727 59.5584 
L 78.451818 59.5584 
L 78.508182 59.1552 
L 78.874545 59.1552 
L 78.874545 58.9536 
L 78.987273 58.9536 
L 79.043636 58.5504 
L 79.240909 58.5504 
L 79.240909 58.3488 
L 79.776364 58.3488 
L 79.860909 57.9456 
L 80.790909 57.9456 
L 80.819091 57.5424 
L 80.988182 57.5424 
L 80.988182 57.3408 
L 81.100909 57.3408 
L 81.100909 57.1392 
L 81.89 57.1392 
L 81.89 56.9376 
L 82.369091 56.9376 
L 82.369091 56.736 
L 82.679091 56.736 
L 82.679091 56.5344 
L 83.13 56.5344 
L 83.13 56.3328 
L 84.116364 56.3328 
L 84.116364 56.1312 
L 84.341818 56.1312 
L 84.341818 55.9296 
L 84.539091 55.9296 
L 84.623636 55.5264 
L 84.933636 55.5264 
L 84.933636 55.3248 
L 85.102727 55.3248 
L 85.102727 55.1232 
L 85.412727 55.1232 
L 85.440909 54.72 
L 85.779091 54.72 
L 85.779091 54.5184 
L 86.060909 54.5184 
L 86.117273 53.712 
L 86.483636 53.712 
L 86.483636 53.5104 
L 86.737273 53.5104 
L 86.793636 53.1072 
L 86.85 53.1072 
L 86.85 52.9056 
L 87.019091 52.9056 
L 87.019091 52.704 
L 87.16 52.704 
L 87.16 52.5024 
L 88.230909 52.5024 
L 88.230909 52.3008 
L 88.991818 52.3008 
L 88.991818 52.0992 
L 89.414545 52.0992 
L 89.470909 51.696 
L 89.583636 51.696 
L 89.583636 51.4944 
L 89.724545 51.4944 
L 89.809091 51.0912 
L 91.274545 51.0912 
L 91.274545 50.8896 
L 92.486364 50.8896 
L 92.486364 50.688 
L 92.880909 50.688 
L 92.880909 50.4864 
L 93.05 50.4864 
L 93.05 50.2848 
L 97.08 50.2848 
L 97.08 50.0832 
L 97.361818 50.0832 
L 97.361818 49.8816 
L 98.63 49.8816 
L 98.63 49.4784 
L 99.137273 49.4784 
L 99.137273 49.2768 
L 100.349091 49.2768 
L 100.349091 49.0752 
L 101.701818 49.0752 
L 101.701818 48.8736 
L 101.870909 48.8736 
L 101.870909 48.672 
L 102.068182 48.672 
L 102.068182 48.4704 
L 102.321818 48.4704 
L 102.321818 48.2688 
L 102.462727 48.2688 
L 102.519091 47.664 
L 102.66 47.664 
L 102.66 47.4624 
L 103.139091 47.4624 
L 103.139091 47.0592 
L 103.9 47.0592 
L 103.9 46.8576 
L 106.013636 46.8576 
L 106.013636 46.656 
L 106.605455 46.656 
L 106.605455 46.4544 
L 111.621818 46.4544 
L 111.621818 46.2528 
L 116.215455 46.2528 
L 116.215455 46.0512 
L 117.117273 46.0512 
L 117.117273 45.8496 
L 118.498182 45.8496 
L 118.498182 45.648 
L 119.963636 45.648 
L 119.963636 45.4464 
L 127.488182 45.4464 
L 127.488182 45.2448 
L 135.012727 45.2448 
L 135.012727 45.0432 
L 139.944545 45.0432 
L 139.944545 44.8416 
L 163.053636 44.8416 
L 163.053636 44.64 
L 311.318182 44.64 
L 311.318182 44.64 
" clip-path="url(#p707753741f)" style="fill: none; stroke: #8c564b; stroke-width: 1.5; stroke-linecap: square"/>
   </g>
   <g id="line2d_19">
    <path d="M 57.681818 246.24 
L 57.766364 151.488 
L 57.794545 151.488 
L 57.879091 113.9904 
L 57.907273 113.9904 
L 57.991818 109.3536 
L 58.02 109.3536 
L 58.104545 102.7008 
L 58.132727 102.7008 
L 58.217273 99.6768 
L 58.245455 99.6768 
L 58.301818 93.8304 
L 58.358182 93.8304 
L 58.442727 90.8064 
L 58.470909 90.8064 
L 58.555455 84.96 
L 58.611818 84.96 
L 58.696364 80.3232 
L 58.724545 80.3232 
L 58.780909 79.1136 
L 58.837273 79.1136 
L 58.893636 76.4928 
L 58.95 76.4928 
L 59.006364 74.6784 
L 59.090909 74.6784 
L 59.175455 73.2672 
L 59.203636 73.2672 
L 59.288182 72.0576 
L 59.316364 72.0576 
L 59.372727 70.0416 
L 59.429091 70.0416 
L 59.457273 69.0336 
L 59.682727 69.0336 
L 59.767273 68.4288 
L 59.823636 68.4288 
L 59.908182 68.0256 
L 59.964545 68.0256 
L 60.049091 66.816 
L 60.077273 66.816 
L 60.133636 66.4128 
L 60.19 66.4128 
L 60.274545 65.2032 
L 60.330909 65.2032 
L 60.330909 65.0016 
L 60.528182 65.0016 
L 60.584545 64.5984 
L 60.697273 64.5984 
L 60.781818 63.9936 
L 60.866364 63.9936 
L 60.922727 63.3888 
L 61.091818 63.3888 
L 61.12 62.9856 
L 61.204545 62.9856 
L 61.289091 61.1712 
L 61.486364 61.1712 
L 61.486364 60.9696 
L 61.796364 60.9696 
L 61.796364 60.768 
L 61.909091 60.768 
L 61.965455 60.3648 
L 62.106364 60.3648 
L 62.190909 59.76 
L 62.247273 59.76 
L 62.247273 59.5584 
L 62.388182 59.5584 
L 62.388182 59.3568 
L 62.500909 59.3568 
L 62.557273 58.9536 
L 62.641818 58.9536 
L 62.726364 58.1472 
L 62.895455 58.1472 
L 62.951818 57.744 
L 63.064545 57.744 
L 63.064545 57.5424 
L 63.402727 57.5424 
L 63.487273 56.5344 
L 63.684545 56.5344 
L 63.740909 55.9296 
L 64.050909 55.9296 
L 64.107273 54.9216 
L 64.276364 54.9216 
L 64.276364 54.72 
L 64.445455 54.72 
L 64.445455 54.5184 
L 64.614545 54.5184 
L 64.670909 54.1152 
L 65.065455 54.1152 
L 65.065455 53.9136 
L 65.516364 53.9136 
L 65.516364 53.712 
L 65.854545 53.712 
L 65.854545 53.5104 
L 66.305455 53.5104 
L 66.305455 53.3088 
L 66.756364 53.3088 
L 66.812727 52.9056 
L 66.869091 52.9056 
L 66.869091 52.704 
L 67.291818 52.704 
L 67.291818 52.5024 
L 67.714545 52.5024 
L 67.714545 52.3008 
L 68.052727 52.3008 
L 68.109091 51.8976 
L 69.630909 51.8976 
L 69.630909 51.696 
L 69.771818 51.696 
L 69.771818 51.2928 
L 69.940909 51.2928 
L 69.997273 50.8896 
L 70.081818 50.8896 
L 70.081818 50.688 
L 70.758182 50.688 
L 70.758182 50.4864 
L 72.223636 50.4864 
L 72.251818 49.8816 
L 72.533636 49.8816 
L 72.533636 49.68 
L 73.717273 49.68 
L 73.717273 49.4784 
L 73.83 49.4784 
L 73.83 49.2768 
L 74.788182 49.2768 
L 74.788182 49.0752 
L 75.633636 49.0752 
L 75.718182 48.672 
L 76.563636 48.672 
L 76.563636 48.4704 
L 77.183636 48.4704 
L 77.183636 48.2688 
L 77.578182 48.2688 
L 77.578182 48.0672 
L 78.254545 48.0672 
L 78.254545 47.8656 
L 82.763636 47.8656 
L 82.763636 47.664 
L 84.313636 47.664 
L 84.313636 47.4624 
L 84.961818 47.4624 
L 84.961818 47.2608 
L 85.440909 47.2608 
L 85.440909 47.0592 
L 90.147273 47.0592 
L 90.147273 46.8576 
L 95.22 46.8576 
L 95.22 46.656 
L 102.237273 46.656 
L 102.237273 46.4544 
L 104.012727 46.4544 
L 104.012727 46.2528 
L 107.676364 46.2528 
L 107.676364 46.0512 
L 108.521818 46.0512 
L 108.521818 45.8496 
L 112.382727 45.8496 
L 112.382727 45.648 
L 112.89 45.648 
L 112.89 45.4464 
L 119.484545 45.4464 
L 119.484545 45.2448 
L 153.161818 45.2448 
L 153.161818 45.0432 
L 163.476364 45.0432 
L 163.476364 44.8416 
L 177.68 44.8416 
L 177.68 44.64 
L 311.318182 44.64 
L 311.318182 44.64 
" clip-path="url(#p707753741f)" style="fill: none; stroke: #e377c2; stroke-width: 1.5; stroke-linecap: square"/>
   </g>
   <g id="line2d_20">
    <path d="M 57.681818 246.24 
L 57.766364 136.1664 
L 57.794545 136.1664 
L 57.879091 111.7728 
L 57.907273 111.7728 
L 57.991818 98.6688 
L 58.02 98.6688 
L 58.104545 93.6288 
L 58.132727 93.6288 
L 58.217273 86.5728 
L 58.273636 86.5728 
L 58.358182 85.5648 
L 58.386364 85.5648 
L 58.470909 82.5408 
L 58.499091 82.5408 
L 58.583636 81.3312 
L 58.611818 81.3312 
L 58.696364 79.1136 
L 58.724545 79.1136 
L 58.809091 77.2992 
L 58.837273 77.2992 
L 58.893636 75.0816 
L 58.95 75.0816 
L 59.034545 72.6624 
L 59.062727 72.6624 
L 59.119091 71.6544 
L 59.175455 71.6544 
L 59.26 70.0416 
L 59.372727 70.0416 
L 59.429091 69.0336 
L 59.485455 69.0336 
L 59.541818 67.2192 
L 59.598182 67.2192 
L 59.626364 66.6144 
L 59.739091 66.6144 
L 59.767273 66.0096 
L 59.88 66.0096 
L 59.908182 65.0016 
L 59.992727 65.0016 
L 60.049091 64.3968 
L 60.105455 64.3968 
L 60.19 63.9936 
L 60.274545 63.9936 
L 60.359091 62.9856 
L 60.81 62.9856 
L 60.838182 62.5824 
L 60.950909 62.5824 
L 60.950909 62.3808 
L 61.063636 62.3808 
L 61.063636 62.1792 
L 61.176364 62.1792 
L 61.260909 61.776 
L 61.289091 61.776 
L 61.317273 61.3728 
L 61.401818 61.3728 
L 61.401818 61.1712 
L 61.599091 61.1712 
L 61.599091 60.9696 
L 61.711818 60.9696 
L 61.74 60.3648 
L 61.937273 60.3648 
L 62.021818 59.76 
L 62.416364 59.76 
L 62.416364 59.5584 
L 62.726364 59.5584 
L 62.810909 58.752 
L 62.867273 58.752 
L 62.867273 58.3488 
L 63.064545 58.3488 
L 63.064545 58.1472 
L 63.205455 58.1472 
L 63.205455 57.9456 
L 63.346364 57.9456 
L 63.346364 57.744 
L 63.487273 57.744 
L 63.487273 57.5424 
L 63.966364 57.5424 
L 63.966364 57.3408 
L 64.135455 57.3408 
L 64.135455 56.9376 
L 64.332727 56.9376 
L 64.332727 56.736 
L 64.501818 56.736 
L 64.53 56.1312 
L 64.84 56.1312 
L 64.84 55.9296 
L 64.952727 55.9296 
L 65.009091 55.1232 
L 65.093636 55.1232 
L 65.093636 54.9216 
L 65.516364 54.9216 
L 65.572727 54.5184 
L 65.854545 54.5184 
L 65.854545 54.3168 
L 65.995455 54.3168 
L 65.995455 54.1152 
L 66.220909 54.1152 
L 66.220909 53.9136 
L 66.418182 53.9136 
L 66.418182 53.712 
L 66.897273 53.712 
L 66.953636 53.3088 
L 67.094545 53.3088 
L 67.094545 53.1072 
L 67.348182 53.1072 
L 67.348182 52.9056 
L 67.742727 52.9056 
L 67.742727 52.704 
L 67.911818 52.704 
L 67.911818 52.5024 
L 68.588182 52.5024 
L 68.588182 52.3008 
L 69.236364 52.3008 
L 69.236364 52.0992 
L 69.856364 52.0992 
L 69.856364 51.8976 
L 70.025455 51.8976 
L 70.025455 51.696 
L 70.222727 51.696 
L 70.307273 51.2928 
L 71.011818 51.2928 
L 71.011818 50.8896 
L 73.069091 50.8896 
L 73.069091 50.688 
L 74.506364 50.688 
L 74.590909 50.2848 
L 75.182727 50.2848 
L 75.182727 50.0832 
L 76.056364 50.0832 
L 76.056364 49.8816 
L 78.592727 49.8816 
L 78.649091 49.4784 
L 78.959091 49.4784 
L 78.959091 49.2768 
L 81.608182 49.2768 
L 81.608182 49.0752 
L 82.2 49.0752 
L 82.2 48.8736 
L 83.158182 48.8736 
L 83.158182 48.672 
L 83.44 48.672 
L 83.44 48.4704 
L 85.92 48.4704 
L 85.92 48.2688 
L 86.624545 48.2688 
L 86.624545 48.0672 
L 87.639091 48.0672 
L 87.639091 47.8656 
L 88.456364 47.8656 
L 88.540909 47.2608 
L 88.822727 47.2608 
L 88.822727 47.0592 
L 89.301818 47.0592 
L 89.301818 46.8576 
L 92.345455 46.8576 
L 92.345455 46.656 
L 95.107273 46.656 
L 95.107273 46.4544 
L 97.192727 46.4544 
L 97.192727 46.2528 
L 106.915455 46.2528 
L 106.915455 46.0512 
L 110.917273 46.0512 
L 110.917273 45.8496 
L 115.651818 45.8496 
L 115.651818 45.648 
L 116.638182 45.648 
L 116.638182 45.4464 
L 121.598182 45.4464 
L 121.598182 45.2448 
L 127.15 45.2448 
L 127.15 45.0432 
L 137.971818 45.0432 
L 137.971818 44.8416 
L 138.422727 44.8416 
L 138.422727 44.64 
L 311.318182 44.64 
L 311.318182 44.64 
" clip-path="url(#p707753741f)" style="fill: none; stroke: #7f7f7f; stroke-width: 1.5; stroke-linecap: square"/>
   </g>
   <g id="line2d_21">
    <path d="M 57.681818 246.24 
L 57.766364 108.3456 
L 57.794545 108.3456 
L 57.879091 91.2096 
L 57.907273 91.2096 
L 57.991818 82.7424 
L 58.048182 82.7424 
L 58.076364 75.4848 
L 58.189091 75.4848 
L 58.217273 74.0736 
L 58.301818 74.0736 
L 58.386364 70.2432 
L 58.414545 70.2432 
L 58.499091 68.4288 
L 58.555455 68.4288 
L 58.64 67.0176 
L 58.668182 67.0176 
L 58.724545 65.808 
L 58.780909 65.808 
L 58.865455 63.3888 
L 58.921818 63.3888 
L 59.006364 61.9776 
L 59.034545 61.9776 
L 59.090909 61.3728 
L 59.175455 61.3728 
L 59.26 59.76 
L 59.316364 59.76 
L 59.400909 58.752 
L 59.429091 58.752 
L 59.513636 58.3488 
L 59.739091 58.3488 
L 59.739091 58.1472 
L 59.908182 58.1472 
L 59.992727 56.736 
L 60.049091 56.736 
L 60.133636 56.1312 
L 60.19 56.1312 
L 60.19 55.728 
L 60.415455 55.728 
L 60.471818 55.1232 
L 60.528182 55.1232 
L 60.612727 54.3168 
L 60.725455 54.3168 
L 60.781818 53.712 
L 61.035455 53.712 
L 61.035455 53.3088 
L 61.289091 53.3088 
L 61.345455 52.5024 
L 61.880909 52.5024 
L 61.880909 52.3008 
L 61.993636 52.3008 
L 61.993636 52.0992 
L 62.557273 52.0992 
L 62.641818 51.696 
L 62.754545 51.696 
L 62.754545 51.4944 
L 63.092727 51.4944 
L 63.149091 50.8896 
L 63.91 50.8896 
L 63.994545 50.4864 
L 64.783636 50.4864 
L 64.783636 50.2848 
L 65.882727 50.2848 
L 65.910909 49.68 
L 65.995455 49.68 
L 65.995455 49.2768 
L 66.643636 49.2768 
L 66.643636 49.0752 
L 66.840909 49.0752 
L 66.840909 48.8736 
L 67.517273 48.8736 
L 67.517273 48.672 
L 68.25 48.672 
L 68.334545 48.2688 
L 69.18 48.2688 
L 69.264545 47.8656 
L 69.320909 47.8656 
L 69.320909 47.664 
L 69.602727 47.664 
L 69.659091 47.2608 
L 70.701818 47.2608 
L 70.701818 46.656 
L 71.800909 46.656 
L 71.800909 46.4544 
L 72.843636 46.4544 
L 72.843636 46.2528 
L 75.830909 46.2528 
L 75.830909 46.0512 
L 76.535455 46.0512 
L 76.535455 45.8496 
L 78.959091 45.8496 
L 78.959091 45.648 
L 84.088182 45.648 
L 84.088182 45.4464 
L 84.398182 45.4464 
L 84.398182 45.2448 
L 102.941818 45.2448 
L 102.941818 45.0432 
L 110.522727 45.0432 
L 110.522727 44.8416 
L 112.974545 44.8416 
L 112.974545 44.64 
L 311.318182 44.64 
L 311.318182 44.64 
" clip-path="url(#p707753741f)" style="fill: none; stroke: #bcbd22; stroke-width: 1.5; stroke-linecap: square"/>
   </g>
   <g id="line2d_22">
    <path d="M 57.681818 246.24 
L 57.766364 148.8672 
L 57.794545 148.8672 
L 57.879091 116.4096 
L 57.907273 116.4096 
L 57.991818 102.096 
L 58.02 102.096 
L 58.104545 90.4032 
L 58.132727 90.4032 
L 58.217273 85.3632 
L 58.245455 85.3632 
L 58.33 81.7344 
L 58.386364 81.7344 
L 58.470909 77.0976 
L 58.499091 77.0976 
L 58.583636 72.0576 
L 58.611818 72.0576 
L 58.696364 69.6384 
L 58.724545 69.6384 
L 58.809091 67.2192 
L 58.837273 67.2192 
L 58.893636 66.4128 
L 59.006364 66.4128 
L 59.090909 64.3968 
L 59.147273 64.3968 
L 59.175455 62.5824 
L 59.26 62.5824 
L 59.344545 60.3648 
L 59.372727 60.3648 
L 59.457273 59.76 
L 59.513636 59.76 
L 59.598182 59.1552 
L 59.654545 59.1552 
L 59.654545 58.9536 
L 59.823636 58.9536 
L 59.88 58.5504 
L 59.992727 58.5504 
L 59.992727 58.3488 
L 60.161818 58.3488 
L 60.218182 57.3408 
L 60.359091 57.3408 
L 60.359091 57.1392 
L 60.5 57.1392 
L 60.556364 56.1312 
L 60.612727 56.1312 
L 60.640909 55.728 
L 60.781818 55.728 
L 60.866364 54.9216 
L 60.979091 54.9216 
L 61.035455 54.5184 
L 61.091818 54.5184 
L 61.12 54.1152 
L 61.880909 54.1152 
L 61.880909 53.9136 
L 62.444545 53.9136 
L 62.500909 53.5104 
L 62.585455 53.5104 
L 62.585455 53.3088 
L 62.726364 53.3088 
L 62.726364 53.1072 
L 63.769091 53.1072 
L 63.825455 52.5024 
L 63.91 52.5024 
L 63.994545 52.0992 
L 64.050909 52.0992 
L 64.107273 51.0912 
L 64.84 51.0912 
L 64.84 50.8896 
L 65.093636 50.8896 
L 65.093636 50.688 
L 65.713636 50.688 
L 65.798182 49.8816 
L 66.361818 49.8816 
L 66.418182 49.4784 
L 67.376364 49.4784 
L 67.376364 49.2768 
L 67.63 49.2768 
L 67.686364 48.8736 
L 67.827273 48.8736 
L 67.827273 48.672 
L 69.208182 48.672 
L 69.208182 48.4704 
L 69.771818 48.4704 
L 69.771818 48.2688 
L 69.912727 48.2688 
L 69.912727 48.0672 
L 70.166364 48.0672 
L 70.166364 47.8656 
L 71.885455 47.8656 
L 71.885455 47.664 
L 71.998182 47.664 
L 71.998182 47.4624 
L 72.9 47.4624 
L 72.9 47.2608 
L 73.266364 47.2608 
L 73.266364 47.0592 
L 74.027273 47.0592 
L 74.027273 46.8576 
L 74.280909 46.8576 
L 74.280909 46.656 
L 74.393636 46.656 
L 74.393636 46.4544 
L 74.872727 46.4544 
L 74.872727 46.2528 
L 76.281818 46.2528 
L 76.281818 46.0512 
L 78.395455 46.0512 
L 78.395455 45.8496 
L 80.34 45.8496 
L 80.34 45.648 
L 83.637273 45.648 
L 83.637273 45.4464 
L 85.187273 45.4464 
L 85.187273 45.2448 
L 86.737273 45.2448 
L 86.737273 45.0432 
L 91.020909 45.0432 
L 91.020909 44.8416 
L 108.324545 44.8416 
L 108.324545 44.64 
L 311.318182 44.64 
L 311.318182 44.64 
" clip-path="url(#p707753741f)" style="fill: none; stroke: #17becf; stroke-width: 1.5; stroke-linecap: square"/>
   </g>
   <g id="patch_3">
    <path d="M 45 256.32 
L 45 34.56 
" style="fill: none; stroke: #000000; stroke-width: 0.8; stroke-linejoin: miter; stroke-linecap: square"/>
   </g>
   <g id="patch_4">
    <path d="M 324 256.32 
L 324 34.56 
" style="fill: none; stroke: #000000; stroke-width: 0.8; stroke-linejoin: miter; stroke-linecap: square"/>
   </g>
   <g id="patch_5">
    <path d="M 45 256.32 
L 324 256.32 
" style="fill: none; stroke: #000000; stroke-width: 0.8; stroke-linejoin: miter; stroke-linecap: square"/>
   </g>
   <g id="patch_6">
    <path d="M 45 34.56 
L 324 34.56 
" style="fill: none; stroke: #000000; stroke-width: 0.8; stroke-linejoin: miter; stroke-linecap: square"/>
   </g>
   <g id="text_15">
    <!-- ROC -->
    <g transform="translate(171.418125 28.56) scale(0.12 -0.12)">
     <defs>
      <path id="DejaVuSans-4f" d="M 2522 4238 
Q 1834 4238 1429 3725 
Q 1025 3213 1025 2328 
Q 1025 1447 1429 934 
Q 1834 422 2522 422 
Q 3209 422 3611 934 
Q 4013 1447 4013 2328 
Q 4013 3213 3611 3725 
Q 3209 4238 2522 4238 
z
M 2522 4750 
Q 3503 4750 4090 4092 
Q 4678 3434 4678 2328 
Q 4678 1225 4090 567 
Q 3503 -91 2522 -91 
Q 1538 -91 948 565 
Q 359 1222 359 2328 
Q 359 3434 948 4092 
Q 1538 4750 2522 4750 
z
" transform="scale(0.015625)"/>
      <path id="DejaVuSans-43" d="M 4122 4306 
L 4122 3641 
Q 3803 3938 3442 4084 
Q 3081 4231 2675 4231 
Q 1875 4231 1450 3742 
Q 1025 3253 1025 2328 
Q 1025 1406 1450 917 
Q 1875 428 2675 428 
Q 3081 428 3442 575 
Q 3803 722 4122 1019 
L 4122 359 
Q 3791 134 3420 21 
Q 3050 -91 2638 -91 
Q 1578 -91 968 557 
Q 359 1206 359 2328 
Q 359 3453 968 4101 
Q 1578 4750 2638 4750 
Q 3056 4750 3426 4639 
Q 3797 4528 4122 4306 
z
" transform="scale(0.015625)"/>
     </defs>
     <use xlink:href="#DejaVuSans-52"/>
     <use xlink:href="#DejaVuSans-4f" x="69.482422"/>
     <use xlink:href="#DejaVuSans-43" x="148.193359"/>
    </g>
   </g>
   <g id="legend_1">
    <g id="patch_7">
     <path d="M 243.4625 251.32 
L 317 251.32 
Q 319 251.32 319 249.32 
L 319 103.53875 
Q 319 101.53875 317 101.53875 
L 243.4625 101.53875 
Q 241.4625 101.53875 241.4625 103.53875 
L 241.4625 249.32 
Q 241.4625 251.32 243.4625 251.32 
z
" style="fill: #ffffff; opacity: 0.8; stroke: #cccccc; stroke-linejoin: miter"/>
    </g>
    <g id="line2d_23">
     <path d="M 245.4625 109.637188 
L 255.4625 109.637188 
L 265.4625 109.637188 
" style="fill: none; stroke: #1f77b4; stroke-width: 1.5; stroke-linecap: square"/>
    </g>
    <g id="text_16">
     <!-- 0: 0.992 -->
     <g transform="translate(273.4625 113.137188) scale(0.1 -0.1)">
      <defs>
       <path id="DejaVuSans-3a" d="M 750 794 
L 1409 794 
L 1409 0 
L 750 0 
L 750 794 
z
M 750 3309 
L 1409 3309 
L 1409 2516 
L 750 2516 
L 750 3309 
z
" transform="scale(0.015625)"/>
       <path id="DejaVuSans-20" transform="scale(0.015625)"/>
       <path id="DejaVuSans-39" d="M 703 97 
L 703 672 
Q 941 559 1184 500 
Q 1428 441 1663 441 
Q 2288 441 2617 861 
Q 2947 1281 2994 2138 
Q 2813 1869 2534 1725 
Q 2256 1581 1919 1581 
Q 1219 1581 811 2004 
Q 403 2428 403 3163 
Q 403 3881 828 4315 
Q 1253 4750 1959 4750 
Q 2769 4750 3195 4129 
Q 3622 3509 3622 2328 
Q 3622 1225 3098 567 
Q 2575 -91 1691 -91 
Q 1453 -91 1209 -44 
Q 966 3 703 97 
z
M 1959 2075 
Q 2384 2075 2632 2365 
Q 2881 2656 2881 3163 
Q 2881 3666 2632 3958 
Q 2384 4250 1959 4250 
Q 1534 4250 1286 3958 
Q 1038 3666 1038 3163 
Q 1038 2656 1286 2365 
Q 1534 2075 1959 2075 
z
" transform="scale(0.015625)"/>
      </defs>
      <use xlink:href="#DejaVuSans-30"/>
      <use xlink:href="#DejaVuSans-3a" x="63.623047"/>
      <use xlink:href="#DejaVuSans-20" x="97.314453"/>
      <use xlink:href="#DejaVuSans-30" x="129.101562"/>
      <use xlink:href="#DejaVuSans-2e" x="192.724609"/>
      <use xlink:href="#DejaVuSans-39" x="224.511719"/>
      <use xlink:href="#DejaVuSans-39" x="288.134766"/>
      <use xlink:href="#DejaVuSans-32" x="351.757812"/>
     </g>
    </g>
    <g id="line2d_24">
     <path d="M 245.4625 124.315313 
L 255.4625 124.315313 
L 265.4625 124.315313 
" style="fill: none; stroke: #ff7f0e; stroke-width: 1.5; stroke-linecap: square"/>
    </g>
    <g id="text_17">
     <!-- 1: 0.998 -->
     <g transform="translate(273.4625 127.815313) scale(0.1 -0.1)">
      <use xlink:href="#DejaVuSans-31"/>
      <use xlink:href="#DejaVuSans-3a" x="63.623047"/>
      <use xlink:href="#DejaVuSans-20" x="97.314453"/>
      <use xlink:href="#DejaVuSans-30" x="129.101562"/>
      <use xlink:href="#DejaVuSans-2e" x="192.724609"/>
      <use xlink:href="#DejaVuSans-39" x="224.511719"/>
      <use xlink:href="#DejaVuSans-39" x="288.134766"/>
      <use xlink:href="#DejaVuSans-38" x="351.757812"/>
     </g>
    </g>
    <g id="line2d_25">
     <path d="M 245.4625 138.993438 
L 255.4625 138.993438 
L 265.4625 138.993438 
" style="fill: none; stroke: #2ca02c; stroke-width: 1.5; stroke-linecap: square"/>
    </g>
    <g id="text_18">
     <!-- 2: 0.980 -->
     <g transform="translate(273.4625 142.493438) scale(0.1 -0.1)">
      <use xlink:href="#DejaVuSans-32"/>
      <use xlink:href="#DejaVuSans-3a" x="63.623047"/>
      <use xlink:href="#DejaVuSans-20" x="97.314453"/>
      <use xlink:href="#DejaVuSans-30" x="129.101562"/>
      <use xlink:href="#DejaVuSans-2e" x="192.724609"/>
      <use xlink:href="#DejaVuSans-39" x="224.511719"/>
      <use xlink:href="#DejaVuSans-38" x="288.134766"/>
      <use xlink:href="#DejaVuSans-30" x="351.757812"/>
     </g>
    </g>
    <g id="line2d_26">
     <path d="M 245.4625 153.671563 
L 255.4625 153.671563 
L 265.4625 153.671563 
" style="fill: none; stroke: #d62728; stroke-width: 1.5; stroke-linecap: square"/>
    </g>
    <g id="text_19">
     <!-- 3: 0.967 -->
     <g transform="translate(273.4625 157.171563) scale(0.1 -0.1)">
      <defs>
       <path id="DejaVuSans-33" d="M 2597 2516 
Q 3050 2419 3304 2112 
Q 3559 1806 3559 1356 
Q 3559 666 3084 287 
Q 2609 -91 1734 -91 
Q 1441 -91 1130 -33 
Q 819 25 488 141 
L 488 750 
Q 750 597 1062 519 
Q 1375 441 1716 441 
Q 2309 441 2620 675 
Q 2931 909 2931 1356 
Q 2931 1769 2642 2001 
Q 2353 2234 1838 2234 
L 1294 2234 
L 1294 2753 
L 1863 2753 
Q 2328 2753 2575 2939 
Q 2822 3125 2822 3475 
Q 2822 3834 2567 4026 
Q 2313 4219 1838 4219 
Q 1578 4219 1281 4162 
Q 984 4106 628 3988 
L 628 4550 
Q 988 4650 1302 4700 
Q 1616 4750 1894 4750 
Q 2613 4750 3031 4423 
Q 3450 4097 3450 3541 
Q 3450 3153 3228 2886 
Q 3006 2619 2597 2516 
z
" transform="scale(0.015625)"/>
       <path id="DejaVuSans-37" d="M 525 4666 
L 3525 4666 
L 3525 4397 
L 1831 0 
L 1172 0 
L 2766 4134 
L 525 4134 
L 525 4666 
z
" transform="scale(0.015625)"/>
      </defs>
      <use xlink:href="#DejaVuSans-33"/>
      <use xlink:href="#DejaVuSans-3a" x="63.623047"/>
      <use xlink:href="#DejaVuSans-20" x="97.314453"/>
      <use xlink:href="#DejaVuSans-30" x="129.101562"/>
      <use xlink:href="#DejaVuSans-2e" x="192.724609"/>
      <use xlink:href="#DejaVuSans-39" x="224.511719"/>
      <use xlink:href="#DejaVuSans-36" x="288.134766"/>
      <use xlink:href="#DejaVuSans-37" x="351.757812"/>
     </g>
    </g>
    <g id="line2d_27">
     <path d="M 245.4625 168.349688 
L 255.4625 168.349688 
L 265.4625 168.349688 
" style="fill: none; stroke: #9467bd; stroke-width: 1.5; stroke-linecap: square"/>
    </g>
    <g id="text_20">
     <!-- 4: 0.989 -->
     <g transform="translate(273.4625 171.849688) scale(0.1 -0.1)">
      <use xlink:href="#DejaVuSans-34"/>
      <use xlink:href="#DejaVuSans-3a" x="63.623047"/>
      <use xlink:href="#DejaVuSans-20" x="97.314453"/>
      <use xlink:href="#DejaVuSans-30" x="129.101562"/>
      <use xlink:href="#DejaVuSans-2e" x="192.724609"/>
      <use xlink:href="#DejaVuSans-39" x="224.511719"/>
      <use xlink:href="#DejaVuSans-38" x="288.134766"/>
      <use xlink:href="#DejaVuSans-39" x="351.757812"/>
     </g>
    </g>
    <g id="line2d_28">
     <path d="M 245.4625 183.027813 
L 255.4625 183.027813 
L 265.4625 183.027813 
" style="fill: none; stroke: #8c564b; stroke-width: 1.5; stroke-linecap: square"/>
    </g>
    <g id="text_21">
     <!-- 5: 0.980 -->
     <g transform="translate(273.4625 186.527813) scale(0.1 -0.1)">
      <defs>
       <path id="DejaVuSans-35" d="M 691 4666 
L 3169 4666 
L 3169 4134 
L 1269 4134 
L 1269 2991 
Q 1406 3038 1543 3061 
Q 1681 3084 1819 3084 
Q 2600 3084 3056 2656 
Q 3513 2228 3513 1497 
Q 3513 744 3044 326 
Q 2575 -91 1722 -91 
Q 1428 -91 1123 -41 
Q 819 9 494 109 
L 494 744 
Q 775 591 1075 516 
Q 1375 441 1709 441 
Q 2250 441 2565 725 
Q 2881 1009 2881 1497 
Q 2881 1984 2565 2268 
Q 2250 2553 1709 2553 
Q 1456 2553 1204 2497 
Q 953 2441 691 2322 
L 691 4666 
z
" transform="scale(0.015625)"/>
      </defs>
      <use xlink:href="#DejaVuSans-35"/>
      <use xlink:href="#DejaVuSans-3a" x="63.623047"/>
      <use xlink:href="#DejaVuSans-20" x="97.314453"/>
      <use xlink:href="#DejaVuSans-30" x="129.101562"/>
      <use xlink:href="#DejaVuSans-2e" x="192.724609"/>
      <use xlink:href="#DejaVuSans-39" x="224.511719"/>
      <use xlink:href="#DejaVuSans-38" x="288.134766"/>
      <use xlink:href="#DejaVuSans-30" x="351.757812"/>
     </g>
    </g>
    <g id="line2d_29">
     <path d="M 245.4625 197.705938 
L 255.4625 197.705938 
L 265.4625 197.705938 
" style="fill: none; stroke: #e377c2; stroke-width: 1.5; stroke-linecap: square"/>
    </g>
    <g id="text_22">
     <!-- 6: 0.993 -->
     <g transform="translate(273.4625 201.205938) scale(0.1 -0.1)">
      <use xlink:href="#DejaVuSans-36"/>
      <use xlink:href="#DejaVuSans-3a" x="63.623047"/>
      <use xlink:href="#DejaVuSans-20" x="97.314453"/>
      <use xlink:href="#DejaVuSans-30" x="129.101562"/>
      <use xlink:href="#DejaVuSans-2e" x="192.724609"/>
      <use xlink:href="#DejaVuSans-39" x="224.511719"/>
      <use xlink:href="#DejaVuSans-39" x="288.134766"/>
      <use xlink:href="#DejaVuSans-33" x="351.757812"/>
     </g>
    </g>
    <g id="line2d_30">
     <path d="M 245.4625 212.384063 
L 255.4625 212.384063 
L 265.4625 212.384063 
" style="fill: none; stroke: #7f7f7f; stroke-width: 1.5; stroke-linecap: square"/>
    </g>
    <g id="text_23">
     <!-- 7: 0.993 -->
     <g transform="translate(273.4625 215.884063) scale(0.1 -0.1)">
      <use xlink:href="#DejaVuSans-37"/>
      <use xlink:href="#DejaVuSans-3a" x="63.623047"/>
      <use xlink:href="#DejaVuSans-20" x="97.314453"/>
      <use xlink:href="#DejaVuSans-30" x="129.101562"/>
      <use xlink:href="#DejaVuSans-2e" x="192.724609"/>
      <use xlink:href="#DejaVuSans-39" x="224.511719"/>
      <use xlink:href="#DejaVuSans-39" x="288.134766"/>
      <use xlink:href="#DejaVuSans-33" x="351.757812"/>
     </g>
    </g>
    <g id="line2d_31">
     <path d="M 245.4625 227.062188 
L 255.4625 227.062188 
L 265.4625 227.062188 
" style="fill: none; stroke: #bcbd22; stroke-width: 1.5; stroke-linecap: square"/>
    </g>
    <g id="text_24">
     <!-- 8: 0.997 -->
     <g transform="translate(273.4625 230.562188) scale(0.1 -0.1)">
      <use xlink:href="#DejaVuSans-38"/>
      <use xlink:href="#DejaVuSans-3a" x="63.623047"/>
      <use xlink:href="#DejaVuSans-20" x="97.314453"/>
      <use xlink:href="#DejaVuSans-30" x="129.101562"/>
      <use xlink:href="#DejaVuSans-2e" x="192.724609"/>
      <use xlink:href="#DejaVuSans-39" x="224.511719"/>
      <use xlink:href="#DejaVuSans-39" x="288.134766"/>
      <use xlink:href="#DejaVuSans-37" x="351.757812"/>
     </g>
    </g>
    <g id="line2d_32">
     <path d="M 245.4625 241.740313 
L 255.4625 241.740313 
L 265.4625 241.740313 
" style="fill: none; stroke: #17becf; stroke-width: 1.5; stroke-linecap: square"/>
    </g>
    <g id="text_25">
     <!-- 9: 0.997 -->
     <g transform="translate(273.4625 245.240313) scale(0.1 -0.1)">
      <use xlink:href="#DejaVuSans-39"/>
      <use xlink:href="#DejaVuSans-3a" x="63.623047"/>
      <use xlink:href="#DejaVuSans-20" x="97.314453"/>
      <use xlink:href="#DejaVuSans-30" x="129.101562"/>
      <use xlink:href="#DejaVuSans-2e" x="192.724609"/>
      <use xlink:href="#DejaVuSans-39" x="224.511719"/>
      <use xlink:href="#DejaVuSans-39" x="288.134766"/>
      <use xlink:href="#DejaVuSans-37" x="351.757812"/>
     </g>
    </g>
   </g>
  </g>
 </g>
 <defs>
  <clipPath id="p707753741f">
   <rect x="45" y="34.56" width="279" height="221.76"/>
  </clipPath>
 </defs>
</svg>
